<svg width="36" height="36" viewBox="0 0 36 36" fill="none" xmlns="http://www.w3.org/2000/svg">
<path d="M35.0982 3.3362L35.1064 3.3297L35.0982 3.32117V3.31798L35.0742 3.2962L32.648 0.765961L31.9227 1.56393L31.3461 0.894772L31.0161 1.21253L31.6617 1.85098L31.07 2.50192L30.4384 1.76881L30.1083 2.08669L30.8136 2.78414L30.2173 3.44017L29.5306 2.64296L29.2005 2.96085L29.9654 3.71716L29.3782 4.363L29.1639 4.57807L29.1655 4.91418L29.4628 5.22429L21.2712 12.9141C18.9987 10.7604 15.7373 10.4566 13.847 12.2764C13.4118 12.6955 13.0864 13.1923 12.8677 13.7371L12.8587 13.7288C12.8587 13.7288 12.8448 13.782 12.8155 13.8758C12.7895 13.9475 12.7654 14.02 12.7429 14.0932C12.3545 15.1943 10.9162 18.4106 7.38879 18.3459C5.54358 18.1028 3.78534 18.5518 2.53049 19.7599C1.16375 21.0758 0.668879 23.0254 0.98612 25.067C1.07703 27.1606 2.04452 29.4339 3.82718 31.293C3.95928 31.4309 4.09432 31.5634 4.23126 31.6922C4.35421 31.8345 4.48111 31.9749 4.61322 32.1128C7.88964 35.5298 12.6723 36.2526 15.2954 33.7272C16.5734 32.4968 17.1009 30.722 16.9292 28.8304C17.007 25.2306 20.3321 23.8947 21.4663 23.5434C21.5414 23.5236 21.6161 23.5019 21.6899 23.4783C21.7864 23.4523 21.8411 23.4402 21.8411 23.4402L21.8331 23.4307C22.3952 23.2299 22.913 22.9182 23.3564 22.4914C25.2341 20.6836 25.1133 17.4629 23.1622 15.0735C23.0557 14.9062 22.9407 14.7418 22.8176 14.5809L30.8186 6.63829L31.0687 6.89923L32.1642 6.01729L32.769 6.6825L33.0991 6.36461L32.4679 5.77292L33.1474 5.22595L33.6767 5.80834L34.0069 5.49045L33.458 4.97584L34.1305 4.43448L34.5847 4.93418L34.9149 4.61629L34.4481 4.17877L35.1002 3.65396L35.0982 3.3362Z" fill="#CB6E41"/>
<path d="M32.2847 5.60116L32.4678 5.77279L33.1473 5.22582L32.9797 5.04158L32.2847 5.60116Z" fill="#A95C36"/>
<path d="M33.2747 4.8041L33.4579 4.97584L34.1304 4.43448L33.9628 4.25024L33.2747 4.8041Z" fill="#A95C36"/>
<path d="M35.0982 3.3362L34.2649 4.00714L34.4479 4.17876L35.1 3.65409L35.0982 3.3362Z" fill="#A95C36"/>
<path d="M31.0751 6.5747L30.9811 6.47672L30.8185 6.63815L31.0686 6.89908L32.1641 6.01715L31.9967 5.83292L31.0751 6.5747Z" fill="#A95C36"/>
<path d="M35.0983 3.31789L35.0742 3.29607L35.0983 3.32121V3.31789Z" fill="#A95C36"/>
<path d="M29.1718 4.5898L29.3781 4.36301L29.1638 4.57795L29.1654 4.91418L29.4627 5.22417L29.6299 5.06746L29.1718 4.5898Z" fill="#A95C36"/>
<path d="M30.6771 6.15973L22.5232 14.2194C22.6263 14.3375 22.724 14.4583 22.8175 14.5808L30.8185 6.63815L30.9811 6.47672L30.6771 6.15973Z" fill="#4A2A1B"/>
<path d="M22.8659 21.6825C22.4306 22.1015 21.9222 22.4074 21.3704 22.6047L21.3783 22.6141C21.3783 22.6141 21.3246 22.6258 21.2298 22.6514C21.1573 22.6746 21.0841 22.6958 21.0102 22.7153C19.8966 23.0602 16.6319 24.3717 16.5555 27.9061C16.7242 29.7632 16.2062 31.5058 14.9513 32.7139C12.3759 35.1934 7.6802 34.4839 4.46329 31.1289C4.3336 30.9936 4.20899 30.8557 4.08832 30.7161C3.9538 30.5897 3.82131 30.4595 3.69149 30.3242C2.18182 28.7497 1.26621 26.8724 0.985718 25.0669C1.07663 27.1605 2.04412 29.4337 3.82677 31.2929C3.95888 31.4307 4.09392 31.5632 4.23086 31.6921C4.35381 31.8344 4.48071 31.9748 4.61282 32.1126C7.88924 35.5297 12.6719 36.2525 15.295 33.7271C16.573 32.4967 17.1005 30.7218 16.9288 28.8303C17.0066 25.2305 20.3317 23.8946 21.4659 23.5433C21.541 23.5234 21.6157 23.5018 21.6895 23.4782C21.7861 23.4522 21.8407 23.4401 21.8407 23.4401L21.8327 23.4305C22.3949 23.2297 22.9126 22.9181 23.356 22.4913C25.2337 20.6835 25.113 17.4628 23.1618 15.0733C24.5952 17.3215 24.5381 20.0725 22.8659 21.6825Z" fill="#A95C36"/>
<path d="M15.2201 19.999C15.4668 20.2564 15.6669 20.5414 15.8222 20.8431L22.5233 14.2194L30.6772 6.15973L29.6299 5.06744L29.4628 5.22428L21.2712 12.9141L14.4024 19.3623C14.697 19.5298 14.9732 19.7415 15.2201 19.999ZM28.8934 5.95154L29.7656 6.86138L29.5181 7.09976L28.6458 6.19005L28.8934 5.95154ZM26.7199 8.044L27.5923 8.9537L27.3446 9.19209L26.4723 8.28225L26.7199 8.044ZM24.5465 10.1366L25.4187 11.0463L25.1711 11.2847L24.2988 10.375L24.5465 10.1366ZM22.373 12.2292L23.2454 13.139L22.9977 13.3774L22.1254 12.4677L22.373 12.2292ZM20.1996 14.3216L21.0718 15.2313L20.8242 15.4697L19.9519 14.5599L20.1996 14.3216ZM18.0261 16.4142L18.8985 17.3239L18.6508 17.5623L17.7785 16.6525L18.0261 16.4142ZM15.8527 18.5067L16.7249 19.4164L16.4774 19.6547L15.6051 18.745L15.8527 18.5067Z" fill="#693B25"/>
<path d="M10.3902 20.1557C9.1024 21.3955 9.06146 23.4466 10.2988 24.737C11.5359 26.0274 13.5829 26.0683 14.8707 24.8286C16.1585 23.5888 16.1993 21.5377 14.9621 20.2473C13.7248 18.9569 11.678 18.9159 10.3902 20.1557ZM14.4941 24.4357C13.4229 25.4671 11.7202 25.4329 10.6909 24.3595C9.6616 23.2861 9.69568 21.5799 10.7669 20.5485C11.8382 19.5171 13.5408 19.5513 14.5701 20.6247C15.5993 21.6981 15.5653 23.4044 14.4941 24.4357Z" fill="#F7B493"/>
<path d="M10.7668 20.5487C9.69572 21.58 9.66164 23.2862 10.6908 24.3596C11.7201 25.4329 13.4228 25.4671 14.494 24.4358C15.5653 23.4044 15.5992 21.6983 14.57 20.6248C13.5409 19.5513 11.8382 19.5173 10.7668 20.5487Z" fill="#693B25"/>
<path d="M12.1429 27.0664C12.3279 27.0547 12.4864 26.9167 12.4864 26.7223C12.4864 26.5451 12.3289 26.3666 12.1429 26.3783C12.0608 26.3835 11.9786 26.3848 11.8962 26.3811C11.8548 26.3792 11.8132 26.3761 11.7718 26.3719C11.7575 26.3705 11.7433 26.3687 11.729 26.3671C11.7213 26.3657 11.7044 26.363 11.6912 26.3605C11.5145 26.3277 11.3421 26.2808 11.1738 26.2176C11.1636 26.2139 11.093 26.1853 11.089 26.1841C11.0512 26.1677 11.0136 26.1505 10.9763 26.1327C10.8881 26.0902 10.8016 26.0441 10.7168 25.9951C10.6354 25.948 10.5559 25.8981 10.478 25.8457C10.4435 25.8227 10.4095 25.799 10.3755 25.7748C10.3561 25.7609 10.3369 25.7469 10.3177 25.7327C10.3188 25.7336 10.2783 25.7025 10.2667 25.6941C10.1118 25.5727 9.96521 25.4402 9.82699 25.3003C9.76291 25.2354 9.70048 25.1689 9.64008 25.1005C9.60791 25.0641 9.57613 25.0272 9.5451 24.9899C9.52959 24.9713 9.5142 24.9526 9.49895 24.9336C9.49996 24.9349 9.46703 24.8931 9.45838 24.8824C9.34382 24.7325 9.23892 24.5746 9.14457 24.4112C9.04718 24.2425 8.95906 24.0605 8.90884 23.9288C8.83802 23.7426 8.78258 23.5498 8.7485 23.3532C8.74634 23.3406 8.74443 23.328 8.7424 23.3154L8.73477 23.2534C8.7307 23.2113 8.72752 23.1691 8.72561 23.1268C8.72091 23.0224 8.72371 22.9184 8.73273 22.8143C8.74901 22.6289 8.56324 22.4701 8.3893 22.4701C8.19006 22.4701 8.06227 22.6284 8.04599 22.8143C7.97364 23.6405 8.32077 24.4749 8.79466 25.1344C9.30173 25.8401 9.98135 26.4517 10.7844 26.7967C11.2129 26.9807 11.6739 27.0961 12.1429 27.0664Z" fill="#693B25"/>
<path d="M28.8916 5.95096L28.644 6.18929L29.5163 7.09904L29.7639 6.86071L28.8916 5.95096Z" fill="#4A2A1B"/>
<path d="M26.7227 8.04228L26.475 8.28073L27.3474 9.19048L27.5951 8.95203L26.7227 8.04228Z" fill="#4A2A1B"/>
<path d="M24.5456 10.1385L24.298 10.3769L25.1702 11.2866L25.4179 11.0482L24.5456 10.1385Z" fill="#4A2A1B"/>
<path d="M22.372 12.231L22.1243 12.4694L22.9966 13.3791L23.2442 13.1407L22.372 12.231Z" fill="#4A2A1B"/>
<path d="M20.1986 14.3238L19.951 14.5622L20.8233 15.472L21.0709 15.2336L20.1986 14.3238Z" fill="#4A2A1B"/>
<path d="M18.0289 16.4135L17.7814 16.6518L18.6538 17.5616L18.9013 17.3232L18.0289 16.4135Z" fill="#4A2A1B"/>
<path d="M15.8514 18.5084L15.6038 18.7467L16.4761 19.6565L16.7236 19.4182L15.8514 18.5084Z" fill="#4A2A1B"/>
<path d="M6.05307 20.4089C5.67352 20.1919 5.2112 20.1778 4.80381 20.3361C3.96551 20.6618 2.4931 21.5353 2.39278 23.6719C2.25202 26.6703 5.08749 30.6207 8.5362 32.231C11.9849 33.8413 6.0017 29.4223 5.67975 25.2789C5.43206 22.0952 7.04522 20.9762 6.05307 20.4089Z" fill="#D7825A"/>
<path d="M10.275 32.3064C10.1155 32.46 10.1104 32.7141 10.2636 32.874C10.417 33.0339 10.6705 33.039 10.8301 32.8854C10.9896 32.7317 10.9946 32.4775 10.8414 32.3178C10.6882 32.1579 10.4347 32.1528 10.275 32.3064Z" fill="#D7825A"/>
<path d="M13.604 31.8053C13.4445 31.959 13.4394 32.213 13.5927 32.3729C13.7461 32.5328 13.9997 32.5379 14.1592 32.3843C14.3188 32.2307 14.3238 31.9766 14.1705 31.8167C14.0172 31.6568 13.7636 31.6517 13.604 31.8053Z" fill="#D7825A"/>
<path d="M11.6604 31.8475C11.3413 32.1547 11.3312 32.6629 11.6378 32.9826C11.9444 33.3023 12.4516 33.3125 12.7706 33.0053C13.0897 32.6981 13.0998 32.1899 12.7933 31.8701C12.4868 31.5504 11.9794 31.5403 11.6604 31.8475Z" fill="#D7825A"/>
<path d="M14.8665 13.7311C15.0789 13.8157 15.3194 13.7118 15.4039 13.4992C15.4883 13.2864 15.3847 13.0454 15.1723 12.9608C14.9601 12.8762 14.7194 12.98 14.635 13.1926C14.5506 13.4053 14.6542 13.6465 14.8665 13.7311Z" fill="#D7825A"/>
<path d="M18.4726 13.2167C18.6848 13.3013 18.9255 13.1975 19.0099 12.9847C19.0943 12.7721 18.9907 12.5309 18.7785 12.4463C18.5663 12.3615 18.3256 12.4655 18.2411 12.6782C18.1566 12.8911 18.2602 13.1321 18.4726 13.2167Z" fill="#D7825A"/>
<path d="M16.4647 13.3643C16.8894 13.5335 17.3704 13.3258 17.5394 12.9004C17.7083 12.4748 17.501 11.9927 17.0764 11.8235C16.6517 11.6543 16.1706 11.862 16.0017 12.2875C15.8328 12.7128 16.04 13.1949 16.4647 13.3643Z" fill="#D7825A"/>
<path d="M33.9628 4.25024L34.1304 4.43447L34.5845 4.93418L34.9147 4.61642L34.4478 4.17876L34.2649 4.00714L33.9628 4.25024Z" fill="#693B25"/>
<path d="M32.9796 5.04158L33.1472 5.22582L33.6765 5.80834L34.0067 5.49045L33.4578 4.97584L33.2746 4.80409L32.9796 5.04158Z" fill="#693B25"/>
<path d="M31.9966 5.83292L32.1641 6.01716L32.7688 6.68237L33.0989 6.36461L32.4677 5.77279L32.2846 5.60117L31.9966 5.83292Z" fill="#693B25"/>
<path d="M31.3461 0.894638L31.0159 1.21253L31.6616 1.85098L31.9226 1.5638L31.3461 0.894638Z" fill="#693B25"/>
<path d="M30.4383 1.7688L30.1081 2.08656L30.8134 2.784L31.0699 2.50192L30.4383 1.7688Z" fill="#693B25"/>
<path d="M29.5303 2.64284L29.2003 2.96072L29.9652 3.71703L30.2171 3.44004L29.5303 2.64284Z" fill="#693B25"/>
<path d="M32.8984 2.54015C33.0425 2.4014 33.047 2.17193 32.9087 2.02758C32.7701 1.88322 32.5411 1.87864 32.397 2.01726C32.2528 2.15601 32.2484 2.3856 32.3869 2.52996C32.5252 2.67444 32.7542 2.67903 32.8984 2.54015Z" fill="#F9C3A8"/>
<path d="M31.9213 3.48095C32.0654 3.3422 32.0699 3.11273 31.9316 2.96838C31.7931 2.82402 31.564 2.81943 31.4199 2.95806C31.2759 3.09681 31.2713 3.3264 31.4098 3.47075C31.5481 3.61511 31.7772 3.61969 31.9213 3.48095Z" fill="#F9C3A8"/>
<path d="M30.8616 4.50123C31.0056 4.36235 31.0102 4.13289 30.8717 3.98853C30.7333 3.84417 30.5043 3.83959 30.3601 3.97834C30.216 4.11709 30.2114 4.34655 30.3499 4.49104C30.4885 4.63526 30.7175 4.63985 30.8616 4.50123Z" fill="#F9C3A8"/>
<path d="M33.8373 3.51928C33.9815 3.38053 33.986 3.15107 33.8475 3.00658C33.709 2.8621 33.48 2.85764 33.3358 2.99639C33.1918 3.13514 33.1872 3.3646 33.3257 3.50909C33.4641 3.65344 33.6931 3.65803 33.8373 3.51928Z" fill="#F9C3A8"/>
<path d="M32.8601 4.46008C33.0042 4.32133 33.0088 4.09174 32.8704 3.94738C32.732 3.80302 32.5028 3.79844 32.3588 3.93706C32.2146 4.07581 32.2101 4.3054 32.3486 4.44976C32.4869 4.59424 32.7159 4.59883 32.8601 4.46008Z" fill="#F9C3A8"/>
<path d="M31.8004 5.48026C31.9445 5.34151 31.9491 5.11192 31.8106 4.96756C31.6721 4.82321 31.4431 4.81862 31.299 4.95737C31.1548 5.09612 31.1503 5.32559 31.2888 5.46994C31.4273 5.61443 31.6563 5.61901 31.8004 5.48026Z" fill="#F9C3A8"/>
</svg>
