<svg width="36" height="36" viewBox="0 0 36 36" fill="none" xmlns="http://www.w3.org/2000/svg">
<rect width="36" height="36" rx="16" fill="url(#paint0_linear_14_16859)"/>
<path d="M29.3722 0.764974C29.3249 0.41034 28.5147 0.127777 27.5192 0.127777C26.4933 0.127777 25.6617 0.427625 25.6617 0.797512V0.804378L25.6543 0.802089C25.5428 0.42216 24.7611 0.127777 23.8118 0.127777C22.8191 0.127777 22.0107 0.449743 21.9593 0.854712L21.9345 0.844417C21.7876 0.437923 21.0254 0.127777 20.1044 0.127777C19.1353 0.127777 18.3405 0.470969 18.2553 0.908732C18.2443 0.903139 18.2322 0.898061 18.221 0.892595C18.058 0.457247 17.304 0.127777 16.3971 0.127777C15.4307 0.127777 14.6374 0.50173 14.5486 0.979533C14.535 0.971143 14.5215 0.962632 14.5074 0.954497C14.3311 0.482415 13.5846 0.127777 12.6898 0.127777C11.7271 0.127777 10.9354 0.538215 10.8418 1.06406C10.8269 1.05263 10.8113 1.04157 10.7957 1.03064C10.6127 0.514319 9.87093 0.127777 8.98243 0.127777C7.95664 0.127777 7.12498 0.642826 7.12498 1.27824V1.36569V2.84651L6.16949 3.11713L6.82057 4.24496C6.81257 4.27445 6.80636 4.30432 6.80306 4.33534L5.87421 4.78327L5.87256 5.28293L6.75814 5.15939C6.56171 5.91454 6.58087 6.63359 6.64952 7.16186C6.70243 7.56835 6.87361 7.93226 7.12511 8.2025V22.7642V22.8517V33.9055V33.9929C7.12511 34.2433 7.25568 34.4744 7.47495 34.6631V34.7144C7.47495 35.3539 8.32158 35.8723 9.3659 35.8723C10.4102 35.8723 11.2568 35.354 11.2568 34.7144V34.6264V31.5595C11.3358 32.0981 12.1479 32.5217 13.1401 32.5217C14.1844 32.5217 15.031 32.0526 15.031 31.4739V31.3943V28.5871C15.1099 29.0739 15.922 29.4569 16.9142 29.4569C17.9585 29.4569 18.8052 29.0329 18.8052 28.5097V28.4377V26.1432C18.884 26.5874 19.6962 26.9368 20.6884 26.9368C21.7327 26.9368 22.5793 26.5499 22.5793 26.0725V26.0068V23.435C22.6581 23.8321 23.4704 24.1445 24.4625 24.1445C25.5069 24.1445 26.3535 23.7986 26.3535 23.3719V23.3132V20.5286C26.4323 20.8753 27.2445 21.1477 28.2367 21.1477C29.281 21.1477 30.1276 20.8459 30.1276 20.4736V20.4224V13.945V13.8938V1.35451V1.30328C30.1273 1.08287 29.8301 0.888016 29.3722 0.764974Z" fill="#C56736"/>
<path d="M29.3769 14.4243V19.793V19.8439C29.3769 20.2139 28.5452 20.5137 27.5193 20.5137C27.0773 20.5137 26.672 20.4578 26.3531 20.3649V20.5285C26.4319 20.8751 27.2442 21.1475 28.2364 21.1475C29.2807 21.1475 30.1273 20.8458 30.1273 20.4735V20.4222V13.9449C30.1273 14.1641 29.832 14.3271 29.3769 14.4243Z" fill="#783A18"/>
<path d="M29.3722 0.764984C29.3736 0.775788 29.3768 0.786466 29.3768 0.797398V0.848368V3.96381C29.6517 3.95453 29.9621 4.23176 29.9284 4.5208C29.8959 4.79968 29.8803 5.08071 29.8631 5.36086C30.0743 6.11983 30.1688 7.17356 29.6511 8.26975C29.6394 8.36597 29.6291 8.46245 29.6154 8.55854C29.5871 8.75569 29.5571 8.99199 29.443 9.16129C29.4227 9.19129 29.4002 9.21824 29.3768 9.24353V13.3067V13.3577V14.4245C29.8319 14.3273 30.1272 14.1643 30.1272 13.9449V13.8937V1.35439V1.30316C30.1272 1.08288 29.83 0.888026 29.3722 0.764984Z" fill="#84411A"/>
<path d="M25.6694 19.8987V22.6652V22.7235C25.6694 23.1475 24.8378 23.4912 23.8119 23.4912C23.3382 23.4912 22.9071 23.4172 22.5791 23.2966V23.4349C22.6579 23.8319 23.4701 24.1444 24.4623 24.1444C25.5066 24.1444 26.3533 23.7985 26.3533 23.3718V23.3131V20.5285V20.3649C25.9688 20.2529 25.7118 20.0869 25.6694 19.8987Z" fill="#82401D"/>
<path d="M25.6618 0.804382L25.6544 0.802094C25.6575 0.812262 25.6598 0.82243 25.6618 0.832598V0.804382Z" fill="#8F461F"/>
<path d="M21.962 22.7862V25.3415V25.4067C21.962 25.8809 21.1304 26.2655 20.1044 26.2655C19.5983 26.2655 19.1399 26.1716 18.8049 26.0198V26.1429C18.8837 26.5872 19.696 26.9366 20.6881 26.9366C21.7325 26.9366 22.5791 26.5497 22.5791 26.0722V26.0065V23.4347V23.2964C22.2322 23.1691 22.0019 22.9891 21.962 22.7862Z" fill="#783A18"/>
<path d="M21.9544 0.895392C21.9544 0.881664 21.9577 0.86819 21.9594 0.854716L21.9344 0.844421C21.943 0.868191 21.9501 0.891965 21.9543 0.91637V0.895392H21.9544Z" fill="#84411A"/>
<path d="M18.2546 25.477V27.7567V27.8282C18.2546 28.348 17.4231 28.7692 16.3971 28.7692C15.8559 28.7692 15.3703 28.6513 15.0308 28.4642V28.587C15.1097 29.0738 15.9218 29.4568 16.914 29.4568C17.9583 29.4568 18.8049 29.0327 18.8049 28.5096V28.4376V26.143V26.0199C18.4948 25.8793 18.2919 25.6891 18.2546 25.477Z" fill="#82401D"/>
<path d="M18.247 0.986521C18.247 0.960209 18.2504 0.934406 18.2554 0.90873C18.2443 0.903137 18.2323 0.898059 18.2209 0.892593C18.2331 0.925133 18.2415 0.958182 18.247 0.991866V0.986521Z" fill="#8F461F"/>
<path d="M14.5472 27.9052V30.6942V30.7734C14.5472 31.3483 13.7155 31.8144 12.6896 31.8144C12.1127 31.8144 11.5972 31.6669 11.2565 31.4357V31.5595C11.3354 32.0981 12.1475 32.5217 13.1397 32.5217C14.184 32.5217 15.0306 32.0526 15.0306 31.4739V31.3943V28.5871V28.4643C14.7588 28.3143 14.5817 28.1202 14.5472 27.9052Z" fill="#783A18"/>
<path d="M14.5396 1.06877C14.5396 1.03852 14.543 1.0089 14.5485 0.979534C14.5349 0.971145 14.5214 0.962633 14.5073 0.954498C14.5232 0.996571 14.5333 1.03991 14.5396 1.08376V1.06877Z" fill="#84411A"/>
<path d="M10.8398 30.8583V33.9055V33.9929C10.8398 34.6283 10.0083 35.1434 8.98221 35.1434C8.3607 35.1434 7.81176 34.9536 7.47461 34.6632V34.7144C7.47461 35.3539 8.32123 35.8723 9.36556 35.8723C10.4099 35.8723 11.2565 35.354 11.2565 34.7144V34.6264V31.5595V31.4357C11.0218 31.2762 10.8715 31.0766 10.8398 30.8583Z" fill="#82401D"/>
<path d="M10.8323 1.1688C10.8323 1.13347 10.8356 1.09852 10.8417 1.06407C10.8268 1.05263 10.8112 1.04157 10.7955 1.03064C10.8133 1.08072 10.8253 1.13195 10.8321 1.18419V1.1688H10.8323Z" fill="#8F461F"/>
<path d="M27.5193 13.9373C26.5446 13.9373 25.7468 13.7475 25.6694 13.4114V15.2314V15.2896V19.8984C25.7118 20.0867 25.9688 20.2527 26.3533 20.3647C26.6721 20.4576 27.0774 20.5135 27.5194 20.5135C28.5453 20.5135 29.377 20.2136 29.377 19.8436V19.7928V14.4241V13.3573C29.3768 13.7274 28.5452 13.9373 27.5193 13.9373Z" fill="#AE5A2E"/>
<path d="M28.5697 9.2739C28.4881 9.19928 28.4085 9.12263 28.3294 9.04535C28.0152 9.12492 27.6386 9.21683 27.2065 9.31584L27.0693 9.60107L27.7621 9.93511L27.7637 10.3914L26.757 10.2511L26.2483 11.3095L25.7928 11.3112L25.9557 10.1393L25.6693 10.0993V13.4114C25.7467 13.7475 26.5445 13.9373 27.5191 13.9373C28.5451 13.9373 29.3767 13.7274 29.3767 13.3575V13.3066V9.24339C29.161 9.47473 28.8193 9.50231 28.5697 9.2739Z" fill="#BA6131"/>
<path d="M25.6694 0.895388V0.953605V4.82026C25.8083 4.85152 25.9426 4.92411 26.0681 5.0141C26.9706 4.82865 27.8999 4.61028 28.8552 4.35428C28.9315 4.13082 29.1048 3.97575 29.3725 3.96368L29.3769 3.9638V0.848358V0.797388C29.3769 0.786456 29.3737 0.775778 29.3723 0.764974C29.325 0.41034 28.5148 0.127777 27.5193 0.127777C26.4934 0.127777 25.6617 0.427625 25.6617 0.797512V0.804378V0.832726C25.6658 0.853317 25.6694 0.874161 25.6694 0.895388Z" fill="#BA6131"/>
<path d="M23.8119 15.9542C22.8373 15.9542 22.0394 15.7369 21.962 15.3516V17.025V17.0903V22.7863C22.0019 22.9892 22.2322 23.1692 22.5791 23.2967C22.9073 23.4173 23.3382 23.4913 23.8119 23.4913C24.8378 23.4913 25.6694 23.1476 25.6694 22.7237V22.6653V19.8988V15.29C25.6694 15.7138 24.8378 15.9542 23.8119 15.9542Z" fill="#B86033"/>
<path d="M20.1045 17.8335C19.1298 17.8335 18.332 17.5904 18.2546 17.1593V18.6435V18.715V25.4769C18.2919 25.689 18.4948 25.8793 18.805 26.0199C19.14 26.1716 19.5983 26.2656 20.1045 26.2656C21.1304 26.2656 21.9621 25.8811 21.9621 25.4068V25.3416V22.7863V17.0903C21.9621 17.5646 21.1304 17.8335 20.1045 17.8335Z" fill="#AE5A2E"/>
<path d="M18.2469 0.991982C18.251 1.01728 18.2546 1.04295 18.2546 1.06888V1.14032V5.17781C18.5776 5.12404 18.9182 5.1801 19.2387 5.32678C19.5014 5.44715 19.7198 5.6321 19.917 5.83954C20.5766 5.7995 21.2585 5.74179 21.962 5.66425V1.05185V0.986645C21.962 0.962875 21.9584 0.939614 21.9544 0.91648C21.9502 0.892075 21.9431 0.868309 21.9346 0.844539C21.7878 0.438045 21.0255 0.127899 20.1045 0.127899C19.1354 0.127899 18.3406 0.471091 18.2555 0.908854C18.2505 0.93453 18.2471 0.960333 18.2471 0.986645V0.991982H18.2469Z" fill="#BA6131"/>
<path d="M18.2546 10.5923V17.1595C18.3322 17.5905 19.1299 17.8337 20.1045 17.8337C21.1304 17.8337 21.9621 17.5647 21.9621 17.0903V17.025V15.3516V10.2613C20.7831 10.4147 19.5302 10.5351 18.2546 10.5923Z" fill="#BA6131"/>
<path d="M16.3972 19.5295C15.4225 19.5295 14.6248 19.2631 14.5474 18.7908V20.612V20.6912V27.905C14.5818 28.1201 14.759 28.3142 15.0308 28.464C15.3704 28.6511 15.856 28.7691 16.3972 28.7691C17.4231 28.7691 18.2546 28.3477 18.2546 27.8281V27.7565V25.4768V18.715C18.2546 19.2348 17.423 19.5295 16.3972 19.5295Z" fill="#B86033"/>
<path d="M12.6897 21.5923C11.715 21.5923 10.9172 21.2975 10.8398 20.7751V22.7641V22.8516V26.1558C11.4334 26.5175 11.8141 27.1864 11.773 27.9298C11.7362 28.5961 11.369 29.1652 10.8398 29.4878V30.8583C10.8716 31.0767 11.0218 31.2762 11.2566 31.4356C11.5973 31.6668 12.1128 31.8143 12.6897 31.8143C13.7156 31.8143 14.5473 31.3482 14.5473 30.7732V30.6941V27.9052V20.6913C14.5471 21.2663 13.7155 21.5923 12.6897 21.5923ZM14.1346 24.876C14.1049 25.4136 13.6458 25.8252 13.1092 25.7954C12.5726 25.7657 12.1617 25.3058 12.1914 24.7682C12.2212 24.2307 12.6803 23.8191 13.2168 23.8489C13.7534 23.8787 14.1642 24.3386 14.1346 24.876Z" fill="#AE5A2E"/>
<path d="M10.8322 1.18419C10.8362 1.21533 10.8398 1.24647 10.8398 1.27825V1.36569V5.28103C10.9434 5.30187 11.0494 5.32247 11.1572 5.34281C11.4898 5.13244 11.8857 5.02999 12.2696 5.18112C12.5089 5.27543 12.6989 5.42809 12.8537 5.61431C13.3845 5.6846 13.9494 5.74599 14.5473 5.79468V1.24786V1.16868C14.5473 1.13995 14.5438 1.11173 14.5397 1.08364C14.5333 1.03979 14.5233 0.99644 14.5075 0.954367C14.3311 0.482285 13.5846 0.127655 12.6899 0.127655C11.7271 0.127655 10.9354 0.538085 10.8418 1.06394C10.8357 1.09838 10.8324 1.13334 10.8324 1.16868V1.18419H10.8322Z" fill="#BA6131"/>
<path d="M12.6897 21.5923C13.7156 21.5923 14.5473 21.2662 14.5473 20.6913V20.6121V18.7909V11.3826C14.4097 11.3364 14.2817 11.2586 14.1781 11.1563C13.9839 10.9643 13.8834 10.7302 13.7812 10.4837C12.7662 10.3762 11.7768 10.2028 10.8398 9.9491V20.775C10.9171 21.2975 11.715 21.5923 12.6897 21.5923Z" fill="#BA6131"/>
<path d="M10.8398 33.9928V33.9053V30.8581V29.4876C10.5153 29.6855 10.1301 29.7911 9.72211 29.7684C8.64885 29.7088 7.82697 28.789 7.88648 27.714C7.946 26.6389 8.86419 25.8156 9.93745 25.8752C10.2685 25.8936 10.5752 25.9943 10.8399 26.1556V22.8514C10.8399 23.4868 10.0084 23.8472 8.98233 23.8472C7.95653 23.8472 7.12488 23.4868 7.12488 22.8514V33.9052V33.9926C7.12488 34.243 7.25545 34.4741 7.47472 34.6629C7.812 34.9532 8.36081 35.1431 8.98233 35.1431C10.0083 35.1432 10.8398 34.6282 10.8398 33.9928ZM8.44748 32.9956C7.91085 32.9658 7.49997 32.506 7.52966 31.9683C7.55936 31.4307 8.01858 31.0192 8.55508 31.0489C9.09171 31.0787 9.50258 31.5387 9.47276 32.0761C9.4432 32.6139 8.98423 33.0255 8.44748 32.9956Z" fill="#B86033"/>
<path d="M29.7254 7.53708C29.7058 7.78189 29.6806 8.02606 29.6512 8.26973C30.169 7.17354 30.0744 6.11981 29.8633 5.36084L29.8619 5.38373C29.8177 6.10164 29.7823 6.82018 29.7254 7.53708Z" fill="#F6A421"/>
<path d="M28.5985 7.72151C28.61 7.59135 28.6207 7.46119 28.6296 7.3309C28.5564 7.38988 28.4727 7.43971 28.3795 7.47796C28.452 7.55957 28.5248 7.64092 28.5985 7.72151Z" fill="#F6A421"/>
<path d="M25.7856 5.86094C25.7976 5.85443 25.8001 5.85072 25.7957 5.85034L25.7856 5.86094Z" fill="#F6A421"/>
<path d="M27.2386 6.16964C27.342 5.98928 27.4955 5.8281 27.7008 5.75082C28.046 5.61507 28.443 5.72565 28.7029 5.99449C28.7285 5.50207 28.7591 5.01028 28.8162 4.52091C28.8231 4.46181 28.8374 4.40677 28.8552 4.3544C27.8999 4.6104 26.9706 4.82877 26.068 5.01422C26.2148 5.11959 26.3497 5.24722 26.4648 5.35729C26.7353 5.61558 26.9895 5.89064 27.2386 6.16964Z" fill="#F6A421"/>
<path d="M25.1001 8.65158L26.0959 9.13167L26.2372 8.11518L27.5299 8.64294L27.2066 9.31585C27.6386 9.21671 28.0152 9.1248 28.3294 9.04536C27.6683 8.39926 27.0884 7.66916 26.4734 6.98099C26.2037 6.67923 25.9284 6.38116 25.6333 6.10406C25.6026 6.1572 25.5726 6.21083 25.5432 6.26485C25.496 6.35205 25.4518 6.4409 25.407 6.52937C25.781 6.56395 26.1228 6.8371 26.2353 7.22402C26.3801 7.72279 26.0752 8.22335 25.5576 8.35465C25.2997 8.41719 25.0439 8.38083 24.84 8.24928C24.7794 8.21025 24.7242 8.16387 24.6742 8.11226C24.4016 8.73611 24.135 9.36314 23.8494 9.98063C24.1103 9.93703 24.3653 9.89254 24.6135 9.84767L25.1001 8.65158Z" fill="#F6A421"/>
<path d="M22.4125 8.90172C22.5634 9.08857 22.7142 9.27542 22.8651 9.46227C22.9912 9.18695 23.1143 8.91011 23.2355 8.63263C23.0968 8.77321 22.9108 8.87184 22.6948 8.90235C22.5982 8.9162 22.5035 8.91519 22.4125 8.90172Z" fill="#F6A421"/>
<path d="M21.3391 7.57242C21.4401 7.6975 21.5411 7.82257 21.6421 7.94764C21.6529 7.75215 21.7238 7.57191 21.837 7.42459C21.9796 7.23431 22.1882 7.09932 22.434 7.06411C22.9233 6.99522 23.3921 7.34642 23.4808 7.84482C23.4926 7.91129 23.4965 7.977 23.494 8.04132C23.774 7.40273 24.053 6.76286 24.3604 6.13685C24.4774 5.89852 24.5977 5.66032 24.737 5.43407C24.7759 5.37077 24.8169 5.30733 24.8605 5.24594C23.8579 5.42427 22.8912 5.56193 21.962 5.66438C21.2586 5.74205 20.5767 5.79963 19.917 5.83967C20.0563 5.98623 20.1854 6.14359 20.3106 6.29879C20.6535 6.7232 20.9963 7.14775 21.3391 7.57242Z" fill="#F6A421"/>
<path d="M18.5853 6.26649C18.5855 6.26408 18.5719 6.26319 18.553 6.26294C18.5692 6.26624 18.5849 6.26891 18.5853 6.26649Z" fill="#F6A421"/>
<path d="M18.5523 6.2627C18.4934 6.24821 18.5221 6.25635 18.5523 6.2627V6.2627Z" fill="#F6A421"/>
<path d="M18.4163 6.26535C18.4169 6.26778 18.4253 6.26714 18.4355 6.26523C18.4244 6.26548 18.4164 6.26574 18.4163 6.26535Z" fill="#F6A421"/>
<path d="M18.4423 6.26384C18.4754 6.25685 18.5192 6.24198 18.4423 6.26384V6.26384Z" fill="#F6A421"/>
<path d="M18.2546 10.5923C19.5301 10.5352 20.783 10.4147 21.962 10.2613C21.9999 10.2563 22.0376 10.2513 22.0754 10.2463C21.6026 9.66071 21.1298 9.07499 20.6569 8.48927C20.6225 8.63392 20.554 8.76726 20.4581 8.87911C20.3002 9.05668 20.0693 9.17274 19.8067 9.1871C19.2796 9.21494 18.842 8.82458 18.8288 8.30611C18.8161 7.79945 19.2069 7.35915 19.7022 7.33309C19.7118 7.33258 19.7215 7.33335 19.7311 7.33309C19.5203 7.0626 19.3063 6.79224 19.0634 6.55519C19.0185 6.51133 18.9708 6.47117 18.9236 6.42973L18.9223 6.42909C18.897 6.41422 18.8736 6.39566 18.8486 6.38002C18.8267 6.36642 18.7939 6.3405 18.7627 6.32347C18.7554 6.32131 18.7455 6.31812 18.73 6.31304C18.7025 6.30402 18.6757 6.29436 18.6478 6.28648C18.6202 6.27872 18.5921 6.27288 18.5642 6.26589L18.5528 6.26309C18.5186 6.26258 18.4669 6.26448 18.4378 6.26537C18.4193 6.27071 18.398 6.27872 18.3793 6.28126H18.3787C18.3662 6.28838 18.3536 6.2955 18.3412 6.30185L18.3265 6.30897L18.3261 6.30935C18.3118 6.32296 18.2971 6.33617 18.2829 6.35041C18.264 6.3691 18.2459 6.38867 18.2283 6.40863C18.2211 6.41689 18.2038 6.44079 18.1961 6.45134C18.1819 6.47345 18.1655 6.49874 18.1595 6.50815C18.1304 6.55429 18.1028 6.60145 18.0758 6.64887C17.9508 6.86889 17.8318 7.09235 17.7101 7.31428C17.6541 7.41622 17.5982 7.51829 17.5423 7.62023C17.7333 7.79081 17.8558 8.03778 17.8579 8.31805C17.8618 8.8303 17.4374 9.25815 16.9099 9.23616C16.8284 9.23375 16.7505 9.22053 16.6762 9.19981C16.5085 9.50449 16.3388 9.80815 16.1586 10.1056C16.0539 10.2787 15.944 10.4488 15.8308 10.6164C16.6389 10.6384 17.451 10.6283 18.2546 10.5923Z" fill="#F6A421"/>
<path d="M14.9595 10.3631V10.3634C14.9814 10.3828 15.0024 10.3925 14.9595 10.3631Z" fill="#F6A421"/>
<path d="M14.9349 10.3281C14.9426 10.3388 14.9498 10.3495 14.9563 10.3603L14.9591 10.3628L14.9595 10.363C14.9482 10.3397 14.9387 10.3293 14.9349 10.3281Z" fill="#F6A421"/>
<path d="M14.9568 10.3612L14.9694 10.3862L14.9595 10.3632L14.9591 10.3628L14.9568 10.3612Z" fill="#F6A421"/>
<path d="M14.8427 10.1614C14.8453 10.1637 14.8516 10.1752 14.8593 10.1909C14.8554 10.179 14.8479 10.1623 14.8424 10.1607L14.8427 10.1614Z" fill="#F6A421"/>
<path d="M11.9277 6.24073L11.9419 6.24264L11.9248 6.23792L11.9277 6.24073Z" fill="#F6A421"/>
<path d="M11.8582 6.22647L11.8592 6.22685L11.8599 6.2266L11.8582 6.22647Z" fill="#F6A421"/>
<path d="M13.6717 7.31757C13.8329 7.2258 14.0202 7.18118 14.2132 7.20343C14.7027 7.26647 15.0741 7.70068 15.0363 8.21305C15.0078 8.60226 14.7342 8.92257 14.3725 9.02337C14.4081 9.10942 14.4432 9.19586 14.4789 9.28191C14.5836 9.53473 14.6881 9.78768 14.7927 10.0405C14.8037 10.0671 14.8148 10.0936 14.8257 10.1203C14.9508 9.93843 15.0708 9.75311 15.1854 9.56448C15.4874 9.06735 15.7701 8.55777 16.0484 8.04565C16.0864 7.924 16.1471 7.81292 16.2258 7.71771C16.3915 7.41074 16.5569 7.10377 16.7242 6.79858C16.8511 6.56712 16.976 6.33425 17.1054 6.10431C17.1415 6.04025 17.1802 5.97619 17.2205 5.91276C16.2679 5.90526 15.3763 5.8623 14.5471 5.7948C13.9492 5.74612 13.3844 5.68473 12.8535 5.61444C12.9992 5.7896 13.1138 5.9945 13.2065 6.21058C13.3645 6.57818 13.5187 6.94756 13.6717 7.31757Z" fill="#F6A421"/>
<path d="M11.9035 6.23056L11.9026 6.22992L11.8986 6.22711H11.8903L11.9028 6.23107L11.9035 6.23056Z" fill="#F6A421"/>
<path d="M11.9146 6.23459L11.9204 6.23778L11.919 6.23612L11.9146 6.23459Z" fill="#F6A421"/>
<path d="M11.8751 6.22239L11.8713 6.22125L11.8601 6.22659C11.8688 6.22697 11.8801 6.22723 11.8904 6.22723C11.8804 6.22405 11.8733 6.22176 11.8751 6.22239Z" fill="#F6A421"/>
<path d="M11.812 6.24146C11.7941 6.24679 11.7777 6.252 11.7782 6.25404C11.7794 6.25823 11.7964 6.2501 11.812 6.24146Z" fill="#F6A421"/>
<path d="M12.0136 6.33198L12.0082 6.32371C11.9666 6.26092 11.9936 6.3049 12.0136 6.33198Z" fill="#F6A421"/>
<path d="M11.9006 6.2271L11.905 6.22953L11.9107 6.22595L11.9106 6.22583L11.9006 6.2271Z" fill="#F6A421"/>
<path d="M11.961 6.26667C11.9612 6.26642 11.9531 6.26131 11.9435 6.25531L11.961 6.26667Z" fill="#F6A421"/>
<path d="M13.7707 10.4588C13.5615 9.95303 13.3522 9.44739 13.143 8.94176C12.9337 8.43599 12.7245 7.93035 12.5152 7.42458C12.4612 7.29404 12.4071 7.1635 12.3532 7.03308C12.3262 6.96787 12.2991 6.90267 12.2722 6.83734C12.2587 6.8048 12.2451 6.77213 12.2318 6.73946L12.2287 6.73209C12.254 6.79539 12.2163 6.70388 12.2087 6.68722C12.1983 6.66422 12.1876 6.64133 12.1767 6.61858C12.1575 6.57854 12.1375 6.53901 12.1162 6.50011C12.092 6.45588 12.0667 6.41241 12.0391 6.37008L12.021 6.34314C11.9942 6.32509 11.9493 6.27272 11.9258 6.24462L11.9059 6.23217L11.9026 6.23116C11.89 6.237 11.8719 6.23281 11.8591 6.22696L11.856 6.22849C11.8515 6.23039 11.8328 6.23548 11.8149 6.24069L11.7982 6.25123C11.7803 6.26267 11.7615 6.27259 11.7436 6.2839L11.7208 6.2984C11.7079 6.30806 11.6908 6.32077 11.6847 6.32623C11.6468 6.35928 11.6104 6.39411 11.5751 6.43021C11.4992 6.50787 11.4064 6.59634 11.3497 6.68976C11.4196 6.5746 11.3245 6.72459 11.3073 6.74849L11.2971 6.76336C11.3708 6.7598 11.4455 6.76374 11.5206 6.77785C11.7607 6.82856 11.9574 6.97639 12.0863 7.17544C12.216 7.37043 12.2784 7.61232 12.2342 7.86578C12.1903 8.11745 12.0466 8.33264 11.8466 8.46636C11.6474 8.59601 11.3905 8.64813 11.1298 8.59309C10.8556 8.54047 10.6396 8.37154 10.514 8.15241C10.4318 8.31663 10.3494 8.48086 10.2633 8.64292C10.1583 8.84058 10.0481 9.03569 9.92713 9.22393C9.85074 9.34265 9.77169 9.46748 9.68274 9.58264C10.0577 9.72004 10.444 9.84219 10.8399 9.94947C11.777 10.2032 12.7662 10.3766 13.7812 10.4841L13.7707 10.4588Z" fill="#F6A421"/>
<path d="M7.77337 8.67648C7.69356 8.35158 7.61539 8.02619 7.53748 7.70092C7.33293 6.84674 7.13713 5.99041 6.94642 5.13293L6.75773 5.15937C6.5613 5.91453 6.58046 6.63358 6.64911 7.16184C6.70202 7.56834 6.8732 7.93225 7.1247 8.20249C7.20756 8.29146 7.29905 8.37039 7.3979 8.43725C7.52048 8.51987 7.6461 8.59919 7.77337 8.67648Z" fill="#F6A421"/>
<path d="M8.30173 6.03327C8.51846 5.94493 8.75207 5.93399 8.96437 6.02843C9.06766 6.07953 9.17082 6.13457 9.2519 6.21402C9.33425 6.29193 9.40049 6.38675 9.44884 6.49225C9.5449 6.70313 9.57002 6.95734 9.49147 7.20127C9.4128 7.44532 9.24188 7.63178 9.02083 7.73322C8.92503 7.7772 8.81983 7.80428 8.71045 7.81444C8.73888 7.93215 8.76616 8.04998 8.79497 8.16756C8.8395 8.3497 8.88481 8.53172 8.93011 8.71374C8.95371 8.6779 8.97896 8.64294 9.00167 8.60646C9.12082 8.41669 9.22957 8.22081 9.33349 8.02252C9.7596 7.21067 10.1225 6.34989 10.7594 5.67291C10.8751 5.55 11.0101 5.43573 11.1574 5.34255C11.0497 5.32209 10.9436 5.3015 10.84 5.28078C10.1316 5.13842 9.5199 4.98754 9.00738 4.84531L8.13208 4.96746L8.32724 5.86662L8.26341 5.91696C8.27267 5.95738 8.28181 5.9978 8.2912 6.03809L8.30173 6.03327Z" fill="#F6A421"/>
<path d="M9.02647 9.08616C9.03448 9.09799 9.04465 9.11375 9.04554 9.12099C9.0435 9.10485 9.03499 9.09036 9.0238 9.07663L9.02647 9.08616Z" fill="#F6A421"/>
<path d="M8.67629 9.01816C8.67616 9.01702 8.69904 9.00392 8.71493 8.99503C8.69281 9.00075 8.67565 9.00837 8.67629 9.01816Z" fill="#F6A421"/>
<path d="M9.49129 7.2014C9.56997 6.95748 9.54484 6.70326 9.44866 6.49239C9.40044 6.38689 9.33407 6.29206 9.25172 6.21414C9.17064 6.1347 9.06747 6.07967 8.96418 6.02857C8.75189 5.93413 8.51829 5.94505 8.30155 6.03339L8.29089 6.03835C8.42756 6.63131 8.56701 7.22339 8.71027 7.8147C8.81965 7.80441 8.92485 7.77746 9.02065 7.73348C9.2417 7.63192 9.41275 7.44545 9.49129 7.2014Z" fill="#FCC367"/>
<path d="M11.1299 8.59272C11.3906 8.64789 11.6474 8.59565 11.8467 8.466C12.0468 8.33228 12.1903 8.11708 12.2342 7.86541C12.2785 7.61195 12.216 7.37019 12.0864 7.17508C11.9574 6.97615 11.7608 6.8282 11.5207 6.77748C11.4456 6.76324 11.3708 6.7593 11.2971 6.76299C11.2715 6.79883 11.2462 6.83506 11.2216 6.87154C11.0971 7.0561 10.9843 7.24842 10.8778 7.44391C10.7508 7.67703 10.6327 7.91473 10.5139 8.15204C10.6397 8.37118 10.8556 8.5401 11.1299 8.59272Z" fill="#FCC367"/>
<path d="M15.0362 8.21291C15.074 7.70053 14.7026 7.26633 14.2131 7.20328C14.0202 7.18117 13.8329 7.22578 13.6716 7.31742C13.9065 7.88547 14.1385 8.45479 14.3725 9.0231C14.7341 8.92243 15.0077 8.60212 15.0362 8.21291Z" fill="#FCC367"/>
<path d="M17.8579 8.31791C17.8557 8.03764 17.7333 7.79067 17.5423 7.62009C17.3343 7.99925 17.1265 8.37841 16.9185 8.75771C16.8377 8.90502 16.757 9.05235 16.676 9.19967C16.7504 9.22039 16.8284 9.2336 16.9098 9.23602C17.4374 9.25801 17.8618 8.83016 17.8579 8.31791Z" fill="#FCC367"/>
<path d="M16.2259 7.71759C16.1472 7.81279 16.0864 7.92376 16.0485 8.04553C16.1076 7.93622 16.1668 7.8269 16.2259 7.71759Z" fill="#FCC367"/>
<path d="M18.8288 8.30608C18.842 8.82456 19.2796 9.21478 19.8068 9.18708C20.0692 9.17271 20.3002 9.05678 20.4581 8.87909C20.554 8.76723 20.6225 8.63389 20.6569 8.48924C20.4453 8.22714 20.2335 7.96492 20.0218 7.70282C19.9241 7.58169 19.8279 7.45738 19.7311 7.33306C19.7215 7.33332 19.7118 7.33256 19.7022 7.33306C19.2069 7.35912 18.8161 7.7993 18.8288 8.30608Z" fill="#FCC367"/>
<path d="M22.4339 7.06399C22.1882 7.0992 21.9795 7.23432 21.8369 7.42447C21.7237 7.57179 21.6528 7.75203 21.642 7.94752C21.8988 8.26555 22.1555 8.58357 22.4123 8.9016C22.5033 8.9152 22.5981 8.91609 22.6945 8.90224C22.9105 8.87173 23.0965 8.77309 23.2352 8.63251C23.3081 8.46562 23.3806 8.29872 23.4537 8.13221C23.4671 8.10196 23.4805 8.07145 23.4937 8.04107C23.4962 7.97675 23.4923 7.91104 23.4805 7.84456C23.3919 7.3463 22.9233 6.9951 22.4339 7.06399Z" fill="#FCC367"/>
<path d="M25.5575 8.35464C26.0751 8.22334 26.3801 7.72278 26.2352 7.224C26.1227 6.83708 25.781 6.56393 25.4069 6.52936C25.3182 6.70439 25.2318 6.88068 25.1484 7.05825C24.9847 7.40678 24.8284 7.75901 24.6742 8.11225C24.7241 8.16385 24.7793 8.21024 24.84 8.24926C25.044 8.38069 25.2998 8.41718 25.5575 8.35464Z" fill="#FCC367"/>
<path d="M27.7009 5.75083C27.4955 5.82823 27.3421 5.98928 27.2386 6.16965C27.2979 6.23612 27.3572 6.3026 27.416 6.36921C27.7389 6.73528 28.0543 7.1114 28.3797 7.47785C28.4728 7.43959 28.5566 7.38977 28.6298 7.33079C28.6605 6.88578 28.6798 6.43988 28.703 5.99436C28.4431 5.72565 28.0459 5.61507 27.7009 5.75083Z" fill="#FCC367"/>
<path d="M6.8204 4.24484C6.81239 4.27433 6.80616 4.3042 6.80286 4.33522L6.85751 4.3089L6.8204 4.24484Z" fill="#E03E41"/>
<path d="M28.8552 4.35439C28.8374 4.40676 28.8231 4.4618 28.8163 4.52091C28.7592 5.01028 28.7286 5.50206 28.703 5.99448C28.6796 6.44 28.6605 6.88602 28.6298 7.3309C28.6208 7.46119 28.61 7.59135 28.5987 7.72151C28.5249 7.64092 28.4522 7.5597 28.3797 7.47796C28.0543 7.11151 27.739 6.7354 27.416 6.36932C27.3572 6.30272 27.298 6.23624 27.2386 6.16976C26.9894 5.89076 26.7354 5.6157 26.4649 5.35728C26.3498 5.24721 26.215 5.11959 26.0681 5.01421C25.9426 4.92422 25.8083 4.85165 25.6694 4.82038C25.5185 4.78631 25.3624 4.80067 25.2067 4.89829C25.0661 4.98625 24.9561 5.11107 24.8604 5.24581C24.8168 5.30733 24.7758 5.37063 24.737 5.43393C24.5976 5.66018 24.4773 5.89838 24.3603 6.13671C24.053 6.76272 23.774 7.40259 23.4939 8.04119C23.4806 8.07157 23.4673 8.10194 23.454 8.13232C23.3809 8.29884 23.3083 8.46573 23.2354 8.63263C23.1143 8.91011 22.9912 9.18682 22.865 9.46226C22.7142 9.27541 22.5633 9.08857 22.4124 8.90172C22.1556 8.58369 21.8989 8.26566 21.6421 7.94763C21.5411 7.82256 21.44 7.69749 21.339 7.57241C20.9963 7.14774 20.6534 6.7232 20.3106 6.29865C20.1853 6.14345 20.0562 5.98609 19.917 5.83954C19.7198 5.63222 19.5014 5.44715 19.2387 5.32678C18.9182 5.1801 18.5776 5.12404 18.2545 5.17781C17.999 5.22039 17.7545 5.33148 17.5396 5.52138C17.4146 5.63183 17.3116 5.7695 17.2206 5.91275C17.1803 5.97618 17.1416 6.04024 17.1055 6.1043C16.976 6.33424 16.8512 6.56711 16.7243 6.79857C16.557 7.10376 16.3916 7.41073 16.2259 7.7177C16.1669 7.82714 16.1078 7.93632 16.0485 8.04563C15.7702 8.55776 15.4877 9.06734 15.1855 9.56446C15.0708 9.75309 14.9509 9.93842 14.8258 10.1203C14.8149 10.0937 14.8038 10.0671 14.7928 10.0405C14.6881 9.78766 14.5835 9.53472 14.479 9.2819C14.4435 9.19584 14.4082 9.10954 14.3727 9.02336C14.1388 8.45505 13.9067 7.88573 13.6718 7.31768C13.5188 6.94767 13.3647 6.57829 13.2068 6.21069C13.114 5.99473 12.9994 5.78983 12.8538 5.61455C12.6989 5.42834 12.509 5.27555 12.2697 5.18136C11.8858 5.03023 11.4898 5.13256 11.1573 5.34305C11.01 5.43609 10.875 5.55049 10.7593 5.6734C10.1224 6.35026 9.75949 7.21104 9.33338 8.02301C9.22933 8.2213 9.12071 8.4173 9.00156 8.60695C8.97872 8.6433 8.9536 8.67826 8.92999 8.71423C8.88482 8.53221 8.83952 8.35019 8.79485 8.16804C8.76605 8.05047 8.73889 7.93263 8.71034 7.81493C8.56708 7.22362 8.42763 6.63155 8.29096 6.03859C8.2817 5.99817 8.27244 5.95775 8.26317 5.91745L7.9349 6.17599L7.30412 5.08349L6.94641 5.13332C7.13713 5.99079 7.33292 6.84713 7.53747 7.7013C7.61539 8.02657 7.69355 8.35197 7.77337 8.67686C7.82248 8.87718 7.87158 9.07751 7.92336 9.27719C7.99809 9.56522 8.13362 9.83431 8.39882 9.98926C8.75628 10.1978 9.15789 10.07 9.45456 9.82541C9.53933 9.7555 9.61382 9.67199 9.68259 9.58289C9.77154 9.46773 9.8506 9.34291 9.92699 9.22419C10.0479 9.03582 10.1582 8.84083 10.2631 8.64318C10.3494 8.48099 10.4318 8.31689 10.5139 8.15266C10.6326 7.91535 10.7508 7.67765 10.8778 7.44454C10.9842 7.24904 11.0971 7.05685 11.2215 6.87216C11.2462 6.83568 11.2714 6.79946 11.297 6.76361L11.3073 6.74874C11.3244 6.72484 11.4196 6.57486 11.3497 6.69002C11.4064 6.59659 11.4991 6.50826 11.5751 6.43046C11.6102 6.39449 11.6468 6.35967 11.6847 6.32649C11.6908 6.32115 11.708 6.30831 11.7207 6.29865L11.7436 6.28416C11.7615 6.27285 11.7802 6.26293 11.7981 6.25149L11.8149 6.24094C11.8328 6.23573 11.8514 6.23064 11.856 6.22874L11.859 6.22722L11.8579 6.22684L11.8598 6.22696L11.871 6.22162L11.8748 6.22276C11.873 6.22213 11.8801 6.22442 11.89 6.22747H11.8984L11.9023 6.23014L11.9032 6.23078L11.9024 6.23128L11.9057 6.2323L11.9257 6.24476C11.9491 6.27285 11.9941 6.32534 12.0208 6.34326L12.039 6.37021C12.0664 6.41254 12.0919 6.45601 12.116 6.50025C12.1373 6.53927 12.1574 6.5788 12.1765 6.61872C12.1874 6.64147 12.1981 6.66434 12.2085 6.68735C12.216 6.704 12.2537 6.79564 12.2286 6.73222L12.2316 6.73959C12.2451 6.77226 12.2586 6.8048 12.2721 6.83746C12.2991 6.9028 12.326 6.96801 12.353 7.03322C12.407 7.16376 12.461 7.29429 12.5151 7.42471C12.7243 7.93047 12.9336 8.43612 13.1428 8.94188C13.3521 9.44752 13.5613 9.95316 13.7705 10.4589L13.781 10.4838C13.883 10.7303 13.9836 10.9644 14.1779 11.1564C14.2814 11.2586 14.4095 11.3364 14.547 11.3828C14.7134 11.4387 14.8937 11.4475 15.0643 11.3864C15.3818 11.2731 15.5581 11.011 15.7435 10.7461C15.7733 10.7034 15.8013 10.6595 15.8305 10.6164C15.9437 10.4488 16.0536 10.2787 16.1583 10.1056C16.3385 9.80813 16.5083 9.50446 16.6759 9.19978C16.7568 9.05247 16.8375 8.90515 16.9184 8.75783C17.1263 8.37866 17.3342 7.99937 17.5422 7.6202C17.598 7.51826 17.6541 7.41619 17.7099 7.31425C17.8316 7.09232 17.9506 6.86887 18.0756 6.64884C18.1027 6.60143 18.1302 6.55426 18.1594 6.50812C18.1653 6.49872 18.1817 6.47343 18.1959 6.45131C18.2037 6.44076 18.2209 6.41686 18.2281 6.4086C18.2457 6.38852 18.2638 6.36907 18.2827 6.35039C18.2968 6.33628 18.3116 6.32293 18.326 6.30933L18.3264 6.30895L18.3411 6.30183C18.3534 6.2956 18.3661 6.28836 18.3785 6.28124H18.3791C18.3978 6.27857 18.4191 6.27069 18.4376 6.26535C18.4668 6.26446 18.5185 6.26255 18.5526 6.26306L18.564 6.26586C18.5919 6.27285 18.62 6.2787 18.6477 6.28645C18.6756 6.29446 18.7023 6.30412 18.7299 6.31301C18.7455 6.3181 18.7554 6.32115 18.7625 6.32344C18.7937 6.34047 18.8266 6.3664 18.8484 6.38C18.8734 6.39563 18.8969 6.4142 18.9221 6.42907L18.9234 6.4297C18.9705 6.47114 19.0182 6.51131 19.0632 6.55516C19.3061 6.79209 19.5202 7.06258 19.7309 7.33307C19.8278 7.45738 19.9239 7.58169 20.0216 7.70283C20.2333 7.96492 20.4451 8.22714 20.6567 8.48924C21.1295 9.07483 21.6025 9.66056 22.0753 10.2463L22.0786 10.2505C22.25 10.4627 22.4214 10.6751 22.5929 10.8874C22.8126 11.1595 23.3153 11.0716 23.4663 10.7747C23.5994 10.5127 23.7258 10.2474 23.8492 9.98074C24.1349 9.36324 24.4015 8.73622 24.674 8.11237C24.8282 7.75913 24.9847 7.40692 25.1482 7.05838C25.2316 6.88081 25.318 6.70451 25.4067 6.52948C25.4515 6.44101 25.4958 6.35217 25.543 6.26497C25.5723 6.21095 25.6022 6.15731 25.6331 6.10417C25.9281 6.3814 26.2035 6.67947 26.4731 6.9811C27.088 7.66926 27.668 8.39925 28.3292 9.04548C28.4083 9.12276 28.4879 9.1994 28.5695 9.27401C28.8191 9.50243 29.1608 9.47485 29.3766 9.24351C29.4001 9.21821 29.4227 9.19127 29.4429 9.16127C29.557 8.99196 29.5869 8.7558 29.6153 8.55852C29.6292 8.46243 29.6394 8.36595 29.651 8.26973C29.6804 8.02606 29.7057 7.78189 29.7251 7.53707C29.7821 6.82005 29.8175 6.10151 29.8616 5.38372L29.863 5.36084C29.8802 5.08069 29.8958 4.79953 29.9282 4.52078C29.962 4.23186 29.6516 3.95451 29.3766 3.96379L29.3722 3.96366C29.1048 3.97574 28.9314 4.13094 28.8552 4.35439ZM8.67621 9.01814C8.67557 9.00836 8.6927 9.00073 8.71478 8.99501C8.69892 9.00391 8.67608 9.017 8.67621 9.01814ZM9.02643 9.08615L9.02376 9.07662C9.0348 9.09034 9.04343 9.10484 9.04546 9.12098C9.04457 9.11373 9.03442 9.09785 9.02643 9.08615ZM11.7782 6.25404C11.7777 6.252 11.7941 6.24679 11.812 6.24145C11.7964 6.2501 11.7794 6.25823 11.7782 6.25404ZM11.9049 6.22951L11.9005 6.22709L11.9104 6.22582L11.9049 6.22951ZM11.9145 6.23459L11.9189 6.23598L11.9202 6.23764L11.9145 6.23459ZM11.9277 6.24069L11.9248 6.23777L11.9417 6.24247L11.9277 6.24069ZM11.9434 6.25531C11.9529 6.26116 11.9611 6.26637 11.9608 6.26662L11.9434 6.25531ZM12.0081 6.32357L12.0136 6.33183C11.9936 6.30488 11.9667 6.2609 12.0081 6.32357ZM14.8427 10.1614L14.8424 10.1607C14.8479 10.1623 14.8554 10.179 14.8593 10.1909C14.8515 10.1752 14.8453 10.1637 14.8427 10.1614ZM14.9693 10.3861L14.9567 10.3613L14.959 10.363L14.9562 10.3604C14.9498 10.3496 14.9425 10.3389 14.9349 10.3283C14.9387 10.3295 14.9481 10.3398 14.9594 10.3632C15.0022 10.3926 14.9812 10.3828 14.9594 10.3635L14.9693 10.3861ZM18.4162 6.26535C18.4163 6.26573 18.4243 6.26548 18.4354 6.26522C18.4252 6.267 18.417 6.26776 18.4162 6.26535ZM18.4422 6.26382C18.4753 6.25683 18.519 6.24196 18.4422 6.26382V6.26382ZM18.5521 6.26268C18.4934 6.24819 18.522 6.25632 18.5521 6.26268V6.26268ZM18.553 6.26294C18.5719 6.26319 18.5855 6.26407 18.5852 6.26649C18.5848 6.2689 18.5692 6.26624 18.553 6.26294ZM25.7856 5.86089L25.7956 5.85034C25.7999 5.85059 25.7975 5.85428 25.7856 5.86089Z" fill="#E03E41"/>
<path d="M14.9591 10.3629L14.9595 10.3632V10.3631L14.9591 10.3629Z" fill="#E03E41"/>
<path d="M11.9028 6.23104L11.8904 6.2271C11.8801 6.2271 11.8688 6.22685 11.8601 6.22647L11.8594 6.22685C11.8721 6.2327 11.8903 6.23689 11.9028 6.23104Z" fill="#E03E41"/>
<path d="M26.2373 8.11517L26.0959 9.1318L25.1002 8.65158L24.6136 9.84767L24.5734 9.94644L25.6695 10.0993L25.9559 10.1394L25.7929 11.3112L26.2485 11.3096L26.7572 10.2511L27.7638 10.3916L27.7623 9.93525L27.0695 9.60121L27.2066 9.31597L27.53 8.64306L26.2373 8.11517Z" fill="#FFE879"/>
<path d="M7.30417 5.083L7.93482 6.17563L8.26322 5.91709L8.32705 5.86676L8.13189 4.96758L9.00719 4.84543L9.36553 4.79548L8.78868 3.37784L7.88178 3.81496L7.63992 2.70047L7.12474 2.84639L6.16924 3.11713L6.82033 4.24485L6.85738 4.30904L6.80282 4.33522L5.87396 4.78315L5.87231 5.28282L6.75777 5.15926L6.94646 5.13296L7.30417 5.083Z" fill="#FFE879"/>
<path d="M13.2167 23.8488C12.6801 23.8191 12.221 24.2307 12.1913 24.7682C12.1616 25.3058 12.5725 25.7656 13.1091 25.7954C13.6458 25.8251 14.1049 25.4135 14.1346 24.876C14.1643 24.3386 13.7535 23.8787 13.2167 23.8488Z" fill="#D3723F"/>
<path d="M9.47306 32.0764C9.50275 31.5388 9.09188 31.0789 8.55538 31.0492C8.01875 31.0194 7.55965 31.4309 7.52996 31.9686C7.50026 32.5061 7.91101 32.966 8.44777 32.9959C8.98427 33.0255 9.44324 32.6139 9.47306 32.0764Z" fill="#D3723F"/>
<path d="M11.7729 27.9298C11.814 27.1863 11.4333 26.5176 10.8397 26.1557C10.575 25.9944 10.2683 25.8938 9.93729 25.8753C8.86403 25.8157 7.94584 26.639 7.88633 27.7141C7.82694 28.7892 8.6487 29.7088 9.72195 29.7686C10.1299 29.7912 10.5152 29.6855 10.8396 29.4878C11.3689 29.1652 11.7361 28.5961 11.7729 27.9298Z" fill="#D3723F"/>
<defs>
<linearGradient id="paint0_linear_14_16859" x1="0" y1="18" x2="36" y2="18" gradientUnits="userSpaceOnUse">
<stop stop-color="#83247C"/>
<stop offset="1" stop-color="#363787"/>
</linearGradient>
</defs>
</svg>
