<svg width="36" height="36" viewBox="0 0 36 36" fill="none" xmlns="http://www.w3.org/2000/svg">
<rect width="36" height="36" rx="16" fill="url(#paint0_linear_14_16868)"/>
<path d="M31.7938 27.8618V18.2922C32.092 18.0363 32.2521 17.7671 32.2521 17.4888V15.4423H32.2475C32.2504 15.4155 32.2521 15.3886 32.2521 15.3616C32.2521 14.1478 29.2195 13.101 24.8408 12.6172C24.8138 12.3542 24.7412 12.1137 24.612 11.921L35.8721 1.65854L35.5281 1.2668L35.294 1.14893L24.2838 11.1836L23.9502 11.4877C23.9258 11.4826 23.9012 11.478 23.8763 11.474C23.0887 11.1745 21.8484 11.7196 21.2408 12.3632C20.6319 12.3423 20.0094 12.3314 19.376 12.3314C18.7755 12.3314 18.185 12.3413 17.6063 12.3601C17.5084 12.2463 17.3965 12.1416 17.2675 12.0521C16.5371 11.5451 15.0768 11.3134 14.364 11.8486C14.341 11.8592 14.3188 11.8705 14.2967 11.8821L13.8922 11.6825L0.542652 5.09144L0.350108 5.26958L0.127686 5.74131L13.7803 12.4821C13.7642 12.5321 13.7516 12.5834 13.7423 12.6363C9.45472 13.1281 6.50016 14.1637 6.50016 15.3617C6.50016 15.3887 6.50169 15.4156 6.50476 15.4425H6.50016V17.489C6.50016 17.7672 6.66015 18.0365 6.95829 18.2923V27.7631C6.45305 27.9044 6.11648 28.4004 6.18977 28.9359C6.22552 29.1973 6.35346 29.4231 6.53553 29.5863C6.51613 29.6483 6.50527 29.7112 6.50208 29.7743H6.50016V29.8118V31.8208C6.50016 33.4943 12.2649 34.8511 19.3759 34.8511C26.487 34.8511 32.2517 33.4943 32.2517 31.8208V29.8646C32.6285 29.6582 32.8589 29.2346 32.797 28.7828C32.7265 28.265 32.2965 27.8859 31.7938 27.8618Z" fill="#F59D26"/>
<path d="M19.3762 32.8418C18.0825 32.8418 16.8337 32.7967 15.6558 32.7132C15.5971 32.7136 15.5391 32.7097 15.4824 32.7006C10.2748 32.3122 6.50037 31.1657 6.50037 29.8116V31.8207C6.50037 33.4942 12.2651 34.8509 19.3761 34.8509C26.4872 34.8509 32.2519 33.4942 32.2519 31.8207V29.8645L32.249 29.866C32.1255 31.5145 26.4099 32.8418 19.3762 32.8418Z" fill="#DC2C2F"/>
<path d="M6.50061 29.7741V29.8115C6.50061 29.799 6.50188 29.7865 6.50252 29.7741H6.50061Z" fill="#DC2C2F"/>
<path d="M32.2493 29.8661C32.1393 29.9259 32.0179 29.968 31.8868 29.9862C31.7032 30.0115 31.5242 29.9881 31.3625 29.9263L31.3547 29.9327C31.3301 29.9539 31.3045 29.9751 31.278 29.9959L31.2522 30.0164C31.1806 30.0714 31.1022 30.126 31.0173 30.1796C31.0076 30.1857 30.9975 30.1917 30.9876 30.1979C30.9532 30.2192 30.9177 30.2405 30.8813 30.2615C30.8706 30.2676 30.8598 30.2739 30.8491 30.28C30.8038 30.3058 30.7572 30.3314 30.7088 30.3567L30.7069 30.3577C30.6553 30.3847 30.6018 30.4113 30.5469 30.4381L30.524 30.4488C30.4774 30.4712 30.4295 30.4932 30.3805 30.5153C30.3692 30.5204 30.3577 30.5255 30.3462 30.5306C30.2938 30.5539 30.2402 30.5768 30.1853 30.5996L30.172 30.6052C30.0483 30.6564 29.9178 30.7065 29.7816 30.7556C29.7717 30.7592 29.7618 30.7626 29.7518 30.7662C29.69 30.7884 29.6271 30.8103 29.5628 30.8318L29.5441 30.838C29.3992 30.8866 29.2481 30.934 29.0912 30.9805L29.0734 30.9856C29 31.0072 28.9253 31.0285 28.8494 31.0496L28.83 31.0549C28.5834 31.123 28.3238 31.1883 28.0522 31.2509L28.0363 31.2545C27.7623 31.3172 27.476 31.3771 27.1784 31.4336L27.1752 31.4343C27.0453 31.7967 26.7243 32.0765 26.3173 32.1325C25.9252 32.1865 25.5543 32.0186 25.3287 31.7256C25.2806 31.7317 25.2323 31.7377 25.184 31.7437L25.1745 31.7449C24.8099 31.7903 24.4344 31.8315 24.0492 31.8684L24.0234 31.8708C23.7722 31.8946 23.5171 31.9166 23.2582 31.9367C23.2418 31.938 23.2255 31.9393 23.209 31.9406C23.0881 31.9498 22.9665 31.9586 22.844 31.9669L22.8228 31.9685C22.6921 31.9773 22.5606 31.9857 22.4282 31.9935C22.4128 31.9944 22.3973 31.9953 22.3819 31.9962C22.2686 32.0029 22.1546 32.009 22.0402 32.0149C22.0143 32.0162 21.9885 32.0176 21.9626 32.0189C21.7052 32.0318 21.4448 32.0427 21.1818 32.0518C21.1501 32.0528 21.1183 32.0539 21.0867 32.0548C20.9789 32.0583 20.8709 32.0615 20.7622 32.0643C20.7362 32.065 20.7103 32.0657 20.6842 32.0664C20.554 32.0696 20.4231 32.0722 20.2917 32.0746C20.2636 32.0749 20.2352 32.0753 20.2069 32.0758C20.1005 32.0775 19.9937 32.0788 19.8866 32.0798C19.8501 32.0802 19.8136 32.0804 19.777 32.0808C19.644 32.0818 19.5107 32.0825 19.3766 32.0825C18.4409 32.0825 17.5296 32.0579 16.6531 32.0117C16.5219 32.3713 16.202 32.6484 15.7972 32.7041C15.7498 32.7106 15.7028 32.7128 15.6564 32.713C16.8344 32.7966 18.0831 32.8417 19.3768 32.8417C26.41 32.8418 32.1255 31.5145 32.2493 29.8661Z" fill="#E64B4F"/>
<path d="M15.4826 32.7006C15.0536 32.6317 14.6988 32.3021 14.609 31.8594C11.0017 31.5061 8.25508 30.7639 7.31317 29.8552C7.01963 29.874 6.74281 29.7711 6.5361 29.586C6.51669 29.6481 6.50584 29.7109 6.50265 29.774C6.50201 29.7864 6.50073 29.799 6.50073 29.8115C6.5006 31.1657 10.2749 32.3122 15.4826 32.7006Z" fill="#E64B4F"/>
<path d="M29.3591 20.0712C29.3097 20.4322 29.0854 20.7258 28.7839 20.8789C29.3967 22.4881 30.5262 25.4082 31.49 27.8902C31.5249 27.8817 31.5605 27.8749 31.5968 27.87C31.6633 27.8607 31.7292 27.8587 31.7939 27.8619V18.2923C31.2984 18.7176 30.419 19.1055 29.2486 19.4342C29.3469 19.6234 29.3904 19.8437 29.3591 20.0712Z" fill="#FDC548"/>
<path d="M21.3434 21.0072L25.4814 30.262C25.6312 30.1338 25.8176 30.045 26.0271 30.0162L26.0397 30.0151C26.5321 27.4465 27.3882 22.9676 27.7798 20.8552C27.4407 20.6631 27.2239 20.2938 27.2386 19.8885C25.6949 20.169 23.8733 20.3689 21.8872 20.4613C21.7793 20.7077 21.5832 20.9006 21.3434 21.0072Z" fill="#FDC548"/>
<path d="M7.53727 27.7634L11.4 20.8583C11.0867 20.6352 10.9045 20.25 10.9604 19.8421C10.9631 19.8224 10.9676 19.8036 10.9713 19.7844C9.06344 19.3971 7.64426 18.8804 6.95874 18.2922V27.763C7.00496 27.75 7.05208 27.7389 7.10098 27.7323C7.25177 27.7115 7.3995 27.7241 7.53727 27.7634Z" fill="#FDC548"/>
<path d="M13.0718 20.1315L13.0717 20.1328C13.0249 20.4734 12.8223 20.7534 12.5464 20.9127L15.398 30.6089C15.4335 30.6002 15.4698 30.5932 15.5068 30.5881C15.6856 30.5635 15.86 30.5853 16.0183 30.6436L20.5043 21.0172C20.2672 20.9187 20.0768 20.7391 19.9633 20.516C19.7686 20.5181 19.5731 20.5194 19.3762 20.5194C17.0857 20.5192 14.9353 20.3782 13.0718 20.1315Z" fill="#FDC548"/>
<path d="M25.3285 31.7256L25.3281 31.725C25.2798 31.7312 25.2323 31.7377 25.1838 31.7437C25.2321 31.7377 25.2805 31.7318 25.3285 31.7256Z" fill="#FDC548"/>
<path d="M12.1611 18.9294C12.7437 19.0096 13.1513 19.5476 13.072 20.1315C14.9355 20.3782 17.0859 20.5193 19.3764 20.5193C19.5733 20.5193 19.7688 20.518 19.9635 20.5159C19.868 20.3283 19.8263 20.1109 19.857 19.8864C19.9371 19.3019 20.4746 18.8933 21.0577 18.9737C21.6407 19.0539 22.0484 19.5927 21.9684 20.177C21.9546 20.2778 21.9264 20.3728 21.8874 20.4614C23.8735 20.369 25.6952 20.1691 27.2388 19.8886C27.2401 19.8529 27.2432 19.8168 27.248 19.7806C27.3282 19.1962 27.8656 18.7874 28.4487 18.8677C28.8047 18.9167 29.0947 19.1371 29.2488 19.4341C30.4191 19.1055 31.2985 18.7175 31.7941 18.2922C32.0923 18.0363 32.2524 17.7671 32.2524 17.4889V15.4424H32.2478C32.0661 17.0786 26.373 18.392 19.3766 18.392C12.3801 18.392 6.68715 17.0787 6.50533 15.4424H6.50073V17.4889C6.50073 17.7671 6.66072 18.0363 6.95886 18.2922C7.64438 18.8804 9.06356 19.3971 10.9714 19.7844C11.0779 19.2314 11.5975 18.8518 12.1611 18.9294Z" fill="#DC2C2F"/>
<path d="M19.3762 18.392C26.3727 18.392 32.0657 17.0787 32.2474 15.4423C32.2504 15.4155 32.252 15.3886 32.252 15.3616C32.252 14.1478 29.2194 13.101 24.8407 12.6172C24.8606 12.8111 24.856 13.0168 24.8306 13.2245C28.2839 13.6185 30.621 14.3749 30.621 15.2435C30.621 15.3224 30.6015 15.4005 30.5638 15.4774C30.1869 16.2464 27.9715 16.904 24.8337 17.2622C24.8129 17.2645 24.7917 17.2668 24.7709 17.2691C24.5824 17.2904 24.3913 17.3106 24.1966 17.3296L24.1752 17.3317C24.0287 17.3459 23.8803 17.3596 23.7303 17.3725C23.7161 17.3738 23.7017 17.3749 23.6874 17.3761C23.6228 17.3816 23.558 17.387 23.4928 17.3924C23.4766 17.3936 23.46 17.3949 23.4436 17.3962C23.3802 17.4012 23.3167 17.4062 23.2527 17.411C23.2353 17.4124 23.2175 17.4136 23.1999 17.415C23.1364 17.4197 23.073 17.4243 23.009 17.4288C22.9953 17.4298 22.9817 17.4307 22.9679 17.4316C22.9002 17.4363 22.8324 17.4409 22.7642 17.4453C22.7462 17.4465 22.7281 17.4476 22.7101 17.4487C22.6455 17.4528 22.5809 17.4569 22.5158 17.4607C22.5006 17.4616 22.4851 17.4624 22.4699 17.4632C22.4023 17.4672 22.3346 17.4712 22.2664 17.4748C22.243 17.4761 22.2194 17.4773 22.1959 17.4785C22.1353 17.4817 22.0746 17.485 22.0135 17.488C21.9886 17.4892 21.9633 17.4903 21.9383 17.4914C21.8789 17.4944 21.8195 17.4972 21.7596 17.4997C21.7245 17.5013 21.6891 17.5027 21.6539 17.5041C21.6033 17.5063 21.553 17.5084 21.5025 17.5105C21.4684 17.5118 21.434 17.5129 21.3998 17.5142C21.3477 17.5162 21.2956 17.5182 21.2432 17.52C21.1989 17.5215 21.1543 17.5228 21.1097 17.5243C21.0675 17.5256 21.0253 17.527 20.9831 17.5283C20.9398 17.5295 20.8962 17.5307 20.8527 17.5318C20.808 17.533 20.7633 17.5343 20.7184 17.5354C20.6812 17.5363 20.6437 17.5371 20.6064 17.5379C20.5558 17.5389 20.5053 17.5402 20.4545 17.5412C20.4002 17.5422 20.3456 17.5431 20.291 17.544C20.2564 17.5446 20.222 17.5453 20.1872 17.5458C20.141 17.5464 20.0944 17.5469 20.0481 17.5475C20.0048 17.548 19.9616 17.5486 19.9182 17.549C19.8929 17.5493 19.8674 17.5494 19.8421 17.5496C19.6875 17.5509 19.5323 17.5517 19.3763 17.5517C19.2207 17.5517 19.0658 17.5509 18.9118 17.5496C18.886 17.5494 18.8601 17.5493 18.8343 17.549C18.7917 17.5486 18.7491 17.548 18.7066 17.5475C18.6595 17.5469 18.6124 17.5464 18.5653 17.5458C18.5311 17.5453 18.497 17.5446 18.4628 17.544C18.4079 17.5431 18.3528 17.5423 18.298 17.5412C18.2472 17.5402 18.1967 17.5389 18.1461 17.5379C18.1088 17.5371 18.0713 17.5363 18.0341 17.5354C17.9892 17.5344 17.9445 17.5331 17.8998 17.5318C17.8563 17.5307 17.8127 17.5297 17.7694 17.5283C17.7271 17.5271 17.6849 17.5256 17.6428 17.5243C17.5982 17.5229 17.5537 17.5216 17.5094 17.52C17.4569 17.5182 17.4048 17.5162 17.3527 17.5142C17.3185 17.5129 17.2841 17.5118 17.25 17.5105C17.1988 17.5084 17.148 17.5063 17.0971 17.5041C17.0623 17.5027 17.0274 17.5013 16.9928 17.4997C16.9326 17.497 16.873 17.4942 16.8132 17.4914C16.7885 17.4903 16.7636 17.4891 16.7388 17.488C16.6778 17.485 16.6171 17.4817 16.5563 17.4785C16.5328 17.4773 16.5092 17.4762 16.4859 17.4748C16.4177 17.4712 16.35 17.4672 16.2825 17.4632C16.2671 17.4624 16.2517 17.4616 16.2365 17.4607C16.1714 17.4569 16.1068 17.4528 16.0422 17.4487C16.0242 17.4475 16.006 17.4465 15.988 17.4453C15.9191 17.4409 15.8506 17.4362 15.7823 17.4315C15.7693 17.4306 15.7562 17.4298 15.7433 17.4288C15.6792 17.4243 15.6154 17.4197 15.5519 17.4149C15.5344 17.4136 15.5169 17.4124 15.4994 17.411C15.4348 17.4062 15.3707 17.4012 15.3066 17.3961C15.2909 17.3948 15.2751 17.3936 15.2595 17.3924C15.1941 17.387 15.1292 17.3816 15.0645 17.3761C15.0503 17.3749 15.036 17.3738 15.022 17.3725C14.872 17.3596 14.7237 17.346 14.577 17.3317L14.5558 17.3296C14.361 17.3106 14.1698 17.2904 13.9815 17.2691C13.9607 17.2668 13.9394 17.2646 13.9187 17.2622C10.7809 16.904 8.56563 16.2463 8.18858 15.4774C8.15092 15.4005 8.13137 15.3226 8.13137 15.2435C8.13137 14.3887 10.3947 13.6426 13.7579 13.2434C13.7171 13.0319 13.7089 12.8257 13.7425 12.6362C9.45493 13.128 6.50037 14.1636 6.50037 15.3616C6.50037 15.3886 6.5019 15.4155 6.50496 15.4423C6.68678 17.0787 12.3797 18.392 19.3762 18.392Z" fill="#E64B4F"/>
<path d="M19.3762 12.9351C19.8797 12.9351 20.3752 12.942 20.8612 12.9552C20.928 12.7856 21.0212 12.6232 21.1425 12.4744C21.1728 12.4371 21.2062 12.4 21.241 12.3632C20.6321 12.3423 20.0097 12.3314 19.3762 12.3314C18.7757 12.3314 18.1852 12.3413 17.6066 12.3601C17.7589 12.5371 17.8728 12.7388 17.9462 12.9537C18.4147 12.9415 18.8918 12.9351 19.3762 12.9351Z" fill="#E64B4F"/>
<path d="M24.6437 14.0037C24.5286 14.3244 24.3732 14.6156 24.1963 14.8324C24.1518 14.8872 24.1042 14.9377 24.0549 14.9857C24.2638 15.0726 24.1376 15.1484 23.7659 15.2144C23.3063 15.5072 22.7373 15.575 22.2231 15.4024C22.1864 15.3959 22.1499 15.3868 22.1133 15.378C18.1906 15.6306 9.98624 15.6589 9.98624 15.6589C9.98624 15.6589 11.7461 15.0953 14.5304 14.7511C14.3413 14.5357 14.1682 14.2805 14.0308 14.0108C13.6312 14.047 13.2462 14.0872 12.8776 14.1311C12.601 14.164 12.3339 14.1988 12.0766 14.2356C11.9908 14.2479 11.9062 14.2603 11.8228 14.273C11.6559 14.2983 11.4935 14.3246 11.3358 14.3516C11.0995 14.392 10.874 14.4342 10.66 14.4781C10.3034 14.5513 9.97909 14.629 9.6904 14.7108C9.43797 14.7822 9.21287 14.8568 9.01765 14.934C8.9395 14.9648 8.86621 14.9962 8.7979 15.0278C8.72947 15.0594 8.66601 15.0915 8.60766 15.1241C8.57842 15.1403 8.55058 15.1566 8.52402 15.1731C8.36429 15.2715 8.25104 15.3732 8.18848 15.4773C8.56552 16.2463 10.7807 16.9038 13.9186 17.2621C10.7943 16.9053 8.58493 16.2515 8.19435 15.4869C9.62873 16.476 14.0921 16.9609 19.3762 16.9609C24.6605 16.9609 29.1237 16.476 30.5581 15.4869C30.1674 16.2517 27.9581 16.9053 24.8339 17.2621C27.9716 16.9038 30.1869 16.2462 30.564 15.4773C30.1794 14.8372 27.8819 14.2918 24.6437 14.0037Z" fill="#FFE5B3"/>
<path d="M21.0048 14.5694C20.8595 14.3329 20.7706 14.069 20.7439 13.7983C20.2956 13.7893 19.8393 13.7845 19.3763 13.7845C19.1479 13.7845 18.921 13.7857 18.6959 13.7878C18.4708 13.7901 18.2475 13.7935 18.0261 13.798C17.9912 14.0429 17.9054 14.2835 17.7661 14.5048C18.7837 14.4757 19.8696 14.4902 21.0048 14.5694Z" fill="#FFE5B3"/>
<path d="M19.3762 13.7846C19.8392 13.7846 20.2955 13.7894 20.7438 13.7985C20.7158 13.5155 20.7544 13.2261 20.8611 12.9552C20.3752 12.942 19.8797 12.9351 19.3762 12.9351C18.8918 12.9351 18.4145 12.9414 17.9462 12.9537C18.0384 13.2238 18.0666 13.5131 18.026 13.7981C18.2474 13.7936 18.4707 13.7903 18.6958 13.788C18.9209 13.7858 19.1478 13.7846 19.3762 13.7846Z" fill="#B32A2B"/>
<path d="M8.52434 15.1732C8.5509 15.1568 8.57886 15.1404 8.60797 15.1242C8.66632 15.0917 8.72978 15.0597 8.79822 15.028C8.86653 14.9962 8.93982 14.965 9.01796 14.9341C9.21318 14.857 9.43829 14.7824 9.69071 14.711C9.9794 14.6292 10.3037 14.5514 10.6603 14.4783C10.8743 14.4344 11.0998 14.3922 11.3361 14.3517C11.4937 14.3247 11.6561 14.2985 11.8231 14.2731C11.9066 14.2605 11.9913 14.2479 12.077 14.2358C12.3342 14.1989 12.6013 14.1641 12.8779 14.1312C13.2465 14.0874 13.6316 14.0473 14.0311 14.0109C13.9038 13.761 13.8074 13.4986 13.7583 13.2437C10.395 13.6427 8.13171 14.389 8.13171 15.2437C8.13171 15.3227 8.15112 15.4008 8.18892 15.4777C8.25122 15.3732 8.36448 15.2715 8.52434 15.1732Z" fill="#B32A2B"/>
<path d="M30.564 15.4774C30.6017 15.4005 30.6212 15.3226 30.6212 15.2435C30.6212 14.375 28.284 13.6185 24.8308 13.2245C24.7985 13.4881 24.7334 13.7548 24.6439 14.0036C27.8819 14.2918 30.1794 14.8373 30.564 15.4774Z" fill="#B32A2B"/>
<path d="M30.5581 15.487C29.1237 16.4761 24.6604 16.9611 19.3762 16.9611C14.0921 16.9611 9.62871 16.4761 8.19434 15.487C8.58491 16.2518 10.7943 16.9054 13.9186 17.2622C13.9394 17.2645 13.9606 17.2668 13.9814 17.2691C14.1697 17.2903 14.3609 17.3106 14.5557 17.3296L14.5769 17.3317C14.7236 17.3459 14.8718 17.3596 15.0219 17.3725C15.0359 17.3738 15.0502 17.3749 15.0644 17.3761C15.1291 17.3816 15.194 17.3871 15.2594 17.3923C15.2749 17.3936 15.2908 17.3948 15.3065 17.3961C15.3704 17.4012 15.4347 17.4062 15.4993 17.411C15.5166 17.4123 15.5343 17.4136 15.5517 17.4149C15.6153 17.4196 15.6789 17.4243 15.7431 17.4288C15.756 17.4298 15.7692 17.4306 15.7822 17.4315C15.8505 17.4362 15.919 17.4408 15.9879 17.4453C16.0059 17.4465 16.024 17.4476 16.042 17.4487C16.1067 17.4528 16.1713 17.4568 16.2364 17.4607C16.2516 17.4616 16.267 17.4623 16.2823 17.4632C16.35 17.4672 16.4177 17.4712 16.4857 17.4748C16.5091 17.476 16.5327 17.4773 16.5562 17.4785C16.617 17.4817 16.6775 17.485 16.7387 17.4879C16.7635 17.4892 16.7885 17.4902 16.8131 17.4914C16.8729 17.4943 16.9325 17.4972 16.9926 17.4997C17.0272 17.5013 17.0622 17.5027 17.097 17.5041C17.1479 17.5062 17.1987 17.5084 17.2499 17.5105C17.284 17.5117 17.3184 17.5129 17.3526 17.5142C17.4048 17.5162 17.4569 17.5181 17.5092 17.5199C17.5535 17.5215 17.5981 17.5228 17.6427 17.5243C17.6849 17.5256 17.7269 17.527 17.7693 17.5283C17.8126 17.5295 17.8561 17.5307 17.8997 17.5318C17.9444 17.533 17.9892 17.5343 18.034 17.5354C18.0712 17.5363 18.1087 17.5371 18.146 17.5379C18.1967 17.5389 18.2471 17.5402 18.2979 17.5412C18.3527 17.5422 18.4077 17.5431 18.4626 17.544C18.4969 17.5446 18.5308 17.5453 18.5652 17.5458C18.6122 17.5464 18.6594 17.5469 18.7065 17.5475C18.7492 17.548 18.7915 17.5486 18.8342 17.549C18.8599 17.5492 18.8859 17.5494 18.9117 17.5496C19.0658 17.5509 19.2206 17.5517 19.3762 17.5517C19.5324 17.5517 19.6875 17.5509 19.842 17.5496C19.8673 17.5494 19.8928 17.5492 19.9181 17.549C19.9615 17.5486 20.0045 17.548 20.0479 17.5475C20.0943 17.5469 20.1409 17.5464 20.1871 17.5458C20.2218 17.5453 20.2563 17.5446 20.2909 17.544C20.3454 17.5431 20.4001 17.5423 20.4543 17.5412C20.5052 17.5402 20.5557 17.5389 20.6063 17.5379C20.6436 17.5371 20.6811 17.5363 20.7183 17.5354C20.7632 17.5344 20.8079 17.5331 20.8526 17.5318C20.8961 17.5307 20.9397 17.5297 20.983 17.5283C21.0253 17.5271 21.0675 17.5256 21.1096 17.5243C21.154 17.5229 21.1986 17.5216 21.243 17.5199C21.2955 17.5181 21.3476 17.5162 21.3997 17.5142C21.4339 17.5129 21.4683 17.5117 21.5024 17.5105C21.5531 17.5084 21.6034 17.5062 21.6538 17.5041C21.689 17.5027 21.7244 17.5013 21.7595 17.4997C21.8194 17.497 21.8788 17.4942 21.9381 17.4914C21.9633 17.4902 21.9884 17.4891 22.0133 17.4879C22.0745 17.485 22.1352 17.4817 22.1958 17.4785C22.2193 17.4773 22.2429 17.4762 22.2663 17.4748C22.3345 17.4712 22.4021 17.4672 22.4698 17.4632C22.485 17.4623 22.5005 17.4616 22.5156 17.4607C22.5808 17.4568 22.6454 17.4528 22.71 17.4487C22.728 17.4475 22.7461 17.4465 22.7641 17.4453C22.8323 17.4408 22.9002 17.4362 22.9678 17.4316C22.9814 17.4306 22.9952 17.4297 23.0089 17.4288C23.0728 17.4243 23.1363 17.4197 23.1998 17.415C23.2173 17.4137 23.235 17.4124 23.2526 17.411C23.3166 17.4063 23.3801 17.4012 23.4435 17.3962C23.4599 17.3949 23.4765 17.3935 23.4927 17.3923C23.5579 17.387 23.6225 17.3816 23.6873 17.3761C23.7016 17.3749 23.716 17.3738 23.7302 17.3725C23.8802 17.3596 24.0284 17.346 24.1751 17.3317L24.1965 17.3296C24.3912 17.3106 24.5823 17.2903 24.7708 17.2691C24.7916 17.2668 24.8128 17.2646 24.8336 17.2622C27.9581 16.9054 30.1675 16.2517 30.5581 15.487Z" fill="#F5CB79"/>
<path d="M24.0549 14.9857C23.9653 15.073 23.8684 15.1491 23.766 15.2144C24.1377 15.1483 24.2639 15.0726 24.0549 14.9857Z" fill="#FFF8E9"/>
<path d="M22.1135 15.3778C21.8596 15.3159 21.6148 15.1996 21.3989 15.0228C21.2383 14.8913 21.1078 14.7369 21.0048 14.5694C19.8695 14.49 18.7837 14.4757 17.7662 14.5049C17.7522 14.5273 17.7398 14.5502 17.7247 14.5721C17.5432 14.8348 17.3044 15.0337 17.0372 15.1654C16.4363 15.5803 15.619 15.6056 14.9837 15.1646C14.8297 15.0578 14.6757 14.9161 14.5308 14.751C11.7464 15.0951 9.98657 15.6587 9.98657 15.6587C9.98657 15.6587 18.1906 15.6306 22.1135 15.3778Z" fill="#FFF8E9"/>
<path d="M19.7767 32.0809C19.8132 32.0807 19.8497 32.0803 19.8862 32.0799C19.9933 32.0789 20.1001 32.0776 20.2066 32.076C20.2348 32.0754 20.2633 32.0752 20.2913 32.0747C20.4227 32.0724 20.5536 32.0697 20.6838 32.0665C20.7099 32.0658 20.7358 32.0651 20.7619 32.0644C20.8705 32.0616 20.9785 32.0584 21.0863 32.055C21.118 32.0539 21.1498 32.0529 21.1814 32.0519C21.4444 32.0429 21.7048 32.0319 21.9622 32.019C21.9881 32.0178 22.014 32.0164 22.0398 32.015C22.1542 32.0091 22.2682 32.003 22.3815 31.9963C22.3969 31.9955 22.4124 31.9947 22.4279 31.9937C22.5603 31.9859 22.6916 31.9774 22.8224 31.9686L22.8436 31.967C22.9662 31.9587 23.0877 31.9499 23.2086 31.9407C23.225 31.9394 23.2413 31.9381 23.2578 31.9368C23.5167 31.9167 23.772 31.8947 24.023 31.8709L24.0488 31.8685C24.4339 31.8316 24.8094 31.7904 25.1742 31.745L25.1836 31.7438C25.2321 31.7378 25.2796 31.7313 25.3279 31.7252C25.2182 31.5826 25.1425 31.4108 25.1164 31.2198C25.0846 30.9881 25.1305 30.7642 25.2326 30.5726L20.9955 21.0962C20.9499 21.0996 20.9037 21.1 20.857 21.0976L16.3259 30.8206C16.5268 30.9854 16.6691 31.2228 16.7073 31.5008C16.7318 31.6795 16.7103 31.8535 16.6524 32.012C17.5289 32.0582 18.4403 32.0827 19.376 32.0827C19.5103 32.0826 19.6436 32.082 19.7767 32.0809Z" fill="#FFE879"/>
<path d="M14.5962 31.7915C14.5383 31.3684 14.7367 30.9702 15.0713 30.7516L12.2141 21.0363C12.1037 21.0571 11.9884 21.0616 11.8711 21.0455C11.8189 21.0383 11.7687 21.0263 11.7196 21.0121L7.85704 27.9169C8.09108 28.0815 8.25963 28.3386 8.3015 28.6451C8.38156 29.2295 7.97387 29.7682 7.39075 29.8485C7.36458 29.8521 7.33879 29.8536 7.31287 29.8551C8.25478 30.7639 11.0015 31.5061 14.6087 31.8594C14.6044 31.8368 14.5993 31.8145 14.5962 31.7915Z" fill="#FFE879"/>
<path d="M28.0362 31.2545L28.0521 31.2509C28.3238 31.1884 28.5833 31.123 28.8298 31.055L28.8493 31.0496C28.9252 31.0285 28.9999 31.0072 29.0733 30.9856L29.0911 30.9805C29.248 30.9341 29.399 30.8867 29.544 30.838L29.5627 30.8318C29.627 30.8101 29.6899 30.7882 29.7517 30.7662C29.7617 30.7627 29.7716 30.7592 29.7815 30.7556C29.9177 30.7065 30.0481 30.6564 30.1719 30.6052L30.1852 30.5996C30.2401 30.5768 30.2937 30.5538 30.3461 30.5306C30.3576 30.5255 30.3692 30.5204 30.3804 30.5153C30.4294 30.4933 30.4773 30.4712 30.5239 30.4488L30.5468 30.4381C30.6017 30.4115 30.6553 30.3847 30.7068 30.3577L30.7087 30.3567C30.7571 30.3314 30.8036 30.3058 30.849 30.28C30.8599 30.2739 30.8705 30.2676 30.8812 30.2615C30.9176 30.2404 30.9531 30.2191 30.9875 30.1979C30.9974 30.1917 31.0075 30.1857 31.0172 30.1796C31.1019 30.126 31.1805 30.0714 31.2521 30.0164L31.2779 29.9959C31.3044 29.9749 31.3301 29.9538 31.3546 29.9327L31.3624 29.9263C31.0105 29.7917 30.7409 29.4739 30.686 29.0735C30.6277 28.6487 30.8279 28.249 31.1653 28.0309C30.8144 27.1272 30.3083 25.8224 29.8029 24.515C29.2737 23.1459 28.8531 22.0527 28.5528 21.266C28.5143 21.1653 28.4786 21.0717 28.445 20.9837C28.3521 20.9961 28.256 20.9975 28.1585 20.9841C28.1444 20.9821 28.1308 20.9787 28.117 20.9763C28.0807 21.1721 28.0408 21.386 27.9977 21.6162C27.788 22.7371 27.505 24.2288 27.2209 25.7195C26.9187 27.3056 26.6147 28.8937 26.3966 30.0315C26.822 30.1235 27.1651 30.472 27.2278 30.9293C27.2519 31.1058 27.231 31.2778 27.175 31.4345L27.1782 31.4339C27.4759 31.3771 27.7622 31.3172 28.0362 31.2545Z" fill="#FFE879"/>
<path d="M14.9451 31.6079C14.8658 31.6314 14.8204 31.7147 14.8436 31.7941C14.8668 31.8736 14.9499 31.9191 15.0292 31.8958C15.1085 31.8724 15.1539 31.7893 15.1307 31.7098C15.1075 31.6302 15.0244 31.5848 14.9451 31.6079Z" fill="#FABD65"/>
<path d="M16.2155 31.8363C16.1362 31.8596 16.0908 31.9429 16.114 32.0223C16.1373 32.1018 16.2203 32.1473 16.2996 32.1239C16.3789 32.1006 16.4243 32.0173 16.4011 31.9379C16.3779 31.8584 16.2947 31.813 16.2155 31.8363Z" fill="#FABD65"/>
<path d="M15.4992 31.7961C15.3083 31.8523 15.1989 32.0529 15.2549 32.2442C15.311 32.4356 15.5111 32.5453 15.702 32.4891C15.893 32.4329 16.0024 32.2323 15.9463 32.041C15.8904 31.8496 15.6902 31.7399 15.4992 31.7961Z" fill="#FABD65"/>
<path d="M25.4655 31.0363C25.3862 31.0596 25.3408 31.1429 25.364 31.2223C25.3872 31.3018 25.4705 31.3473 25.5496 31.3239C25.6289 31.3006 25.6743 31.2173 25.6511 31.1379C25.6279 31.0584 25.5447 31.013 25.4655 31.0363Z" fill="#FABD65"/>
<path d="M26.82 31.5522C26.8993 31.529 26.9446 31.4455 26.9215 31.3661C26.8982 31.2866 26.815 31.2412 26.7359 31.2645C26.6566 31.2877 26.6111 31.371 26.6344 31.4505C26.6576 31.53 26.7407 31.5755 26.82 31.5522Z" fill="#FABD65"/>
<path d="M26.0196 31.2243C25.8288 31.2804 25.7194 31.4811 25.7754 31.6724C25.8313 31.8638 26.0315 31.9735 26.2225 31.9173C26.4135 31.8611 26.5227 31.6605 26.4668 31.4692C26.4108 31.2778 26.2106 31.1681 26.0196 31.2243Z" fill="#FABD65"/>
<path d="M31.0351 28.8899C30.9558 28.9132 30.9103 28.9965 30.9336 29.076C30.9569 29.1554 31.04 29.201 31.1193 29.1777C31.1986 29.1544 31.244 29.0711 31.2207 28.9917C31.1974 28.9121 31.1143 28.8665 31.0351 28.8899Z" fill="#FABD65"/>
<path d="M32.3054 29.118C32.2262 29.1414 32.1807 29.2246 32.204 29.304C32.2272 29.3835 32.3104 29.4291 32.3896 29.4058C32.4688 29.3825 32.5143 29.2992 32.4911 29.2197C32.4677 29.1403 32.3847 29.0947 32.3054 29.118Z" fill="#FABD65"/>
<path d="M31.5892 29.0778C31.3982 29.134 31.2889 29.3346 31.3448 29.5259C31.4009 29.7173 31.601 29.8269 31.7919 29.7708C31.9829 29.7146 32.0921 29.514 32.0362 29.3227C31.9803 29.1313 31.7801 29.0218 31.5892 29.0778Z" fill="#FABD65"/>
<path d="M11.3935 19.7378C11.3142 19.7145 11.2311 19.7601 11.2079 19.8395C11.1846 19.919 11.2301 20.0023 11.3093 20.0256C11.3886 20.049 11.4717 20.0033 11.495 19.924C11.5182 19.8444 11.4729 19.7611 11.3935 19.7378Z" fill="#FABD65"/>
<path d="M12.7654 19.6957C12.7887 19.6162 12.7433 19.5329 12.664 19.5096C12.5847 19.4863 12.5016 19.5319 12.4782 19.6114C12.455 19.6908 12.5005 19.7741 12.5797 19.7974C12.659 19.8207 12.7421 19.7751 12.7654 19.6957Z" fill="#FABD65"/>
<path d="M12.0663 19.1445C11.8753 19.0883 11.6752 19.198 11.6192 19.3894C11.5633 19.5808 11.6726 19.7815 11.8636 19.8375C12.0546 19.8937 12.2547 19.7839 12.3106 19.5926C12.3666 19.4012 12.2572 19.2005 12.0663 19.1445Z" fill="#FABD65"/>
<path d="M20.29 19.782C20.2107 19.7587 20.1276 19.8042 20.1044 19.8837C20.081 19.9632 20.1265 20.0464 20.2058 20.0697C20.285 20.093 20.3681 20.0475 20.3914 19.968C20.4147 19.8886 20.3693 19.8054 20.29 19.782Z" fill="#FABD65"/>
<path d="M21.4763 19.8416C21.5555 19.8648 21.6386 19.8193 21.6619 19.7398C21.6852 19.6604 21.6397 19.5771 21.5605 19.5538C21.4812 19.5304 21.3981 19.576 21.3749 19.6554C21.3515 19.735 21.397 19.8183 21.4763 19.8416Z" fill="#FABD65"/>
<path d="M20.9629 19.1887C20.7719 19.1325 20.5718 19.2421 20.5158 19.4334C20.4599 19.6249 20.5693 19.8255 20.7602 19.8817C20.9512 19.9377 21.1513 19.8281 21.2072 19.6368C21.2632 19.4453 21.1538 19.2447 20.9629 19.1887Z" fill="#FABD65"/>
<path d="M27.681 19.6763C27.6017 19.6529 27.5186 19.6985 27.4954 19.778C27.472 19.8575 27.5175 19.9408 27.5968 19.964C27.676 19.9873 27.7591 19.9418 27.7824 19.8623C27.8057 19.7829 27.7604 19.6994 27.681 19.6763Z" fill="#FABD65"/>
<path d="M28.8672 19.7357C28.9465 19.7591 29.0296 19.7136 29.0528 19.6341C29.0761 19.5547 29.0306 19.4714 28.9513 19.4481C28.8721 19.4248 28.789 19.4703 28.7657 19.5498C28.7425 19.6293 28.7879 19.7124 28.8672 19.7357Z" fill="#FABD65"/>
<path d="M28.3539 19.0829C28.163 19.0268 27.9629 19.1364 27.9068 19.3279C27.8509 19.5193 27.9603 19.7198 28.1512 19.776C28.342 19.8321 28.5422 19.7223 28.5982 19.531C28.6543 19.3396 28.5449 19.139 28.3539 19.0829Z" fill="#FABD65"/>
<path d="M6.5392 28.7522C6.45993 28.7757 6.41448 28.8588 6.43772 28.9383C6.46095 29.0178 6.54405 29.0633 6.62333 29.04C6.70261 29.0167 6.74805 28.9334 6.72469 28.854C6.70159 28.7745 6.61848 28.729 6.5392 28.7522Z" fill="#FABD65"/>
<path d="M7.80947 28.9804C7.73019 29.0037 7.68475 29.087 7.70798 29.1665C7.73134 29.2459 7.81445 29.2915 7.89373 29.2682C7.973 29.2449 8.01845 29.1616 7.99509 29.0821C7.97173 29.0027 7.88862 28.9571 7.80947 28.9804Z" fill="#FABD65"/>
<path d="M7.09332 28.9402C6.90234 28.9964 6.79306 29.1971 6.84898 29.3883C6.90502 29.5796 7.10519 29.6893 7.29604 29.6333C7.48702 29.5772 7.59629 29.3764 7.54038 29.1852C7.48446 28.9937 7.2843 28.8841 7.09332 28.9402Z" fill="#FABD65"/>
<path d="M23.9504 11.4875C23.926 11.4824 23.9014 11.4778 23.8765 11.4738C23.8973 11.4818 23.9178 11.4899 23.9377 11.499L23.9504 11.4875Z" fill="#975A15"/>
<path d="M24.3562 11.8534C24.3983 11.916 24.4341 11.9839 24.4646 12.0556C24.7981 12.8409 24.4625 14.1265 23.9415 14.766C23.5118 15.2931 22.8476 15.514 22.2234 15.4024C22.7377 15.5751 23.3066 15.5074 23.7662 15.2144C23.8686 15.1493 23.9654 15.0731 24.0551 14.9857C24.1044 14.9376 24.152 14.8872 24.1966 14.8324C24.3734 14.6156 24.5287 14.3244 24.644 14.0037C24.7334 13.7549 24.7986 13.4882 24.8309 13.2246C24.8563 13.0169 24.8609 12.8112 24.841 12.6173C24.8141 12.3543 24.7414 12.1139 24.6122 11.9211L35.8723 1.65867L35.5284 1.26693L35.2942 1.14906L35.6595 1.55181L24.3562 11.8534Z" fill="#975A15"/>
<path d="M24.1596 11.6351C24.2361 11.6977 24.3011 11.7714 24.3563 11.8534L35.6597 1.55168L25.3295 10.7098C25.1076 10.912 24.4859 11.406 24.2841 11.1836L23.9505 11.4877L23.9379 11.4992C24.0174 11.5349 24.0919 11.5796 24.1596 11.6351Z" fill="#D47F0F"/>
<path d="M23.2722 12.3289C23.3776 12.3822 23.5062 12.3396 23.5593 12.2337C23.6124 12.1279 23.5699 11.9992 23.4643 11.9458C23.3587 11.8927 23.2302 11.9353 23.1771 12.041C23.1241 12.1469 23.1666 12.2757 23.2722 12.3289Z" fill="#FABC68"/>
<path d="M23.2659 14.1782C23.3715 14.2315 23.5001 14.1887 23.553 14.083C23.6061 13.9772 23.5635 13.8484 23.4581 13.7953C23.3526 13.742 23.2241 13.7846 23.1709 13.8903C23.1178 13.9962 23.1604 14.1251 23.2659 14.1782Z" fill="#FABC68"/>
<path d="M23.2986 12.8708C23.1707 13.1256 23.2731 13.4359 23.5274 13.564C23.7816 13.6921 24.0912 13.5895 24.219 13.3347C24.3468 13.0799 24.2444 12.7694 23.9902 12.6413C23.7361 12.5133 23.4264 12.6159 23.2986 12.8708Z" fill="#FABC68"/>
<path d="M14.3643 11.8486C14.3413 11.8592 14.3191 11.8704 14.297 11.882L14.3123 11.8895C14.329 11.8753 14.3465 11.8618 14.3643 11.8486Z" fill="#975A15"/>
<path d="M13.7581 13.2435C13.8072 13.4985 13.9036 13.7608 14.0309 14.0108C14.1683 14.2805 14.3415 14.5357 14.5306 14.7511C14.6754 14.9162 14.8295 15.0579 14.9835 15.1647C15.6188 15.6058 16.4362 15.5804 17.037 15.1655C16.4679 15.4457 15.7686 15.4176 15.2103 15.0301C14.533 14.56 13.8559 13.4176 13.9597 12.5705C13.9691 12.4931 13.985 12.4179 14.0081 12.3462L0.303222 5.57967L0.54314 5.09143L0.350596 5.26957L0.128174 5.74131L13.7808 12.4821C13.7647 12.5321 13.7521 12.5834 13.7428 12.6363C13.7091 12.8258 13.7172 13.0319 13.7581 13.2435Z" fill="#975A15"/>
<path d="M12.7572 11.5169L0.303101 5.57954L14.008 12.346C14.0384 12.252 14.0805 12.1631 14.1367 12.0818C14.1865 12.0096 14.2457 11.946 14.3122 11.8895L14.2969 11.882L13.8924 11.6823C13.76 11.952 13.0262 11.6497 12.7572 11.5169Z" fill="#D47F0F"/>
<path d="M15.0096 13.0928C15.1465 13.1366 15.293 13.0608 15.3366 12.9237C15.3803 12.7864 15.3047 12.6396 15.1679 12.5958C15.0309 12.5521 14.8845 12.6278 14.8408 12.7651C14.797 12.9023 14.8726 13.0491 15.0096 13.0928Z" fill="#FABC68"/>
<path d="M16.6191 14.6617C16.7561 14.7055 16.9025 14.6298 16.9461 14.4925C16.9898 14.3552 16.9142 14.2085 16.7773 14.1647C16.6403 14.121 16.4938 14.1967 16.4502 14.334C16.4067 14.4713 16.4821 14.6179 16.6191 14.6617Z" fill="#FABC68"/>
<path d="M14.9963 13.8154C14.891 14.1459 15.073 14.4994 15.4028 14.605C15.7326 14.7104 16.0853 14.5279 16.1906 14.1974C16.2959 13.8668 16.1138 13.5132 15.784 13.4077C15.4543 13.3023 15.1015 13.4848 14.9963 13.8154Z" fill="#FABC68"/>
<defs>
<linearGradient id="paint0_linear_14_16868" x1="0" y1="18" x2="36" y2="18" gradientUnits="userSpaceOnUse">
<stop stop-color="#83247C"/>
<stop offset="1" stop-color="#363787"/>
</linearGradient>
</defs>
</svg>
