<svg width="36" height="36" viewBox="0 0 36 36" fill="none" xmlns="http://www.w3.org/2000/svg">
<path d="M33.3803 7.91489C32.81 7.91489 32.2849 8.49331 31.8649 9.46418C31.8501 9.47416 31.8358 9.48414 31.8207 9.49399C31.7892 9.51496 31.7566 9.53568 31.7242 9.5564C31.6907 9.57789 31.6574 9.59925 31.623 9.62049C31.5935 9.63878 31.5629 9.65669 31.5327 9.67486C31.4317 9.73536 31.3282 9.7956 31.2206 9.85483C29.3251 10.8986 26.4295 11.7513 24.5691 12.4654V11.5634C24.5691 11.0854 24.1827 10.6978 23.7063 10.6978H23.3344L23.3017 9.83027C23.2977 9.72269 23.3762 9.62983 23.4827 9.6164C23.5962 9.60207 23.6765 9.49808 23.6621 9.38423L23.6213 9.06061C23.6053 8.93436 23.4809 8.85199 23.359 8.88704L22.3642 9.17254C22.2659 9.20081 22.2029 9.29661 22.2157 9.3983L22.2368 9.56536C22.2512 9.6792 22.3547 9.75979 22.4682 9.74533L22.5033 9.74086C22.6155 9.72666 22.7183 9.80532 22.7343 9.91751L22.8455 10.6978H22.6465C22.17 10.6978 21.7837 11.0854 21.7837 11.5634V13.3544C21.2367 13.4835 20.6835 13.5879 20.1259 13.6682V11.5634C20.1259 11.0854 19.7396 10.6978 19.2631 10.6978H18.8899L18.8586 9.86263C18.8546 9.75505 18.933 9.66219 19.0395 9.64876C19.153 9.6343 19.2333 9.53031 19.2189 9.41659L19.178 9.09284C19.162 8.96659 19.0376 8.88422 18.9157 8.91926L17.9209 9.20477C17.8227 9.23304 17.7596 9.32885 17.7724 9.43054L17.7936 9.59772C17.808 9.71144 17.9116 9.79215 18.025 9.77769L18.0602 9.77322C18.1724 9.75902 18.2752 9.83756 18.2912 9.94987L18.3977 10.6979H18.2032C17.7267 10.6979 17.3404 11.0855 17.3404 11.5635V13.8675H15.6826V11.5635C15.6826 11.0855 15.2963 10.6979 14.8198 10.6979H14.4331L14.4017 9.86276C14.3977 9.75519 14.4762 9.66232 14.5827 9.64889C14.6962 9.63444 14.7764 9.53044 14.762 9.41673L14.7211 9.09298C14.7052 8.96672 14.5809 8.88435 14.4589 8.9194L13.464 9.2049C13.3657 9.23317 13.3027 9.32898 13.3156 9.43067L13.3367 9.59785C13.3509 9.71156 13.4546 9.79228 13.5681 9.77783L13.6032 9.77334C13.7154 9.75915 13.8181 9.83769 13.8341 9.95L13.9407 10.698H13.7597C13.2832 10.698 12.8969 11.0856 12.8969 11.5636V14.0061C11.9133 14.2159 11.0152 14.6566 10.2611 15.2692H5.07981C5.05456 15.2692 5.02971 15.2707 5.0051 15.2729C4.88052 15.0521 4.70697 14.9147 4.51469 14.9147C4.21708 14.9147 3.96462 15.2433 3.86963 15.7019H2.48923C2.33162 15.3432 1.96847 15.0477 1.49541 14.884C1.48496 14.8804 1.4745 14.8784 1.46417 14.8753C1.39468 14.8435 1.32289 14.8138 1.24791 14.7878C1.0059 14.704 0.759691 14.7666 0.582709 14.9157V14.9147L0.576452 14.9207C0.507342 14.9803 0.448945 15.0529 0.406357 15.1359C0.194309 15.4586 -0.0791891 16.1161 0.373468 16.9822C0.400117 17.0536 0.438242 17.1185 0.4844 17.1764L0.486439 17.1797L0.486563 17.179C0.661633 17.3964 0.957957 17.5052 1.24791 17.4049C1.29828 17.3874 1.347 17.3682 1.39494 17.3481L1.38895 17.346C1.42427 17.3402 1.45984 17.3324 1.49541 17.3201C1.96834 17.1564 2.33162 16.8609 2.48923 16.5023H3.86963C3.96462 16.9608 4.21721 17.2894 4.51469 17.2894C4.70697 17.2894 4.88052 17.1519 5.0051 16.9313C5.02971 16.9336 5.05456 16.9351 5.07981 16.9351H8.81863C8.25479 17.8798 7.9299 18.9845 7.9299 20.1658C7.9299 23.1973 10.063 25.7177 12.8924 26.3235V24.2742C11.4782 23.7001 10.4834 22.3107 10.4834 20.6909C10.4834 19.0668 11.4823 17.6775 12.897 17.1054V17.6036V27.2194C12.897 27.6974 13.2834 28.0848 13.7599 28.0848H14.82C15.2965 28.0848 15.6827 27.6974 15.6827 27.2194V26.4238C15.7262 26.4289 15.7704 26.4322 15.8154 26.4312L17.3407 26.3984V27.2194C17.3407 27.6974 17.7269 28.0848 18.2034 28.0848H19.2635C19.74 28.0848 20.1263 27.6974 20.1263 27.2194V26.3396C20.1372 26.3397 20.1479 26.3407 20.159 26.3406L21.7841 26.3056V27.2194C21.7841 27.6974 22.1703 28.0848 22.6468 28.0848H23.707C24.1835 28.0848 24.5697 27.6974 24.5697 27.2194V26.1177C24.6936 26.1289 24.8222 26.1187 24.9508 26.0817C27.5136 25.3448 29.2071 23.2177 29.4544 20.7889L29.4563 20.7895C29.4602 20.7524 29.4628 20.715 29.4659 20.6777C29.469 20.6394 29.472 20.601 29.4746 20.5625C29.4774 20.5167 29.4799 20.471 29.4818 20.4251C29.4827 20.4045 29.4831 20.3837 29.4836 20.3629C29.4872 20.2505 29.4878 20.1377 29.485 20.0244C30.1295 20.2898 30.7383 20.5691 31.267 20.8637C31.4497 20.9655 31.6222 21.0692 31.784 21.1747C32.2165 22.2637 32.7731 22.9198 33.3809 22.9198C34.7569 22.9198 35.8723 19.5608 35.8723 15.4172C35.8716 11.2739 34.7563 7.91489 33.3803 7.91489ZM17.3398 17.3238V24.4824L15.7714 24.5199C15.7411 24.5205 15.7113 24.523 15.6818 24.5264V17.3238V16.8256H17.3397L17.3398 17.3238ZM21.7832 17.8368V24.3792L20.1254 24.4188V17.5229V17.0247C20.683 17.1051 21.2363 17.2094 21.7832 17.3384V17.8368ZM24.5689 23.8943V18.7258V18.2276C25.1069 18.434 25.7313 18.6521 26.3932 18.883L26.4316 19.032L26.4404 19.0662L26.5591 19.5265L26.5592 19.527C26.5767 19.5951 26.5916 19.6638 26.6046 19.7326L26.6093 19.7591C26.6214 19.826 26.632 19.8932 26.6403 19.9608C26.8293 21.4922 25.9938 23.1182 24.5689 23.8943Z" fill="#FCBF36"/>
<path d="M3.86878 15.702H2.48836C2.33076 15.3433 1.96762 15.0479 1.49456 14.8841C1.4841 14.8806 1.47365 14.8785 1.46332 14.8754L1.46983 14.8781C1.01653 14.9712 0.669067 15.4922 0.669067 16.1231C0.669067 16.7152 0.975461 17.2105 1.38808 17.3461C1.4234 17.3403 1.45899 17.3325 1.49456 17.3203C1.96749 17.1565 2.33076 16.861 2.48836 16.5024H3.86878C3.84289 16.3771 3.82796 16.2428 3.82796 16.1021C3.82796 15.9616 3.84289 15.8271 3.86878 15.702Z" fill="#98A6AB"/>
<path d="M4.24877 16.1021C4.24877 15.6673 4.58081 15.3109 5.00439 15.2729C4.87982 15.0521 4.70627 14.9147 4.51398 14.9147C4.21638 14.9147 3.96392 15.2433 3.86892 15.7019C3.84304 15.827 3.82812 15.9614 3.82812 16.102C3.82812 16.2427 3.84304 16.377 3.86892 16.5022C3.96392 16.9608 4.21651 17.2894 4.51398 17.2894C4.70627 17.2894 4.87982 17.1519 5.00439 16.9313C4.58081 16.8934 4.24877 16.5369 4.24877 16.1021Z" fill="#E1A101"/>
<path d="M10.2604 15.2692H5.07911C5.05387 15.2692 5.02901 15.2707 5.0044 15.2729C4.58082 15.3109 4.24878 15.6674 4.24878 16.1021C4.24878 16.5369 4.58082 16.8934 5.0044 16.9314C5.02901 16.9337 5.05387 16.9352 5.07911 16.9352H8.81793C9.19829 16.298 9.6878 15.7343 10.2604 15.2692Z" fill="#F9B218"/>
<path d="M15.6818 13.8675V11.5635C15.6818 11.0855 15.2956 10.6979 14.8191 10.6979H14.4323L14.4567 11.3451C14.9015 11.3637 15.2378 11.4489 15.2378 11.5513C15.2378 11.6672 14.807 11.7614 14.2755 11.7614C13.744 11.7614 13.3132 11.6674 13.3132 11.5513C13.3132 11.4537 13.619 11.3719 14.0326 11.3484L13.94 10.6979H13.7591C13.2826 10.6979 12.8962 11.0855 12.8962 11.5635V14.006C13.3193 13.9157 13.7577 13.8674 14.2075 13.8674L15.6818 13.8675Z" fill="#F9B218"/>
<path d="M14.8411 25.4757C14.8411 24.9869 15.2072 24.5826 15.6818 24.5265V17.324H14.3357C13.8266 17.324 13.341 17.4239 12.8961 17.6038V27.2196C12.8961 27.6976 13.2825 28.0851 13.759 28.0851H14.8191C15.2956 28.0851 15.6818 27.6976 15.6818 27.2196V26.424C15.2098 26.3682 14.8411 25.9663 14.8411 25.4757Z" fill="#F9B218"/>
<path d="M19.1795 25.3798C19.1795 24.8581 19.5946 24.4315 20.1146 24.4191L20.1253 24.4188V17.5229C19.2104 17.3909 18.2838 17.3238 17.3536 17.3238H17.3397V24.4824V26.3986V27.2195C17.3397 27.6975 17.7259 28.085 18.2024 28.085H19.2626C19.7391 28.085 20.1253 27.6975 20.1253 27.2195V26.3397C19.6035 26.3333 19.1795 25.9076 19.1795 25.3798Z" fill="#F9B218"/>
<path d="M20.1254 13.6684V11.5636C20.1254 11.0856 19.7392 10.698 19.2627 10.698H18.8895L18.9138 11.3453C19.3586 11.3638 19.6949 11.449 19.6949 11.5515C19.6949 11.6674 19.2641 11.7615 18.7325 11.7615C18.201 11.7615 17.7702 11.6675 17.7702 11.5515C17.7702 11.4539 18.076 11.372 18.4895 11.3485L18.3969 10.698H18.2023C17.7258 10.698 17.3396 11.0856 17.3396 11.5636V13.8676H17.3535C18.2839 13.8675 19.2105 13.8005 20.1254 13.6684Z" fill="#F9B218"/>
<path d="M24.569 12.4657V11.5636C24.569 11.0856 24.1827 10.698 23.7063 10.698H23.3343L23.3574 11.3129C23.8022 11.3315 24.1385 11.4166 24.1385 11.5191C24.1385 11.6351 23.7077 11.729 23.1762 11.729C22.6448 11.729 22.2139 11.6351 22.2139 11.5191C22.2139 11.4215 22.5197 11.3396 22.9333 11.3161L22.8453 10.698H22.6463C22.1698 10.698 21.7836 11.0856 21.7836 11.5636V13.3547C22.6612 13.1476 23.5228 12.8783 24.36 12.547C24.4279 12.5202 24.4979 12.4929 24.569 12.4657Z" fill="#F9B218"/>
<path d="M23.6126 25.1098L23.6107 25.0672C23.5914 24.6208 23.8581 24.2203 24.2667 24.0425C24.3702 23.9975 24.4708 23.9477 24.569 23.8942V18.7258C24.4979 18.6984 24.4279 18.6713 24.3599 18.6444C23.5227 18.3131 22.6611 18.0439 21.7834 17.8368V24.3792L21.8081 24.3785V26.305L21.7834 26.3057V27.2195C21.7834 27.6975 22.1697 28.085 22.6462 28.085H23.7063C24.1828 28.085 24.569 27.6975 24.569 27.2195V26.1178C24.0636 26.072 23.6361 25.6561 23.6126 25.1098Z" fill="#F9B218"/>
<path d="M15.6818 17.3238V16.8256H14.3357C13.8266 16.8256 13.341 16.9255 12.8961 17.1055V17.6037C13.341 17.4239 13.8266 17.3238 14.3357 17.3238H15.6818Z" fill="#E3A303"/>
<path d="M17.3537 17.3238C18.2839 17.3238 19.2105 17.3909 20.1254 17.5229V17.0246C19.2105 16.8926 18.2839 16.8256 17.3537 16.8256H17.3398V17.3238H17.3537Z" fill="#E3A303"/>
<path d="M24.3599 18.6444C24.4279 18.6713 24.4979 18.6984 24.569 18.7258V18.2276C24.4979 18.2002 24.4279 18.1731 24.3599 18.1461C23.5227 17.8149 22.6611 17.5455 21.7834 17.3384V17.8367C22.6611 18.0437 23.5225 18.3131 24.3599 18.6444Z" fill="#E3A303"/>
<path d="M14.0822 11.6969L14.0326 11.3485C13.619 11.372 13.3132 11.4539 13.3132 11.5515C13.3132 11.6674 13.7441 11.7615 14.2755 11.7615C14.807 11.7615 15.2379 11.6675 15.2379 11.5515C15.2379 11.449 14.9015 11.3638 14.4567 11.3453L14.47 11.6969H14.0822Z" fill="#E3A303"/>
<path d="M14.0822 11.6969H14.47L14.4567 11.3453L14.4324 10.698L14.401 9.86288C14.3969 9.75531 14.4755 9.66244 14.5819 9.64901C14.6954 9.63455 14.7756 9.53056 14.7612 9.41685L14.7204 9.0931C14.7045 8.96684 14.5802 8.88447 14.4581 8.91952L13.4633 9.20502C13.365 9.23329 13.302 9.3291 13.3149 9.43079L13.3359 9.59797C13.3502 9.71169 13.4539 9.7924 13.5674 9.77795L13.6024 9.77347C13.7146 9.75927 13.8174 9.83781 13.8333 9.95012L13.9399 10.6982L14.0325 11.3486L14.0822 11.6969Z" fill="#98A6AB"/>
<path d="M18.5391 11.6969L18.4895 11.3485C18.076 11.372 17.7703 11.4539 17.7703 11.5515C17.7703 11.6674 18.2011 11.7615 18.7326 11.7615C19.2642 11.7615 19.695 11.6675 19.695 11.5515C19.695 11.449 19.3586 11.3638 18.9139 11.3453L18.927 11.6969H18.5391Z" fill="#E3A303"/>
<path d="M18.5391 11.6969H18.9269L18.9138 11.3453L18.8894 10.698L18.858 9.86288C18.8541 9.75531 18.9325 9.66244 19.039 9.64901C19.1525 9.63455 19.2328 9.53056 19.2184 9.41685L19.1775 9.0931C19.1615 8.96684 19.0371 8.88447 18.9152 8.91952L17.9203 9.20502C17.8222 9.23329 17.759 9.3291 17.7719 9.43079L17.7931 9.59797C17.8075 9.71169 17.911 9.7924 18.0245 9.77795L18.0597 9.77347C18.1719 9.75927 18.2747 9.83781 18.2906 9.95012L18.3972 10.6982L18.4898 11.3486L18.5391 11.6969Z" fill="#98A6AB"/>
<path d="M22.9828 11.6645L22.933 11.3161C22.5194 11.3396 22.2136 11.4215 22.2136 11.5191C22.2136 11.6351 22.6445 11.729 23.1759 11.729C23.7074 11.729 24.1382 11.6351 24.1382 11.5191C24.1382 11.4166 23.8019 11.3315 23.3571 11.3129L23.3704 11.6644H22.9828V11.6645Z" fill="#E3A303"/>
<path d="M22.9827 11.6645H23.3705L23.3572 11.313L23.3342 10.6982L23.3015 9.83064C23.2974 9.72307 23.376 9.6302 23.4825 9.61677C23.5959 9.60245 23.6763 9.49845 23.6619 9.38461L23.6211 9.06099C23.6051 8.93474 23.4807 8.85236 23.3588 8.88741L22.3639 9.17292C22.2656 9.20118 22.2027 9.29699 22.2155 9.39868L22.2366 9.56574C22.251 9.67958 22.3545 9.76016 22.468 9.74571L22.5031 9.74123C22.6153 9.72704 22.718 9.8057 22.7341 9.91788L22.8453 10.6982L22.9333 11.3162L22.9827 11.6645Z" fill="#98A6AB"/>
<path d="M31.8649 9.46417C31.8501 9.47415 31.8358 9.48413 31.8208 9.49398C31.7893 9.51496 31.7567 9.53568 31.7243 9.5564C31.6907 9.57789 31.6575 9.59925 31.623 9.62048C31.5936 9.63877 31.563 9.65669 31.5328 9.67485C31.4318 9.73535 31.3282 9.7956 31.2206 9.85482C30.6925 11.2479 30.2861 13.2662 30.3499 15.4892C30.4106 17.609 30.758 19.5135 31.2665 20.8638C31.4493 20.9657 31.6218 21.0693 31.7836 21.1748C31.2371 19.7986 30.8891 17.7306 30.8891 15.4174C30.889 12.9914 31.2718 10.8357 31.8649 9.46417Z" fill="#E3A303"/>
<path d="M33.8713 9.16447C33.3961 9.65681 32.9948 10.6264 32.7302 11.8828C32.753 11.8655 32.7754 11.8463 32.7986 11.8306C33.5839 12.3605 34.1485 13.8216 34.1485 15.5421C34.1485 17.2626 33.5839 18.7236 32.7986 19.2535L32.7972 19.2525C33.0603 20.3628 33.4347 21.2183 33.8713 21.6706C34.7333 20.7776 35.3528 18.3163 35.3528 15.4177C35.3528 12.5188 34.7331 10.0574 33.8713 9.16447Z" fill="#E3A303"/>
<path d="M34.1484 15.5421C34.1484 13.8216 33.5838 12.3607 32.7984 11.8306C32.7751 11.8463 32.7529 11.8654 32.7301 11.8828C32.7034 12.0094 32.6782 12.139 32.6543 12.2711L32.6529 12.279C32.6342 12.3836 32.6165 12.4899 32.5995 12.5976C32.5522 12.8987 32.5122 13.2121 32.4803 13.5361L32.4789 13.5504C32.4654 13.6879 32.4536 13.8274 32.4432 13.9684C32.4419 13.9855 32.4405 14.0026 32.4394 14.0197C32.4297 14.1555 32.4213 14.2929 32.4144 14.4317C32.4134 14.4529 32.4125 14.4742 32.4115 14.4954C32.4049 14.6345 32.3997 14.7746 32.3963 14.9162C32.3958 14.9339 32.3955 14.9515 32.3951 14.9692C32.3918 15.1169 32.3898 15.2657 32.3898 15.416V15.4173V15.4183C32.3898 15.5947 32.3922 15.7694 32.3967 15.9424L32.3968 15.9504C32.4014 16.1221 32.4081 16.2917 32.4171 16.4594L32.4177 16.471C32.4265 16.6385 32.4377 16.8037 32.4506 16.9667L32.4514 16.9769C32.4645 17.1409 32.4798 17.3025 32.4969 17.4615L32.4975 17.4674C32.5149 17.6275 32.5342 17.785 32.5554 17.9395L32.5557 17.9413C32.6197 18.4074 32.701 18.8468 32.797 19.252V19.2523L32.7984 19.2533C33.5839 18.7235 34.1484 17.2626 34.1484 15.5421Z" fill="#D18C0A"/>
<path d="M29.4354 11.6711C29.1328 11.5503 28.7899 11.6983 28.6694 12.0019C28.5489 12.3054 28.6966 12.6494 28.9992 12.7702C29.3016 12.891 29.6446 12.743 29.7651 12.4395C29.8856 12.1359 29.738 11.792 29.4354 11.6711Z" fill="#FFD474"/>
<path d="M24.6232 13.2191C24.3207 13.0982 23.9778 13.2463 23.8573 13.5498C23.7368 13.8533 23.8845 14.1974 24.1869 14.3181C24.4895 14.4389 24.8324 14.2909 24.9529 13.9873C25.0734 13.6839 24.9257 13.34 24.6232 13.2191Z" fill="#FFD474"/>
<path d="M27.5854 12.4945C26.827 12.1916 25.9673 12.5626 25.6654 13.3235C25.3635 14.0843 25.7335 14.9467 26.4919 15.2496C27.2503 15.5525 28.11 15.1813 28.4119 14.4205C28.7139 13.6598 28.3439 12.7974 27.5854 12.4945Z" fill="#FFD474"/>
<path d="M0.669187 16.123C0.669187 15.4922 1.01665 14.9713 1.46995 14.878L1.46344 14.8753C1.39395 14.8435 1.32216 14.8138 1.24718 14.7878C1.00517 14.704 0.758959 14.7666 0.581976 14.9157V14.9147L0.575719 14.9207C0.506609 14.9803 0.448212 15.0529 0.405624 15.1359C0.193577 15.4586 -0.0799215 16.1161 0.372735 16.9822C0.399385 17.0536 0.437509 17.1185 0.483667 17.1764L0.485706 17.1797L0.485831 17.179C0.660901 17.3964 0.957225 17.5052 1.24718 17.4049C1.29755 17.3874 1.34626 17.3682 1.39421 17.3481L1.38822 17.346C0.975724 17.2104 0.669187 16.7151 0.669187 16.123Z" fill="#747E82"/>
<path d="M9.35255 21.3224C9.13591 22.7405 9.43339 23.9809 10.3225 24.7124C10.9428 25.2228 12.0103 25.1715 12.2868 24.9764C12.4212 24.8816 12.5131 24.7336 12.5246 24.5693C12.5544 24.1395 11.8688 24.412 10.9268 23.6699C9.70065 22.7039 9.56893 19.9042 9.35255 21.3224Z" fill="#FFD474"/>
<path d="M26.4316 19.032L26.4405 19.0662L26.5592 19.5265L26.5593 19.527C26.5768 19.5951 26.5917 19.6638 26.6047 19.7326L26.6094 19.7591C26.6215 19.826 26.6321 19.8932 26.6404 19.9608C27.5309 20.1611 28.4062 20.4127 29.258 20.7198C29.3216 20.7428 29.3874 20.766 29.4537 20.7892L29.4557 20.7898C29.4595 20.7527 29.4622 20.7152 29.4652 20.678C29.4683 20.6396 29.4713 20.6012 29.4739 20.5627C29.4767 20.5169 29.4792 20.4713 29.4811 20.4254C29.482 20.4048 29.4824 20.3839 29.4829 20.3632C29.4865 20.2508 29.4871 20.1379 29.4843 20.0246V20.0245C28.4947 19.6168 27.4228 19.242 26.4315 18.8963L26.4316 19.032Z" fill="#E3A303"/>
</svg>
