<svg width="36" height="36" viewBox="0 0 36 36" fill="none" xmlns="http://www.w3.org/2000/svg">
<rect width="36" height="36" rx="16" fill="url(#paint0_linear_14_16853)"/>
<path d="M35.8151 3.7609L34.1126 1.86179C34.0559 1.79865 33.9684 1.77284 33.8864 1.79511L32.8729 2.0712C32.3246 2.22051 31.8246 2.50976 31.4221 2.91023L29.549 4.77442C29.3691 4.67864 29.2363 4.6508 29.1725 4.70774C29.1469 4.73052 29.1338 4.76595 29.132 4.81239C29.0856 4.8091 29.0488 4.81808 29.0233 4.84086C28.9841 4.87578 28.9745 4.94057 28.9897 5.02851L28.9839 5.02383C28.9839 5.02383 28.9618 5.21426 28.7297 5.3413C28.6104 5.29512 28.5205 5.28942 28.471 5.33358C28.4491 5.35306 28.4378 5.38306 28.4325 5.41912C28.3966 5.41988 28.3659 5.42734 28.3446 5.44644C28.2541 5.52717 28.3183 5.7648 28.4967 6.09202L22.2749 12.0436C22.0275 11.8734 21.8427 11.8029 21.7689 11.8687C21.7476 11.8877 21.7368 11.9172 21.7353 11.9556C21.6969 11.953 21.6663 11.9604 21.645 11.9794C21.6125 12.0084 21.6045 12.0621 21.6172 12.1351L21.6125 12.1311C21.6125 12.1311 21.5941 12.2892 21.4016 12.3946C21.3026 12.3562 21.2279 12.3516 21.1868 12.3883C21.1687 12.4045 21.1593 12.4293 21.1548 12.4591C21.1249 12.4597 21.0995 12.466 21.0818 12.4819C21.0734 12.4947 21.0652 12.5081 21.0569 12.5215C20.8698 12.8263 20.6797 13.2822 19.2537 13.5954C19.1731 13.6021 19.0973 13.6174 19.0271 13.6422C18.9389 13.6734 18.8593 13.7191 18.7907 13.7804C18.5481 13.9967 18.483 14.3689 18.5696 14.8087C18.5189 14.8 18.478 14.8045 18.4523 14.8275C18.4345 14.8434 18.4254 14.8679 18.4215 14.8974C18.3911 14.8984 18.3654 14.905 18.3472 14.9212C18.306 14.9579 18.3025 15.0325 18.3298 15.1348C18.2032 15.3139 18.0437 15.3146 18.0437 15.3146L18.047 15.3198C17.9757 15.2991 17.9213 15.3012 17.8888 15.3301C17.8676 15.3491 17.8568 15.3786 17.8552 15.4169C17.8168 15.4141 17.7861 15.4216 17.7649 15.4406C17.7107 15.4889 17.7237 15.6053 17.7903 15.7678L4.61473 28.0278C4.49791 27.9654 4.41153 27.9472 4.37018 27.9841C4.35356 27.9989 4.34506 28.022 4.34379 28.052C4.31386 28.0498 4.29 28.0556 4.27339 28.0705C4.24802 28.0932 4.24167 28.1351 4.25157 28.1921L4.2479 28.1891C4.2479 28.1891 4.23165 28.312 4.08121 28.3942C4.00498 28.3651 3.94714 28.3616 3.91543 28.3899C3.90122 28.4026 3.89387 28.4219 3.89045 28.4453C3.86711 28.4458 3.84719 28.4506 3.83336 28.463C3.79505 28.4972 3.80039 28.5758 3.84034 28.685L2.99301 29.4408C2.89496 29.5283 2.78106 29.5968 2.65637 29.639C2.50137 29.6916 2.31464 29.7432 2.08721 29.793C2.02873 29.7978 1.97356 29.809 1.92257 29.8269C1.85838 29.8496 1.80067 29.8829 1.75082 29.9273C1.57463 30.0844 1.52732 30.3548 1.59011 30.6743C1.5532 30.668 1.52377 30.6713 1.50499 30.688C1.49218 30.6995 1.48546 30.7172 1.48267 30.7387C1.46059 30.7394 1.44182 30.7442 1.42863 30.7559C1.41188 30.7709 1.40415 30.7947 1.40339 30.8254L1.36496 30.7945C1.36496 30.7945 1.31245 30.8277 1.2168 30.8535C1.03212 30.9031 0.835128 30.8716 0.665789 30.7828C0.505584 30.6985 0.387364 30.6748 0.330157 30.726C0.30631 30.7471 0.294636 30.7805 0.293367 30.8238C0.246054 30.8239 0.20736 30.8355 0.179327 30.8605C-0.0380856 31.0544 0.450914 31.9538 1.2716 32.8693C2.09229 33.7848 2.93391 34.3696 3.15132 34.1756C3.17935 34.1506 3.1952 34.1136 3.20053 34.0667C3.24391 34.0701 3.27841 34.0622 3.30213 34.041C3.31456 34.03 3.32357 34.0153 3.32979 33.9981L3.33803 34.0088L3.33157 33.9918C3.3506 33.9295 3.33321 33.8313 3.28437 33.7057C3.22717 33.5586 3.21575 33.3955 3.25799 33.2436C3.29845 33.0983 3.36086 33.0209 3.36086 33.0209L3.31989 32.9654C3.35148 32.9686 3.37724 32.9639 3.39423 32.9486C3.40755 32.9369 3.4144 32.9189 3.41744 32.8971C3.43926 32.8967 3.45765 32.8921 3.47058 32.8806C3.48923 32.8639 3.49595 32.8349 3.49379 32.7977C3.80507 32.8955 4.0797 32.8788 4.25589 32.7215C4.34963 32.6379 4.40683 32.5221 4.43067 32.3843C4.50196 32.1775 4.57058 32.0072 4.6368 31.8658C4.69337 31.7447 4.7748 31.6372 4.87463 31.5482L5.72627 30.7885C5.83054 30.8402 5.90817 30.8543 5.94661 30.8201C5.96043 30.8077 5.96753 30.7885 5.97058 30.7654C5.99417 30.7647 6.01447 30.7595 6.02855 30.7468C6.06039 30.7185 6.06331 30.6609 6.04276 30.5818C6.14157 30.4419 6.26575 30.4395 6.26575 30.4395L6.26308 30.4354C6.31877 30.4516 6.36139 30.45 6.38663 30.4273C6.40325 30.4125 6.41175 30.3895 6.41302 30.3595C6.44308 30.3617 6.46693 30.3558 6.48355 30.341C6.52502 30.3041 6.51652 30.2165 6.4673 30.0937L20.1476 18.3967C20.3021 18.4805 20.4166 18.5065 20.4708 18.4581C20.4921 18.4392 20.503 18.4098 20.5044 18.3713C20.5429 18.3741 20.5735 18.3667 20.5947 18.3477C20.6272 18.3187 20.6352 18.2651 20.6226 18.1919L20.6274 18.1958C20.6274 18.1958 20.6457 18.0378 20.8384 17.9324C20.9373 17.9706 21.012 17.9754 21.0531 17.9387C21.0713 17.9225 21.0809 17.8977 21.0851 17.8677C21.1149 17.8671 21.1403 17.8608 21.1581 17.845C21.184 17.8219 21.1929 17.7822 21.19 17.731C21.6185 17.8657 21.9963 17.8424 22.239 17.6261C22.368 17.5109 22.4466 17.3516 22.4795 17.1618C22.9432 15.8168 23.4108 15.6698 23.7331 15.5206C23.7545 15.5177 23.7736 15.5117 23.7875 15.4993C23.8053 15.4835 23.8144 15.4589 23.8183 15.4295C23.8485 15.4286 23.8744 15.4219 23.8925 15.4057C23.9336 15.3691 23.9373 15.2945 23.9102 15.1921C24.0365 15.0129 24.1961 15.0123 24.1961 15.0123L24.1928 15.0071C24.2641 15.0277 24.3185 15.0257 24.351 14.9969C24.3723 14.9779 24.3831 14.9484 24.3846 14.9099C24.423 14.9126 24.4536 14.9052 24.4748 14.8863C24.5486 14.8205 24.4989 14.6293 24.3569 14.3652L30.9786 8.85965C31.2847 9.07285 31.5144 9.16295 31.6049 9.08222C31.6263 9.06324 31.6372 9.03363 31.6419 8.99807C31.6783 8.99693 31.7094 8.98897 31.7313 8.96948C31.7808 8.92532 31.7852 8.83548 31.7525 8.71211C31.9049 8.49612 32.097 8.4955 32.097 8.4955L32.093 8.48929C32.179 8.51421 32.2445 8.51182 32.2836 8.4769C32.3092 8.454 32.3223 8.41844 32.3242 8.37225C32.3705 8.37554 32.4074 8.36655 32.4329 8.34365C32.4967 8.28671 32.4838 8.15196 32.4083 7.96305L34.4333 6.34988C34.8633 6.00723 35.1998 5.56209 35.4119 5.05558L35.8555 3.99575C35.8882 3.91667 35.8727 3.82518 35.8151 3.7609Z" fill="#E3A156"/>
<path d="M29.549 4.77443C29.3692 4.67865 29.2363 4.65081 29.1725 4.70775C29.1469 4.73053 29.1339 4.76596 29.1321 4.8124C29.452 4.83517 30.2331 5.45544 31.0194 6.33256C31.8057 7.20968 32.3367 8.05301 32.3238 8.37276C32.3701 8.37605 32.407 8.36707 32.4325 8.34417C32.4963 8.28723 32.4833 8.15248 32.4079 7.96357C32.2442 7.55335 31.7849 6.88678 31.1686 6.19933C30.5524 5.51188 29.9393 4.98245 29.549 4.77443Z" fill="#CA8637"/>
<path d="M30.4755 6.81769C30.0589 6.35294 29.6437 5.96259 29.2964 5.69396C29.0731 5.52112 28.878 5.39876 28.7297 5.34132C28.6105 5.29513 28.5205 5.28943 28.4711 5.33359C28.4491 5.35308 28.4378 5.38307 28.4325 5.41913C28.7373 5.41293 29.5355 6.03989 30.3407 6.93802C31.146 7.83614 31.6818 8.69745 31.6415 8.99872C31.678 8.99758 31.709 8.98962 31.731 8.97013C31.7805 8.92597 31.7849 8.83613 31.7522 8.71276C31.7114 8.55927 31.6114 8.35239 31.4638 8.11173C31.2348 7.73732 30.8921 7.28245 30.4755 6.81769Z" fill="#CA8637"/>
<path d="M27.3796 8.45146L28.5034 9.70489L29.4038 8.72312L28.4578 7.66797L27.3796 8.45146Z" fill="#CA8637"/>
<path d="M28.4358 7.64331L28.4579 7.66798L29.4039 8.72313L29.4259 8.74781L29.8561 8.23004L28.9994 7.27459L28.4358 7.64331Z" fill="#683A11"/>
<path d="M22.2746 12.0436C22.0272 11.8734 21.8424 11.8029 21.7686 11.8687C21.7473 11.8877 21.7365 11.9172 21.735 11.9557C22.0005 11.9746 22.6489 12.4894 23.3015 13.2173C23.9541 13.9454 24.3949 14.6454 24.3842 14.9107C24.4226 14.9134 24.4532 14.906 24.4743 14.887C24.5482 14.8212 24.4984 14.6301 24.3565 14.366C24.1755 14.0293 23.844 13.5739 23.4255 13.1069C23.0067 12.6398 22.5898 12.2606 22.2746 12.0436Z" fill="#CA8637"/>
<path d="M22.8501 13.6199C22.5044 13.2343 22.1597 12.9102 21.8715 12.6873C21.686 12.5436 21.5242 12.4422 21.4011 12.3946C21.3022 12.3562 21.2275 12.3516 21.1864 12.3883C21.1683 12.4045 21.1589 12.4293 21.1544 12.4591C21.4073 12.4539 22.0699 12.9745 22.7381 13.7199C23.4063 14.4653 23.8512 15.1801 23.8178 15.4302C23.848 15.4293 23.8739 15.4226 23.892 15.4064C23.9331 15.3699 23.9368 15.2952 23.9096 15.1928C23.8758 15.0656 23.7927 14.8937 23.6703 14.6939C23.4803 14.3833 23.1959 14.0056 22.8501 13.6199Z" fill="#CA8637"/>
<path d="M4.61469 28.0277C4.49787 27.9653 4.41149 27.9471 4.37013 27.984C4.35352 27.9988 4.34502 28.0218 4.34375 28.0518C4.55127 28.0666 5.05763 28.4687 5.56742 29.0374C6.07709 29.606 6.42147 30.1528 6.41298 30.3599C6.44304 30.3621 6.46689 30.3562 6.48351 30.3414C6.52498 30.3045 6.51648 30.2169 6.46726 30.094C6.36097 29.8281 6.06351 29.3964 5.6642 28.951C5.26489 28.5058 4.86775 28.1628 4.61469 28.0277Z" fill="#CA8637"/>
<path d="M5.21466 29.3519C4.9446 29.0507 4.67543 28.7976 4.45041 28.6234C4.30454 28.5105 4.17744 28.431 4.08104 28.3941C4.0048 28.365 3.94696 28.3614 3.91525 28.3898C3.90104 28.4024 3.89368 28.4218 3.89026 28.4452C4.08776 28.4412 4.6053 28.8476 5.12714 29.4299C5.64911 30.0121 5.99653 30.5705 5.97052 30.7658C5.99412 30.7651 6.01442 30.7599 6.0285 30.7472C6.06033 30.7189 6.06326 30.6613 6.04271 30.5822C6.01658 30.4825 5.95163 30.3478 5.85535 30.1906C5.70682 29.948 5.48471 29.6531 5.21466 29.3519Z" fill="#CA8637"/>
<path d="M18.9376 17.1102C18.285 16.3823 17.8443 15.6821 17.8551 15.4169C17.8167 15.4142 17.786 15.4216 17.7648 15.4406C17.7107 15.4889 17.7236 15.6054 17.7902 15.7678C17.9297 16.1092 18.3077 16.6562 18.8138 17.2208C19.3199 17.7854 19.8229 18.2209 20.1473 18.3972C20.3018 18.4811 20.4164 18.507 20.4705 18.4587C20.4919 18.4397 20.5028 18.4103 20.5042 18.3719C20.2387 18.353 19.5904 17.838 18.9376 17.1102Z" fill="#CA8637"/>
<path d="M19.5009 16.6076C18.8326 15.8622 18.3879 15.1473 18.4211 14.8973C18.3908 14.8983 18.3651 14.9049 18.3469 14.9211C18.3057 14.9578 18.3022 15.0324 18.3294 15.1346C18.3632 15.2619 18.4463 15.4338 18.5685 15.6336C18.7585 15.9441 19.0431 16.3217 19.3888 16.7075C19.7346 17.0931 20.0791 17.4172 20.3673 17.6402C20.5528 17.7837 20.7146 17.8852 20.8378 17.9329C20.9367 17.9711 21.0114 17.9759 21.0525 17.9392C21.0707 17.923 21.0803 17.8982 21.0845 17.8683C20.8318 17.8734 20.1692 17.353 19.5009 16.6076Z" fill="#CA8637"/>
<path d="M1.48242 32.6814C0.767264 31.8837 0.284107 31.117 0.293367 30.8238C0.246054 30.8239 0.20736 30.8355 0.179327 30.8605C-0.0380856 31.0544 0.450914 31.9538 1.2716 32.8693C2.09229 33.7848 2.93391 34.3696 3.15132 34.1756C3.17935 34.1506 3.1952 34.1136 3.20053 34.0667C2.90764 34.0434 2.19744 33.479 1.48242 32.6814Z" fill="#BD7B2D"/>
<path d="M2.26693 31.9814C1.78149 31.4399 1.4583 30.9206 1.48253 30.7389C1.46045 30.7395 1.44168 30.7443 1.42849 30.7561C1.41174 30.771 1.40401 30.7948 1.40325 30.8255C1.39868 31.0239 1.71529 31.5294 2.1855 32.0539C2.65381 32.5764 3.12035 32.9453 3.31975 32.9657C3.35134 32.9689 3.37708 32.9642 3.39408 32.9489C3.4074 32.9371 3.41424 32.9191 3.41729 32.8974C3.23387 32.9011 2.75237 32.523 2.26693 31.9814Z" fill="#CA8637"/>
<path d="M16.8785 18.3906C16.7071 18.5433 16.6925 18.8056 16.8458 18.9763C16.9989 19.147 17.2617 19.1617 17.4329 19.0089C17.604 18.8562 17.6187 18.5939 17.4656 18.4232C17.3125 18.2524 17.0496 18.2379 16.8785 18.3906Z" fill="#492B13"/>
<path d="M14.7038 20.1104C14.465 20.3235 14.4445 20.6894 14.658 20.9277C14.8716 21.1659 15.2385 21.1864 15.4773 20.9732C15.7162 20.7601 15.7367 20.3942 15.5231 20.156C15.3095 19.9178 14.9427 19.8973 14.7038 20.1104Z" fill="#492B13"/>
<path d="M12.6389 21.9526C12.4001 22.1657 12.3795 22.5315 12.5931 22.7699C12.8067 23.0083 13.1736 23.0286 13.4125 22.8155C13.6513 22.6025 13.6718 22.2365 13.4582 21.9983C13.2445 21.7599 12.8778 21.7394 12.6389 21.9526Z" fill="#492B13"/>
<path d="M10.6835 23.9169C10.5122 24.0696 10.4976 24.3319 10.6506 24.5026C10.8037 24.6734 11.0667 24.6881 11.2378 24.5354C11.409 24.3827 11.4236 24.1205 11.2705 23.9497C11.1175 23.7788 10.8547 23.7642 10.6835 23.9169Z" fill="#492B13"/>
<path d="M6.38985 27.7952C6.23675 27.6244 5.9738 27.6097 5.80256 27.7626C5.63144 27.9153 5.61672 28.1775 5.7697 28.3483C5.9228 28.519 6.18575 28.5336 6.35699 28.3809C6.52823 28.2282 6.54295 27.9659 6.38985 27.7952Z" fill="#492B13"/>
<path d="M6.5702 28.6188C6.47214 28.7063 6.46389 28.8563 6.55141 28.954C6.63906 29.0518 6.7895 29.0602 6.88756 28.9727C6.98548 28.8853 6.99399 28.7352 6.90634 28.6375C6.81869 28.5397 6.66825 28.5314 6.5702 28.6188Z" fill="#492B13"/>
<path d="M2.94039 30.2917C2.78729 30.1209 2.52434 30.1063 2.35309 30.2591C2.18198 30.4118 2.16726 30.6741 2.32024 30.8448C2.47334 31.0156 2.73629 31.0303 2.90753 30.8774C3.07877 30.7247 3.09349 30.4625 2.94039 30.2917Z" fill="#492B13"/>
<path d="M3.12081 31.1153C3.02289 31.2026 3.01451 31.3528 3.10203 31.4505C3.18968 31.5483 3.34012 31.5566 3.43817 31.4692C3.5361 31.3818 3.54446 31.2317 3.45681 31.134C3.36929 31.0362 3.21886 31.028 3.12081 31.1153Z" fill="#492B13"/>
<path d="M8.50891 25.6367C8.27006 25.8498 8.24951 26.2157 8.46312 26.454C8.67685 26.6922 9.04356 26.7127 9.28253 26.4997C9.52138 26.2866 9.54182 25.9207 9.32834 25.6823C9.1146 25.444 8.74788 25.4236 8.50891 25.6367Z" fill="#492B13"/>
<path d="M34.1911 3.64894C34.0226 3.78344 33.9951 4.02877 34.1299 4.19706C34.2647 4.36522 34.5107 4.39269 34.6794 4.25818C34.848 4.12368 34.8756 3.87833 34.7406 3.71004C34.6058 3.54188 34.3598 3.51456 34.1911 3.64894Z" fill="#F9B669"/>
<path d="M30.7899 4.17668C30.6212 4.31118 30.5938 4.55653 30.7287 4.72482C30.8635 4.89298 31.1095 4.92044 31.2782 4.78594C31.4469 4.65144 31.4744 4.40609 31.3394 4.2378C31.2046 4.06964 30.9586 4.04217 30.7899 4.17668Z" fill="#F9B669"/>
<path d="M32.1575 3.14861C31.8203 3.41762 31.7652 3.90845 32.035 4.2449C32.3046 4.58147 32.7966 4.63627 33.1339 4.36726C33.4712 4.09838 33.5262 3.60743 33.2564 3.27098C32.9869 2.9344 32.4948 2.87961 32.1575 3.14861Z" fill="#F9B669"/>
<path d="M21.1383 16.5245C20.2154 15.9816 19.8711 14.0972 19.8526 15.0774C19.8473 15.3529 19.8694 15.6146 19.9175 15.8585C20.0404 16.4826 20.3381 16.9873 20.8214 17.2854C20.9006 17.3342 20.9871 17.3702 21.0766 17.3969C21.5186 17.5288 22.0416 17.4164 22.1834 17.2857C22.2663 17.2093 22.3155 17.1007 22.3083 16.9883C22.2897 16.6945 21.8475 16.9417 21.1383 16.5245Z" fill="#F9B669"/>
<defs>
<linearGradient id="paint0_linear_14_16853" x1="0" y1="18" x2="36" y2="18" gradientUnits="userSpaceOnUse">
<stop stop-color="#83247C"/>
<stop offset="1" stop-color="#363787"/>
</linearGradient>
</defs>
</svg>
