<svg width="36" height="36" viewBox="0 0 36 36" fill="none" xmlns="http://www.w3.org/2000/svg">
<rect width="36" height="36" rx="16" fill="url(#paint0_linear_14_16851)"/>
<path d="M29.4066 12.3711C26.5967 9.70242 23.466 8.43455 22.4141 9.53935C21.7871 10.1977 22.0402 11.5502 22.9417 13.1004C22.9216 13.1168 22.9015 13.1333 22.8817 13.1502C22.8525 13.175 22.8237 13.2009 22.7949 13.2266C22.7634 13.2547 22.732 13.2829 22.7013 13.3122C22.672 13.3398 22.6434 13.3682 22.6148 13.3967C22.5852 13.4261 22.556 13.4558 22.527 13.4861C22.4985 13.5162 22.4701 13.5467 22.442 13.5777C22.4141 13.6084 22.3864 13.6396 22.3589 13.6714C22.3311 13.7036 22.3034 13.7362 22.2759 13.7693C22.2648 13.783 22.2529 13.796 22.2418 13.8098L22.2423 13.8111C19.0959 17.6988 19.4127 27.6564 18.1225 27.6369C16.8608 27.6177 17.1961 26.2043 17.1961 26.2043C18.3021 21.6488 19.4467 17.1384 20.3515 12.5389C20.6294 11.1265 20.8988 9.56346 20.8993 8.12403C20.8996 6.97863 20.8669 5.41775 20.5311 4.3226C20.3137 3.61386 20.0229 2.91731 19.5695 2.33052C19.1287 1.75972 18.6161 1.24058 17.9934 0.876C15.8529 -0.377774 14.5752 -0.00164995 12.6795 1.59742C12.0448 2.13294 9.84404 4.19342 9.04553 4.42298C8.52671 4.57209 7.93215 4.52324 7.4644 4.27477C7.43175 4.25738 7.3996 4.23911 7.36822 4.21994L7.3611 4.21537C7.33238 4.19748 7.30404 4.17896 7.27634 4.15955L7.25055 4.14024L7.2874 4.0688L6.01061 3.4112L5.79242 3.29891L5.7562 3.28012L5.35352 3.07276L5.24221 3.01541L4.88553 2.83179C4.4249 3.03508 3.89678 3.01922 3.44912 2.78877L3.288 2.70564L3.1425 2.98748L3.06384 3.1399L5.50626 4.39773L6.77925 5.05342L6.86324 4.89049C9.11225 6.94805 11.5567 5.45899 14.0217 4.03378C16.492 2.60551 17.7863 4.77868 17.7863 4.77868C18.1577 5.42473 18.1986 6.55529 18.0219 7.96223C17.9458 7.94358 17.8666 7.93266 17.7845 7.93266C17.3832 7.93266 17.0381 8.17061 16.8809 8.5126L16.4457 8.39966C16.0355 8.29306 15.6221 8.52783 15.504 8.93366C14.9477 10.8454 13.0308 17.3334 11.7244 20.5505C11.5953 20.8682 11.6925 21.2387 11.9607 21.4514L11.9714 21.4592L12.5945 21.8795C12.4997 22.0317 12.4442 22.2106 12.4442 22.403C12.4442 22.8767 12.7766 23.2724 13.2212 23.3716C12.8177 24.3693 12.5608 24.9707 12.5608 24.9707C11.7857 26.8829 11.4791 28.4731 11.4749 29.7911C11.4619 33.7732 15.1534 36.408 19.0909 35.7795C23.2071 35.1226 24.2881 32.0117 24.5131 28.8579L24.5133 28.8603C24.5196 28.7725 24.5251 28.6848 24.5302 28.597C24.5314 28.575 24.5325 28.5531 24.5337 28.5311C24.5373 28.4621 24.5406 28.3931 24.5436 28.3242C24.5445 28.3026 24.5454 28.281 24.5463 28.2593C24.5533 28.0823 24.5581 27.9058 24.561 27.73C24.5614 27.7105 24.5617 27.6909 24.5619 27.6715C24.5629 27.6018 24.5636 27.5323 24.564 27.463C24.5642 27.4409 24.5642 27.4188 24.5645 27.3968C24.5647 27.3185 24.5647 27.2403 24.5645 27.1624L24.5644 27.1385C24.564 27.0507 24.5631 26.9634 24.5619 26.8762C24.5617 26.859 24.5614 26.8417 24.561 26.8243C24.5602 26.7548 24.559 26.6855 24.5576 26.6167C24.5571 26.5947 24.5569 26.5729 24.5563 26.5511C24.5548 26.4805 24.553 26.4104 24.5513 26.3404C24.551 26.3261 24.5505 26.3116 24.5501 26.2973C24.5478 26.213 24.5453 26.1293 24.5427 26.0462C24.5422 26.0314 24.5419 26.0171 24.5413 26.0025C24.5392 25.9332 24.5368 25.8643 24.5344 25.7959C24.5336 25.7745 24.5328 25.7533 24.5321 25.732C24.5297 25.6661 24.5272 25.6006 24.5247 25.5355C24.5241 25.5193 24.5236 25.503 24.5228 25.4867C24.5158 25.3058 24.5087 25.1284 24.5017 24.9549C24.4998 24.9039 24.4976 24.8534 24.4959 24.803C24.4948 24.777 24.4937 24.7509 24.4928 24.7251C24.49 24.65 24.4872 24.5754 24.4845 24.5019C24.3652 21.1304 26.5052 19.188 27.9734 18.2573C29.9933 19.5626 31.8317 19.9995 32.5901 19.2032C33.6416 18.0988 32.2165 15.04 29.4066 12.3711ZM16.7743 13.4082C16.6156 13.9433 16.4485 14.4828 16.2759 15.0207C16.1423 14.9541 15.9922 14.9156 15.8327 14.9156C15.2834 14.9156 14.838 15.3603 14.838 15.9089C14.838 16.3969 15.1907 16.8019 15.6553 16.8855C15.4796 17.3963 15.3023 17.899 15.1261 18.3889C15.0347 18.3613 14.9383 18.3462 14.838 18.3462C14.2887 18.3462 13.8433 18.7909 13.8433 19.3396C13.8433 19.7468 14.0891 20.0964 14.4402 20.2497C14.2684 20.7056 14.1018 21.1401 13.9432 21.5482C13.7952 21.4607 13.623 21.4097 13.4384 21.4097C13.2082 21.4097 12.9969 21.4885 12.8283 21.6196L12.1711 21.1764C12.0262 21.0581 11.9744 20.8552 12.0453 20.6807C13.3579 17.4483 15.279 10.9462 15.8364 9.03047C15.9017 8.80573 16.1316 8.6763 16.3579 8.7348L16.7933 8.84787C16.7913 8.87376 16.7893 8.89964 16.7893 8.92604C16.7893 9.44011 17.1803 9.86294 17.6815 9.91408C17.5693 10.4388 17.439 10.9834 17.2944 11.5408C17.1551 11.4665 16.9961 11.4242 16.8271 11.4242C16.2777 11.4242 15.8323 11.869 15.8323 12.4175C15.8327 12.9481 16.2498 13.3804 16.7743 13.4082Z" fill="#E3A303"/>
<path d="M24.7478 21.0191C26.3797 17.4235 22.3656 14.1882 22.2422 13.8112C19.0958 17.6989 19.4126 27.6565 18.1225 27.637C16.8608 27.6178 17.196 26.2044 17.196 26.2044C18.302 21.6489 19.4467 17.1385 20.3514 12.539C20.6293 11.1266 20.8987 9.56359 20.8992 8.12416C20.8996 6.97875 20.8668 5.41789 20.5311 4.32274C20.3137 3.614 20.0228 2.91744 19.5694 2.33066C19.1286 1.75986 18.616 1.24071 17.9934 0.876122C15.8529 -0.377652 14.5752 -0.00152788 12.6794 1.59754C12.0447 2.13306 9.84399 4.19354 9.04549 4.4231C8.52666 4.57221 7.9321 4.52336 7.46436 4.27489C7.51518 4.64277 7.78229 5.60659 9.18743 5.53565C10.9207 5.44809 14.0021 4.04469 14.0214 4.03377C16.4917 2.60551 17.786 4.77868 17.786 4.77868C18.1574 5.42473 18.1983 6.55529 18.0216 7.96223C18.456 8.0687 18.7788 8.45917 18.7788 8.92591C18.7788 9.4745 18.3335 9.91929 17.7841 9.91929C17.7497 9.91929 17.7153 9.91751 17.6817 9.91408C17.5695 10.4388 17.4392 10.9834 17.2946 11.5408C17.6084 11.708 17.8218 12.0376 17.8218 12.4174C17.8218 12.966 17.3766 13.4108 16.8273 13.4108C16.8093 13.4108 16.7919 13.4092 16.7743 13.4082C16.6156 13.9433 16.4485 14.4828 16.2759 15.0207C16.6025 15.1835 16.8273 15.5197 16.8273 15.909C16.8273 16.4576 16.382 16.9024 15.8325 16.9024C15.7719 16.9024 15.7128 16.8961 15.6552 16.8857C15.4794 17.3965 15.3022 17.8993 15.1259 18.3891C15.5347 18.5125 15.8325 18.8913 15.8325 19.3398C15.8325 19.8884 15.3873 20.3331 14.8378 20.3331C14.6963 20.3331 14.5621 20.3032 14.44 20.2499C14.2682 20.7057 14.1016 21.1402 13.943 21.5483C14.2358 21.7213 14.4329 22.0388 14.4329 22.4032C14.4329 22.9518 13.9876 23.3966 13.4382 23.3966C13.3632 23.3966 13.2907 23.3876 13.2205 23.3719C12.8171 24.3696 12.5601 24.9709 12.5601 24.9709C11.785 26.8832 11.4784 28.4734 11.4742 29.7914C11.4612 33.7735 15.1527 36.4082 19.0903 35.7798C23.2064 35.1228 24.2874 32.012 24.5125 28.8581C24.4757 28.5484 24.4354 28.2041 24.391 27.8216C23.8165 22.878 23.8012 23.1049 24.7478 21.0191ZM16.5748 2.54929C15.3637 2.3545 14.8845 2.93762 14.6986 2.53954C14.6274 2.38738 14.6367 2.20972 14.71 2.05858C14.8611 1.74755 15.7918 1.17255 16.6001 1.32001C17.7584 1.53143 18.6388 2.48979 19.1468 3.86158C19.6546 5.23362 18.1509 2.80259 16.5748 2.54929ZM13.5326 30.6965C13.1477 30.6339 12.8867 30.2713 12.9495 29.887C13.0122 29.5027 13.3753 29.2419 13.7602 29.3046C14.1451 29.3673 14.4061 29.7298 14.3433 30.1141C14.2806 30.4986 13.9176 30.7594 13.5326 30.6965ZM16.7362 32.8601C16.6105 33.6288 15.8847 34.1504 15.1149 34.0249C14.3449 33.8994 13.8228 33.1745 13.9485 32.4058C14.074 31.637 14.8 31.1154 15.5698 31.2409C16.3396 31.3665 16.8618 32.0913 16.7362 32.8601ZM19.1012 33.8878C19.0384 34.2722 18.6755 34.533 18.2906 34.4702C17.9057 34.4075 17.6444 34.0451 17.7073 33.6607C17.7702 33.2763 18.1332 33.0157 18.5179 33.0783C18.9029 33.141 19.1641 33.5035 19.1012 33.8878ZM21.7693 30.3596C20.9845 30.3596 20.3481 29.7242 20.3481 28.9404C20.3481 28.1565 20.9845 27.521 21.7693 27.521C22.5542 27.521 23.1905 28.1565 23.1905 28.9404C23.1905 29.7242 22.5542 30.3596 21.7693 30.3596ZM22.2417 25.3831C21.6924 25.3831 21.247 24.9384 21.247 24.3897C21.247 23.8411 21.6923 23.3965 22.2417 23.3965C22.791 23.3965 23.2364 23.8411 23.2364 24.3897C23.2364 24.9384 22.7912 25.3831 22.2417 25.3831ZM22.6984 20.8979C22.1491 20.8979 21.7037 20.4532 21.7037 19.9046C21.7037 19.356 22.1491 18.9112 22.6984 18.9112C23.2477 18.9112 23.6931 19.356 23.6931 19.9046C23.6931 20.4532 23.2479 20.8979 22.6984 20.8979Z" fill="#FCBF36"/>
<path d="M29.4067 12.3712C26.5968 9.70244 23.466 8.43457 22.4141 9.53936C21.7872 10.1977 22.0403 11.5502 22.9417 13.1004C23.5529 14.1516 24.4617 15.2934 25.5971 16.3717C26.3815 17.1167 27.1908 17.7521 27.9729 18.2577C29.9928 19.563 31.8313 19.9999 32.5897 19.2036C33.6417 18.0988 32.2166 15.04 29.4067 12.3712ZM26.3231 14.3021C26.2331 14.2078 26.1452 14.1134 26.0591 14.0191C26.0486 14.0074 26.0379 13.9957 26.0272 13.9842C25.9383 13.8861 25.8513 13.788 25.7666 13.6903L25.758 13.6804C25.5552 13.4457 25.3652 13.2124 25.1888 12.9822C25.13 12.9054 25.0728 12.8291 25.017 12.7531L25.0127 12.7473C24.9384 12.6459 24.867 12.5453 24.7983 12.4456L24.7982 12.4455C24.1175 11.4566 23.7195 10.5595 23.6931 9.91957C24.8563 9.90904 26.9263 11.0733 28.892 12.9402C30.8577 14.8071 32.126 16.8133 32.1739 17.9739C31.5849 17.9793 30.7629 17.682 29.84 17.1461L29.8392 17.1463L29.8134 17.1309C29.759 17.0991 29.704 17.0659 29.649 17.0324C29.6207 17.0153 29.5927 16.9986 29.5642 16.9809C29.5071 16.9456 29.4494 16.9087 29.3917 16.8717C29.3646 16.8543 29.3379 16.8377 29.3107 16.8199C29.2482 16.7792 29.1852 16.7366 29.122 16.694C29.0993 16.6785 29.0767 16.6638 29.0539 16.6483C28.9679 16.5893 28.8812 16.5286 28.7941 16.4661L28.7924 16.4648C28.674 16.3797 28.5547 16.2916 28.435 16.2002L28.4308 16.1972C28.3117 16.1063 28.1923 16.0126 28.0723 15.9157L28.066 15.9104C27.9466 15.8141 27.8271 15.7148 27.7075 15.6127L27.7004 15.6065C27.5805 15.5043 27.461 15.3994 27.3413 15.2918L27.3359 15.2869C27.2156 15.1784 27.0955 15.0675 26.9758 14.9537L26.9753 14.9533L26.9747 14.9527C26.8728 14.8559 26.7732 14.7585 26.6749 14.6611C26.6632 14.6494 26.6514 14.6378 26.6399 14.6263C26.546 14.5325 26.4541 14.4386 26.3639 14.3444C26.35 14.3302 26.3364 14.3163 26.3231 14.3021ZM26.4631 15.5826C26.4631 15.5826 29.5786 19.2964 32.4888 18.2772C32.4888 18.2772 30.6909 21.0339 26.4631 15.5826Z" fill="#FCBF36"/>
<path d="M26.6745 14.6611C26.7728 14.7585 26.8724 14.8559 26.9743 14.9527L26.9749 14.9533L26.9754 14.9537C27.0951 15.0674 27.2152 15.1784 27.3356 15.2869L27.3409 15.2918C27.4605 15.3994 27.5802 15.5043 27.7 15.6065L27.7071 15.6127C27.8267 15.7148 27.9463 15.8141 28.0656 15.9104L28.0719 15.9157C28.1919 16.0126 28.3113 16.1063 28.4304 16.1972L28.4346 16.2002C28.5543 16.2916 28.6736 16.3797 28.792 16.4648L28.7937 16.4661C28.8809 16.5286 28.9675 16.5892 29.0535 16.6483C29.0764 16.6639 29.0989 16.6786 29.1217 16.694C29.1848 16.7366 29.2478 16.7792 29.3104 16.8199C29.3376 16.8377 29.3642 16.8543 29.3913 16.8717C29.449 16.9087 29.5067 16.9456 29.5639 16.9809C29.5923 16.9986 29.6204 17.0152 29.6486 17.0324C29.7036 17.0659 29.7587 17.0991 29.8131 17.1309L29.8388 17.1463L29.8396 17.1461H29.8405C29.989 16.2713 29.3637 14.9468 28.197 13.8387C27.0302 12.7305 25.6741 12.1732 24.8067 12.3654C24.8023 12.3913 24.8008 12.4189 24.7979 12.4455L24.798 12.4456C24.8666 12.5453 24.938 12.6459 25.0123 12.7473L25.0167 12.7531C25.0723 12.829 25.1296 12.9054 25.1885 12.9822C25.3648 13.2124 25.5549 13.4457 25.7576 13.6804L25.7662 13.6903C25.8509 13.7881 25.9381 13.8861 26.0269 13.9842C26.0374 13.9958 26.0481 14.0075 26.0588 14.0191C26.1448 14.1134 26.2327 14.2078 26.3227 14.3021C26.3362 14.3161 26.3496 14.3302 26.3632 14.3443C26.4534 14.4383 26.5453 14.5324 26.6392 14.6262C26.6512 14.6378 26.6628 14.6494 26.6745 14.6611Z" fill="#D18C0A"/>
<path d="M5.24203 3.01566L4.88534 2.83204C4.42471 3.03533 3.89662 3.01947 3.44895 2.78902L3.28783 2.70589L3.14233 2.98775L4.79691 3.78645L5.24203 3.01566Z" fill="#653411"/>
<path d="M4.99158 3.87959L5.34991 4.08441L5.75603 3.28024L5.35335 3.07302L5.4442 3.11985L4.99158 3.87959Z" fill="#653411"/>
<path d="M7.28738 4.06894L6.01059 3.41147L5.50598 4.39786L6.77898 5.05355L6.8631 4.8905L7.2504 4.14039L7.28738 4.06894Z" fill="#653411"/>
<path d="M14.3435 30.1141C14.4062 29.7297 14.1451 29.3673 13.7603 29.3046C13.3753 29.2419 13.0124 29.5027 12.9496 29.887C12.8869 30.2714 13.148 30.6339 13.5327 30.6965C13.9176 30.7594 14.2807 30.4986 14.3435 30.1141Z" fill="#FFD474"/>
<path d="M18.5179 33.0783C18.133 33.0156 17.7702 33.2764 17.7073 33.6607C17.6444 34.0451 17.9058 34.4075 18.2906 34.4702C18.6755 34.533 19.0384 34.2721 19.1012 33.8878C19.1641 33.5035 18.9029 33.141 18.5179 33.0783Z" fill="#FFD474"/>
<path d="M15.5699 31.241C14.8001 31.1155 14.0741 31.637 13.9486 32.4058C13.8229 33.1745 14.3452 33.8994 15.115 34.0249C15.8848 34.1503 16.6106 33.6287 16.7363 32.8601C16.8619 32.0913 16.3397 31.3665 15.5699 31.241Z" fill="#FFD474"/>
<path d="M17.822 8.52351C18.0447 8.52351 18.2251 8.70371 18.2251 8.92604C18.2251 9.14837 18.0446 9.32857 17.822 9.32857C17.6294 9.32857 17.4686 9.19318 17.429 9.01273L16.7935 8.84775C16.7916 8.87364 16.7896 8.89952 16.7896 8.92592C16.7896 9.43999 17.1805 9.86282 17.6817 9.91396C17.7154 9.91739 17.7497 9.91917 17.7841 9.91917C18.3335 9.91917 18.7788 9.47451 18.7788 8.92579C18.7788 8.45905 18.4561 8.06858 18.0216 7.96211C17.9455 7.94346 17.8663 7.93254 17.7843 7.93254C17.383 7.93254 17.0379 8.17049 16.8807 8.51248L17.5089 8.67542C17.5826 8.58367 17.6948 8.52351 17.822 8.52351Z" fill="#F39217"/>
<path d="M15.8328 12.4175C15.8328 12.9482 16.2498 13.3804 16.7745 13.4082C16.7921 13.4091 16.8096 13.4108 16.8275 13.4108C17.3768 13.4108 17.822 12.9662 17.822 12.4175C17.822 12.0378 17.6086 11.708 17.2948 11.5408C17.1556 11.4665 16.9965 11.4242 16.8275 11.4242C16.2781 11.4242 15.8328 11.869 15.8328 12.4175ZM17.2305 12.4175C17.2305 12.6398 17.0501 12.82 16.8275 12.82C16.6048 12.82 16.4244 12.6398 16.4244 12.4175C16.4244 12.1951 16.6048 12.0149 16.8275 12.0149C17.0501 12.0151 17.2305 12.1951 17.2305 12.4175Z" fill="#F39217"/>
<path d="M14.838 15.9088C14.838 16.3969 15.1906 16.8018 15.6553 16.8855C15.7129 16.8959 15.7721 16.9021 15.8327 16.9021C16.382 16.9021 16.8274 16.4574 16.8274 15.9087C16.8274 15.5194 16.6026 15.1834 16.2761 15.0204C16.1424 14.9538 15.9923 14.9153 15.8328 14.9153C15.2834 14.9156 14.838 15.3603 14.838 15.9088ZM16.2359 15.8432C16.2359 16.0656 16.0553 16.2458 15.8327 16.2458C15.6101 16.2458 15.4297 16.0656 15.4297 15.8432C15.4297 15.6209 15.6101 15.4407 15.8327 15.4407C16.0553 15.4407 16.2359 15.621 16.2359 15.8432Z" fill="#F39217"/>
<path d="M13.8433 19.3397C13.8433 19.747 14.089 20.0966 14.4401 20.2499C14.5621 20.3032 14.6964 20.3331 14.838 20.3331C15.3873 20.3331 15.8327 19.8883 15.8327 19.3399C15.8327 18.8913 15.5348 18.5125 15.126 18.3891C15.0347 18.3616 14.9382 18.3465 14.838 18.3465C14.2886 18.3464 13.8433 18.791 13.8433 19.3397ZM15.2412 19.3397C15.2412 19.5621 15.0607 19.7423 14.838 19.7423C14.6153 19.7423 14.4349 19.5621 14.4349 19.3397C14.4349 19.1174 14.6153 18.9372 14.838 18.9372C15.0607 18.9371 15.2412 19.1174 15.2412 19.3397Z" fill="#F39217"/>
<path d="M14.433 22.4031C14.433 22.0388 14.2359 21.7212 13.9432 21.5482C13.7951 21.4608 13.6229 21.4097 13.4383 21.4097C13.2082 21.4097 12.9969 21.4885 12.8282 21.6196L13.3988 22.0045C13.412 22.0032 13.4247 22.0006 13.4383 22.0006C13.6609 22.0006 13.8414 22.1808 13.8414 22.4031C13.8414 22.6254 13.6608 22.8056 13.4383 22.8056C13.2157 22.8056 13.0352 22.6254 13.0352 22.4031C13.0352 22.3333 13.0547 22.2686 13.0859 22.2115L12.594 21.8796C12.4993 22.0318 12.4437 22.2107 12.4437 22.4031C12.4437 22.8768 12.7761 23.2725 13.2208 23.3717C13.2909 23.3875 13.3636 23.3965 13.4384 23.3965C13.9878 23.3965 14.433 22.9517 14.433 22.4031Z" fill="#F39217"/>
<path d="M13.0354 22.4031C13.0354 22.6254 13.2159 22.8056 13.4385 22.8056C13.6611 22.8056 13.8416 22.6254 13.8416 22.4031C13.8416 22.1808 13.661 22.0006 13.4385 22.0006C13.4249 22.0006 13.4121 22.0033 13.399 22.0045L12.8284 21.6196L12.1712 21.1764C12.0264 21.0581 11.9745 20.8552 12.0454 20.6807C13.3581 17.4483 15.2791 10.9462 15.8366 9.03049C15.9019 8.80575 16.1318 8.67632 16.3581 8.73482L16.7934 8.84788L17.4289 9.01286C17.4685 9.19331 17.6293 9.32872 17.8219 9.32872C18.0447 9.32872 18.225 9.14852 18.225 8.92619C18.225 8.70386 18.0445 8.52366 17.8219 8.52366C17.6947 8.52366 17.5825 8.58368 17.5087 8.67581L16.8805 8.51286L16.4452 8.39992C16.0351 8.29333 15.6216 8.52809 15.5035 8.93392C14.9472 10.8457 13.0304 17.3337 11.724 20.5508C11.5948 20.8685 11.6921 21.2389 11.9602 21.4516L11.971 21.4595L12.594 21.8798L13.0859 22.2116C13.0549 22.2687 13.0354 22.3335 13.0354 22.4031Z" fill="#FFD46A"/>
<path d="M14.4351 19.3397C14.4351 19.5621 14.6155 19.7423 14.8381 19.7423C15.0609 19.7423 15.2413 19.5621 15.2413 19.3397C15.2413 19.1174 15.0609 18.9372 14.8381 18.9372C14.6154 18.9371 14.4351 19.1174 14.4351 19.3397Z" fill="#FFD46A"/>
<path d="M22.6984 20.8979C23.2478 20.8979 23.6931 20.4532 23.6931 19.9046C23.6931 19.3559 23.2478 18.9112 22.6984 18.9112C22.1491 18.9112 21.7037 19.3559 21.7037 19.9046C21.7037 20.4532 22.1491 20.8979 22.6984 20.8979Z" fill="#F39217"/>
<path d="M22.2418 23.3965C21.6924 23.3965 21.2471 23.8411 21.2471 24.3897C21.2471 24.9383 21.6923 25.3831 22.2418 25.3831C22.7911 25.3831 23.2365 24.9385 23.2365 24.3897C23.2365 23.8411 22.7912 23.3965 22.2418 23.3965Z" fill="#F39217"/>
<path d="M21.7693 27.521C20.9845 27.521 20.3481 28.1565 20.3481 28.9404C20.3481 29.7242 20.9845 30.3596 21.7693 30.3596C22.5542 30.3596 23.1906 29.7242 23.1906 28.9404C23.1906 28.1565 22.5542 27.521 21.7693 27.521Z" fill="#F39217"/>
<path d="M15.4297 15.8433C15.4297 16.0656 15.6101 16.2458 15.8328 16.2458C16.0554 16.2458 16.2359 16.0656 16.2359 15.8433C16.2359 15.6209 16.0554 15.4407 15.8328 15.4407C15.6101 15.4407 15.4297 15.6211 15.4297 15.8433Z" fill="#FFD46A"/>
<path d="M16.4244 12.4175C16.4244 12.6398 16.6049 12.82 16.8275 12.82C17.0501 12.82 17.2306 12.6398 17.2306 12.4175C17.2306 12.1951 17.0501 12.0149 16.8275 12.0149C16.6049 12.015 16.4244 12.1951 16.4244 12.4175Z" fill="#FFD46A"/>
<path d="M19.1467 3.86171C18.6387 2.48979 17.7585 1.53157 16.6 1.32015C15.7917 1.17257 14.8612 1.74767 14.71 2.05871C14.6366 2.20985 14.6274 2.38738 14.6985 2.53966C14.8846 2.93775 15.3636 2.35465 16.5747 2.54944C18.151 2.80261 19.6546 5.23363 19.1467 3.86171Z" fill="#FFD474"/>
<path d="M26.463 15.5826C30.6908 21.0339 32.4887 18.2772 32.4887 18.2772C29.5785 19.2963 26.463 15.5826 26.463 15.5826Z" fill="#FFD474"/>
<defs>
<linearGradient id="paint0_linear_14_16851" x1="0" y1="18" x2="36" y2="18" gradientUnits="userSpaceOnUse">
<stop stop-color="#83247C"/>
<stop offset="1" stop-color="#363787"/>
</linearGradient>
</defs>
</svg>
