<svg width="36" height="36" viewBox="0 0 36 36" fill="none" xmlns="http://www.w3.org/2000/svg">
<path d="M1.55647 22.6429L2.03484 22.5559V25.3044L2.03612 25.305L2.03484 25.3405L2.24403 25.7258C3.31415 26.3332 4.62097 26.3332 5.69123 25.7258V21.8914L6.38503 21.7654V24.5498L6.6202 25.0134C7.69517 25.591 9.00186 25.591 10.0721 25.0218V21.0955L10.7687 20.9689V23.0511L10.7355 23.5427L11.0059 23.9375C12.0761 24.4519 13.3829 24.4519 14.453 23.9375V20.2995L15.0856 20.1846V22.8213L15.3867 23.2051C16.4571 23.6814 17.7636 23.6814 18.834 23.2051V19.5662V19.5037L19.436 19.3943V21.9453L19.7676 22.3159C20.8378 22.7459 22.1446 22.7459 23.2148 22.3159V19.5662V18.7076L23.7861 18.6039V19.2368V21.0186L24.1485 21.3752C25.2187 21.7562 26.5254 21.7562 27.5958 21.3752V19.5663V17.9117L28.1365 17.8135V18.051V19.4594L28.5293 19.7923C29.5996 20.0935 30.9064 20.0935 31.9765 19.7923V18.3624V17.1157L32.7637 16.9726C33.263 16.8818 33.5949 16.4001 33.505 15.8964L33.3533 15.046C33.2883 14.6821 33.0207 14.4074 32.6892 14.3166C32.5088 14.1273 32.2503 14.019 31.9765 14.0351V12.0664H32.5706C33.0755 12.0664 33.4848 11.6568 33.4848 11.1514V10.2639C33.4848 9.8034 33.1446 9.42351 32.7024 9.35937C32.5501 9.2423 32.36 9.17204 32.1531 9.17204H31.9767V7.85207C31.8411 7.81394 31.7019 7.78065 31.5596 7.75209V7.69751C30.497 7.40077 29.1992 7.40077 28.1366 7.69751V9.10599V9.17204H27.5959V8.07791V6.26901C27.47 6.22425 27.3409 6.18524 27.2094 6.15094V6.13818C26.1467 5.76288 24.849 5.76288 23.7863 6.13818V7.92016V9.17204H23.2149V8.07791V5.32817C23.0699 5.26989 22.9202 5.22028 22.7679 5.17781C21.7227 4.78938 20.4688 4.79985 19.4361 5.21136V7.92003V9.17191H18.8341V8.07779V4.43871C18.6429 4.35366 18.4438 4.28441 18.2401 4.2297C17.2325 3.8706 16.0606 3.90503 15.0858 4.33529V7.92003V9.17191H14.4531V8.07779V3.70648C14.2862 3.62614 14.1129 3.55995 13.9362 3.50461C12.9258 3.11146 11.7479 3.14718 10.7688 3.6139V7.91991V9.17179H10.0722V8.09359V2.68503C9.80178 2.54119 9.51641 2.43407 9.2234 2.36291C8.29265 2.06604 7.25973 2.14664 6.38529 2.60661V7.91991V9.17179H5.69148V8.07765V1.91774C5.39491 1.74941 5.08011 1.62954 4.75716 1.55443C3.85711 1.28192 2.87323 1.37986 2.0351 1.85182V7.91966V9.17152H1.22754C0.728145 9.17152 0.32341 9.57667 0.32341 10.0764V10.9434C0.32341 11.2342 0.461125 11.4922 0.673749 11.6578C0.837707 11.9037 1.11708 12.0659 1.43468 12.0659H2.03497V19.2363V19.424L0.878217 19.6325C0.38252 19.7219 0.053077 20.1965 0.142254 20.6928L0.292961 21.5305C0.323664 21.7013 0.400735 21.8515 0.507747 21.9725C0.630429 22.4326 1.08345 22.7288 1.55647 22.6429ZM27.5957 12.0663H28.1363V14.7197L27.5957 14.8172V12.0663ZM23.2146 12.0663H23.786V15.504L23.2146 15.6069V12.0663ZM18.8339 12.0663H19.4358V16.288L18.8339 16.3965V12.0663ZM14.4529 12.0663H15.0855V17.0721L14.4529 17.1861V12.0663ZM10.0721 12.0663H10.7687V17.8501L10.0721 17.9757V12.0663ZM5.69123 12.0663H6.38503V18.6404L5.69123 18.7655V12.0663Z" fill="#AC482D"/>
<path d="M33.2354 28.8612C31.9477 28.8536 30.8693 29.7657 30.6212 30.9824L29.7439 30.9773L1.34356 30.8097L1.16113 31.2757L1.17145 32.2702L30.5543 32.4435C30.7882 33.663 31.8556 34.5879 33.1433 34.5954C34.5586 34.6039 35.7212 33.5012 35.8063 32.1042C35.8479 31.9199 35.8711 31.7286 35.8723 31.5319C35.8811 30.0656 34.7005 28.8699 33.2354 28.8612Z" fill="#AC482D"/>
<path d="M32.819 21.6652C31.5433 21.8405 30.605 22.8966 30.5319 24.1363L29.6628 24.2556L1.52603 28.1231L1.4115 28.6105L1.56272 29.5934L30.6728 25.5921C31.0771 26.766 32.265 27.5299 33.5407 27.3547C34.9428 27.1618 35.9374 25.9054 35.8238 24.5104C35.8388 24.3221 35.8346 24.1294 35.808 23.9345C35.6085 22.4817 34.2704 21.4657 32.819 21.6652Z" fill="#AC482D"/>
<path d="M5.45791 25.3045C4.39556 25.9027 3.09855 25.9028 2.03607 25.3051L2.03479 25.3406L2.24398 25.726C3.3141 26.3333 4.62092 26.3333 5.69118 25.726V21.8915L5.45791 21.934V25.3045Z" fill="#B0292A"/>
<path d="M5.69121 12.0663H5.45795V18.8074L5.69121 18.7653V12.0663Z" fill="#B0292A"/>
<path d="M5.45795 7.91991V9.17179H5.69122V8.07764V1.91774C5.39464 1.74941 5.07985 1.62954 4.7569 1.55443C4.99793 1.62737 5.23336 1.72544 5.45795 1.85181V7.91991Z" fill="#B0292A"/>
<path d="M14.1918 23.5427C13.1292 24.0493 11.8316 24.0493 10.7687 23.5427V23.0511L10.7355 23.5427L11.0059 23.9375C12.0761 24.4519 13.3829 24.4519 14.453 23.9375V20.2995L14.192 20.347V23.5427H14.1918Z" fill="#CA9E23"/>
<path d="M14.4529 12.0663H14.1919V17.2332L14.4529 17.186V12.0663Z" fill="#CA9E23"/>
<path d="M14.1918 7.9199V9.17178H14.4529V8.07764V3.70635C14.286 3.62601 14.1126 3.55982 13.9359 3.50448C14.0224 3.53814 14.108 3.57384 14.1917 3.61376L14.1918 7.9199Z" fill="#CA9E23"/>
<path d="M22.8589 7.9199V9.17178H23.2147V8.07764V5.3279C23.0697 5.26962 22.92 5.22002 22.7676 5.17756C22.798 5.18878 22.8289 5.19923 22.8589 5.21109V7.9199Z" fill="#3D84A7"/>
<path d="M22.8588 19.2367V21.9453C21.7961 22.369 20.4984 22.369 19.4358 21.9453L19.7674 22.3159C20.8377 22.7459 22.1445 22.7459 23.2146 22.3159V19.5662V18.7076L22.8588 18.7722V19.2367Z" fill="#3D84A7"/>
<path d="M23.2146 12.0663H22.8588V15.6709L23.2146 15.6068V12.0663Z" fill="#3D84A7"/>
<path d="M31.5592 14.1027L31.867 14.0472C31.9036 14.0405 31.94 14.037 31.9763 14.0348V12.0661H31.5592V14.1027Z" fill="#B0292A"/>
<path d="M31.5592 9.1719H31.9763V7.85194C31.8408 7.81381 31.7015 7.78052 31.5592 7.75195V9.10585V9.1719Z" fill="#B0292A"/>
<path d="M31.5592 18.0507V19.4592C30.4966 19.7559 29.1988 19.7559 28.1362 19.4592L28.5291 19.792C29.5994 20.0932 30.9062 20.0932 31.9763 19.792V18.3621V17.1155L31.5592 17.1912V18.0507Z" fill="#B0292A"/>
<path d="M27.2091 19.2367V21.0185C26.1464 21.3939 24.8487 21.3939 23.786 21.0185L24.1483 21.3751C25.2186 21.7561 26.5253 21.7561 27.5957 21.3751V19.5662V17.9116L27.2091 17.9819V19.2367Z" fill="#5B437D"/>
<path d="M27.5957 12.0663H27.2092V14.8868L27.5957 14.8172V12.0663Z" fill="#5B437D"/>
<path d="M27.2092 9.17191H27.5957V8.07778V6.26888C27.4698 6.22412 27.3406 6.1851 27.2092 6.15079V7.92003V9.17191Z" fill="#5B437D"/>
<path d="M18.8338 12.0663H18.5086V16.455L18.8338 16.3965V12.0663Z" fill="#7C992D"/>
<path d="M18.5086 22.8213C17.4459 23.2904 16.1482 23.2904 15.0855 22.8213L15.3865 23.2051C16.4569 23.6814 17.7635 23.6814 18.8339 23.2051V19.5662V19.5037L18.5086 19.5627V22.8213Z" fill="#7C992D"/>
<path d="M18.5087 7.9199V9.17178H18.8339V8.07764V4.43857C18.6427 4.35351 18.4436 4.28428 18.2399 4.22957C18.3307 4.26209 18.4206 4.29639 18.5087 4.33516V7.9199Z" fill="#7C992D"/>
<path d="M10.0721 12.0663H9.80817V18.0233L10.0721 17.9757V12.0663Z" fill="#BC5C21"/>
<path d="M9.8082 7.9199V9.17178H10.0722V8.09358V2.68503C9.8017 2.54118 9.51634 2.43406 9.22333 2.36291C9.42398 2.4268 9.61991 2.50752 9.8082 2.6066V7.9199Z" fill="#BC5C21"/>
<path d="M9.80813 24.55C8.7454 25.1091 7.44775 25.1091 6.38501 24.55L6.62018 25.0135C7.69515 25.5912 9.00184 25.5912 10.0721 25.0219V21.0957L9.80813 21.1436V24.55Z" fill="#BC5C21"/>
<path d="M1.55648 22.6429L2.03485 22.5559V22.1444L1.35201 22.2675C1.02689 22.326 0.711717 22.2036 0.507629 21.9727C0.630439 22.4326 1.08345 22.7288 1.55648 22.6429Z" fill="#2E120C"/>
<path d="M5.45795 21.5274V21.934L5.69121 21.8915L6.38501 21.7655V21.3603L5.45795 21.5274Z" fill="#2E120C"/>
<path d="M33.077 15.6216C33.1663 16.1177 32.8367 16.5925 32.341 16.6819L31.5593 16.8228V17.1915L31.9764 17.1157L32.7636 16.9726C33.2629 16.8818 33.5947 16.4001 33.5049 15.8964L33.3532 15.046C33.2882 14.6821 33.0206 14.4074 32.6891 14.3166C32.8082 14.4416 32.8934 14.6015 32.9264 14.7841L33.077 15.6216Z" fill="#2E120C"/>
<path d="M19.4358 19.0079L18.5086 19.1751V19.2367V19.5626L18.8338 19.5036L19.4358 19.3941V19.2367V19.0079Z" fill="#2E120C"/>
<path d="M14.1919 19.9532V20.347L14.4529 20.2995L15.0856 20.1846V19.792L14.1919 19.9532Z" fill="#2E120C"/>
<path d="M22.8588 18.3909V18.7722L23.2146 18.7075L23.786 18.6038V18.2237L22.8588 18.3909Z" fill="#2E120C"/>
<path d="M27.2092 17.6068V17.9819L27.5957 17.9116L28.1362 17.8134V17.4396L27.2092 17.6068Z" fill="#2E120C"/>
<path d="M9.80817 20.7433V21.1435L10.0721 21.0957L10.7687 20.969V20.5701L9.80817 20.7433Z" fill="#2E120C"/>
<path d="M6.38501 12.0663V11.8488H5.45795V12.0663H5.69121H6.38501Z" fill="#2E120C"/>
<path d="M23.786 12.0663V11.8488H22.8588V12.0663H23.2146H23.786Z" fill="#2E120C"/>
<path d="M15.0856 12.0663V11.8488H14.1919V12.0663H14.4529H15.0856Z" fill="#2E120C"/>
<path d="M33.057 10.0768V10.9438C33.057 11.4436 32.6521 11.8487 32.153 11.8487H31.5593V12.0661H31.9764H32.5705C33.0753 12.0661 33.4847 11.6565 33.4847 11.1512V10.2636C33.4847 9.80314 33.1445 9.42325 32.7023 9.35911C32.9175 9.52463 33.057 9.78413 33.057 10.0768Z" fill="#2E120C"/>
<path d="M10.7687 12.0663V11.8488H9.80817V12.0663H10.0721H10.7687Z" fill="#2E120C"/>
<path d="M28.1362 12.0663V11.8488H27.2092V12.0663H27.5957H28.1362Z" fill="#2E120C"/>
<path d="M19.4358 12.0663V11.8488H18.5086V12.0663H18.8338H19.4358Z" fill="#2E120C"/>
<path d="M1.22743 11.8488C1.0185 11.8488 0.826769 11.7773 0.673767 11.6582C0.837725 11.904 1.1171 12.0663 1.4347 12.0663H2.03499V11.8488H1.22743Z" fill="#2E120C"/>
<path d="M31.5592 14.1026V16.8227L32.3409 16.6818C32.8366 16.5925 33.1662 16.1177 33.0769 15.6214L32.9263 14.7839C32.8934 14.6011 32.8082 14.4412 32.689 14.3164C32.5086 14.127 32.2501 14.0187 31.9763 14.0348C31.94 14.0369 31.9036 14.0405 31.867 14.0472L31.5592 14.1026Z" fill="#602110"/>
<path d="M1.35213 22.2674L2.03497 22.1444V19.4243L0.878217 19.6328C0.38252 19.7222 0.053077 20.1969 0.142254 20.6932L0.292961 21.5309C0.323664 21.7016 0.400735 21.8519 0.507747 21.9729C0.711835 22.2037 1.02688 22.3261 1.35213 22.2674Z" fill="#602110"/>
<path d="M6.38501 19.2366V18.6402L5.69121 18.7653L5.45795 18.8074V19.2366V21.5274L6.38501 21.3603V19.2366Z" fill="#602110"/>
<path d="M28.1362 14.7197L27.5957 14.8172L27.2092 14.8868V17.6068L28.1362 17.4396V14.7197Z" fill="#602110"/>
<path d="M10.7687 19.2367V17.8501L10.0721 17.9757L9.80817 18.0233V19.2367V20.7433L10.7687 20.5702V19.2367Z" fill="#602110"/>
<path d="M19.4358 16.2878L18.8338 16.3965L18.5086 16.455V19.175L19.4358 19.0079V16.2878Z" fill="#602110"/>
<path d="M15.0856 19.2366V17.072L14.4529 17.186L14.1919 17.2332V19.2366V19.9532L15.0856 19.792V19.2366Z" fill="#602110"/>
<path d="M23.786 15.5038L23.2146 15.6068L22.8588 15.6709V18.3909L23.786 18.2237V15.5038Z" fill="#602110"/>
<path d="M5.45795 11.8488H6.38501V9.17191H5.69121H5.45795V11.8488Z" fill="#602110"/>
<path d="M14.1919 11.8488H15.0856V9.17191H14.4529H14.1919V11.8488Z" fill="#602110"/>
<path d="M22.8588 11.8488H23.786V9.17191H23.2146H22.8588V11.8488Z" fill="#602110"/>
<path d="M31.5592 11.8488H32.1529C32.652 11.8488 33.0569 11.4437 33.0569 10.9439V10.0769C33.0569 9.78427 32.9175 9.52476 32.7022 9.35936C32.5498 9.2423 32.3598 9.17204 32.1529 9.17204H31.9764H31.5593V11.8488H31.5592Z" fill="#602110"/>
<path d="M27.2092 11.8488H28.1362V9.17191H27.5957H27.2092V11.8488Z" fill="#602110"/>
<path d="M18.5086 11.8488H19.4358V9.17191H18.8338H18.5086V11.8488Z" fill="#602110"/>
<path d="M9.80817 11.8488H10.7687V9.17191H10.0721H9.80817V11.8488Z" fill="#602110"/>
<path d="M2.03487 11.8488V9.17191H1.22731C0.727916 9.17191 0.323181 9.57703 0.323181 10.0768V10.9438C0.323181 11.2346 0.460896 11.4925 0.67352 11.6582C0.826649 11.7773 1.01825 11.8488 1.22718 11.8488H2.03487Z" fill="#602110"/>
<path d="M2.03485 22.556V25.3045L2.03613 25.3051C3.09861 25.9028 4.39562 25.9026 5.45798 25.3045V21.934V21.5274V19.2367V18.8074V12.0663V11.8488V9.17191V7.92003V1.85218C5.23338 1.72581 4.99795 1.62774 4.75692 1.5548C3.85687 1.28228 2.87299 1.38023 2.03485 1.85218V7.92003V9.17191V11.8488V12.0663V19.2367V19.4244V22.1444V22.556ZM2.80407 6.50798C2.7061 6.27233 2.81744 6.00173 3.053 5.90353C3.28843 5.80547 3.55876 5.91705 3.65673 6.15271C3.7547 6.38837 3.64336 6.65897 3.4078 6.75703C3.17237 6.85523 2.90204 6.74364 2.80407 6.50798ZM3.85521 21.0881C3.55583 21.1416 3.26996 20.942 3.21671 20.6424C3.16333 20.3428 3.3627 20.0567 3.66195 20.0033C3.96121 19.9499 4.24708 20.1494 4.30059 20.449C4.35397 20.7487 4.15446 21.0348 3.85521 21.0881ZM3.75864 10.979C3.45468 10.979 3.20817 10.7324 3.20817 10.428C3.20817 10.1237 3.45468 9.87698 3.75864 9.87698C4.06261 9.87698 4.30912 10.1236 4.30912 10.428C4.30912 10.7324 4.06261 10.979 3.75864 10.979ZM4.4862 2.02293C4.72176 1.92487 4.99209 2.03645 5.09006 2.2721C5.18802 2.50776 5.07668 2.77837 4.84113 2.87643C4.6057 2.97449 4.33536 2.86292 4.2374 2.62726C4.1393 2.3916 4.25077 2.12099 4.4862 2.02293ZM3.03478 3.14628C3.54742 2.93281 4.13586 3.17559 4.34913 3.68874C4.56251 4.20176 4.31983 4.79078 3.80731 5.00438C3.29454 5.21798 2.70623 4.97505 2.49284 4.4619C2.27946 3.94888 2.52227 3.35987 3.03478 3.14628Z" fill="#DF4447"/>
<path d="M10.7687 12.0663V17.8501V19.2367V20.5702V20.969V23.0512V23.5428C11.8316 24.0494 13.1293 24.0494 14.1919 23.5428V20.3471V19.9532V19.2367V17.2332V12.0663V11.8488V9.17191V7.92003V3.61403C14.1082 3.57411 14.0224 3.5384 13.9361 3.50473C12.9257 3.11159 11.7478 3.1473 10.7687 3.61403V7.92003V9.17191V11.8488V12.0663ZM12.577 19.5437C12.2777 19.5972 11.9919 19.3976 11.9385 19.098C11.8851 18.7985 12.0845 18.5123 12.3837 18.4589C12.6831 18.4055 12.9689 18.605 13.0224 18.9046C13.0757 19.2041 12.8763 19.4903 12.577 19.5437ZM12.4804 9.87711C12.7844 9.87711 13.0308 10.1237 13.0308 10.4281C13.0308 10.7325 12.7844 10.9791 12.4804 10.9791C12.1765 10.9791 11.9298 10.7325 11.9298 10.4281C11.9298 10.1237 12.1765 9.87711 12.4804 9.87711Z" fill="#FAC83E"/>
<path d="M19.4358 12.0663V16.288V19.008V19.2367V19.3941V21.9452C20.4984 22.3688 21.7961 22.3688 22.8588 21.9452V19.2365V18.7721V18.3908V15.6708V12.066V11.8486V9.17191V7.92003V5.21136C22.8289 5.19937 22.7979 5.18903 22.7676 5.17781C21.7224 4.78938 20.4685 4.79985 19.4358 5.21136V7.92003V9.17191V11.8488V12.0663ZM21.2098 18.0149C20.9107 18.0683 20.6246 17.8687 20.5713 17.5692C20.5179 17.2696 20.7173 16.9835 21.0165 16.9299C21.3158 16.8765 21.6016 17.0761 21.655 17.3756C21.7083 17.6753 21.509 17.9616 21.2098 18.0149ZM21.1131 9.87711C21.4172 9.87711 21.6636 10.1237 21.6636 10.4281C21.6636 10.7325 21.4172 10.9791 21.1131 10.9791C20.8091 10.9791 20.5627 10.7325 20.5627 10.4281C20.5627 10.1237 20.8091 9.87711 21.1131 9.87711Z" fill="#5EAFD6"/>
<path d="M28.1362 12.0663V14.7197V17.4397V17.8134V18.0508V19.4593C29.199 19.756 30.4966 19.756 31.5592 19.4593V18.0508V17.1913V16.8227V14.1026V12.0661V11.8487V9.17191V9.10586V7.75196V7.69738C30.4966 7.40064 29.1988 7.40064 28.1362 7.69738V9.10586V9.17191V11.8488V12.0663ZM29.853 9.8771C30.1571 9.8771 30.4035 10.1237 30.4035 10.4281C30.4035 10.7325 30.1571 10.9791 29.853 10.9791C29.5491 10.9791 29.3025 10.7325 29.3025 10.4281C29.3025 10.1237 29.5491 9.8771 29.853 9.8771ZM29.9497 16.4862C29.6505 16.5396 29.3646 16.34 29.3112 16.0405C29.2578 15.7408 29.4572 15.4547 29.7564 15.4013C30.0558 15.3479 30.3417 15.5475 30.395 15.847C30.4483 16.1466 30.249 16.4327 29.9497 16.4862ZM29.7945 18.158C30.8438 17.4794 31.1546 15.2602 31.2232 16.4053C31.2916 17.5503 30.9631 18.5158 30.2 19.0325C29.6675 19.3931 28.8196 19.2734 28.6133 19.0978C28.5131 19.0125 28.4506 18.8879 28.4536 18.756C28.4613 18.4117 28.9882 18.6794 29.7945 18.158Z" fill="#DF4447"/>
<path d="M23.786 12.0663V15.504V18.2239V18.6039V19.2368V21.0186C24.8487 21.3941 26.1464 21.3941 27.2091 21.0186V19.2368V17.982V17.6071V14.887V12.0664V11.849V9.17191V7.92003V6.1508V6.13805C26.1464 5.76275 24.8487 5.76275 23.786 6.13805V7.92003V9.17191V11.8488V12.0663ZM25.6332 17.2505C25.334 17.3038 25.048 17.1044 24.9946 16.8048C24.9412 16.5053 25.1406 16.2191 25.4399 16.1657C25.7392 16.1124 26.0251 16.3118 26.0785 16.6114C26.1319 16.9109 25.9325 17.1971 25.6332 17.2505ZM25.5366 9.8771C25.8405 9.8771 26.087 10.1237 26.087 10.4281C26.087 10.7325 25.8405 10.9791 25.5366 10.9791C25.2326 10.9791 24.9861 10.7325 24.9861 10.4281C24.9861 10.1237 25.2326 9.8771 25.5366 9.8771Z" fill="#8669AC"/>
<path d="M15.0855 12.0663V17.0721V19.2367V19.792V20.1846V22.8213C16.1484 23.2904 17.4459 23.2904 18.5086 22.8213V19.5626V19.2367V19.1751V16.455V12.0661V11.8487V9.17191V7.92003V4.33529C18.4207 4.29652 18.3307 4.26209 18.2398 4.2297C17.2323 3.8706 16.0603 3.90503 15.0855 4.33529V7.92003V9.17191V11.8488V12.0663ZM16.9023 18.7575C16.603 18.811 16.3172 18.6114 16.2638 18.3117C16.2103 18.0122 16.4098 17.726 16.709 17.6726C17.0083 17.6192 17.2942 17.8187 17.3475 18.1183C17.4009 18.418 17.2017 18.7041 16.9023 18.7575ZM16.8056 9.87711C17.1096 9.87711 17.3561 10.1237 17.3561 10.4281C17.3561 10.7325 17.1096 10.9791 16.8056 10.9791C16.5016 10.9791 16.2553 10.7325 16.2553 10.4281C16.2553 10.1237 16.5016 9.87711 16.8056 9.87711Z" fill="#A7C94C"/>
<path d="M6.38501 12.0663V18.6404V19.2368V21.3604V21.7657V24.5501C7.44775 25.1093 8.7454 25.1093 9.80813 24.5501V21.1436V20.7433V19.2367V18.0233V12.0663V11.8488V9.17191V7.92003V2.60672C9.61972 2.50764 9.42378 2.42692 9.22326 2.36303C8.29251 2.06616 7.25958 2.14676 6.38513 2.60672V7.92003V9.17191V11.8488L6.38501 12.0663ZM8.2604 20.3081C7.96115 20.3615 7.67527 20.1619 7.62189 19.8624C7.56851 19.5629 7.76789 19.2767 8.06727 19.2233C8.36639 19.1698 8.65227 19.3694 8.70565 19.669C8.75916 19.9685 8.55978 20.2547 8.2604 20.3081ZM8.16384 9.8771C8.46781 9.8771 8.71418 10.1237 8.71418 10.4281C8.71418 10.7325 8.46781 10.9791 8.16384 10.9791C7.85987 10.9791 7.61336 10.7325 7.61336 10.4281C7.61336 10.1237 7.85987 9.8771 8.16384 9.8771Z" fill="#EB7E3B"/>
<path d="M3.6619 20.0033C3.36265 20.0567 3.16327 20.3429 3.21665 20.6424C3.27003 20.942 3.5559 21.1415 3.85515 21.0881C4.15441 21.0347 4.35379 20.7485 4.30053 20.449C4.24703 20.1494 3.96115 19.9499 3.6619 20.0033Z" fill="#2E120C"/>
<path d="M8.0673 19.2233C7.76792 19.2767 7.56855 19.5629 7.62193 19.8624C7.6753 20.1621 7.96131 20.3615 8.26044 20.3081C8.55969 20.2547 8.75906 19.9685 8.70568 19.669C8.65243 19.3693 8.36655 19.1698 8.0673 19.2233Z" fill="#2E120C"/>
<path d="M12.3837 18.4588C12.0845 18.5121 11.8852 18.7984 11.9385 19.0979C11.9919 19.3976 12.2777 19.597 12.577 19.5436C12.8762 19.4902 13.0757 19.204 13.0222 18.9045C12.9689 18.6049 12.683 18.4053 12.3837 18.4588Z" fill="#2E120C"/>
<path d="M16.7092 17.6726C16.4099 17.726 16.2104 18.0122 16.2639 18.3117C16.3173 18.6113 16.6032 18.8109 16.9024 18.7576C17.2018 18.7041 17.4011 18.418 17.3477 18.1184C17.2943 17.8187 17.0084 17.6192 16.7092 17.6726Z" fill="#2E120C"/>
<path d="M21.0166 16.93C20.7173 16.9835 20.5179 17.2696 20.5713 17.5693C20.6247 17.8688 20.9107 18.0684 21.2098 18.015C21.5092 17.9616 21.7085 17.6754 21.6551 17.3758C21.6017 17.0762 21.3158 16.8766 21.0166 16.93Z" fill="#2E120C"/>
<path d="M25.4399 16.1657C25.1406 16.2191 24.9412 16.5053 24.9946 16.8048C25.048 17.1044 25.334 17.3039 25.6332 17.2505C25.9325 17.1971 26.1319 16.9109 26.0785 16.6114C26.0252 16.3118 25.7394 16.1122 25.4399 16.1657Z" fill="#2E120C"/>
<path d="M29.7564 15.4013C29.4572 15.4547 29.2579 15.7409 29.3112 16.0405C29.3645 16.34 29.6504 16.5396 29.9497 16.4861C30.2489 16.4327 30.4483 16.1465 30.3949 15.847C30.3415 15.5475 30.0557 15.3479 29.7564 15.4013Z" fill="#2E120C"/>
<path d="M3.75861 9.8771C3.45464 9.8771 3.20813 10.1237 3.20813 10.4281C3.20813 10.7325 3.45464 10.9791 3.75861 10.9791C4.06257 10.9791 4.30908 10.7325 4.30908 10.4281C4.30908 10.1237 4.06257 9.8771 3.75861 9.8771Z" fill="#2E120C"/>
<path d="M8.16389 10.979C8.46785 10.979 8.71423 10.7324 8.71423 10.428C8.71423 10.1237 8.46785 9.87698 8.16389 9.87698C7.85992 9.87698 7.6134 10.1236 7.6134 10.428C7.6134 10.7324 7.85992 10.979 8.16389 10.979Z" fill="#2E120C"/>
<path d="M12.4804 10.979C12.7844 10.979 13.0308 10.7324 13.0308 10.428C13.0308 10.1237 12.7844 9.87698 12.4804 9.87698C12.1765 9.87698 11.9298 10.1236 11.9298 10.428C11.9298 10.7324 12.1765 10.979 12.4804 10.979Z" fill="#2E120C"/>
<path d="M16.8056 10.979C17.1096 10.979 17.3561 10.7324 17.3561 10.428C17.3561 10.1237 17.1096 9.87698 16.8056 9.87698C16.5016 9.87698 16.2552 10.1236 16.2552 10.428C16.2552 10.7324 16.5016 10.979 16.8056 10.979Z" fill="#2E120C"/>
<path d="M21.1131 10.979C21.4172 10.979 21.6636 10.7324 21.6636 10.428C21.6636 10.1237 21.4172 9.87698 21.1131 9.87698C20.8091 9.87698 20.5627 10.1236 20.5627 10.428C20.5627 10.7324 20.8091 10.979 21.1131 10.979Z" fill="#2E120C"/>
<path d="M25.5366 10.979C25.8405 10.979 26.087 10.7324 26.087 10.428C26.087 10.1237 25.8405 9.87698 25.5366 9.87698C25.2326 9.87698 24.9861 10.1236 24.9861 10.428C24.9861 10.7324 25.2326 10.979 25.5366 10.979Z" fill="#2E120C"/>
<path d="M29.853 10.979C30.1571 10.979 30.4034 10.7324 30.4034 10.428C30.4034 10.1237 30.1571 9.87698 29.853 9.87698C29.549 9.87698 29.3025 10.1236 29.3025 10.428C29.3025 10.7324 29.549 10.979 29.853 10.979Z" fill="#2E120C"/>
<path d="M4.84114 2.87644C5.07669 2.77838 5.18803 2.50778 5.09006 2.27212C4.9921 2.03646 4.72176 1.92475 4.48621 2.02294C4.25065 2.12101 4.13919 2.39161 4.23728 2.62739C4.33538 2.86292 4.60558 2.97451 4.84114 2.87644Z" fill="#EA555B"/>
<path d="M3.40779 6.75704C3.64335 6.65898 3.75456 6.38838 3.65672 6.15272C3.55875 5.91693 3.28842 5.80548 3.05299 5.90355C2.81743 6.00161 2.70609 6.27221 2.80406 6.50799C2.90203 6.74365 3.17236 6.85524 3.40779 6.75704Z" fill="#EA555B"/>
<path d="M3.80732 5.00438C4.31983 4.79091 4.56252 4.20176 4.34913 3.68874C4.13587 3.1756 3.5473 2.93281 3.03478 3.14628C2.52227 3.35975 2.27959 3.94888 2.49285 4.4619C2.70624 4.97505 3.29455 5.21798 3.80732 5.00438Z" fill="#EA555B"/>
<path d="M28.6133 19.0978C28.8195 19.2735 29.6675 19.3931 30.2 19.0325C30.9631 18.5158 31.2916 17.5503 31.2231 16.4053C31.1546 15.2603 30.8436 17.4794 29.7945 18.158C28.9883 18.6794 28.4613 18.4117 28.4537 18.756C28.4506 18.8878 28.5132 19.0124 28.6133 19.0978Z" fill="#EA555B"/>
<path d="M1.33745 31.847L1.34356 30.8097L1.16113 31.2757L1.17145 32.2702L30.5543 32.4435C30.5278 32.3054 30.5124 32.1636 30.5082 32.0189L1.33745 31.847Z" fill="#6B2613"/>
<path d="M33.2041 34.1717C31.9164 34.164 30.849 33.2392 30.6151 32.0197L30.5083 32.0191C30.5125 32.1638 30.5279 32.3057 30.5544 32.4438C30.7883 33.6632 31.8558 34.5882 33.1435 34.5957C34.5587 34.6041 35.7213 33.5014 35.8064 32.1044C35.5378 33.2939 34.4726 34.1792 33.2041 34.1717Z" fill="#803019"/>
<path d="M27.6571 31.6402L1.33746 31.847L30.5083 32.019L30.6151 32.0196C30.583 31.8515 30.5661 31.6781 30.5672 31.5007C30.5683 31.3231 30.587 31.1499 30.6213 30.9824L29.7441 30.9773C29.7406 31.5501 28.2294 31.6437 27.6571 31.6402Z" fill="#973C24"/>
<path d="M31.4919 31.1728C31.2883 31.202 31.1469 31.3911 31.1763 31.5949C31.2056 31.7987 31.3944 31.9402 31.5981 31.9109C31.8016 31.8815 31.9428 31.6924 31.9137 31.4887C31.8844 31.2849 31.6956 31.1435 31.4919 31.1728Z" fill="#C25435"/>
<path d="M34.5417 32.1834C34.3381 32.2127 34.1969 32.4017 34.2261 32.6055C34.2554 32.8093 34.4442 32.9508 34.6478 32.9215C34.8515 32.8922 34.9928 32.7032 34.9633 32.4994C34.9342 32.2956 34.7452 32.1542 34.5417 32.1834Z" fill="#C25435"/>
<path d="M32.7913 31.8314C32.3011 31.9019 31.9607 32.3571 32.0312 32.848C32.1018 33.3388 32.5565 33.6795 33.0467 33.6088C33.5373 33.5382 33.8775 33.083 33.8069 32.5922C33.7364 32.1014 33.2818 31.7608 32.7913 31.8314Z" fill="#C25435"/>
<path d="M1.66693 29.1509L1.52603 28.1232L1.4115 28.6106L1.56272 29.5935L30.6728 25.5922C30.6271 25.4593 30.5916 25.3211 30.567 25.1784L1.66693 29.1509Z" fill="#6B2613"/>
<path d="M33.5407 26.9264C32.2649 27.1018 31.0771 26.3379 30.6728 25.1638L30.567 25.1784C30.5916 25.3211 30.627 25.4593 30.6728 25.5922C31.0771 26.7661 32.2649 27.53 33.5407 27.3548C34.9428 27.162 35.9374 25.9055 35.8237 24.5105C35.7263 25.7261 34.7973 26.7537 33.5407 26.9264Z" fill="#803019"/>
<path d="M27.6911 25.2085L1.66693 29.1509L30.5672 25.1784L30.6729 25.1638C30.6171 25.0021 30.5762 24.8328 30.552 24.6569C30.5278 24.4811 30.522 24.3069 30.532 24.1363L29.6629 24.2556C29.7406 24.8232 28.258 25.1306 27.6911 25.2085Z" fill="#973C24"/>
<path d="M31.4207 24.201C31.2232 24.2591 31.1103 24.466 31.1681 24.6638C31.2259 24.8614 31.4329 24.9746 31.6304 24.9167C31.8277 24.8588 31.9409 24.6516 31.8829 24.454C31.8249 24.2563 31.6179 24.143 31.4207 24.201Z" fill="#C25435"/>
<path d="M34.7925 25.4839C34.9898 25.4259 35.103 25.2188 35.045 25.0213C34.9873 24.8236 34.7803 24.7105 34.5828 24.7684C34.3854 24.8263 34.2724 25.0334 34.3302 25.2311C34.3882 25.4286 34.5952 25.5418 34.7925 25.4839Z" fill="#C25435"/>
<path d="M32.8002 24.6684C32.3249 24.808 32.0525 25.3069 32.192 25.7827C32.3313 26.2586 32.8297 26.5313 33.305 26.3916C33.7805 26.2521 34.0528 25.7532 33.9135 25.2773C33.7741 24.8015 33.2757 24.5289 32.8002 24.6684Z" fill="#C25435"/>
</svg>
