<svg width="36" height="36" viewBox="0 0 36 36" fill="none" xmlns="http://www.w3.org/2000/svg">
<rect width="36" height="36" rx="16" fill="url(#paint0_linear_14_16844)"/>
<path d="M28.6643 20.4343C27.6899 18.6167 27.3338 16.7727 27.2281 15.3419C27.2064 15.0472 27.2059 14.7521 27.2213 14.4575C27.9616 8.52414 25.666 6.04446 25.5689 4.95899C25.4972 4.15863 26.088 4.03404 26.5954 4.06993C26.8078 4.15587 27.0394 4.20439 27.2827 4.20439C28.2971 4.20439 29.1196 3.38065 29.1196 2.3647C29.1196 1.4113 28.3955 0.627369 27.4681 0.534228C27.1549 0.28046 26.7564 0.127925 26.3221 0.127925C26.1705 0.127925 26.024 0.148523 25.8833 0.183277C25.8673 0.186942 25.8479 0.191873 25.8252 0.198319C25.7977 0.206028 25.7705 0.214242 25.7434 0.223341C25.7092 0.234715 25.6708 0.248609 25.6293 0.265164L25.6041 0.275284C24.7671 0.621056 22.4068 1.63587 23.6208 7.29991C23.2519 7.08633 22.8608 6.89587 22.4524 6.72892C21.0407 5.9656 19.3409 5.51873 17.5099 5.51873C15.6252 5.51873 13.8798 5.99252 12.4444 6.79717C13.2177 1.92667 11.0641 1.00107 10.2704 0.673118L10.245 0.662874C10.2033 0.646192 10.1646 0.632305 10.1301 0.620804C10.1164 0.616255 10.1024 0.612201 10.0886 0.608031C9.83177 0.445634 9.59516 0.3463 9.42305 0.275022L9.39768 0.264917C9.35616 0.248362 9.31794 0.234453 9.28349 0.223079C9.25649 0.21398 9.22935 0.205892 9.20184 0.198056C9.17913 0.191737 9.1597 0.186806 9.14368 0.183015C9.00298 0.148135 8.85647 0.127663 8.70492 0.127663C7.69721 0.127663 6.88018 0.945845 6.88018 1.95523C6.88018 2.83824 7.50542 3.5749 8.3366 3.74551C8.66001 4.03024 9.08297 4.20414 9.54746 4.20414C9.79062 4.20414 10.0223 4.1556 10.2348 4.06967C10.2735 4.06689 10.313 4.06563 10.3525 4.06487C10.4022 4.18619 10.4243 4.33911 10.407 4.53234C10.3118 5.59771 8.08536 8.01558 8.74114 13.7575C8.75767 14.0395 8.75704 14.3224 8.74101 14.6048C8.65458 16.135 8.28562 18.2065 7.12661 20.2145C6.22868 21.6739 5.72622 23.3447 5.74514 25.1188C5.77997 28.3954 7.61507 31.3182 10.4299 33.1701C12.4975 34.8138 15.2341 35.8323 18.233 35.8707C24.8557 35.9552 30.255 31.3182 30.255 25.5859C30.2553 23.709 29.6758 21.9493 28.6643 20.4343ZM10.2427 25.4503C9.71503 24.9124 9.43403 24.1479 9.81472 23.5297C9.81472 23.5297 10.6149 21.8962 11.2137 19.8393L11.0317 25.6783C10.762 25.6309 10.4981 25.5554 10.2427 25.4503ZM11.2112 25.7052L11.4178 19.0861C11.6386 18.2051 11.8055 17.2774 11.8479 16.3861C12.0057 13.07 11.8479 11.8067 12.1633 10.8591C12.1633 10.8591 12.5442 10.572 13.2475 10.2324L12.7659 25.6636C12.2469 25.7494 11.721 25.7723 11.2112 25.7052ZM13.9458 25.3656C13.6217 25.4744 13.2866 25.5651 12.9471 25.6309L13.4303 10.1461C13.8564 9.95083 14.3839 9.74545 15.0017 9.57118L14.5154 25.1552C14.3272 25.2294 14.1378 25.301 13.9458 25.3656ZM14.6981 25.0812L15.1835 9.52164C15.6563 9.39678 16.1782 9.29151 16.7462 9.22339L16.2732 24.3822C15.7497 24.6193 15.2291 24.8635 14.6981 25.0812ZM17.5943 23.8305C17.2085 23.9709 16.8311 24.1327 16.4562 24.3004L16.9272 9.20343C17.4144 9.15262 17.9336 9.12937 18.4825 9.14415L18.0288 23.6834C17.8831 23.7297 17.7381 23.7782 17.5943 23.8305ZM18.2109 23.6285L18.6627 9.15085C19.1563 9.17158 19.6728 9.22264 20.2111 9.31262L19.7752 23.2786C19.2463 23.3588 18.7234 23.4751 18.2109 23.6285ZM19.9564 23.2519L20.3903 9.34446C20.8869 9.43444 21.4013 9.5574 21.932 9.71854L21.5132 23.146C20.9925 23.1464 20.4722 23.182 19.9564 23.2519ZM21.6934 23.1473L22.1107 9.77376C22.6088 9.93199 23.1209 10.1235 23.646 10.354L23.6203 11.1773C23.5418 11.7721 23.4713 12.6547 23.5431 13.6514L23.2428 23.2733C22.7299 23.1969 22.2121 23.1547 21.6934 23.1473ZM24.9619 23.6657C24.4578 23.5087 23.9431 23.3877 23.4222 23.3018L23.6878 14.7902C23.798 15.3853 23.968 15.9954 24.2244 16.5894C24.2244 16.5894 24.6479 17.298 25.128 18.3408L24.9619 23.6657ZM25.5893 23.8791C25.4409 23.823 25.2911 23.7708 25.1405 23.7212L25.2967 18.7167C25.8861 20.0635 26.4966 21.8351 26.4831 23.3784C26.4793 23.8352 25.9802 24.1141 25.5893 23.8791Z" fill="#CC6D26"/>
<path d="M9.8147 23.5297C9.8147 23.5297 10.6148 21.8963 11.2137 19.8393L11.5129 10.2507C11.3751 10.3392 11.3032 10.3934 11.3032 10.3934C10.9899 11.3347 11.1466 12.5895 10.9899 15.8835C10.8333 19.1777 8.97039 22.9797 8.97039 22.9797C8.44711 23.8292 9.1815 24.9573 10.0836 25.382C10.1361 25.4067 10.1896 25.4283 10.2428 25.4503C9.71501 24.9124 9.43413 24.1478 9.8147 23.5297Z" fill="#9C521A"/>
<path d="M15.0017 9.57117L15.0225 8.89984C14.4379 9.01409 13.9133 9.16385 13.4559 9.32473L13.4303 10.1461C13.8565 9.95082 14.3839 9.74532 15.0017 9.57117Z" fill="#9C521A"/>
<path d="M11.8478 16.386C12.0055 13.0698 11.8478 11.8066 12.1631 10.859C12.1631 10.859 12.5441 10.5718 13.2473 10.2323L13.2735 9.3907C12.5622 9.65509 12.0283 9.93894 11.6968 10.137L11.4177 19.086C11.6385 18.2051 11.8055 17.2772 11.8478 16.386Z" fill="#9C521A"/>
<path d="M23.6209 7.2999C23.2519 7.08632 22.8609 6.89586 22.4524 6.72891C22.8863 6.96347 23.2939 7.22698 23.6686 7.5179C23.6519 7.44422 23.6363 7.37194 23.6209 7.2999Z" fill="#9C521A"/>
<path d="M11.3599 7.51122C11.6965 7.25075 12.06 7.01278 12.4445 6.79717C13.2177 1.92667 11.0641 1.00107 10.2704 0.673119L10.2451 0.662875C10.2033 0.646194 10.1647 0.632306 10.1301 0.620806C10.1165 0.616256 10.1025 0.612203 10.0886 0.608032C11.0955 1.24485 12.4112 2.84936 11.3599 7.51122Z" fill="#9C521A"/>
<path d="M28.6644 20.4343C27.69 18.6167 27.3339 16.7727 27.2281 15.3419C27.2064 15.0472 27.2059 14.7521 27.2213 14.4575C27.9616 8.52414 25.6661 6.04446 25.5689 4.959C25.4973 4.15864 26.0881 4.03404 26.5954 4.06993C26.8078 4.15587 27.0395 4.2044 27.2828 4.2044C28.2972 4.2044 29.1196 3.38066 29.1196 2.3647C29.1196 1.4113 28.3956 0.627374 27.4681 0.534233C27.8819 0.869263 28.1469 1.38109 28.1469 1.95548C28.1469 2.96474 27.33 3.78305 26.3221 3.78305C26.0805 3.78305 25.8503 3.7349 25.6393 3.64947C25.1355 3.61396 24.5486 3.73756 24.6198 4.53273C24.7163 5.61112 26.9965 8.07423 26.2611 13.968C26.2459 14.2607 26.2464 14.5537 26.268 14.8465C26.3731 16.2677 26.7266 18.0995 27.6947 19.905C28.6995 21.41 29.275 23.1579 29.275 25.0226C29.275 30.7169 23.9116 35.3231 17.3329 35.2391C14.7477 35.2061 12.3589 34.4396 10.4302 33.1706C12.4978 34.8143 15.2344 35.8328 18.2333 35.8712C24.856 35.9558 30.2553 31.3187 30.2553 25.5864C30.2553 23.709 29.6759 21.9493 28.6644 20.4343Z" fill="#9C521A"/>
<path d="M18.4825 9.14427L18.4947 8.74959C17.952 8.69411 17.4343 8.67718 16.9431 8.69007L16.9271 9.20354C17.4144 9.15261 17.9335 9.12936 18.4825 9.14427Z" fill="#9C521A"/>
<path d="M21.932 9.7184L21.9364 9.57686C21.4088 9.37781 20.8956 9.21705 20.3982 9.09004L20.3903 9.34433C20.887 9.43443 21.4013 9.5574 21.932 9.7184Z" fill="#9C521A"/>
<path d="M16.7463 9.22327L16.7627 8.69589C16.2063 8.71902 15.6856 8.77968 15.204 8.86574L15.1836 9.52164C15.6564 9.39678 16.1783 9.29151 16.7463 9.22327Z" fill="#9C521A"/>
<path d="M20.211 9.3126L20.2193 9.04544C19.6853 8.91691 19.1699 8.82666 18.6746 8.76878L18.6627 9.15084C19.1562 9.17156 19.6727 9.22275 20.211 9.3126Z" fill="#9C521A"/>
<path d="M23.646 10.354L23.6465 10.3383C23.124 10.0701 22.6131 9.83985 22.1146 9.64485L22.1107 9.77376C22.6089 9.93199 23.121 10.1236 23.646 10.354Z" fill="#9C521A"/>
<path d="M9.38778 3.64947C9.1768 3.7349 8.94651 3.78305 8.705 3.78305C8.57894 3.78305 8.45566 3.77015 8.33679 3.74589C8.6602 4.03062 9.08318 4.20452 9.54767 4.20452C9.79083 4.20452 10.0225 4.156 10.235 4.07006C10.2737 4.06728 10.3132 4.06602 10.3527 4.06526C10.1975 3.68751 9.76924 3.62255 9.38778 3.64947Z" fill="#9C521A"/>
<path d="M11.6969 10.137C11.6263 10.1792 11.5649 10.2174 11.513 10.2507L11.2138 19.8393L11.0317 25.6783C11.0913 25.6887 11.1512 25.6973 11.2112 25.7052L11.4177 19.0861L11.6969 10.137Z" fill="#5E3314"/>
<path d="M13.4559 9.32474C13.3938 9.3466 13.3331 9.36858 13.2734 9.39083L13.2472 10.2324L12.7656 25.6636C12.8263 25.6536 12.8866 25.6426 12.9471 25.631L13.4302 10.1462L13.4559 9.32474Z" fill="#5E3314"/>
<path d="M15.204 8.86574C15.1429 8.87661 15.0826 8.88822 15.0225 8.89985L15.0017 9.57117L14.5154 25.1552C14.5765 25.131 14.6373 25.1061 14.6981 25.0812L15.1835 9.52164L15.204 8.86574Z" fill="#5E3314"/>
<path d="M16.2732 24.3821C16.3339 24.3545 16.3951 24.3277 16.456 24.3004L16.9271 9.20343L16.9431 8.68996C16.8825 8.6916 16.8224 8.69349 16.7625 8.6959L16.7461 9.22327L16.2732 24.3821Z" fill="#5E3314"/>
<path d="M18.0288 23.6835C18.0893 23.6643 18.1501 23.6467 18.2108 23.6286L18.6625 9.15097L18.6744 8.76893C18.6142 8.76198 18.5544 8.75565 18.4946 8.74959L18.4823 9.14427L18.0288 23.6835Z" fill="#5E3314"/>
<path d="M19.7753 23.2787C19.8356 23.2696 19.8959 23.2601 19.9565 23.2519L20.3903 9.34445L20.3982 9.09018C20.3384 9.07501 20.2786 9.05984 20.2193 9.04556L20.211 9.31273L19.7753 23.2787Z" fill="#5E3314"/>
<path d="M21.5132 23.1459C21.5732 23.1459 21.6333 23.1464 21.6934 23.1473L22.1107 9.77377L22.1146 9.64486C22.055 9.62148 21.9957 9.59924 21.9364 9.57687L21.932 9.71842L21.5132 23.1459Z" fill="#5E3314"/>
<path d="M23.4224 23.302L23.688 14.7904C23.616 14.4013 23.5696 14.0188 23.5432 13.6514L23.2429 23.2733C23.3027 23.2821 23.3625 23.2921 23.4224 23.302Z" fill="#5E3314"/>
<path d="M23.6204 11.1773C23.685 10.6884 23.7546 10.3934 23.7546 10.3934C23.7184 10.3744 23.6827 10.357 23.6465 10.3384L23.646 10.3541L23.6204 11.1773Z" fill="#5E3314"/>
<path d="M25.1405 23.7212L25.2967 18.7167C25.2399 18.5873 25.1836 18.4617 25.128 18.3408L24.9619 23.6657C25.0213 23.6842 25.0811 23.7017 25.1405 23.7212Z" fill="#5E3314"/>
<path d="M24.8029 24.8938C24.8214 24.9033 24.8526 24.9196 24.8029 24.8938V24.8938Z" fill="#CC6D26"/>
<path d="M11.5515 9.25826C11.8637 9.25826 12.1167 9.00487 12.1167 8.69221C12.1167 8.37955 11.8637 8.12616 11.5515 8.12616C11.2393 8.12616 10.9863 8.37955 10.9863 8.69221C10.9863 9.00487 11.2395 9.25826 11.5515 9.25826Z" fill="#F5A161"/>
<path d="M14.3617 8.12629C14.6739 8.12629 14.9269 7.87277 14.9269 7.56024C14.9269 7.24758 14.6737 6.99419 14.3617 6.99419C14.0496 6.99419 13.7965 7.24758 13.7965 7.56024C13.7965 7.87277 14.0496 8.12629 14.3617 8.12629Z" fill="#F5A161"/>
<path d="M17.679 7.76992C17.9911 7.76992 18.2441 7.51653 18.2441 7.20387C18.2441 6.89121 17.9911 6.63782 17.679 6.63782C17.3668 6.63782 17.1138 6.89121 17.1138 7.20387C17.1138 7.51653 17.3668 7.76992 17.679 7.76992Z" fill="#F5A161"/>
<path d="M20.6213 8.12629C20.9335 8.12629 21.1866 7.87277 21.1866 7.56024C21.1866 7.24758 20.9335 6.99419 20.6213 6.99419C20.3093 6.99419 20.0563 7.24758 20.0563 7.56024C20.0564 7.87277 20.3094 8.12629 20.6213 8.12629Z" fill="#F5A161"/>
<path d="M23.4681 9.417C23.7803 9.417 24.0333 9.16357 24.0333 8.85095C24.0333 8.53833 23.7803 8.2849 23.4681 8.2849C23.156 8.2849 22.903 8.53833 22.903 8.85095C22.903 9.16357 23.156 9.417 23.4681 9.417Z" fill="#F5A161"/>
<path d="M19.9714 29.0075C19.9714 27.6459 18.8694 26.5419 17.5098 26.5419C16.1504 26.5419 15.0482 27.6457 15.0482 29.0075C15.0482 30.3691 16.1504 31.4728 17.5098 31.4728C18.8695 31.4727 19.9714 30.3689 19.9714 29.0075ZM15.4581 29.0075C15.4581 27.8724 16.3767 26.9525 17.5098 26.9525C18.6431 26.9525 19.5616 27.8726 19.5616 29.0075C19.5616 30.1423 18.6431 31.0624 17.5098 31.0624C16.3767 31.0622 15.4581 30.1423 15.4581 29.0075Z" fill="#AE5B1D"/>
<path d="M19.5615 29.0074C19.5615 27.8724 18.643 26.9525 17.5098 26.9525C16.3766 26.9525 15.458 27.8726 15.458 29.0074C15.458 30.1423 16.3766 31.0624 17.5098 31.0624C18.643 31.0622 19.5615 30.1423 19.5615 29.0074Z" fill="#623211"/>
<path d="M9.22137 27.4679C9.3386 27.1001 9.13595 26.7069 8.76862 26.5894C8.4013 26.472 8.00875 26.675 7.89152 27.0429C7.7743 27.4108 7.97695 27.804 8.34427 27.9214C8.71147 28.0386 9.10415 27.8357 9.22137 27.4679Z" fill="#DE7E36"/>
<path d="M12.9204 31.1263C12.5532 31.009 12.1605 31.2119 12.0433 31.5798C11.926 31.9475 12.1287 32.3408 12.496 32.4582C12.8632 32.5756 13.256 32.3727 13.3731 32.0049C13.4902 31.637 13.2876 31.2437 12.9204 31.1263Z" fill="#DE7E36"/>
<path d="M10.4602 28.7811C9.72571 28.5464 8.94047 28.9522 8.70602 29.6879C8.47156 30.4234 8.87688 31.21 9.6114 31.4448C10.3458 31.6795 11.1312 31.2737 11.3656 30.538C11.6001 29.8025 11.1946 29.0158 10.4602 28.7811Z" fill="#DE7E36"/>
<path d="M26.6325 3.1648C27.2946 3.1648 27.8312 2.62717 27.8312 1.96406C27.8312 1.30095 27.2946 0.763466 26.6325 0.763466C25.9704 0.763466 25.4336 1.30095 25.4336 1.96406C25.4336 2.6273 25.9704 3.1648 26.6325 3.1648Z" fill="#DE7E36"/>
<path d="M26.4098 25.2803C26.3956 25.2836 26.3816 25.2884 26.3676 25.2919C26.2992 25.3095 26.2295 25.3222 26.1594 25.3303C26.152 25.3312 26.1226 25.3321 26.1078 25.334C26.0859 25.3341 26.064 25.3346 26.0419 25.3339C25.9604 25.3312 25.8804 25.3209 25.8 25.3069C25.7989 25.3068 25.7867 25.3042 25.7763 25.3019C25.7659 25.2992 25.7531 25.2961 25.7518 25.2957C25.7073 25.2833 25.663 25.2712 25.619 25.2573C25.5309 25.2292 25.4442 25.1969 25.3589 25.1612C25.1926 25.092 25.0313 25.0115 24.8712 24.9291C24.8477 24.9171 24.8245 24.9048 24.801 24.8928C24.794 24.8891 24.7856 24.8848 24.7752 24.8794C24.7239 24.8529 24.6728 24.8261 24.6216 24.7997C24.5396 24.7576 24.4574 24.716 24.3744 24.6763C24.2279 24.6063 24.0786 24.5419 23.9272 24.4833C22.6558 23.991 21.2334 23.8837 19.8985 24.1499C19.1466 24.3 18.4127 24.5703 17.7497 24.956C17.5666 25.0625 17.4514 25.2952 17.5607 25.4988C17.6584 25.6804 17.9063 25.8022 18.1025 25.6881C18.3938 25.5186 18.697 25.3713 19.0108 25.2486C19.0892 25.2178 19.168 25.1887 19.2474 25.1611C19.268 25.154 19.3312 25.1337 19.3027 25.1427C19.3423 25.13 19.382 25.1174 19.4219 25.1054C19.5831 25.0568 19.7461 25.0145 19.9102 24.9781C20.2391 24.9052 20.5732 24.8565 20.9091 24.8322C20.9235 24.8311 20.9919 24.8272 21.0058 24.8262L21.0168 24.8257C21.0347 24.8251 21.0527 24.8243 21.0708 24.8237C21.1609 24.8206 21.2511 24.8193 21.3414 24.8198C21.5099 24.8205 21.6782 24.8273 21.8462 24.8405C22.0139 24.8535 22.1813 24.8726 22.3479 24.8977C22.4251 24.9095 22.5021 24.9225 22.5789 24.9368C22.6203 24.9445 22.6616 24.9528 22.7027 24.9612L22.7137 24.9635C22.7311 24.9675 22.7664 24.9755 22.7722 24.9768C23.0998 25.0537 23.4218 25.1548 23.7339 25.2808C23.8925 25.3447 24.0483 25.4154 24.2014 25.4916C24.2372 25.5094 24.2731 25.5276 24.3087 25.5458C24.3325 25.5579 24.3562 25.5703 24.3801 25.5824L24.3961 25.5908C24.4134 25.5998 24.499 25.6443 24.4871 25.6381C24.5108 25.6504 24.5347 25.6628 24.5585 25.6751C24.606 25.6997 24.6537 25.7243 24.7016 25.7484C25.055 25.9266 25.4197 26.0751 25.8143 26.1303C26.5318 26.2309 27.3973 25.8806 27.6221 25.1406C27.6837 24.9377 27.5958 24.6877 27.3791 24.6198C27.1785 24.557 26.9254 24.6457 26.8592 24.8632C26.8493 24.896 26.8374 24.9276 26.8252 24.9595L26.8221 24.9682C26.8004 24.991 26.7862 25.0254 26.767 25.0506L26.7452 25.078L26.7429 25.0798C26.7216 25.0988 26.7013 25.1188 26.6792 25.137C26.674 25.1413 26.6554 25.1555 26.6396 25.1678C26.6282 25.1745 26.5948 25.1962 26.5858 25.201C26.5513 25.2199 26.5159 25.2371 26.4797 25.2527C26.457 25.2625 26.4332 25.2708 26.4098 25.2803ZM24.8028 24.8938C24.8214 24.9033 24.8525 24.9196 24.8028 24.8938V24.8938Z" fill="#623211"/>
<defs>
<linearGradient id="paint0_linear_14_16844" x1="0" y1="18" x2="36" y2="18" gradientUnits="userSpaceOnUse">
<stop stop-color="#83247C"/>
<stop offset="1" stop-color="#363787"/>
</linearGradient>
</defs>
</svg>
