<svg width="36" height="36" viewBox="0 0 36 36" fill="none" xmlns="http://www.w3.org/2000/svg">
<path d="M0.127686 12.1277V22.4172C0.127686 23.2155 0.760948 23.8629 1.54516 23.8714V23.8722H1.56067H34.4395H34.455V23.8714C35.2392 23.8629 35.8724 23.2155 35.8724 22.4172V12.1277H0.127686Z" fill="#2E2C2E"/>
<path d="M21.2749 14.1813C20.8415 14.1813 20.4888 14.5394 20.4888 14.9795C20.4888 15.4197 20.8416 15.7778 21.2749 15.7778C21.7083 15.7778 22.0609 15.4197 22.0609 14.9795C22.0609 14.5395 21.7083 14.1813 21.2749 14.1813Z" fill="#2E2C2E"/>
<path d="M1.54517 22.5042V23.8714V23.8723H1.56068H34.4395H34.4549V23.8714V22.5042H1.54517Z" fill="#1F1E1F"/>
<path d="M34.4549 17.5255H32.9433V20.6989H32.5882V17.5255H32.3606V20.6989H32.0053V17.5255H30.5705V20.6989H30.2152V17.5255H29.939V20.6989H29.5838V17.5255H29.3076V20.6989H28.9524V17.5255H27.5176V20.6989H27.1623V17.5255H26.9347V20.6989H26.5795V17.5255H25.1446V20.6989H24.7895V17.5255H24.5133V20.6989H24.158V17.5255H23.8817V20.6989H23.5266V17.5255H22.0917V20.6989H21.7366V17.5255H21.5089V20.6989H21.1536V17.5255H19.7189V20.6989H19.3636V17.5255H19.0874V20.6989H18.7322V17.5255H18.456V20.6989H18.1007V17.5255H16.6659V20.6989H16.3107V17.5255H16.0831V20.6989H15.7279V17.5255H14.2931V20.6989H13.9378V17.5255H13.6617V20.6989H13.3064V17.5255H13.0302V20.6989H12.675V17.5255H11.2401V20.6989H10.8849V17.5255H10.6572V20.6989H10.302V17.5255H8.86715V20.6989H8.51198V17.5255H8.23579V20.6989H7.88049V17.5255H7.60443V20.6989H7.24914V17.5255H5.81425V20.6989H5.45908V17.5255H5.23146V20.6989H4.8763V17.5255H3.4119V20.6989H3.05674V17.5255H1.54517V22.5042H34.4549V17.5255Z" fill="white"/>
<path d="M3.41186 17.5255H3.0567V20.6989H3.41186V17.5255Z" fill="#1F1E1F"/>
<path d="M5.23145 17.5255H4.87628V20.6989H5.23145V17.5255Z" fill="#1F1E1F"/>
<path d="M5.81421 17.5255H5.45905V20.6989H5.81421V17.5255Z" fill="#1F1E1F"/>
<path d="M10.6572 17.5255H10.302V20.6989H10.6572V17.5255Z" fill="#1F1E1F"/>
<path d="M11.2401 17.5255H10.8849V20.6989H11.2401V17.5255Z" fill="#1F1E1F"/>
<path d="M7.60444 17.5255H7.24915V20.6989H7.60444V17.5255Z" fill="#1F1E1F"/>
<path d="M8.23566 17.5255H7.88049V20.6989H8.23566V17.5255Z" fill="#1F1E1F"/>
<path d="M8.86713 17.5255H8.51196V20.6989H8.86713V17.5255Z" fill="#1F1E1F"/>
<path d="M13.0301 17.5255H12.675V20.6989H13.0301V17.5255Z" fill="#1F1E1F"/>
<path d="M13.6615 17.5255H13.3063V20.6989H13.6615V17.5255Z" fill="#1F1E1F"/>
<path d="M14.293 17.5255H13.9379V20.6989H14.293V17.5255Z" fill="#1F1E1F"/>
<path d="M16.0831 17.5255H15.7279V20.6989H16.0831V17.5255Z" fill="#1F1E1F"/>
<path d="M16.6658 17.5255H16.3107V20.6989H16.6658V17.5255Z" fill="#1F1E1F"/>
<path d="M21.5088 17.5255H21.1536V20.6989H21.5088V17.5255Z" fill="#1F1E1F"/>
<path d="M22.0918 17.5255H21.7365V20.6989H22.0918V17.5255Z" fill="#1F1E1F"/>
<path d="M18.4559 17.5255H18.1007V20.6989H18.4559V17.5255Z" fill="#1F1E1F"/>
<path d="M19.0874 17.5255H18.7322V20.6989H19.0874V17.5255Z" fill="#1F1E1F"/>
<path d="M19.7187 17.5255H19.3636V20.6989H19.7187V17.5255Z" fill="#1F1E1F"/>
<path d="M23.8818 17.5255H23.5266V20.6989H23.8818V17.5255Z" fill="#1F1E1F"/>
<path d="M24.5132 17.5255H24.158V20.6989H24.5132V17.5255Z" fill="#1F1E1F"/>
<path d="M25.1446 17.5255H24.7894V20.6989H25.1446V17.5255Z" fill="#1F1E1F"/>
<path d="M26.9348 17.5255H26.5795V20.6989H26.9348V17.5255Z" fill="#1F1E1F"/>
<path d="M27.5175 17.5255H27.1623V20.6989H27.5175V17.5255Z" fill="#1F1E1F"/>
<path d="M32.3604 17.5255H32.0052V20.6989H32.3604V17.5255Z" fill="#1F1E1F"/>
<path d="M32.9433 17.5255H32.5881V20.6989H32.9433V17.5255Z" fill="#1F1E1F"/>
<path d="M29.3075 17.5255H28.9523V20.6989H29.3075V17.5255Z" fill="#1F1E1F"/>
<path d="M29.939 17.5255H29.5839V20.6989H29.939V17.5255Z" fill="#1F1E1F"/>
<path d="M30.5703 17.5255H30.2151V20.6989H30.5703V17.5255Z" fill="#1F1E1F"/>
<path d="M18.6264 13.3307H12.0337C11.5773 13.3307 11.2072 13.7065 11.2072 14.1699V15.5655C11.2072 16.0291 11.5773 16.4047 12.0337 16.4047H18.6264C19.0828 16.4047 19.4528 16.0289 19.4528 15.5655V14.1699C19.4528 13.7066 19.0828 13.3307 18.6264 13.3307ZM19.1443 15.4449C19.1443 15.5112 19.1344 15.5751 19.1161 15.6351C19.1099 15.6551 19.1028 15.6746 19.0949 15.6939C19.071 15.7512 19.0391 15.8044 19.0007 15.8517C18.9493 15.9148 18.8863 15.9677 18.815 16.0071C18.7257 16.0563 18.6235 16.0843 18.5149 16.0843H12.1455C12.1237 16.0843 12.1022 16.0833 12.0811 16.081C12.0388 16.0767 11.9976 16.0681 11.9583 16.0555C11.899 16.0368 11.8437 16.0096 11.7935 15.9751C11.7599 15.9521 11.7288 15.926 11.7003 15.8971C11.6433 15.8393 11.5973 15.7704 11.5654 15.6939C11.5493 15.6556 11.5371 15.6155 11.5287 15.5739C11.5204 15.5322 11.5159 15.4892 11.5159 15.445V15.3221V14.2909C11.5159 13.9379 11.7977 13.6516 12.1455 13.6516H18.4589H18.5149C18.6236 13.6516 18.7257 13.6795 18.815 13.7288C18.8863 13.7682 18.9493 13.8211 19.0007 13.8843C19.0391 13.9317 19.071 13.9846 19.0949 14.042C19.1028 14.0612 19.1099 14.0807 19.1161 14.1007C19.1344 14.1607 19.1443 14.2245 19.1443 14.2908V15.4449Z" fill="#1F1E1F"/>
<path d="M18.4588 13.6515H12.1454C11.7976 13.6515 11.5158 13.9378 11.5158 14.2908V15.322C17.4437 16.382 18.3499 14.5304 18.4588 13.6515Z" fill="#7AB4D9"/>
<path d="M9.61651 13.4976C9.4306 13.4976 9.27979 13.6506 9.27979 13.8395C9.27979 14.0283 9.4306 14.1814 9.61651 14.1814C9.80242 14.1814 9.95324 14.0283 9.95324 13.8395C9.95324 13.6506 9.80255 13.4976 9.61651 13.4976Z" fill="#E6E6E6"/>
<path d="M9.61651 14.5815C9.4306 14.5815 9.27979 14.7345 9.27979 14.9234C9.27979 15.1122 9.4306 15.2653 9.61651 15.2653C9.80242 15.2653 9.95324 15.1123 9.95324 14.9234C9.95324 14.7346 9.80255 14.5815 9.61651 14.5815Z" fill="#E6E6E6"/>
<path d="M9.61651 15.5948C9.4306 15.5948 9.27979 15.748 9.27979 15.9367C9.27979 16.1255 9.4306 16.2787 9.61651 16.2787C9.80242 16.2787 9.95324 16.1257 9.95324 15.9367C9.95324 15.7478 9.80255 15.5948 9.61651 15.5948Z" fill="#E6E6E6"/>
<path d="M21.275 14.0703C20.7811 14.0703 20.3794 14.4782 20.3794 14.9796C20.3794 15.481 20.7811 15.8889 21.275 15.8889C21.7688 15.8889 22.1705 15.481 22.1705 14.9796C22.1703 14.4782 21.7686 14.0703 21.275 14.0703ZM21.275 15.7778C20.8415 15.7778 20.4889 15.4197 20.4889 14.9796C20.4889 14.5395 20.8416 14.1813 21.275 14.1813C21.7084 14.1813 22.061 14.5394 22.061 14.9796C22.061 15.4197 21.7084 15.7778 21.275 15.7778Z" fill="#E6E6E6"/>
<path d="M24.0522 14.0617H23.1413V14.4036H24.0522V14.0617Z" fill="#E6E6E6"/>
<path d="M25.3758 14.0617H24.465V14.4036H25.3758V14.0617Z" fill="#E6E6E6"/>
<path d="M26.7202 14.0617H25.8094V14.4036H26.7202V14.0617Z" fill="#E6E6E6"/>
<path d="M24.0522 14.7482H23.1413V15.0901H24.0522V14.7482Z" fill="#E6E6E6"/>
<path d="M25.3758 14.7482H24.465V15.0901H25.3758V14.7482Z" fill="#E6E6E6"/>
<path d="M26.7202 14.7482H25.8094V15.0901H26.7202V14.7482Z" fill="#E6E6E6"/>
<path d="M24.0522 15.4346H23.1413V15.7765H24.0522V15.4346Z" fill="#E6E6E6"/>
<path d="M25.3758 15.4346H24.465V15.7765H25.3758V15.4346Z" fill="#E6E6E6"/>
<path d="M26.7202 15.4346H25.8094V15.7765H26.7202V15.4346Z" fill="#E6E6E6"/>
<path d="M34.0581 12.8509H29.325C29.1469 12.8509 28.986 12.9587 28.9161 13.125L27.6356 16.1689C27.5102 16.4668 27.7253 16.798 28.0445 16.798H34.0581C34.3038 16.798 34.5029 16.5958 34.5029 16.3463V13.3025C34.5029 13.053 34.3038 12.8509 34.0581 12.8509Z" fill="#1F1E1F"/>
<path d="M7.0459 13.125C6.97596 12.9587 6.81498 12.8509 6.63682 12.8509H1.90386C1.65818 12.8509 1.45905 13.0531 1.45905 13.3025V16.3463C1.45905 16.5958 1.65818 16.798 1.90386 16.798H7.91747C8.23652 16.798 8.4518 16.4668 8.32642 16.1689L7.0459 13.125ZM2.60579 15.4941C2.47151 15.6715 2.22113 15.7048 2.04641 15.5686C1.87169 15.4324 1.83875 15.1781 1.97303 15.0006C2.10719 14.8232 2.3577 14.7899 2.53242 14.9261C2.70714 15.0623 2.73995 15.3167 2.60579 15.4941ZM4.34155 14.6118C4.07312 14.9666 3.57235 15.0334 3.22278 14.7608C2.87347 14.4883 2.80772 13.9797 3.07604 13.6249C3.34447 13.27 3.84524 13.2033 4.19468 13.4759C4.54412 13.7483 4.60987 14.257 4.34155 14.6118ZM5.84587 14.1189C5.71172 14.2963 5.46133 14.3297 5.28661 14.1934C5.11202 14.0572 5.07909 13.8028 5.21325 13.6254C5.3474 13.4481 5.59778 13.4147 5.7725 13.5509C5.94723 13.6871 5.98016 13.9414 5.84587 14.1189Z" fill="#1F1E1F"/>
<path d="M5.77244 13.5509C5.59785 13.4147 5.34734 13.4481 5.21319 13.6254C5.07903 13.8028 5.11196 14.0572 5.28656 14.1934C5.46128 14.3297 5.71166 14.2963 5.84582 14.1189C5.98023 13.9414 5.94729 13.6871 5.77244 13.5509Z" fill="#484447"/>
<path d="M2.53243 14.9261C2.35771 14.7897 2.1072 14.8232 1.97304 15.0006C1.83876 15.178 1.8717 15.4324 2.04642 15.5686C2.22114 15.7049 2.47152 15.6715 2.6058 15.4941C2.73996 15.3167 2.70715 15.0623 2.53243 14.9261Z" fill="#484447"/>
<path d="M4.19469 13.4759C3.84538 13.2033 3.34449 13.27 3.07605 13.6249C2.80774 13.9798 2.87335 14.4883 3.22279 14.7608C3.57236 15.0332 4.07313 14.9666 4.34157 14.6118C4.60988 14.2569 4.54413 13.7483 4.19469 13.4759Z" fill="#484447"/>
<path d="M19.0949 14.0418C19.071 13.9845 19.0391 13.9314 19.0007 13.8842C18.9493 13.821 18.8864 13.768 18.815 13.7287C18.7258 13.6795 18.6235 13.6515 18.5149 13.6515H18.459C18.35 14.5306 17.4438 16.3821 11.5158 15.322V15.4449C11.5158 15.4891 11.5201 15.5322 11.5287 15.5738C11.537 15.6154 11.5494 15.6555 11.5653 15.6937C11.5971 15.7703 11.6432 15.839 11.7002 15.897C11.7287 15.9259 11.7598 15.952 11.7934 15.975C11.8436 16.0095 11.8991 16.0368 11.9582 16.0554C11.9975 16.0678 12.0387 16.0765 12.081 16.0809C12.1022 16.0832 12.1236 16.0842 12.1454 16.0842H18.5148C18.6235 16.0842 18.7256 16.0562 18.8149 16.007C18.8862 15.9676 18.9492 15.9147 19.0006 15.8515C19.039 15.8041 19.0709 15.7511 19.0948 15.6937C19.1027 15.6746 19.1098 15.655 19.116 15.635C19.1343 15.5749 19.1442 15.511 19.1442 15.4448V14.2905C19.1442 14.2243 19.1343 14.1605 19.116 14.1005C19.1099 14.0806 19.1028 14.0611 19.0949 14.0418Z" fill="#5CA8DA"/>
</svg>
