<svg width="36" height="36" viewBox="0 0 36 36" fill="none" xmlns="http://www.w3.org/2000/svg">
<rect width="36" height="36" rx="16" fill="url(#paint0_linear_14_16840)"/>
<path d="M35.8561 10.4104L35.8559 10.409C35.8485 10.2921 35.8381 10.1755 35.8255 10.0592C35.8206 10.0136 35.8137 9.96815 35.808 9.92262C35.7986 9.84882 35.7893 9.77503 35.7778 9.7015C35.77 9.65054 35.7606 9.59997 35.7518 9.54928C35.7399 9.48129 35.7276 9.41343 35.714 9.34583C35.7034 9.29384 35.6919 9.24211 35.6804 9.19038C35.6655 9.12394 35.6498 9.05776 35.6331 8.99171C35.6203 8.94049 35.6071 8.88954 35.5931 8.83884C35.5747 8.77176 35.5549 8.70493 35.5348 8.63849C35.5201 8.58986 35.5056 8.54122 35.4899 8.49284C35.4665 8.4215 35.4413 8.35068 35.416 8.27986C35.4007 8.23741 35.3865 8.19458 35.3704 8.15253C35.3339 8.05629 35.295 7.96096 35.2546 7.86614C35.2477 7.85014 35.2418 7.83388 35.2348 7.81789C35.1872 7.70836 35.1363 7.59999 35.0832 7.4924C35.065 7.45551 35.0451 7.41926 35.0263 7.38249C34.9896 7.31115 34.9524 7.23994 34.9134 7.16963C34.89 7.12783 34.8654 7.08655 34.8414 7.04527C34.8039 6.9809 34.7658 6.91678 34.7263 6.85331C34.6998 6.81087 34.6724 6.76881 34.6452 6.72675C34.605 6.66509 34.5636 6.60381 34.5213 6.54305C34.4928 6.5019 34.4639 6.46087 34.4343 6.42037C34.3898 6.35883 34.3438 6.29833 34.2969 6.23809C34.2674 6.20003 34.2383 6.16171 34.2079 6.12404C34.1555 6.05902 34.1009 5.99516 34.0459 5.93156C34.0192 5.90047 33.9932 5.86887 33.9657 5.83804C33.8821 5.74451 33.7964 5.65239 33.7072 5.56235C33.618 5.47217 33.5268 5.38535 33.4342 5.30072C33.404 5.27324 33.3729 5.24718 33.3423 5.22009C33.2791 5.16423 33.2156 5.10876 33.1509 5.05536C33.1137 5.02478 33.0761 4.99537 33.0384 4.96557C32.9786 4.91823 32.9186 4.8714 32.8577 4.82612C32.8174 4.79619 32.7767 4.76703 32.7361 4.738C32.6758 4.69517 32.6151 4.65324 32.5538 4.61235C32.5121 4.58461 32.4705 4.55701 32.4285 4.53018C32.3655 4.49006 32.3019 4.45135 32.2381 4.4133C32.197 4.38878 32.1562 4.36388 32.1147 4.34015C32.0448 4.30028 31.9742 4.26262 31.9032 4.22508C31.8669 4.20586 31.831 4.18573 31.7944 4.16728C31.6877 4.11323 31.5801 4.06137 31.4712 4.01274C31.4558 4.0059 31.44 3.99983 31.4245 3.99312C31.33 3.95158 31.235 3.91172 31.139 3.87418C31.0972 3.85792 31.0548 3.84322 31.0128 3.82761C30.9423 3.80155 30.8717 3.77575 30.8005 3.75188C30.7527 3.73588 30.7047 3.72092 30.6567 3.70595C30.5902 3.68505 30.5236 3.66468 30.4567 3.64558C30.4063 3.63126 30.356 3.61772 30.3053 3.60456C30.2394 3.58727 30.1735 3.57101 30.1071 3.5554C30.0558 3.54341 30.0047 3.53167 29.9531 3.52083C29.8857 3.50651 29.8178 3.49362 29.75 3.48123C29.6998 3.47194 29.6497 3.46227 29.5992 3.45401C29.5258 3.44201 29.452 3.43195 29.3783 3.42215C29.3332 3.41608 29.2883 3.40898 29.2431 3.40382C29.127 3.39015 29.0103 3.37893 28.8934 3.37042C26.7066 3.2138 24.4201 3.9659 22.6349 5.60892C22.548 5.68878 22.4617 5.76953 22.3774 5.85364C22.3184 5.91247 22.2602 5.97259 22.2024 6.03361C22.1854 6.05141 22.1687 6.0696 22.1518 6.08766C22.1094 6.13307 22.0672 6.17899 22.0255 6.22557C22.0086 6.24427 21.9919 6.26285 21.9754 6.28168C21.9272 6.33612 21.8795 6.39121 21.8324 6.44694L21.8083 6.47507C21.75 6.54447 21.6924 6.61491 21.6354 6.68638L21.6296 6.69399C21.5758 6.76172 21.5227 6.83035 21.4701 6.89989C21.4618 6.91085 21.4537 6.92194 21.4453 6.93291C21.3955 6.99935 21.3462 7.06655 21.2976 7.13467L21.2846 7.15273C21.1776 7.30289 21.0738 7.4568 20.9728 7.6138L20.9627 7.62864H20.9636C20.6784 8.07319 20.4174 8.54329 20.1854 9.03158V9.03184C20.1421 9.12291 20.1001 9.2145 20.0589 9.30674C20.0542 9.31719 20.0494 9.32777 20.0448 9.33809C19.961 9.52657 19.8815 9.71737 19.8065 9.90984L19.7977 9.93294C19.763 10.0225 19.7294 10.1124 19.6966 10.2026L19.6866 10.2303C19.6169 10.4237 19.5518 10.6186 19.4913 10.8147C19.4877 10.8267 19.4839 10.8388 19.4803 10.8507C19.4522 10.9428 19.425 11.0352 19.399 11.1278L19.3948 11.1428C19.3665 11.2442 19.3393 11.3459 19.3134 11.4477C19.2892 11.5438 19.2663 11.6403 19.2443 11.7367C19.2411 11.7502 19.2382 11.7639 19.2351 11.7775C19.1907 11.9751 19.1514 12.1727 19.1174 12.3704L19.1129 12.3976C19.0977 12.4876 19.0836 12.5777 19.0705 12.6677C19.0687 12.68 19.0669 12.6924 19.0651 12.7046C19.0371 12.901 19.0147 13.0968 18.9976 13.2919C18.9965 13.3051 18.9954 13.3184 18.9943 13.3317C18.987 13.4206 18.9805 13.5095 18.9754 13.598L18.9737 13.6239C18.9688 13.7134 18.9655 13.8029 18.9629 13.892C18.9627 13.9017 18.9619 13.9116 18.9616 13.9213L18.9623 13.9223C18.9323 15.1072 19.1193 16.2399 19.5713 17.2136L18.8966 17.7889L18.8964 17.789L15.9745 20.2512L14.5487 18.2181C15.337 17.2709 15.8405 16.031 16.0887 14.673L16.0894 14.6721L16.093 14.6511C16.1103 14.5548 16.1265 14.4581 16.1414 14.3608L16.1435 14.3469C16.1751 14.1378 16.2008 13.9261 16.2207 13.7126L16.2226 13.6916C16.2422 13.4788 16.2559 13.2643 16.2641 13.0486L16.2649 13.0282C16.2726 12.8111 16.2749 12.5928 16.2715 12.374L16.2712 12.3637C16.2694 12.2559 16.2663 12.148 16.2618 12.0401L16.2613 12.0312C16.2521 11.8122 16.2372 11.5929 16.217 11.3741L16.215 11.3519C16.1946 11.135 16.1689 10.9187 16.138 10.7035L16.1344 10.6782C16.1029 10.4624 16.0663 10.2477 16.0244 10.0347L16.0209 10.0169C16 9.91114 15.9779 9.80561 15.9545 9.70073L15.954 9.69905C15.9297 9.5903 15.904 9.48219 15.877 9.3746L15.8756 9.37744C15.7841 9.01287 15.6789 8.65449 15.5571 8.30695L15.5577 8.30708L15.5531 8.29482C15.4999 8.14363 15.4439 7.99424 15.3851 7.84717C15.381 7.83685 15.3769 7.82666 15.3727 7.81621C15.3156 7.6743 15.2558 7.53459 15.1934 7.39707C15.1875 7.38378 15.1813 7.37036 15.1752 7.35707C15.1127 7.22046 15.0476 7.08617 14.9799 6.95433C14.9746 6.94388 14.9694 6.93329 14.964 6.92297C14.8915 6.783 14.8164 6.64548 14.7382 6.51158C14.6558 6.37032 14.5692 6.23318 14.4803 6.0985L14.4644 6.07502C14.3779 5.9455 14.2889 5.81868 14.1969 5.69509L14.1958 5.69368C12.8939 3.94088 11.0405 2.81091 9.07335 2.43538L9.07349 2.43525L9.0695 2.4346C8.95566 2.41293 8.84156 2.3941 8.72707 2.37745C8.68146 2.37088 8.63584 2.3661 8.5901 2.3603C8.51699 2.35101 8.44376 2.34172 8.37026 2.33463C8.31899 2.3296 8.26772 2.32598 8.21646 2.32198C8.14797 2.31669 8.07961 2.31166 8.01113 2.30818C7.95832 2.30547 7.9055 2.30367 7.85269 2.30212C7.78511 2.30005 7.71715 2.29876 7.64944 2.2985C7.59701 2.29825 7.54445 2.29837 7.4919 2.29928C7.42251 2.30044 7.35327 2.30302 7.28401 2.30598C7.23339 2.30818 7.18301 2.31025 7.13264 2.31347C7.05786 2.31824 6.98321 2.32508 6.90843 2.33217C6.86384 2.3363 6.819 2.33966 6.77442 2.34469C6.67265 2.35617 6.57102 2.37023 6.46977 2.38584C6.45243 2.38855 6.43495 2.39023 6.4176 2.39307C6.30004 2.41216 6.18286 2.43447 6.06606 2.45924C6.02597 2.46776 5.986 2.47808 5.94592 2.48724C5.86792 2.50517 5.79006 2.52349 5.71245 2.544C5.66619 2.55626 5.6202 2.56993 5.5742 2.58296C5.50289 2.60335 5.43171 2.62424 5.36078 2.64682C5.31311 2.66204 5.2657 2.67804 5.21829 2.69417C5.1489 2.7179 5.07965 2.74267 5.01065 2.7686C4.96375 2.78614 4.91685 2.80395 4.87021 2.82265C4.7998 2.85078 4.72977 2.88045 4.66 2.9109C4.61606 2.93012 4.57211 2.94882 4.52817 2.96882C4.45223 3.00365 4.37706 3.04093 4.30176 3.0786C4.26514 3.09692 4.22827 3.11421 4.19178 3.13317C4.08064 3.1911 3.97052 3.2516 3.8613 3.31572C3.75222 3.37983 3.64571 3.44691 3.54112 3.5158C3.50681 3.53837 3.47392 3.56211 3.44 3.58521C3.37048 3.63268 3.30123 3.68042 3.2339 3.72983C3.19509 3.75834 3.15718 3.78775 3.11915 3.81703C3.0585 3.86321 2.9985 3.90991 2.93965 3.9579C2.90059 3.98964 2.86217 4.02189 2.82388 4.0544C2.76773 4.10227 2.71222 4.15064 2.65761 4.20005C2.62035 4.23359 2.58335 4.26726 2.54686 4.30157C2.49251 4.35266 2.43945 4.40478 2.38676 4.45741C2.35297 4.49121 2.31865 4.52475 2.2855 4.5592C2.22961 4.61725 2.17553 4.6766 2.12182 4.7362C2.09432 4.76677 2.06592 4.79657 2.03894 4.82753C1.96018 4.91784 1.88334 5.00943 1.80921 5.10322C1.79854 5.11664 1.78891 5.13057 1.77837 5.14398C1.7149 5.22552 1.6527 5.30795 1.59257 5.39181C1.56648 5.42832 1.54181 5.46573 1.51637 5.50275C1.47358 5.5648 1.43106 5.62698 1.3902 5.6902C1.36283 5.73264 1.33649 5.77573 1.3099 5.81882C1.27328 5.87829 1.23704 5.93775 1.20183 5.99813C1.17562 6.04341 1.14993 6.08908 1.12461 6.13487C1.09146 6.19473 1.05921 6.25498 1.0276 6.31575C1.00345 6.36245 0.979293 6.40915 0.955908 6.45649C0.925328 6.51854 0.89603 6.58123 0.866991 6.64419C0.845533 6.69063 0.823678 6.73695 0.803248 6.7839C0.77331 6.85228 0.745178 6.92168 0.717296 6.99083C0.700207 7.03314 0.682344 7.07507 0.665897 7.11751C0.623881 7.22717 0.583795 7.3376 0.546662 7.44919C-0.183672 9.6379 0.0210166 12.1825 1.3167 14.4039C1.35859 14.4759 1.40215 14.5475 1.44661 14.6191C1.45958 14.64 1.47294 14.6607 1.48618 14.6816C1.51933 14.7343 1.55312 14.7867 1.58742 14.8388C1.6013 14.8598 1.61519 14.8808 1.62919 14.9019C1.66954 14.962 1.71065 15.0218 1.75254 15.0814C1.75986 15.0918 1.76679 15.1021 1.77412 15.1124C1.82654 15.1863 1.88 15.2598 1.9346 15.333L1.94089 15.3411C1.99255 15.4101 2.04549 15.4786 2.09933 15.5469C2.10781 15.5577 2.11655 15.5686 2.12516 15.5794C2.17681 15.6445 2.22937 15.7093 2.28295 15.7737L2.29681 15.7904C2.3599 15.8659 2.42402 15.9407 2.48942 16.0152C2.50934 16.0378 2.52989 16.0598 2.54981 16.0822C2.59157 16.1291 2.63308 16.1759 2.67574 16.2222L2.67587 16.2216C3.03358 16.6098 3.42252 16.9805 3.83561 17.3277H3.83509C3.91219 17.3924 3.99032 17.4564 4.06908 17.5195L4.09541 17.5407C4.25654 17.6692 4.42075 17.7942 4.58779 17.9152L4.60744 17.9292C4.68518 17.9853 4.76369 18.0407 4.84271 18.0951L4.86648 18.1115C5.03595 18.2276 5.20774 18.3396 5.38185 18.4473C5.39238 18.4538 5.40292 18.4602 5.41332 18.4668C5.49543 18.5172 5.57792 18.5666 5.6608 18.6152L5.67391 18.6229C5.76462 18.6758 5.85585 18.7275 5.94772 18.778L5.94836 18.7783C6.03496 18.8259 6.1222 18.8721 6.20958 18.9177C6.22165 18.924 6.23386 18.9302 6.24593 18.9365C6.42543 19.0287 6.60648 19.1163 6.78855 19.1989L6.81451 19.2104C6.89725 19.2475 6.98052 19.2837 7.06378 19.3187C7.07535 19.3236 7.08665 19.3286 7.09821 19.3333C7.28041 19.4093 7.46364 19.48 7.64738 19.5452C7.66036 19.5497 7.67307 19.5542 7.68604 19.5587C7.76982 19.588 7.85347 19.6162 7.9375 19.6433L7.96217 19.6513C8.04749 19.6785 8.13281 19.7042 8.21826 19.7289L8.24601 19.7372L8.24717 19.737C9.38276 20.0614 10.5217 20.1622 11.5736 19.9657L11.9604 20.7656L12.9351 22.8117L12.5313 23.1525L8.51365 26.5379L8.02808 26.947C8.02808 26.947 8.03168 27.0858 8.06406 27.3117C8.06779 27.3368 8.07165 27.363 8.07601 27.3901C8.09773 27.5261 8.12947 27.6872 8.17495 27.8647C8.1932 27.9357 8.21388 28.0092 8.23688 28.0849C8.25589 28.1475 8.27724 28.2118 8.29985 28.2768C8.30974 28.3052 8.32002 28.3337 8.33069 28.3624C8.36294 28.4496 8.39852 28.5383 8.4381 28.6279C8.48846 28.7427 8.545 28.8589 8.60873 28.9751C8.63751 29.0277 8.66784 29.0804 8.69945 29.1329C8.73389 29.1899 8.76934 29.2468 8.8075 29.3032C8.94589 29.5083 9.10869 29.7086 9.3004 29.8953C10.4817 31.1354 12.228 31.1936 12.228 31.1936L15.0522 27.8628L15.2379 27.6453L17.8088 33.0421L18.0825 33.6162C18.0825 33.6162 18.4565 33.7026 19.0044 33.7021C19.0773 33.7021 19.1535 33.7006 19.2322 33.697C19.2717 33.6953 19.3116 33.693 19.3523 33.6901C19.4335 33.6846 19.5171 33.6767 19.6025 33.6664C19.6881 33.6561 19.7755 33.6432 19.8643 33.6273C19.9531 33.6114 20.0433 33.5925 20.1345 33.5703C20.4993 33.4814 20.8791 33.3381 21.2436 33.1144C22.7343 32.2751 23.2261 30.5917 23.2261 30.5917L18.4785 23.8221L21.9985 19.6706C23.1086 20.2008 24.4302 20.3812 25.802 20.284L25.8031 20.2845L25.8243 20.2826C25.9217 20.2753 26.0193 20.2671 26.1172 20.2571L26.1297 20.2558C26.3396 20.2343 26.5504 20.2064 26.7616 20.1726L26.7819 20.1693C26.9921 20.1351 27.2026 20.095 27.4129 20.0492L27.4322 20.0449C27.6437 19.9984 27.855 19.9461 28.0654 19.8882L28.0745 19.8856C28.1783 19.857 28.2819 19.8269 28.3852 19.7956L28.393 19.7932C28.6021 19.7295 28.8098 19.6604 29.0159 19.5862L29.037 19.5787C29.2412 19.5048 29.4435 19.4257 29.6437 19.3418L29.6662 19.3323C29.8668 19.2478 30.0649 19.1587 30.2601 19.0647L30.2762 19.057C30.4351 18.9804 30.5915 18.8997 30.7464 18.8172C30.7666 18.8063 30.7869 18.7959 30.8071 18.7849C30.8247 18.7755 30.8426 18.7665 30.86 18.7569L30.8575 18.7564C31.1865 18.5764 31.5048 18.3835 31.8099 18.1782V18.1803C31.9464 18.0886 32.0799 17.9942 32.2107 17.8977L32.2368 17.8783C32.3596 17.7872 32.4798 17.6941 32.5969 17.599C32.6082 17.5899 32.6194 17.5809 32.6303 17.5718C32.7468 17.4767 32.8601 17.3797 32.9706 17.2811L32.9967 17.258C33.055 17.2052 33.113 17.1521 33.1696 17.0983C33.2264 17.0446 33.2824 16.9905 33.3373 16.9358L33.3379 16.935C33.4208 16.8524 33.5007 16.7679 33.5791 16.6828C33.6092 16.6501 33.6395 16.6178 33.6689 16.5849C33.7265 16.5205 33.783 16.4555 33.8384 16.3898C33.8902 16.3285 33.9409 16.2669 33.9908 16.2045L33.9904 16.2016C35.3552 14.4981 35.9843 12.416 35.8561 10.4104Z" fill="#F59E5D"/>
<path d="M20.6344 20.175C20.8572 19.7 20.6903 19.326 20.5911 19.1206C20.2301 18.3734 18.8966 17.7887 18.8962 17.7886L15.9744 20.2507L18.2983 23.5645C19.4177 22.2378 20.273 20.9453 20.6344 20.175Z" fill="#E89353"/>
<path d="M9.05769 26.6414C9.43982 26.2416 9.77299 27.1324 11.291 27.3916C12.3406 27.5707 13.615 27.007 14.4048 26.6544L12.5315 23.1518L8.51392 26.5372C8.6311 26.7167 8.75292 26.8795 8.87819 27.028C8.89695 26.8842 8.95618 26.7476 9.05769 26.6414Z" fill="#E89353"/>
<path d="M19.5713 17.2131L18.8966 17.7884L18.8963 17.7885C18.8967 17.7886 20.2302 18.3734 20.5912 19.1206C20.6904 19.326 20.8573 19.7 20.6345 20.175C20.2731 20.9453 19.4179 22.2378 18.2985 23.5645L15.9745 20.2507L14.5486 18.2176C14.1714 18.6708 13.7297 19.0574 13.2193 19.3575C12.7075 19.6584 12.1537 19.8566 11.5736 19.965L11.9603 20.7648C11.9603 20.7648 12.8568 19.6138 13.6679 19.4491C13.8907 19.4038 14.2929 19.3349 14.6954 19.67C15.9102 20.6812 18.4417 23.8035 19.6285 26.8215C19.6555 26.8561 19.6841 26.894 19.7153 26.9363C20.8079 28.4204 21.2098 30.0109 20.6352 31.378C20.2342 32.3318 18.9896 32.9151 18.5588 32.8592C18.4947 32.851 18.4326 32.8337 18.3735 32.8098C18.1989 32.8946 18.0117 32.9723 17.8091 33.0416L18.0827 33.6157C18.0827 33.6157 18.4568 33.7021 19.0047 33.7016C19.0775 33.7016 19.1537 33.7001 19.2325 33.6965C19.2719 33.6948 19.3119 33.6925 19.3525 33.6896C19.4337 33.6841 19.5173 33.6762 19.6028 33.6659C19.6883 33.6556 19.7757 33.6427 19.8645 33.6268C19.9533 33.6109 20.0435 33.592 20.1347 33.5698C20.4995 33.4809 20.8793 33.3376 21.2438 33.1139C22.7346 32.2746 23.2263 30.5912 23.2263 30.5912L18.4788 23.8216L21.9987 19.67C21.4676 19.4163 20.9846 19.0832 20.5679 18.6619C20.1496 18.239 19.8204 17.7501 19.5713 17.2131Z" fill="#D48548"/>
<path d="M14.658 27.128C13.5401 28.3944 12.194 29.074 10.8231 28.87C9.80316 28.718 8.93008 27.6533 8.8765 27.2206C8.86853 27.1563 8.86968 27.0915 8.87791 27.028C8.75276 26.8795 8.63096 26.7167 8.51364 26.5372L8.02808 26.9462C8.02808 26.9462 8.03168 27.085 8.06406 27.3109C8.06778 27.3361 8.07164 27.3623 8.07601 27.3894C8.09772 27.5253 8.12946 27.6865 8.17495 27.864C8.19319 27.9349 8.21387 28.0085 8.23687 28.0842C8.25589 28.1468 8.27723 28.211 8.29985 28.276C8.30974 28.3044 8.32002 28.3329 8.33068 28.3617C8.36293 28.4489 8.39852 28.5375 8.43809 28.6272C8.48846 28.742 8.54499 28.8581 8.60873 28.9743C8.63751 29.027 8.66784 29.0796 8.69945 29.1321C8.73388 29.1891 8.76934 29.246 8.8075 29.3024C8.94588 29.5075 9.10869 29.7078 9.30039 29.8945C10.4817 31.1347 12.228 31.1928 12.228 31.1928L15.0522 27.862L15.0511 27.8633L14.658 27.128Z" fill="#D48548"/>
<path d="M33.8391 15.5353C33.6137 14.8132 33.1727 14.1381 32.5629 13.6866C32.2193 13.4322 31.8693 13.2107 31.4764 13.0431C31.0886 12.8778 30.6861 12.7411 30.2808 12.6263C29.6019 12.4338 28.9122 12.2798 28.2439 12.051C27.918 11.9238 27.6023 11.7737 27.3069 11.586C27.1456 11.462 26.9951 11.3262 26.857 11.1768C26.6796 10.9394 26.532 10.6835 26.4043 10.4158C26.0138 9.48877 25.7688 8.49439 25.2273 7.63689C24.6164 6.66961 23.6942 5.99207 22.6349 5.60892C22.5481 5.68878 22.4617 5.76953 22.3774 5.85365C22.3184 5.91247 22.2602 5.97259 22.2024 6.03361C22.1855 6.05141 22.1688 6.0696 22.1518 6.08767C22.1094 6.13308 22.0673 6.179 22.0255 6.22557C22.0087 6.24427 21.992 6.26285 21.9754 6.28169C21.9272 6.33613 21.8795 6.39121 21.8324 6.44694L21.8083 6.47507C21.75 6.54447 21.6925 6.61491 21.6354 6.68638L21.6296 6.69399C21.5758 6.76172 21.5227 6.83035 21.4702 6.89989C21.4618 6.91085 21.4537 6.92195 21.4454 6.93291C21.3955 6.99935 21.3462 7.06656 21.2976 7.13467L21.2846 7.15273C21.1776 7.3029 21.0738 7.45681 20.9728 7.61381L20.9628 7.62864H20.9637C21.0683 7.62529 21.1731 7.62632 21.2778 7.63135C21.5016 7.66205 21.7214 7.71172 21.9371 7.77957C22.1693 7.87465 22.3913 7.98998 22.6024 8.1257C22.7826 8.26502 22.95 8.41854 23.1034 8.58689C23.2847 8.82839 23.4357 9.08885 23.5663 9.3617C23.9933 10.3753 24.2416 11.4949 24.9109 12.3843C25.3593 12.9801 25.9073 13.453 26.5666 13.8036C27.1588 14.1187 27.8105 14.3271 28.4542 14.5075C29.0458 14.6733 29.6476 14.8069 30.2306 15.0022C30.5305 15.1187 30.8198 15.2578 31.0909 15.4314C31.2016 15.5198 31.3055 15.615 31.4027 15.7182C31.4695 15.8117 31.5302 15.909 31.5845 16.0105C31.6488 16.177 31.6984 16.3479 31.7358 16.5226C31.811 17.071 31.8026 17.6248 31.8098 18.1778V18.1799C31.9463 18.0882 32.0798 17.9939 32.2106 17.8974L32.2367 17.8779C32.3595 17.7868 32.4797 17.6937 32.5968 17.5986C32.6081 17.5896 32.6193 17.5805 32.6302 17.5714C32.7467 17.4763 32.86 17.3793 32.9705 17.2807L32.9966 17.2576C33.0549 17.2049 33.1129 17.1517 33.1695 17.0979C33.2263 17.0443 33.2823 16.9901 33.3371 16.9354L33.3378 16.9346C33.4207 16.852 33.5006 16.7675 33.579 16.6824C33.6091 16.6498 33.6394 16.6174 33.6688 16.5845C33.7264 16.5201 33.7829 16.4551 33.8383 16.3894C33.8901 16.3281 33.9408 16.2665 33.9907 16.2042L33.9903 16.2012C33.9559 15.9774 33.9077 15.7554 33.8391 15.5353Z" fill="#DF4447"/>
<path d="M35.8561 10.4104L35.8559 10.409C35.8485 10.2921 35.8381 10.1755 35.8255 10.0592C35.8206 10.0136 35.8137 9.96816 35.808 9.92262C35.7987 9.84883 35.7893 9.77504 35.7778 9.70151C35.77 9.65055 35.7606 9.59998 35.7518 9.54928C35.7399 9.4813 35.7276 9.41344 35.714 9.34584C35.7034 9.29385 35.6919 9.24211 35.6804 9.19038C35.6655 9.12394 35.6498 9.05777 35.6331 8.99172C35.6203 8.9405 35.6071 8.88954 35.5931 8.83885C35.5747 8.77176 35.5549 8.70494 35.5348 8.6385C35.5201 8.58987 35.5056 8.54123 35.4899 8.49285C35.4665 8.42151 35.4413 8.35069 35.416 8.27986C35.4007 8.23742 35.3865 8.19459 35.3704 8.15253C35.3339 8.0563 35.295 7.96096 35.2546 7.86614C35.2477 7.85015 35.2418 7.83389 35.2348 7.81789C35.1872 7.70837 35.1363 7.6 35.0832 7.49241C35.065 7.45551 35.0451 7.41927 35.0263 7.3825C34.9896 7.31116 34.9524 7.23994 34.9134 7.16964C34.89 7.12784 34.8654 7.08656 34.8414 7.04528C34.8039 6.9809 34.7658 6.91679 34.7263 6.85332C34.6998 6.81088 34.6724 6.76882 34.6452 6.72676C34.605 6.6651 34.5636 6.60382 34.5213 6.54306C34.4928 6.5019 34.4639 6.46088 34.4343 6.42037C34.3898 6.35884 34.3438 6.29834 34.2969 6.23809C34.2674 6.20004 34.2383 6.16172 34.208 6.12405C34.1555 6.05903 34.1009 5.99517 34.0459 5.93157C34.0192 5.90048 33.9932 5.86888 33.9657 5.83804C33.8821 5.74451 33.7964 5.6524 33.7072 5.56236C33.618 5.47218 33.5268 5.38536 33.4342 5.30073C33.404 5.27325 33.3729 5.24719 33.3423 5.2201C33.2791 5.16424 33.2156 5.10877 33.1509 5.05536C33.1137 5.02479 33.0761 4.99538 33.0384 4.96558C32.9786 4.91823 32.9186 4.8714 32.8577 4.82612C32.8174 4.79619 32.7767 4.76703 32.7361 4.73801C32.6758 4.69518 32.6151 4.65325 32.5538 4.61235C32.5121 4.58462 32.4705 4.55702 32.4285 4.53018C32.3655 4.49006 32.3019 4.45136 32.2381 4.4133C32.197 4.38879 32.1562 4.36389 32.1147 4.34015C32.0448 4.30029 31.9742 4.26263 31.9032 4.22509C31.8669 4.20586 31.831 4.18574 31.7944 4.16729C31.6878 4.11324 31.5801 4.06138 31.4712 4.01274C31.4558 4.00591 31.44 3.99984 31.4245 3.99313C31.33 3.95159 31.235 3.91173 31.139 3.87419C31.0972 3.85793 31.0548 3.84323 31.0128 3.82762C30.9423 3.80156 30.8717 3.77575 30.8005 3.75189C30.7527 3.73589 30.7047 3.72092 30.6568 3.70596C30.5902 3.68506 30.5236 3.66468 30.4567 3.64559C30.4063 3.63127 30.356 3.61773 30.3053 3.60457C30.2394 3.58728 30.1735 3.57102 30.1071 3.55541C30.0558 3.54341 30.0047 3.53167 29.9532 3.52084C29.8857 3.50652 29.8178 3.49362 29.75 3.48124C29.6998 3.47195 29.6497 3.46228 29.5992 3.45402C29.5258 3.44202 29.452 3.43196 29.3783 3.42215C29.3332 3.41609 29.2883 3.40899 29.2431 3.40383C29.127 3.39016 29.0103 3.37894 28.8934 3.37042C28.8562 4.87437 29.6318 6.68278 31.0971 8.16441C32.5624 9.64565 34.3579 10.4372 35.8561 10.4104ZM34.4356 8.75138C34.6464 8.87832 34.7146 9.15259 34.5881 9.36403C34.4618 9.57547 34.1887 9.6441 33.9781 9.51716C33.7674 9.39034 33.6991 9.11595 33.8254 8.90451C33.9519 8.69307 34.225 8.62444 34.4356 8.75138ZM32.7211 6.90285C32.9738 6.47984 33.5201 6.34271 33.9413 6.59646C34.3626 6.85022 34.4992 7.39876 34.2465 7.82177C33.9938 8.24465 33.4474 8.38191 33.0261 8.12816C32.6049 7.8744 32.4683 7.32573 32.7211 6.90285ZM31.6901 5.69627C31.8164 5.48483 32.0895 5.41619 32.3003 5.54313C32.5109 5.66995 32.5791 5.94435 32.4528 6.15579C32.3263 6.36723 32.0532 6.43585 31.8426 6.30891C31.632 6.18197 31.5636 5.90771 31.6901 5.69627Z" fill="#DF4447"/>
<path d="M29.6374 18.8556C29.3725 19.1197 28.9447 19.1182 28.6816 18.8523C28.4938 18.6623 28.4416 18.3889 28.5233 18.1519C28.0542 17.9925 27.6113 17.8156 27.1918 17.6247C27.1587 17.709 27.1082 17.788 27.0401 17.856C26.7752 18.12 26.3474 18.1185 26.0844 17.8526C25.8564 17.6221 25.8275 17.2689 25.9963 17.0067C25.5119 16.7235 25.0665 16.42 24.6563 16.1017C24.6462 16.1135 24.636 16.1253 24.6249 16.1366C24.36 16.4006 23.9322 16.3991 23.6693 16.1332C23.4191 15.8804 23.4088 15.4798 23.6361 15.2141C23.2435 14.8314 22.8924 14.4364 22.5784 14.0369C22.3135 14.2292 21.9413 14.2056 21.7039 13.9654C21.4409 13.6994 21.4424 13.2699 21.7072 13.0059C21.7367 12.9763 21.7686 12.9507 21.8019 12.9279C21.4905 12.4269 21.2308 11.9301 21.0143 11.4526C20.7539 11.609 20.4119 11.5747 20.1885 11.3488C19.9255 11.0829 19.927 10.6533 20.1918 10.3892C20.2867 10.2948 20.4023 10.235 20.5237 10.2084C20.378 9.77711 20.268 9.37925 20.1854 9.03107V9.03133C20.1421 9.1224 20.1001 9.214 20.059 9.30624C20.0542 9.31669 20.0495 9.32727 20.0448 9.33759C19.9611 9.52607 19.8815 9.71686 19.8065 9.90934L19.7978 9.93243C19.7631 10.022 19.7294 10.1119 19.6966 10.2021L19.6866 10.2298C19.617 10.4232 19.5518 10.6181 19.4913 10.8142C19.4877 10.8262 19.484 10.8383 19.4804 10.8502C19.4522 10.9423 19.425 11.0347 19.3991 11.1273L19.3948 11.1422C19.3666 11.2436 19.3393 11.3454 19.3135 11.4472C19.2892 11.5433 19.2663 11.6398 19.2444 11.7362C19.2411 11.7497 19.2382 11.7634 19.2351 11.777C19.1908 11.9746 19.1515 12.1722 19.1174 12.3699L19.1129 12.3971C19.0977 12.4871 19.0836 12.5772 19.0705 12.6672C19.0687 12.6795 19.0669 12.6919 19.0651 12.7041C19.0371 12.9005 19.0147 13.0963 18.9977 13.2914C18.9965 13.3046 18.9955 13.3179 18.9943 13.3312C18.987 13.4201 18.9806 13.509 18.9754 13.5975L18.9737 13.6234C18.9689 13.7129 18.9655 13.8023 18.963 13.8915C18.9627 13.9012 18.9619 13.9111 18.9617 13.9208L18.9623 13.9218C21.0581 17.5574 23.8958 19.3982 25.8021 20.2832L25.8031 20.2837L25.8243 20.2818C25.9217 20.2746 26.0193 20.2663 26.1173 20.2564L26.1297 20.2551C26.3397 20.2335 26.5504 20.2057 26.7616 20.1719L26.7819 20.1685C26.9921 20.1343 27.2026 20.0942 27.4129 20.0484L27.4322 20.0442C27.6437 19.9976 27.8551 19.9453 28.0654 19.8874L28.0745 19.8848C28.1784 19.8562 28.2819 19.8261 28.3852 19.7948L28.3931 19.7925C28.6021 19.7287 28.8099 19.6596 29.016 19.5854L29.037 19.5779C29.2412 19.504 29.4436 19.4249 29.6438 19.3411L29.6663 19.3315C29.8668 19.247 30.065 19.1579 30.2601 19.064L30.2762 19.0562C30.4351 18.9796 30.5915 18.899 30.7465 18.8164C30.7666 18.8056 30.7869 18.7951 30.8071 18.7842C30.8247 18.7748 30.8426 18.7657 30.8601 18.7562L30.8575 18.7556C30.4994 18.6893 30.1534 18.6143 29.8183 18.5312C29.79 18.65 29.7302 18.7631 29.6374 18.8556Z" fill="#63B55D"/>
<path d="M33.8255 8.90465C33.6992 9.11609 33.7675 9.39036 33.9781 9.5173C34.1886 9.64411 34.4619 9.57561 34.5882 9.36417C34.7146 9.15273 34.6464 8.87846 34.4357 8.75151C34.2251 8.62444 33.9519 8.69308 33.8255 8.90465Z" fill="#EA5357"/>
<path d="M31.8427 6.30878C32.0533 6.43559 32.3264 6.36709 32.4529 6.15565C32.5792 5.94421 32.5109 5.66982 32.3003 5.54301C32.0896 5.41619 31.8165 5.48482 31.6901 5.69613C31.5636 5.9077 31.6319 6.18197 31.8427 6.30878Z" fill="#EA5357"/>
<path d="M33.0263 8.12802C33.4474 8.38178 33.9939 8.24464 34.2466 7.82163C34.4994 7.39862 34.3627 6.85009 33.9415 6.59634C33.5203 6.34258 32.974 6.47972 32.7212 6.90273C32.4683 7.32574 32.6049 7.8744 33.0263 8.12802Z" fill="#EA5357"/>
<path d="M25.7369 6.96323L26.7372 6.5539L26.6439 6.35936L25.8275 6.69335L25.6784 5.61925L24.7732 5.74593L24.7737 5.61822L24.6839 5.66169L24.6825 6.01568L25.588 5.88913L25.7369 6.96323Z" fill="#E89353"/>
<path d="M26.5724 5.75148L27.1517 5.67047L27.0529 5.42716L26.4568 5.5105L26.5724 5.75148Z" fill="#E89353"/>
<path d="M25.5212 4.48478L25.3931 4.4844L25.4721 5.05473L25.5922 4.99667L25.5212 4.48478Z" fill="#E89353"/>
<path d="M33.7391 13.2274L33.6066 14.1353L33.9592 14.1366L34.3585 13.3184L35.1369 13.4329L35.1378 13.1498L34.4492 13.0486L34.0499 13.8667L33.6973 13.8656L33.8298 12.9575L32.7808 12.8033L32.6703 13.0701L33.7391 13.2274Z" fill="#E89353"/>
<path d="M34.0163 11.6792L33.968 11.6589L33.8959 12.1533L33.9437 12.1769L34.0163 11.6792Z" fill="#E89353"/>
<path d="M34.7275 12.5625L34.9654 12.0755L34.9312 12.0612L34.6946 12.5462L34.7275 12.5625Z" fill="#E89353"/>
<path d="M29.404 11.6703L29.7688 11.3825L29.7321 11.2131L29.4948 11.4004L28.9082 10.382L27.5766 10.5683L27.5775 10.329L27.4876 10.3723L27.486 10.838L28.8175 10.6519L29.404 11.6703Z" fill="#E89353"/>
<path d="M29.7321 10.5239L30.7348 10.3838L30.636 10.1405L29.6781 10.2744L29.7321 10.5239Z" fill="#E89353"/>
<path d="M27.9737 8.75938L27.7623 8.81937L28.3003 9.75363L28.4928 9.66061L27.9737 8.75938Z" fill="#E89353"/>
<path d="M25.6784 5.61925L25.8275 6.69335L26.6439 6.35936L26.8278 6.28401L26.5724 5.75148L26.4568 5.5105L27.0529 5.42716L27.2423 5.40058L26.8346 4.39627L26.0942 4.754L25.8362 4.21579L25.4836 4.2145L25.5211 4.48477L25.5922 4.99666L25.4721 5.05472L24.7745 5.39194L24.7737 5.61822L24.7732 5.74593L25.6784 5.61925Z" fill="#FFE879"/>
<path d="M33.6973 13.8656L34.0499 13.8667L34.4492 13.0486L35.1378 13.1498L35.2274 13.163L35.2286 12.8091L34.7274 12.5625L34.6945 12.5462L34.9312 12.0612L35.056 11.8056L34.0585 11.3892L34.0162 11.6792L33.9436 12.1769L33.8958 12.1533L33.1758 11.799L32.7609 12.8004L32.7808 12.8033L33.8298 12.9575L33.6973 13.8656Z" fill="#FFE879"/>
<path d="M28.9083 10.382L29.4949 11.4004L29.7322 11.2131L29.8595 11.1126L29.7321 10.5239L29.6781 10.2744L30.636 10.1405L30.8253 10.1141L30.2888 8.79253L29.4454 9.20019L29.2207 8.1613L27.8529 8.54961L27.9737 8.75938L28.4928 9.66061L28.3003 9.75362L27.5783 10.1026L27.5776 10.329L27.5767 10.5683L28.9083 10.382Z" fill="#FFE879"/>
<path d="M20.1884 11.3489C20.4118 11.5748 20.7538 11.6091 21.0142 11.4528C21.0603 11.4252 21.1041 11.3921 21.1441 11.3523C21.4088 11.0883 21.4105 10.6587 21.1474 10.3927C20.9786 10.2219 20.7418 10.1609 20.5238 10.2085C20.4023 10.2351 20.2867 10.2948 20.1919 10.3894C19.927 10.6534 19.9254 11.0829 20.1884 11.3489Z" fill="#FFE879"/>
<path d="M21.7039 13.9655C21.9414 14.2057 22.3134 14.2293 22.5784 14.037C22.6065 14.0165 22.6339 13.9943 22.6594 13.9689C22.9242 13.7048 22.9258 13.2752 22.6628 13.0093C22.4292 12.7731 22.0657 12.7462 21.8018 12.9281C21.7686 12.9509 21.7366 12.9766 21.7071 13.006C21.4424 13.2701 21.4408 13.6995 21.7039 13.9655Z" fill="#FFE879"/>
<path d="M23.6692 16.1333C23.9321 16.3992 24.36 16.4008 24.6248 16.1367C24.636 16.1255 24.6461 16.1136 24.6563 16.1019C24.8886 15.8363 24.88 15.4318 24.628 15.1772C24.3651 14.9113 23.9373 14.9097 23.6725 15.1738C23.6595 15.1867 23.6475 15.2004 23.636 15.214C23.4088 15.4799 23.4192 15.8805 23.6692 16.1333Z" fill="#FFE879"/>
<path d="M26.0844 17.8527C26.3474 18.1186 26.7753 18.12 27.0401 17.8561C27.1082 17.7881 27.1586 17.7091 27.1919 17.6248C27.2878 17.3816 27.2388 17.094 27.0436 16.8965C26.7806 16.6307 26.3527 16.6291 26.0877 16.8932C26.0524 16.9283 26.0223 16.9666 25.9964 17.0068C25.8277 17.269 25.8565 17.6222 26.0844 17.8527Z" fill="#FFE879"/>
<path d="M28.6817 18.8523C28.9448 19.1181 29.3726 19.1196 29.6374 18.8556C29.7303 18.7631 29.79 18.65 29.8181 18.531C29.8703 18.3104 29.8117 18.0688 29.6408 17.8962C29.3778 17.6303 28.9499 17.6288 28.6851 17.8928C28.6094 17.9682 28.5561 18.0573 28.5234 18.152C28.4417 18.389 28.4939 18.6624 28.6817 18.8523Z" fill="#FFE879"/>
<path d="M12.5314 23.1517L14.4046 26.6543L14.658 27.128L15.0513 27.8633L15.0525 27.862L15.2381 27.6445L12.9352 22.8108L12.5314 23.1517Z" fill="#C4793E"/>
<path d="M18.0453 32.5386C17.7549 32.0674 18.6973 31.9654 19.3259 30.5544C20.1204 28.7701 18.7076 25.6372 19.6285 26.8213C18.4417 23.8034 15.9102 20.6811 14.6954 19.6699C14.2928 19.3348 13.8905 19.4038 13.6678 19.4489C12.8568 19.6137 11.9603 20.7646 11.9603 20.7646L12.9351 22.8108L15.238 27.6445L17.8089 33.0414C18.0115 32.9721 18.1989 32.8942 18.3734 32.8095C18.2394 32.7555 18.1226 32.6636 18.0453 32.5386Z" fill="#E89353"/>
<path d="M3.06439 15.312C3.21408 15.1099 3.38061 14.9229 3.56422 14.7514C3.74346 14.6109 3.93338 14.4866 4.13408 14.3793C4.41226 14.2631 4.7011 14.1814 4.99675 14.1224C6.08082 13.96 7.2227 13.9979 8.24753 13.5688C8.93392 13.2814 9.52678 12.8665 10.0293 12.313C10.4807 11.8158 10.8444 11.234 11.1789 10.6532C11.4864 10.1194 11.7653 9.56746 12.0991 9.04938C12.2863 8.78672 12.4926 8.54019 12.7277 8.31985C12.8404 8.23431 12.9582 8.15704 13.0818 8.08841C13.1888 8.04674 13.2978 8.01204 13.4091 7.98456C13.5858 7.96353 13.7629 7.95798 13.9407 7.96508C14.4889 8.02881 15.0214 8.17523 15.5572 8.3063L15.5578 8.30643L15.5532 8.29418C15.5 8.14298 15.444 7.99359 15.3852 7.84652C15.3811 7.8362 15.377 7.82601 15.3728 7.81556C15.3157 7.67366 15.2559 7.53395 15.1935 7.39643C15.1876 7.38314 15.1815 7.36972 15.1753 7.35644C15.1128 7.21982 15.0477 7.08552 14.98 6.95368C14.9747 6.94323 14.9695 6.93265 14.9641 6.92232C14.8916 6.78235 14.8165 6.64484 14.7383 6.51093C14.6559 6.36967 14.5697 6.23214 14.4804 6.09785L14.4645 6.07437C14.378 5.94485 14.289 5.81803 14.197 5.69445L14.196 5.69303C13.971 5.67058 13.7439 5.66181 13.5135 5.67381C12.7608 5.7129 11.9998 5.97336 11.4122 6.45365C11.0814 6.72417 10.7802 7.00928 10.5205 7.34947C10.2643 7.68514 10.0321 8.04249 9.82038 8.40796C9.46549 9.02009 9.14477 9.65235 8.75738 10.245C8.55333 10.5301 8.3299 10.7996 8.07523 11.0401C7.91539 11.166 7.7468 11.2785 7.56833 11.3755C7.29516 11.4887 7.01146 11.5685 6.72146 11.6259C5.72991 11.7744 4.70971 11.7646 3.74745 12.0773C2.66223 12.43 1.77873 13.1577 1.14502 14.0921C1.20053 14.1963 1.25681 14.3004 1.31694 14.4034C1.35883 14.4754 1.40238 14.547 1.44684 14.6186C1.45982 14.6395 1.47318 14.6602 1.48641 14.6811C1.51956 14.7338 1.55337 14.7861 1.58767 14.8383C1.60155 14.8593 1.61542 14.8803 1.62943 14.9013C1.66977 14.9615 1.71088 15.0213 1.75277 15.0809C1.7601 15.0912 1.76705 15.1015 1.77437 15.1119C1.82679 15.1858 1.88023 15.2593 1.93484 15.3325L1.94115 15.3406C1.9928 15.4096 2.04574 15.4781 2.09958 15.5464C2.10806 15.5572 2.11679 15.568 2.12539 15.5789C2.17705 15.644 2.2296 15.7088 2.28318 15.7731L2.29706 15.7899C2.36015 15.8654 2.42426 15.9402 2.48966 16.0147C2.50957 16.0372 2.53014 16.0593 2.55006 16.0817C2.59182 16.1286 2.63332 16.1754 2.67598 16.2217L2.6761 16.2211C2.69884 16.1182 2.72608 16.0166 2.7573 15.9158C2.84249 15.7061 2.94528 15.5047 3.06439 15.312Z" fill="#DF4447"/>
<path d="M5.72001 6.50178C7.51436 5.44664 8.7255 3.89818 9.07345 2.43487L9.07358 2.43474L9.06959 2.4341C8.95575 2.41243 8.84165 2.39359 8.72716 2.37695C8.68155 2.37037 8.63593 2.36559 8.59019 2.35978C8.51708 2.3505 8.44385 2.34121 8.37035 2.33412C8.31908 2.32908 8.26781 2.32547 8.21655 2.32147C8.14806 2.31618 8.0797 2.31115 8.01122 2.30767C7.95841 2.30496 7.90561 2.30315 7.8528 2.3016C7.78522 2.29954 7.71724 2.29825 7.64953 2.29799C7.5971 2.29773 7.54454 2.29787 7.49199 2.29877C7.42261 2.29993 7.35336 2.30251 7.2841 2.30548C7.23348 2.30767 7.18311 2.30973 7.13275 2.31296C7.05797 2.31773 6.98331 2.32457 6.90853 2.33167C6.86395 2.3358 6.81909 2.33915 6.77451 2.34418C6.67274 2.35566 6.57111 2.36972 6.46986 2.38533C6.45252 2.38804 6.43504 2.38972 6.41769 2.39256C6.30013 2.41165 6.18295 2.43397 6.06615 2.45874C6.02606 2.46725 5.9861 2.47757 5.94601 2.48673C5.86801 2.50466 5.79015 2.52298 5.71254 2.54349C5.66628 2.55575 5.62029 2.56942 5.57429 2.58245C5.50298 2.60283 5.4318 2.62373 5.36087 2.64631C5.3132 2.66153 5.26579 2.67753 5.21838 2.69365C5.14899 2.71739 5.07974 2.74216 5.01074 2.76809C4.96384 2.78564 4.91694 2.80344 4.8703 2.82215C4.79989 2.85027 4.72986 2.87994 4.66009 2.91038C4.61615 2.9296 4.57221 2.94831 4.52826 2.96831C4.45233 3.00314 4.37715 3.04043 4.30185 3.0781C4.26523 3.09641 4.22836 3.1137 4.19187 3.13266C4.08073 3.19059 3.97061 3.25109 3.86139 3.3152C3.75231 3.37932 3.6458 3.4464 3.54121 3.51529C3.5069 3.53787 3.47401 3.56161 3.44009 3.5847C3.37057 3.63218 3.30132 3.6799 3.23399 3.72931C3.19519 3.75782 3.15727 3.78724 3.11924 3.81653C3.05859 3.86271 2.99859 3.90941 2.93974 3.9574C2.90068 3.98913 2.86226 4.02138 2.82397 4.05389C2.76782 4.10175 2.71232 4.15013 2.65772 4.19954C2.62045 4.23308 2.58344 4.26675 2.54695 4.30107C2.4926 4.35215 2.43954 4.40427 2.38686 4.45691C2.35306 4.49071 2.31876 4.52425 2.28561 4.55869C2.22972 4.61675 2.17562 4.67609 2.12191 4.73569C2.09441 4.76627 2.06601 4.79606 2.03903 4.82702C1.96027 4.91732 1.88343 5.00892 1.8093 5.10271C1.79863 5.11613 1.789 5.13006 1.77846 5.14347C1.71499 5.225 1.65279 5.30744 1.59266 5.39129C1.56658 5.4278 1.5419 5.46521 1.51646 5.50224C1.47368 5.56429 1.43115 5.62647 1.39029 5.68968C1.36293 5.73213 1.33659 5.77522 1.30999 5.8183C1.27337 5.87778 1.23713 5.93725 1.20192 5.99762C1.17571 6.0429 1.15002 6.08857 1.1247 6.13437C1.09155 6.19423 1.0593 6.25447 1.02769 6.31523C1.00354 6.36193 0.979384 6.40863 0.955999 6.45598C0.925419 6.51803 0.896121 6.58073 0.867082 6.64368C0.845625 6.69013 0.823785 6.73644 0.803355 6.7834C0.773417 6.85177 0.745269 6.92118 0.717387 6.99032C0.700298 7.03264 0.682435 7.07456 0.665988 7.11701C0.623972 7.22666 0.583886 7.33709 0.546753 7.44868C1.98802 7.86008 3.92565 7.55692 5.72001 6.50178ZM7.11899 3.40215C7.29386 3.22903 7.57552 3.23096 7.74795 3.40654C7.92051 3.58212 7.91845 3.8649 7.74357 4.03803C7.5687 4.21115 7.28706 4.20922 7.11463 4.03364C6.9422 3.85793 6.94412 3.57528 7.11899 3.40215ZM4.9172 3.34527C5.26707 2.99888 5.83025 3.00288 6.17511 3.35416C6.51985 3.70532 6.51611 4.27075 6.16624 4.61713C5.81636 4.96339 5.25333 4.95951 4.90834 4.60823C4.5636 4.25695 4.56745 3.69152 4.9172 3.34527ZM3.49186 4.67815C3.66674 4.50502 3.94839 4.50696 4.12082 4.68253C4.29325 4.85824 4.29132 5.14089 4.11632 5.31402C3.94144 5.48728 3.65979 5.48521 3.48736 5.30963C3.31506 5.13406 3.31712 4.85127 3.49186 4.67815Z" fill="#DF4447"/>
<path d="M16.0886 14.6724L16.0893 14.6715L16.0929 14.6504C16.1102 14.5542 16.1264 14.4574 16.1413 14.3602L16.1433 14.3462C16.175 14.1371 16.2006 13.9254 16.2206 13.7119L16.2225 13.691C16.242 13.4782 16.2558 13.2636 16.264 13.0479L16.2648 13.0275C16.2725 12.8104 16.2748 12.5921 16.2713 12.3733L16.2711 12.363C16.2693 12.2553 16.2662 12.1473 16.2617 12.0395L16.2612 12.0306C16.2519 11.8115 16.237 11.5922 16.2168 11.3734L16.2149 11.3512C16.1945 11.1344 16.1688 10.918 16.1378 10.7028L16.1342 10.6776C16.1027 10.4619 16.0661 10.2471 16.0242 10.0341L16.0208 10.0163C15.9998 9.9105 15.9777 9.80497 15.9543 9.70009L15.9538 9.69841C15.9295 9.58966 15.9038 9.48155 15.8769 9.37396L15.8755 9.3768C15.7224 9.70821 15.5636 10.0258 15.4 10.3307C15.5078 10.3877 15.602 10.474 15.6681 10.5873C15.8567 10.9107 15.7485 11.3262 15.4265 11.5156C15.1965 11.6509 14.9199 11.6334 14.7116 11.4948C14.4409 11.9111 14.1599 12.2977 13.8709 12.6579C13.944 12.7113 14.0077 12.78 14.0562 12.8633C14.2448 13.1866 14.1367 13.6023 13.8146 13.7916C13.5354 13.9559 13.1874 13.8957 12.9768 13.6664C12.5828 14.0667 12.1791 14.424 11.7697 14.7436C11.7786 14.7565 11.7874 14.7692 11.7955 14.7829C11.9841 15.1062 11.876 15.5219 11.554 15.7112C11.2476 15.8913 10.8587 15.8015 10.659 15.5144C10.1921 15.8006 9.7235 16.0434 9.25978 16.2491C9.37928 16.5547 9.26377 16.9104 8.97274 17.0815C8.65074 17.2709 8.23674 17.1623 8.04812 16.839C8.02692 16.8029 8.01022 16.7655 7.99647 16.7276C7.43536 16.9053 6.89146 17.0339 6.37712 17.1254C6.46308 17.4176 6.34461 17.7415 6.07106 17.9024C5.74907 18.0918 5.33507 17.9832 5.14644 17.6599C5.07899 17.5441 5.05009 17.4167 5.05485 17.2921C4.60269 17.3261 4.19177 17.334 3.83534 17.3274H3.83484C3.91193 17.3922 3.99004 17.4562 4.06881 17.5193L4.09516 17.5404C4.25628 17.6689 4.42048 17.7939 4.58752 17.9149L4.60719 17.929C4.68492 17.9851 4.76342 18.0404 4.84244 18.0949L4.86622 18.1113C5.0357 18.2274 5.20749 18.3393 5.38159 18.4471C5.39213 18.4535 5.40266 18.46 5.41307 18.4665C5.49517 18.517 5.57767 18.5664 5.66054 18.6149L5.67364 18.6226C5.76435 18.6755 5.85558 18.7273 5.94745 18.7777L5.94809 18.7781C6.03469 18.8257 6.12195 18.8719 6.20932 18.9174C6.2214 18.9237 6.2336 18.9299 6.24568 18.9363C6.42518 19.0285 6.60622 19.1161 6.78829 19.1987L6.81425 19.2101C6.897 19.2473 6.98025 19.2834 7.06351 19.3185C7.07508 19.3234 7.08639 19.3283 7.09796 19.3331C7.28015 19.4091 7.46337 19.4798 7.64711 19.5449C7.66009 19.5494 7.67281 19.5539 7.68579 19.5585C7.76956 19.5877 7.85321 19.616 7.93725 19.6431L7.96192 19.6511C8.04724 19.6783 8.13254 19.704 8.21799 19.7286L8.24575 19.737L8.24689 19.7367C12.2766 18.6051 14.7598 16.3051 16.0886 14.6724Z" fill="#63B55D"/>
<path d="M7.74361 4.03803C7.91848 3.8649 7.92055 3.58212 7.74798 3.40654C7.57555 3.23097 7.29403 3.22903 7.11903 3.40216C6.94415 3.57528 6.94222 3.85807 7.11452 4.03364C7.28709 4.20922 7.56873 4.21115 7.74361 4.03803Z" fill="#EA5357"/>
<path d="M4.11651 5.31401C4.29151 5.14102 4.29344 4.85823 4.12101 4.68253C3.94858 4.50695 3.66692 4.50502 3.49205 4.67814C3.31718 4.85127 3.31526 5.13405 3.48769 5.30963C3.65999 5.48533 3.94163 5.48727 4.11651 5.31401Z" fill="#EA5357"/>
<path d="M6.16641 4.61699C6.51615 4.27061 6.52 3.70518 6.17527 3.35403C5.83027 3.00288 5.2671 2.99887 4.91735 3.34512C4.5676 3.69151 4.56375 4.25681 4.90849 4.6081C5.25348 4.95938 5.81653 4.96325 6.16641 4.61699Z" fill="#EA5357"/>
<path d="M2.26439 10.2992L2.33069 9.71596L2.0714 9.7513L2.00317 10.3514L2.26439 10.2992Z" fill="#E89353"/>
<path d="M1.31813 11.1953L1.29217 11.0642L0.780661 11.0055L0.748413 11.13L1.31813 11.1953Z" fill="#E89353"/>
<path d="M1.91416 11.1354L1.81047 12.0472L1.6875 12.0149L1.70703 12.1131L2.04817 12.2027L2.15174 11.2908L3.22487 11.4139L3.07955 10.3392L2.8687 10.3814L2.98729 11.2585L1.91416 11.1354Z" fill="#E89353"/>
<path d="M10.8678 4.06872L10.4573 3.71602L10.4351 3.7457L10.8439 4.09685L10.8678 4.06872Z" fill="#E89353"/>
<path d="M11.9567 5.05291L11.8677 5.39541L11.0249 5.04014L10.6145 6.02148L10.8444 6.19551L11.2623 5.19546L12.1052 5.55074L12.1943 5.20836L11.5047 4.61596L11.8093 3.88785L11.5365 3.81638L11.2671 4.46064L11.9567 5.05291Z" fill="#E89353"/>
<path d="M9.83838 4.54L9.80676 4.58193L10.2656 4.7753L10.3002 4.73467L9.83838 4.54Z" fill="#E89353"/>
<path d="M7.65589 8.41752L7.77076 7.40766L7.51134 7.44314L7.40173 8.40784L7.65589 8.41752Z" fill="#E89353"/>
<path d="M7.31346 9.18304L7.16094 10.5242L6.9303 10.4637L6.94983 10.5618L7.39852 10.6796L7.55116 9.33848L8.67955 9.02216L8.49298 8.5958L8.32042 8.58922L8.44185 8.86671L7.31346 9.18304Z" fill="#E89353"/>
<path d="M5.51514 9.68707L5.52027 9.90767L6.55551 9.61741L6.51388 9.40726L5.51514 9.68707Z" fill="#E89353"/>
<path d="M1.31806 11.1953L1.46929 11.9577L1.68746 12.015L1.81043 12.0472L1.91412 11.1354L2.98726 11.2585L2.86866 10.3814L2.84194 10.1839L2.26438 10.2992L2.00316 10.3514L2.07139 9.75131L2.0931 9.56051L1.02279 9.70655L1.18313 10.5155L0.599662 10.6322L0.51062 10.9745L0.780586 11.0055L1.2921 11.0642L1.31806 11.1953Z" fill="#FFE879"/>
<path d="M10.3002 4.73465L10.2656 4.77529L9.74435 5.38717L10.6069 6.04019L10.6146 6.02149L11.025 5.04014L11.8678 5.39542L11.9568 5.05291L11.2672 4.46065L11.5366 3.81639L11.5717 3.73241L11.2306 3.64301L10.8679 4.06872L10.844 4.09685L10.4351 3.7457L10.2196 3.5607L9.56921 4.42658L9.83841 4.53998L10.3002 4.73465Z" fill="#FFE879"/>
<path d="M5.51525 9.68705L6.51399 9.40724L6.55562 9.61739L6.71212 10.4064L6.93029 10.4637L7.16094 10.5242L7.31346 9.18303L8.44185 8.8667L8.32042 8.58921L8.25528 8.44034L7.65587 8.4175L7.40171 8.40783L7.51132 7.44313L7.53304 7.25233L6.12466 7.44441L6.30737 8.36603L5.24939 8.32552L5.2828 9.7522L5.51525 9.68705Z" fill="#FFE879"/>
<path d="M5.38824 16.7314C5.18137 16.853 5.06355 17.0681 5.05507 17.292C5.05031 17.4166 5.07922 17.5442 5.14668 17.6597C5.3353 17.983 5.74916 18.0917 6.07128 17.9023C6.34484 17.7414 6.46331 17.4173 6.37735 17.1253C6.36206 17.0734 6.34124 17.0226 6.31284 16.974C6.12435 16.6507 5.71037 16.5422 5.38824 16.7314Z" fill="#FFE879"/>
<path d="M8.28998 15.9106C8.00396 16.0788 7.88717 16.4254 7.9969 16.7274C8.01052 16.7654 8.02734 16.8028 8.04855 16.8389C8.23717 17.1622 8.65117 17.2708 8.97316 17.0814C9.26419 16.9102 9.37983 16.5546 9.26021 16.2489C9.24762 16.2164 9.23284 16.1842 9.21485 16.153C9.02597 15.8298 8.61198 15.7212 8.28998 15.9106Z" fill="#FFE879"/>
<path d="M10.8712 14.5404C10.5492 14.7298 10.441 15.1454 10.6296 15.4687C10.6389 15.4846 10.649 15.4994 10.6594 15.5144C10.8591 15.8015 11.248 15.8913 11.5544 15.7112C11.8762 15.5218 11.9845 15.1062 11.7959 14.7829C11.788 14.7692 11.779 14.7565 11.7701 14.7436C11.5717 14.4515 11.1796 14.359 10.8712 14.5404Z" fill="#FFE879"/>
<path d="M13.1318 12.6208C12.8098 12.8102 12.7016 13.2258 12.8902 13.5491C12.9153 13.5922 12.9449 13.6312 12.9772 13.6664C13.1878 13.8958 13.5358 13.9557 13.815 13.7916C14.1371 13.6023 14.2452 13.1866 14.0565 12.8633C14.008 12.78 13.9444 12.7114 13.8713 12.6579C13.6605 12.504 13.3709 12.4802 13.1318 12.6208Z" fill="#FFE879"/>
<path d="M14.7437 10.3449C14.4217 10.5342 14.3134 10.9498 14.5021 11.2732C14.556 11.3654 14.6285 11.4397 14.7117 11.4949C14.92 11.6335 15.1966 11.651 15.4266 11.5157C15.7487 11.3263 15.8569 10.9107 15.6682 10.5874C15.6021 10.4741 15.5079 10.3878 15.4001 10.3308C15.2004 10.2251 14.9529 10.2218 14.7437 10.3449Z" fill="#FFE879"/>
<defs>
<linearGradient id="paint0_linear_14_16840" x1="0" y1="18" x2="36" y2="18" gradientUnits="userSpaceOnUse">
<stop stop-color="#83247C"/>
<stop offset="1" stop-color="#363787"/>
</linearGradient>
</defs>
</svg>
