<svg width="36" height="36" viewBox="0 0 36 36" fill="none" xmlns="http://www.w3.org/2000/svg">
<path d="M33.1047 26.9581L33.1045 26.9506C32.7768 25.9163 31.6858 24.9509 31.247 24.7583C30.5484 24.377 29.803 24.1151 29.2983 23.962C28.6754 23.7731 28.0792 23.4991 27.5492 23.1214C26.9895 22.7226 26.5367 22.2466 26.4485 21.7192C26.1886 20.165 25.5162 18.2263 24.1199 17.7796C23.5988 17.613 23.3568 17.6652 23.2629 17.8247C22.3662 17.7001 22.8594 18.6509 22.9495 19.1472C23.0496 19.6985 23.3606 21.283 22.0906 21.4877L8.93303 4.95765L8.90784 4.96527C8.85732 4.88453 8.29977 3.96313 8.6091 3.06085C8.6414 2.96707 8.58778 2.86618 8.49074 2.84564C8.0252 2.74708 6.81282 2.45425 6.01185 1.93316C5.75291 1.76485 5.63481 1.44991 5.70239 1.14868C5.76376 0.875213 5.68973 0.573857 5.46606 0.354131C5.19498 0.0879029 4.71251 0.0545713 4.3953 0.263834C4.20136 0.26293 4.00741 0.32041 3.85998 0.438863C3.51163 0.718913 3.46719 1.18382 3.70674 1.59072L3.21859 1.75347C3.17466 1.76807 3.12698 1.74688 3.1085 1.70438C3.08886 1.65917 3.03614 1.63851 2.99092 1.65814L2.86235 1.71407C2.81209 1.7359 2.79323 1.79726 2.82256 1.84351L3.06069 2.22083C3.08421 2.25803 3.13137 2.27262 3.17168 2.25505L3.2381 2.22625C3.28332 2.20649 3.30399 2.15391 3.28435 2.1087L3.27828 2.09475C3.2589 2.05006 3.2788 1.998 3.32325 1.97785L3.79499 1.76368C3.88053 1.93626 4.03338 2.24602 4.21944 2.62049L3.67496 2.80211C3.63102 2.81671 3.58322 2.79553 3.56487 2.75303C3.54523 2.70782 3.49252 2.68714 3.44729 2.70678L3.31872 2.76272C3.26859 2.78455 3.2496 2.8459 3.2788 2.89214L3.51706 3.26946C3.54058 3.30667 3.58774 3.32127 3.62818 3.3037L3.69459 3.27476C3.73982 3.25513 3.7605 3.20256 3.74073 3.15734L3.73478 3.14339C3.71527 3.09869 3.7353 3.04664 3.77961 3.02649L4.30317 2.78881C4.42308 3.02959 4.55333 3.28975 4.68538 3.55197L4.08817 3.75128C4.04424 3.76588 3.99643 3.74457 3.97796 3.7022C3.95832 3.65699 3.90573 3.63632 3.86051 3.65596L3.73193 3.71189C3.6818 3.73372 3.66281 3.7952 3.69201 3.84145L3.93015 4.21864C3.95367 4.25584 4.00095 4.27043 4.04127 4.25287L4.10755 4.22407C4.15278 4.2043 4.17345 4.15173 4.15381 4.10665L4.14773 4.09269C4.12835 4.048 4.14838 3.99594 4.1927 3.97579L4.76729 3.71486C4.89754 3.97256 5.02792 4.22858 5.1517 4.47079L4.716 4.61624C4.6722 4.63084 4.62439 4.60952 4.60592 4.56715C4.58628 4.52194 4.53369 4.50127 4.48846 4.52091L4.35977 4.57684C4.30963 4.59867 4.29077 4.66003 4.31997 4.70627L4.55811 5.08347C4.58162 5.1208 4.62878 5.13526 4.66923 5.11769L4.73564 5.08889C4.78086 5.06926 4.80154 5.01668 4.7819 4.97134L4.77583 4.95739C4.75632 4.91269 4.77634 4.86063 4.82079 4.84048L5.24292 4.64879C5.38841 4.93284 5.52098 5.19041 5.62874 5.39864L5.12922 5.56528C5.08528 5.57988 5.03761 5.55869 5.01913 5.5162C4.99936 5.47099 4.9469 5.45031 4.90168 5.46995L4.77298 5.52589C4.72285 5.54772 4.70386 5.60907 4.73319 5.65531L4.97132 6.03263C4.99484 6.06984 5.042 6.08443 5.08244 6.06687L5.14885 6.03793C5.19408 6.0183 5.21475 5.96559 5.19511 5.92051L5.18904 5.90643C5.16953 5.86174 5.18956 5.80968 5.23387 5.78966L5.71738 5.57006C5.76881 5.66953 5.81144 5.75155 5.8422 5.8111C5.87553 5.8753 5.94725 5.91005 6.01844 5.89713C6.85495 5.74509 6.99062 6.2171 6.99062 6.2171L7.36959 5.92581L7.05599 6.16698L18.4858 21.5471C18.4933 21.8581 18.4347 22.2998 18.0836 22.5211C17.9665 22.5261 17.8348 22.5176 17.6861 22.4922C16.3018 22.2547 16.1857 21.2139 15.4605 21.0329C15.2834 20.9887 15.1042 21.047 14.9804 21.1686L14.9799 21.1685C14.7263 21.1052 14.4655 21.249 14.3747 21.494C14.148 22.1058 14.0516 23.5194 16.5721 25.4535C19.9975 28.0821 19.4606 28.1441 19.8335 29.8453C19.85 29.921 19.8689 30.009 19.8903 30.1066C19.9425 30.7441 20.2783 33.7222 21.8707 35.0027C23.1206 36.0077 24.489 36.0424 25.8161 35.6071C27.262 35.2662 28.682 34.3035 29.8718 33.3493C32.2604 31.433 33.5488 28.9031 33.1047 26.9581Z" fill="#DF4447"/>
<path d="M17.2053 22.6277C17.6107 22.6972 17.8909 22.6423 18.0835 22.521C17.9664 22.526 17.8347 22.5175 17.686 22.492C16.3016 22.2546 16.1856 21.2137 15.4604 21.0327C15.2833 20.9886 15.1041 21.0468 14.9803 21.1685C15.7051 21.3497 15.8212 22.3905 17.2053 22.6277Z" fill="#B92D2E"/>
<path d="M33.1047 26.9581L33.1045 26.9506C32.7768 25.9163 31.6858 24.9509 31.247 24.7583C30.5484 24.377 29.803 24.1151 29.2983 23.962C28.6754 23.7731 28.0792 23.4991 27.5492 23.1214C26.9895 22.7226 26.5367 22.2466 26.4485 21.7192C26.1886 20.165 25.5162 18.2263 24.1199 17.7796C23.5988 17.613 23.3567 17.6652 23.2629 17.8247C23.3685 17.8394 23.4923 17.8681 23.6393 17.9151C25.0357 18.3618 25.7081 20.3005 25.968 21.8547C26.0562 22.3821 26.5088 22.8581 27.0687 23.257C27.5987 23.6347 28.195 23.9086 28.8178 24.0976C29.3225 24.2506 30.068 24.5126 30.7664 24.8939C31.2053 25.0864 32.2963 26.052 32.624 27.0863L32.6243 27.0938C33.0683 29.0389 31.78 31.5686 29.391 33.4848C28.3334 34.3331 27.0939 35.1881 25.816 35.6071C27.2619 35.2662 28.6819 34.3035 29.8716 33.3493C32.2604 31.433 33.5488 28.9031 33.1047 26.9581Z" fill="#B92D2E"/>
<path d="M5.22176 1.28431C5.15431 1.58555 5.27241 1.90034 5.53122 2.06879C6.33219 2.58988 7.54457 2.88271 8.01011 2.98127C8.10728 3.00181 8.16064 3.1027 8.1286 3.19648C7.80544 4.13906 8.42965 5.10464 8.43198 5.10852L8.43314 5.10813L8.45239 5.09328L8.45808 5.10064L8.90773 4.9654C8.85721 4.88466 8.29967 3.96326 8.609 3.06097C8.6413 2.96719 8.58768 2.8663 8.49064 2.84577C8.0251 2.74721 6.81272 2.45437 6.01175 1.93328C5.75281 1.76497 5.63471 1.45004 5.70229 1.14881C5.76366 0.875343 5.68963 0.573979 5.46596 0.354253C5.19488 0.088025 4.71241 0.0546934 4.3952 0.263956C4.61408 0.264989 4.83322 0.340301 4.98543 0.489885C5.2091 0.709482 5.28313 1.01072 5.22176 1.28431Z" fill="#B92D2E"/>
<path d="M21.506 21.4923C21.7312 21.5186 21.9241 21.5144 22.0908 21.4876L8.93304 4.95764L8.90785 4.96526L8.45819 5.1005L21.506 21.4923Z" fill="#541315"/>
<path d="M8.4322 5.10864L8.4331 5.108L8.43195 5.10839L8.4322 5.10864Z" fill="#541315"/>
<path d="M21.9036 22.933L20.8485 23.7441C20.5931 23.9405 20.2263 23.8894 20.0343 23.6308L19.663 23.1315C18.7755 23.3915 18.3075 23.5609 18.1974 23.6372C18.015 23.7638 17.9607 24.0433 18.1251 24.2139C18.1982 24.29 18.3025 24.3263 18.4035 24.3565C18.8871 24.5012 19.3807 24.4486 19.8633 24.6031C20.3316 24.7531 20.7616 25.0276 21.0851 25.399C21.6219 26.0151 21.8508 26.8377 21.9998 27.6412C22.149 28.4445 22.2372 29.2702 22.5549 30.023C22.8725 30.7759 23.4753 31.466 24.2752 31.634C24.6336 31.7093 25.0054 31.6719 25.3569 31.5634L24.9631 30.6371L27.4866 28.6971L28.171 29.2112C28.1926 29.1848 28.2149 29.159 28.2363 29.1324C28.4294 28.8924 28.6139 28.6446 28.7694 28.3788C28.9682 28.0385 29.118 27.671 29.3246 27.3354C29.5697 26.9374 29.805 26.6806 30.273 26.3147C30.414 26.2044 30.5201 26.0509 30.5434 25.8734C30.5884 25.5331 30.3047 25.4486 30.2541 25.4393C29.2033 25.2477 28.1748 24.8815 27.2912 24.2814C26.4075 23.6812 25.6744 22.8383 25.291 21.8416C25.0853 21.3067 24.9807 20.7341 24.7374 20.2153C24.5381 19.7906 24.2147 19.3906 23.7938 19.2078C23.7236 19.1773 23.659 19.2587 23.7022 19.3217C23.9111 19.6276 24.0981 20.1876 24.0444 20.5397C23.9243 21.3292 23.4536 22.127 22.6788 22.3222C22.488 22.3704 22.3042 22.417 22.1266 22.4626C22.1303 22.6399 22.055 22.8165 21.9036 22.933ZM29.2059 25.6807C29.3572 25.5412 29.5928 25.5507 29.7321 25.702C29.8715 25.8531 29.862 26.0888 29.7108 26.2281C29.5596 26.3675 29.324 26.358 29.1845 26.2068C29.045 26.0557 29.0547 25.8201 29.2059 25.6807ZM27.997 26.3447C28.1483 26.2053 28.384 26.2148 28.5232 26.3661C28.6628 26.5172 28.6531 26.7529 28.5019 26.8922C28.3507 27.0316 28.1151 27.0221 27.9756 26.8708C27.8362 26.7197 27.8458 26.484 27.997 26.3447ZM27.8285 27.7381C27.9797 27.5986 28.2153 27.6082 28.3547 27.7594C28.4942 27.9105 28.4846 28.1461 28.3333 28.2855C28.182 28.4249 27.9464 28.4153 27.807 28.2641C27.6677 28.1131 27.6773 27.8774 27.8285 27.7381ZM25.6505 27.2632C25.8399 27.1176 26.1115 27.153 26.2573 27.3424C26.403 27.5318 26.3675 27.8034 26.1781 27.949L24.6003 29.162C24.4109 29.3077 24.1391 29.2721 23.9934 29.0828C23.8478 28.8934 23.8833 28.6217 24.0727 28.4762L25.6505 27.2632ZM24.3844 25.6174C24.5738 25.4717 24.8455 25.5072 24.9913 25.6966C25.137 25.886 25.1015 26.1576 24.9119 26.3032L23.3342 27.5161C23.1447 27.6617 22.873 27.6263 22.7273 27.437C22.5816 27.2476 22.617 26.9759 22.8066 26.8304L24.3844 25.6174ZM23.0128 23.8343C23.2022 23.6886 23.474 23.7241 23.6196 23.9135C23.7652 24.1028 23.7298 24.3745 23.5404 24.5201L21.9626 25.7332C21.7732 25.8787 21.5014 25.8433 21.3558 25.654C21.2101 25.4646 21.2456 25.1929 21.435 25.0474L23.0128 23.8343Z" fill="#ED6A6E"/>
<path d="M20.0343 23.6309C20.2264 23.8895 20.5933 23.9405 20.8486 23.7441L21.9036 22.9331C22.055 22.8167 22.1303 22.6401 22.1266 22.463C22.1239 22.3416 22.085 22.2199 22.0033 22.1172L21.506 21.4924L8.45811 5.10052L8.45242 5.09315L8.43317 5.10801L8.43226 5.10866L7.51875 5.81098L7.45932 5.85658L7.36938 5.92569L7.05579 6.16685L18.4856 21.547L19.6629 23.1315L20.0343 23.6309ZM8.21248 7.58261L7.96918 7.2638L9.29629 6.25198L9.53947 6.57078L8.21248 7.58261ZM10.668 9.80854C10.5606 9.66761 10.5876 9.46636 10.7286 9.35888C10.8694 9.25141 11.0709 9.27854 11.1782 9.41947C11.2857 9.56027 11.2586 9.76165 11.1178 9.869C10.9768 9.97647 10.7756 9.94934 10.668 9.80854ZM11.1689 11.0402L10.9258 10.7214L11.9463 9.94327L12.1894 10.2621L11.1689 11.0402ZM12.7621 13.1286L12.5188 12.8098L13.5394 12.0316L13.7826 12.3504L12.7621 13.1286ZM14.2679 14.5271C14.1604 14.3862 14.1875 14.185 14.3285 14.0775C14.4695 13.97 14.6708 13.9972 14.7782 14.138C14.8857 14.2789 14.8585 14.4801 14.7177 14.5876C14.5767 14.6951 14.3753 14.6681 14.2679 14.5271ZM14.4524 15.3444L15.4731 14.5663L15.7162 14.8852L14.6956 15.6634L14.4524 15.3444ZM15.7878 15.9906C15.6468 16.098 15.4454 16.0709 15.338 15.93C15.2305 15.7891 15.2578 15.5878 15.3986 15.4803C15.5396 15.3729 15.741 15.4 15.8484 15.5409C15.9558 15.6818 15.9286 15.8831 15.7878 15.9906ZM16.5321 18.0704L16.2889 17.7516L17.3094 16.9735L17.5526 17.2923L16.5321 18.0704ZM18.2225 20.2864L17.9793 19.9675L19 19.1893L19.2431 19.5082L18.2225 20.2864ZM19.3389 20.6455C19.198 20.753 18.9966 20.7259 18.8891 20.5849C18.7816 20.444 18.8089 20.2427 18.9497 20.1354C19.0907 20.0279 19.292 20.055 19.3994 20.196C19.507 20.3368 19.4799 20.538 19.3389 20.6455Z" fill="#7B2224"/>
<path d="M24.963 30.6373L25.3568 31.5636L25.6374 32.2237L28.8714 29.7373L28.1709 29.2113L27.4865 28.6972L24.963 30.6373Z" fill="#7B2224"/>
<path d="M29.6933 29.0493C29.9138 29.1796 30.0635 28.6773 30.4155 28.0824C30.7675 27.4876 31.1883 27.0255 30.9679 26.8952C30.7476 26.7649 30.0236 27.1074 29.6716 27.7023C29.3197 28.2973 29.4729 28.919 29.6933 29.0493Z" fill="#7B2224"/>
<path d="M28.3334 28.2855C28.4846 28.1461 28.4943 27.9105 28.3549 27.7594C28.2153 27.6082 27.9798 27.5986 27.8286 27.7381C27.6774 27.8774 27.6679 28.1131 27.8073 28.2642C27.9466 28.4155 28.1821 28.425 28.3334 28.2855Z" fill="#FDEAEB"/>
<path d="M28.502 26.8923C28.6532 26.7529 28.6629 26.5172 28.5233 26.3661C28.3839 26.2148 28.1484 26.2053 27.9971 26.3447C27.8459 26.4841 27.8363 26.7197 27.9758 26.8708C28.1152 27.0221 28.3507 27.0316 28.502 26.8923Z" fill="#FDEAEB"/>
<path d="M29.7108 26.2283C29.862 26.0889 29.8716 25.8533 29.7321 25.7022C29.5927 25.5509 29.357 25.5413 29.2059 25.6808C29.0547 25.8202 29.045 26.0558 29.1845 26.207C29.324 26.3581 29.5595 26.3677 29.7108 26.2283Z" fill="#FDEAEB"/>
<path d="M21.3558 25.6538C21.5015 25.8432 21.7731 25.8787 21.9626 25.733L23.5403 24.5199C23.7298 24.3744 23.7652 24.1027 23.6195 23.9133C23.4738 23.724 23.2022 23.6884 23.0128 23.8342L21.435 25.0471C21.2454 25.1928 21.21 25.4645 21.3558 25.6538Z" fill="#EFCC79"/>
<path d="M22.7274 27.437C22.8731 27.6263 23.1447 27.6619 23.3343 27.5161L24.9121 26.3032C25.1015 26.1576 25.137 25.886 24.9914 25.6966C24.8457 25.5072 24.5741 25.4717 24.3845 25.6174L22.8067 26.8305C22.6172 26.9759 22.5818 27.2476 22.7274 27.437Z" fill="#EFCC79"/>
<path d="M23.9933 29.0829C24.1391 29.2723 24.4107 29.3077 24.6003 29.1621L26.178 27.9491C26.3675 27.8035 26.403 27.5319 26.2572 27.3425C26.1115 27.1532 25.84 27.1176 25.6505 27.2633L24.0726 28.4764C23.8833 28.6219 23.8479 28.8935 23.9933 29.0829Z" fill="#EFCC79"/>
<path d="M11.9381 9.9434L10.9176 10.7215L11.1608 11.0403L12.1813 10.2622L11.9381 9.9434Z" fill="#500F11"/>
<path d="M9.29675 6.25805L7.96973 7.27002L8.21297 7.58882L9.54 6.57685L9.29675 6.25805Z" fill="#500F11"/>
<path d="M13.5402 12.0371L12.5197 12.8154L12.7629 13.1342L13.7835 12.3559L13.5402 12.0371Z" fill="#500F11"/>
<path d="M15.4766 14.5742L14.456 15.3522L14.6992 15.6711L15.7198 14.893L15.4766 14.5742Z" fill="#500F11"/>
<path d="M17.3114 16.975L16.2909 17.7532L16.5341 18.072L17.5546 17.2938L17.3114 16.975Z" fill="#500F11"/>
<path d="M19.0037 19.1967L17.9832 19.9747L18.2264 20.2936L19.247 19.5155L19.0037 19.1967Z" fill="#500F11"/>
<path d="M11.1177 9.86897C11.2586 9.7615 11.2857 9.56024 11.1782 9.41944C11.0707 9.27851 10.8694 9.25138 10.7285 9.35886C10.5876 9.46633 10.5606 9.66758 10.6679 9.80851C10.7756 9.94931 10.9768 9.97644 11.1177 9.86897Z" fill="#EE767A"/>
<path d="M18.9497 20.1354C18.8089 20.2429 18.7816 20.4441 18.8891 20.5849C18.9966 20.7257 19.198 20.7528 19.3389 20.6455C19.4798 20.538 19.507 20.3368 19.3993 20.196C19.292 20.055 19.0907 20.028 18.9497 20.1354Z" fill="#EE767A"/>
<path d="M14.7175 14.5877C14.8584 14.4803 14.8855 14.279 14.778 14.1381C14.6705 13.9973 14.4693 13.9701 14.3283 14.0776C14.1874 14.1851 14.1604 14.3864 14.2677 14.5273C14.3752 14.6681 14.5767 14.6951 14.7175 14.5877Z" fill="#EE767A"/>
<path d="M15.3984 15.4804C15.2576 15.5879 15.2305 15.7892 15.3378 15.9301C15.4453 16.0709 15.6466 16.098 15.7876 15.9907C15.9285 15.8832 15.9556 15.682 15.8481 15.5412C15.7408 15.4001 15.5394 15.373 15.3984 15.4804Z" fill="#EE767A"/>
<path d="M3.70662 1.59058L3.21846 1.75334C3.17453 1.76794 3.12685 1.74676 3.10838 1.70426C3.08874 1.65905 3.03602 1.63838 2.9908 1.65802L2.86224 1.71395C2.81197 1.73578 2.7931 1.79714 2.82243 1.84338L3.06057 2.2207C3.08409 2.2579 3.13125 2.2725 3.17156 2.25493L3.23797 2.22612C3.2832 2.20636 3.30388 2.15379 3.28424 2.10857L3.27816 2.09463C3.25878 2.04993 3.27867 1.99787 3.32312 1.97772L3.79487 1.76355C3.75094 1.67493 3.7238 1.62069 3.72083 1.61565L3.70662 1.59058Z" fill="#7B2224"/>
<path d="M3.67496 2.8021C3.63103 2.8167 3.58322 2.79551 3.56487 2.75302C3.54523 2.70781 3.49252 2.68713 3.44729 2.70677L3.31872 2.76271C3.26859 2.78454 3.2496 2.84589 3.2788 2.89213L3.51707 3.26945C3.54058 3.30666 3.58774 3.32125 3.62818 3.30369L3.6946 3.27475C3.73982 3.25512 3.7605 3.20254 3.74073 3.15733L3.73478 3.14338C3.71527 3.09868 3.7353 3.04663 3.77962 3.02648L4.30318 2.78879C4.27462 2.73144 4.24671 2.67525 4.21945 2.62048L3.67496 2.8021Z" fill="#7B2224"/>
<path d="M4.68526 3.55196L4.08805 3.75128C4.04412 3.76587 3.99631 3.74456 3.97783 3.70219C3.95819 3.65698 3.9056 3.63631 3.86038 3.65595L3.73182 3.71188C3.68168 3.73371 3.66269 3.79519 3.69189 3.84144L3.93002 4.21863C3.95354 4.25584 4.00083 4.27043 4.04114 4.25286L4.10743 4.22406C4.15265 4.20429 4.17333 4.15172 4.15369 4.10664L4.14762 4.09268C4.12823 4.04799 4.14826 3.99594 4.19258 3.97579L4.76718 3.71485L4.76472 3.70981C4.73823 3.65698 4.71175 3.60454 4.68526 3.55196Z" fill="#7B2224"/>
<path d="M4.71588 4.61597C4.67208 4.63056 4.62426 4.60925 4.60578 4.56688C4.58614 4.52167 4.53356 4.501 4.48833 4.52063L4.35964 4.57657C4.30951 4.5984 4.29065 4.65975 4.31985 4.706L4.55798 5.08319C4.58149 5.12052 4.62866 5.13499 4.6691 5.11743L4.73552 5.08862C4.78074 5.06898 4.80141 5.0164 4.78177 4.97106L4.7757 4.95712C4.75619 4.91242 4.77622 4.86036 4.82066 4.84021L5.2428 4.64852C5.21308 4.59026 5.18258 4.53084 5.1517 4.47051L4.71588 4.61597Z" fill="#7B2224"/>
<path d="M5.12914 5.56514C5.08521 5.57974 5.03753 5.55856 5.01905 5.51606C4.99928 5.47085 4.94682 5.45018 4.9016 5.46981L4.77291 5.52575C4.72278 5.54758 4.70378 5.60894 4.73311 5.65518L4.97124 6.0325C4.99476 6.0697 5.04193 6.0843 5.08237 6.06673L5.14878 6.0378C5.194 6.01816 5.21467 5.96545 5.19503 5.92037L5.18896 5.9063C5.16945 5.8616 5.18948 5.80954 5.2338 5.78952L5.71731 5.56993C5.69017 5.51761 5.66045 5.46 5.62867 5.39838L5.12914 5.56514Z" fill="#7B2224"/>
<path d="M16.2435 22.9032C16.3027 22.7327 16.2122 22.5465 16.0418 22.4874C15.8713 22.4283 15.6851 22.5185 15.6259 22.6891C15.5668 22.8597 15.657 23.0457 15.8276 23.1048C15.9983 23.164 16.1845 23.0737 16.2435 22.9032Z" fill="#EA5557"/>
<path d="M17.9325 24.6558C17.762 24.5967 17.5759 24.687 17.5167 24.8575C17.4576 25.028 17.5479 25.2141 17.7184 25.2733C17.889 25.3325 18.0752 25.2422 18.1342 25.0716C18.1934 24.9011 18.1031 24.715 17.9325 24.6558Z" fill="#EA5557"/>
<path d="M16.8081 23.5314C16.467 23.413 16.0948 23.5936 15.9765 23.9346C15.8582 24.2757 16.0388 24.6478 16.3798 24.7661C16.7209 24.8845 17.0933 24.7039 17.2115 24.3629C17.3299 24.0218 17.1493 23.6496 16.8081 23.5314Z" fill="#EA5557"/>
<path d="M24.7393 33.723C23.4089 33.5301 23.0991 32.7628 22.774 33.1184C22.6497 33.2546 22.601 33.4434 22.6283 33.6257C22.6843 34.0008 23.4688 34.9076 24.3625 35.0179C25.6432 35.176 26.8782 34.4612 27.8596 33.1914C28.8408 31.9218 26.4708 33.9741 24.7393 33.723Z" fill="#EA5557"/>
<path d="M6.13789 4.8848C6.01617 4.97845 5.99329 5.15296 6.08697 5.27477C6.18065 5.39645 6.35522 5.41932 6.47706 5.32567C6.59878 5.23202 6.62165 5.0575 6.52797 4.93569C6.43429 4.81388 6.25973 4.79114 6.13789 4.8848Z" fill="#EE7176"/>
<path d="M6.05324 4.01428C5.95969 3.89259 5.785 3.86973 5.66315 3.96338C5.54144 4.05704 5.51856 4.23155 5.61224 4.35336C5.70579 4.47517 5.88049 4.4979 6.00233 4.40425C6.12405 4.31073 6.14691 4.13609 6.05324 4.01428Z" fill="#EE7176"/>
<path d="M5.57845 3.09301C5.48477 2.97119 5.31021 2.94846 5.18836 3.04211C5.06665 3.13576 5.04391 3.31041 5.13746 3.43209C5.23113 3.55377 5.40569 3.57664 5.52754 3.48299C5.64925 3.38947 5.67199 3.21482 5.57845 3.09301Z" fill="#EE7176"/>
<path d="M5.10377 2.17174C5.01022 2.05005 4.8354 2.02731 4.71369 2.12084C4.59197 2.21449 4.5691 2.38914 4.66278 2.51082C4.75646 2.63263 4.93102 2.65536 5.05286 2.56184C5.17445 2.46806 5.19732 2.29355 5.10377 2.17174Z" fill="#EE7176"/>
<path d="M4.57246 1.17696C4.47891 1.05527 4.30422 1.0324 4.18238 1.12606C4.06066 1.21971 4.03779 1.39422 4.13147 1.5159C4.22502 1.63772 4.39971 1.66058 4.52155 1.56693C4.64327 1.47328 4.66601 1.29877 4.57246 1.17696Z" fill="#EE7176"/>
</svg>
