<svg width="36" height="36" viewBox="0 0 36 36" fill="none" xmlns="http://www.w3.org/2000/svg">
<path d="M29.0191 35.246C28.9667 35.1682 28.8724 35.1367 28.7866 35.1597L27.9156 33.8644C28.0143 33.7215 27.9801 33.5253 27.8563 33.3496C27.8339 33.3178 27.8084 33.2813 27.7815 33.2426C30.6584 31.0976 32.111 27.5936 30.7772 25.6099C30.7016 25.4975 30.6186 25.3922 30.5302 25.2922C30.4756 25.1808 30.4156 25.0721 30.346 24.9687C30.079 24.5713 29.7275 24.252 29.3127 24.0091C28.5286 23.3227 27.2734 22.7029 27.2703 22.3648C26.9598 22.7747 26.2434 23.1661 25.8112 22.9908C25.633 22.9186 25.4837 22.8089 25.3548 22.678L25.3479 22.6641C25.1333 22.2131 24.9921 21.7234 24.9298 21.2146C24.878 20.7921 24.9553 20.2385 25.3927 20.0307C25.4456 19.9898 25.4448 19.9124 25.3903 19.9077L24.9992 19.3262C25.0034 19.2961 24.9905 19.2692 24.9591 19.2664C24.6997 19.2438 24.1739 19.2759 23.8674 19.1605C23.7214 18.7352 23.4166 17.9908 22.8882 17.3142C22.0356 15.8443 20.2363 14.1311 16.8446 16.0671L9.20632 5.34046L9.73511 4.985L9.49172 4.62298L9.28943 4.75896L8.50888 3.79419L8.91269 3.53209L9.08703 3.79127L9.39923 3.58128L8.96355 2.6637L8.52635 2.95755L8.68232 3.18942L8.28243 3.51438L7.33756 2.34657L7.87913 1.99517L8.05195 2.25221L8.36415 2.04222L7.92859 1.12464L7.4914 1.41849L7.63928 1.63859L7.11175 2.06753L6.82875 1.71777C6.82951 1.70664 6.83116 1.69575 6.83179 1.68449L6.74362 1.57571C6.74906 1.45858 6.73476 1.33424 6.70149 1.20787C6.72008 1.19977 6.73869 1.19193 6.75589 1.18041C6.94755 1.05152 6.97361 0.754503 6.81383 0.517073C6.65418 0.279642 6.36941 0.19161 6.17763 0.320382C6.16042 0.331893 6.14625 0.346318 6.1317 0.360359C5.80405 0.1142 5.42062 0.0499269 5.14888 0.232459C4.87867 0.414106 4.79315 0.790305 4.8946 1.18434L4.886 1.18864C4.69435 1.31754 4.6684 1.61456 4.82792 1.85199C4.9877 2.08954 5.2726 2.17758 5.46425 2.04868L5.47173 2.04236C5.56496 2.11168 5.66262 2.16683 5.76117 2.20528L6.0816 2.77273L5.44452 3.12186L5.29296 2.89645L4.85577 3.19042L5.54117 3.94003L5.85352 3.73005L5.67996 3.47201L6.25175 3.07379L6.99017 4.38087L6.47947 4.6608L6.32791 4.43539L5.8907 4.72936L6.57625 5.47909L6.88859 5.26911L6.71503 5.01107L7.16804 4.69559L7.77767 5.77496L7.57628 5.91045L7.81968 6.27234L8.39984 5.88224L15.374 17.0682C12.2397 19.5651 13.051 21.7384 14.0328 22.9738C14.3913 23.6207 14.8881 24.1133 15.2279 24.4036C15.2402 24.4716 15.2451 24.5414 15.2415 24.6117C15.2193 25.0506 15.1123 25.5992 15.0469 25.8107C15.0375 25.8408 15.0576 25.863 15.087 25.8705L15.478 26.452C15.4618 26.5043 15.5333 26.5342 15.5911 26.5007C15.9487 26.174 16.4907 26.3114 16.8622 26.5187C17.3102 26.7684 17.7103 27.084 18.047 27.4529L18.0596 27.4669C18.1313 27.6348 18.175 27.814 18.1746 28.0051C18.174 28.4716 17.5412 28.9873 17.0443 29.12C17.2038 29.1868 17.3584 29.4381 17.4964 29.7547L17.4755 29.7612C17.4859 29.7655 17.4963 29.7719 17.5065 29.7779C17.8161 30.4998 18.039 31.5418 18.039 31.5418C18.0464 31.5991 18.0557 31.6559 18.0659 31.7125L18.071 31.7393C18.0814 31.7938 18.0926 31.848 18.1056 31.9015L18.1073 31.9078C18.1345 32.0096 18.1632 32.1111 18.1977 32.2108C18.2032 32.2266 18.2081 32.2426 18.2138 32.2583C18.2265 32.2921 18.2405 32.3255 18.2542 32.359C18.2676 32.3919 18.2812 32.4249 18.2959 32.4574C18.3087 32.4858 18.322 32.514 18.3358 32.542C18.3549 32.5814 18.3752 32.6202 18.3962 32.6588C18.4081 32.6808 18.4196 32.7028 18.4322 32.7246C18.467 32.7852 18.5034 32.8449 18.5427 32.9034C18.6142 33.0098 18.6939 33.1094 18.7782 33.2049C18.7941 33.2368 18.8102 33.2686 18.8274 33.3C18.8393 33.322 18.8508 33.3442 18.8633 33.3658C18.8981 33.4264 18.9345 33.4862 18.9739 33.5446C20.3363 35.5708 24.0813 35.6273 27.1782 33.6582C27.2021 33.6949 27.2245 33.7297 27.2442 33.7606C27.3601 33.9416 27.5291 34.0472 27.6986 34.0098L28.5698 35.3051C28.5162 35.3759 28.5097 35.4752 28.562 35.553L28.7128 35.7774C28.7787 35.8753 28.9116 35.9015 29.0096 35.8356L29.1116 35.767C29.2095 35.7011 29.2354 35.5683 29.1696 35.4703L29.0191 35.246Z" fill="#CC4D36"/>
<path d="M17.4755 29.7612C17.4858 29.7655 17.4962 29.7719 17.5065 29.7779L17.4963 29.7547L17.4755 29.7612Z" fill="#9F3422"/>
<path d="M27.3477 32.603C27.5191 32.8601 27.6686 33.08 27.7813 33.2425C30.6582 31.0975 32.1109 27.5934 30.777 25.6097C30.7015 25.4974 30.6185 25.392 30.53 25.2921C31.5225 27.3159 30.0759 30.5701 27.3477 32.603Z" fill="#9F3422"/>
<path d="M16.4309 25.8775C16.0592 25.6702 15.5173 25.533 15.1598 25.8594C15.1352 25.8737 15.1085 25.876 15.0869 25.8706L15.4779 26.4521C15.4617 26.5044 15.5332 26.5343 15.591 26.5008C15.9487 26.1742 16.4906 26.3115 16.8622 26.5189C17.3101 26.7686 17.7103 27.0842 18.0469 27.453L18.0595 27.4671C17.9561 27.2251 17.7936 27.0066 17.6158 26.8117C17.279 26.4427 16.8789 26.1272 16.4309 25.8775Z" fill="#9F3422"/>
<path d="M24.4984 20.5731C24.5607 21.0821 24.7018 21.5717 24.9165 22.0226C25.0296 22.26 25.1706 22.491 25.3547 22.6777L25.3477 22.6638C25.1332 22.2129 24.992 21.7232 24.9297 21.2143C24.8779 20.7918 24.9552 20.2383 25.3925 20.0304C25.4454 19.9896 25.4446 19.9122 25.3901 19.9075L24.9991 19.326C24.9961 19.3481 24.9838 19.3719 24.9614 19.3892C24.524 19.5971 24.4467 20.1506 24.4984 20.5731Z" fill="#9F3422"/>
<path d="M18.7783 33.205C18.7943 33.2369 18.8103 33.2688 18.8275 33.3001C18.8394 33.3221 18.8509 33.3443 18.8635 33.3659C18.8982 33.4265 18.9347 33.4863 18.974 33.5448C20.3365 35.571 24.0815 35.6274 27.1783 33.6584C27.0711 33.4934 26.9236 33.2716 26.7499 33.0153C23.8151 34.8828 20.2989 34.9294 18.7783 33.205Z" fill="#9F3422"/>
<path d="M23.7258 19.0838C23.7638 19.1149 23.8124 19.1397 23.8671 19.1603C23.7212 18.735 23.4164 17.9906 22.8881 17.314C23.2749 17.9808 23.467 18.5974 23.5248 18.7996C23.5847 19.0094 23.7176 19.077 23.7258 19.0838Z" fill="#9F3422"/>
<path d="M14.9012 23.8498C14.6759 23.6665 14.3458 23.3677 14.0327 22.974C14.3912 23.6209 14.8879 24.1134 15.2277 24.4037C15.1892 24.1882 15.0749 23.991 14.9012 23.8498Z" fill="#9F3422"/>
<path d="M22.1856 24.8199L19.6584 21.1137C19.5558 21.1663 19.4543 21.2239 19.3549 21.2887L21.8431 24.999C21.9531 24.9321 22.0675 24.8723 22.1856 24.8199Z" fill="#CC4D36"/>
<path d="M26.7498 33.0154C25.9212 31.7935 24.4947 29.7909 23.9704 29.4498C23.4817 29.1318 22.9902 28.7416 22.7415 28.4652C22.9151 28.441 23.0866 28.3987 23.254 28.3399L21.6162 25.8354C21.4999 25.9574 21.3961 26.0906 21.3091 26.2335C21.137 26.5165 20.692 26.2575 20.8645 25.9737C20.9949 25.7591 21.1519 25.5662 21.3287 25.3956L18.8865 21.661C18.7491 21.7933 18.6218 21.9382 18.5068 22.0928L15.374 17.0681C12.2397 19.5649 13.051 21.7382 14.0328 22.9737C14.3458 23.3676 14.6761 23.6663 14.9014 23.8496C15.0751 23.9908 15.1894 24.1879 15.2279 24.4035C15.2402 24.4714 15.2451 24.5412 15.2416 24.6116C15.2193 25.0505 15.1123 25.5991 15.0469 25.8106C15.0375 25.8407 15.0576 25.8629 15.087 25.8703C15.1087 25.8758 15.1354 25.8735 15.1598 25.8592C15.5173 25.5327 16.0594 25.67 16.431 25.8773C16.8789 26.127 17.2791 26.4426 17.6157 26.8115C17.7936 27.0065 17.9561 27.2248 18.0595 27.4668C18.1312 27.6347 18.1749 27.8139 18.1745 28.0049C18.1739 28.4715 17.5411 28.9872 17.0441 29.1199C17.2037 29.1866 17.3583 29.438 17.4963 29.7546L17.5064 29.7778C17.816 30.4997 18.0389 31.5417 18.0389 31.5417C18.0463 31.599 18.0556 31.6558 18.0658 31.7124L18.0709 31.7392C18.0812 31.7937 18.0925 31.8478 18.1055 31.9014L18.1072 31.9077C18.1344 32.0095 18.1631 32.111 18.1976 32.2106C18.2031 32.2264 18.208 32.2425 18.2137 32.2582C18.2263 32.292 18.2404 32.3254 18.254 32.3589C18.2675 32.3918 18.2811 32.4248 18.2958 32.4573C18.3086 32.4856 18.3219 32.5138 18.3356 32.5419C18.3547 32.5813 18.3751 32.6201 18.3961 32.6587C18.408 32.6807 18.4195 32.7027 18.4321 32.7245C18.4668 32.785 18.5033 32.8448 18.5426 32.9033C18.6141 33.0097 18.6938 33.1093 18.778 33.2048C20.2989 34.9294 23.815 34.8828 26.7498 33.0154ZM14.8862 18.4808C15.0135 18.2832 15.2767 18.2261 15.4743 18.3534C15.6719 18.4806 15.729 18.744 15.6017 18.9416C15.4745 19.1392 15.2112 19.1962 15.0136 19.0689C14.816 18.9416 14.7589 18.6783 14.8862 18.4808ZM14.2459 21.2056C13.8507 20.9511 13.7366 20.4245 13.9912 20.0293C14.2456 19.6341 14.7723 19.52 15.1676 19.7745C15.5628 20.0289 15.6767 20.5557 15.4223 20.9508C15.1679 21.346 14.6412 21.4601 14.2459 21.2056ZM15.7296 22.5659C15.6024 22.7635 15.339 22.8205 15.1414 22.6933C14.9438 22.566 14.8867 22.3027 15.014 22.1051C15.1412 21.9075 15.4045 21.8504 15.6021 21.9777C15.8 22.105 15.8569 22.3683 15.7296 22.5659ZM18.3792 29.6478C18.2002 29.4584 18.1574 29.1135 18.4029 28.9547C18.6571 28.7902 18.9641 29.0581 18.8284 29.3291C18.7906 29.4049 18.7024 29.425 18.6278 29.4049C18.6537 29.4329 18.6866 29.4552 18.7223 29.4675C18.8675 29.5177 19.0345 29.4285 19.1411 29.3352C19.3248 29.1745 19.4308 28.9099 19.4383 28.6684C19.4519 28.2365 19.2815 27.7941 19.1287 27.3978C18.9641 26.9713 18.7387 26.5649 18.589 26.1336C18.5024 25.8836 18.4843 25.6074 18.6062 25.3656C18.7123 25.1555 18.9305 25.0236 19.1667 25.0419C19.4126 25.061 19.6244 25.2496 19.6149 25.5078C19.6116 25.6014 19.5735 25.6821 19.5162 25.7423C19.5127 25.7776 19.4989 25.811 19.4686 25.8363C19.3528 25.9336 19.1232 26.0249 19.0171 25.8607C18.9404 25.7418 18.9653 25.5777 19.0614 25.4786C19.092 25.4413 19.1321 25.4119 19.1778 25.3941C19.1581 25.3893 19.1377 25.3869 19.1191 25.3871C19.0002 25.3886 18.9244 25.4807 18.8891 25.5864C18.7928 25.8745 18.9822 26.1886 19.0972 26.4435C19.2928 26.8769 19.4857 27.3144 19.6269 27.7691C19.7612 28.202 19.8623 28.6689 19.6959 29.1069C19.5976 29.3658 19.4254 29.601 19.1753 29.7306C18.9181 29.8638 18.59 29.8711 18.3792 29.6478Z" fill="#CC4D36"/>
<path d="M21.6785 25.7724L23.3375 28.3091C23.4969 28.2469 23.6516 28.1681 23.8001 28.0725L22.0544 25.4693C21.9198 25.5577 21.7938 25.6598 21.6785 25.7724Z" fill="#CC4D36"/>
<path d="M22.1279 25.4238L23.8722 28.0248C23.9874 27.9451 24.0947 27.8581 24.1931 27.7638L22.4771 25.2473C22.3568 25.2964 22.2399 25.3555 22.1279 25.4238Z" fill="#CC4D36"/>
<path d="M21.7698 25.0448L19.2831 21.3369C19.1675 21.417 19.0573 21.5066 18.9519 21.6029L21.3923 25.3348C21.5102 25.228 21.6366 25.1312 21.7698 25.0448Z" fill="#CC4D36"/>
<path d="M18.8864 21.6611L8.51671 5.80381L8.58844 5.75549L18.9518 21.603C19.0572 21.5068 19.1673 21.4171 19.283 21.337L8.75758 5.64189L8.8293 5.59358L19.3548 21.2887C19.4542 21.2239 19.5557 21.1664 19.6583 21.1137L8.99756 5.48036L9.06929 5.43217L19.7361 21.0741C19.9099 20.9909 20.087 20.9229 20.2666 20.8726L16.8444 16.0667L9.20604 5.34008L9.73484 4.98462L9.49143 4.6226L9.28915 4.75857L8.95215 4.98525L7.04037 2.74579L6.79053 2.91377L8.11631 5.54702L7.77741 5.77496L7.576 5.91045L7.81941 6.27234L8.39956 5.88223L15.3737 17.0682L18.5065 22.0929C18.6219 21.9382 18.749 21.7934 18.8864 21.6611Z" fill="#2C110C"/>
<path d="M29.0191 35.246C28.9667 35.1682 28.8723 35.1367 28.7866 35.1597L28.8587 35.267C28.9087 35.27 28.9543 35.2922 28.9819 35.333C29.0332 35.4094 29.0021 35.5204 28.9123 35.5807C28.8226 35.641 28.7081 35.6281 28.6566 35.5517C28.6292 35.5109 28.6259 35.4604 28.642 35.4127L28.5699 35.3054C28.5164 35.3763 28.5098 35.4756 28.5621 35.5534L28.7129 35.7778C28.7788 35.8757 28.9116 35.9019 29.0097 35.836L29.1116 35.7674C29.2095 35.7015 29.2355 35.5687 29.1697 35.4707L29.0191 35.246Z" fill="#CC4D36"/>
<path d="M28.859 35.5014C28.7992 35.5416 28.7181 35.5258 28.6779 35.466L28.642 35.4125C28.6259 35.4601 28.6293 35.5106 28.6567 35.5515C28.708 35.6279 28.8225 35.6409 28.9123 35.5804C29.0021 35.5201 29.0331 35.4092 28.9819 35.3328C28.9543 35.2919 28.9087 35.2699 28.8587 35.2667L28.8946 35.3201C28.9347 35.3801 28.9189 35.4612 28.859 35.5014Z" fill="#E9573E"/>
<path d="M28.6779 35.466C28.7181 35.5258 28.7992 35.5418 28.859 35.5014C28.9189 35.4612 28.9348 35.3801 28.8946 35.3203L28.8587 35.2669L28.7866 35.1596L27.9156 33.8643C28.0142 33.7214 27.9801 33.5252 27.8562 33.3495C27.8338 33.3177 27.8084 33.2812 27.7815 33.2425C27.6687 33.08 27.5192 32.8601 27.3478 32.603C26.5284 31.3739 25.2169 29.3042 25.0989 28.691C24.9888 28.1185 24.813 27.5163 24.6509 27.1815C24.5419 27.369 24.4093 27.5435 24.2552 27.7012L24.4222 27.9461C24.4893 27.9389 24.5573 27.9707 24.593 28.0328C24.6412 28.1166 24.6122 28.2236 24.5284 28.2718C24.4445 28.32 24.3375 28.2911 24.2893 28.2072C24.2441 28.1285 24.2674 28.0302 24.3396 27.9785L24.1932 27.7638C24.0948 27.8581 23.9874 27.9451 23.8723 28.0248L24.3449 28.7295C24.4232 28.7018 24.5124 28.7325 24.5552 28.8072C24.6033 28.891 24.5743 28.998 24.4904 29.0461C24.4065 29.0943 24.2995 29.0653 24.2514 28.9815C24.2129 28.9144 24.2244 28.8328 24.2733 28.7781L23.8002 28.0726C23.6517 28.1682 23.4968 28.2471 23.3376 28.3093L23.5034 28.5629C23.5157 28.549 23.5298 28.5365 23.5468 28.5267C23.6307 28.4785 23.7377 28.5075 23.7858 28.5914C23.834 28.6751 23.805 28.7823 23.7211 28.8303C23.6372 28.8785 23.5302 28.8495 23.482 28.7657C23.4622 28.7311 23.4561 28.6928 23.4609 28.6561L23.2542 28.3399C23.0868 28.3987 22.9154 28.441 22.7417 28.4652C22.9904 28.7416 23.4819 29.1318 23.9706 29.4498C24.495 29.7909 25.9214 31.7936 26.7501 33.0154C26.9238 33.2717 27.0713 33.4935 27.1785 33.6585C27.2024 33.6952 27.2248 33.73 27.2446 33.7608C27.3605 33.9418 27.5295 34.0475 27.699 34.01L28.5701 35.3053L28.6422 35.4126L28.6779 35.466Z" fill="#2C110C"/>
<path d="M23.0499 25.0954C23.1879 25.0787 23.3073 24.989 23.3073 24.838C23.3073 24.7119 23.1889 24.5638 23.0499 24.5806C22.7784 24.6135 22.5153 24.6832 22.2666 24.7849L22.5597 25.215C22.7195 25.1566 22.884 25.1155 23.0499 25.0954Z" fill="#F39D83"/>
<path d="M20.8645 25.9737C20.6919 26.2575 21.137 26.5165 21.309 26.2335C21.396 26.0906 21.4999 25.9572 21.6161 25.8354L21.3286 25.3957C21.1519 25.5662 20.9949 25.7592 20.8645 25.9737Z" fill="#F39D83"/>
<path d="M22.1279 25.4238C22.2398 25.3556 22.3567 25.2964 22.477 25.2473L22.1856 24.8199C22.0675 24.8723 21.9531 24.9321 21.843 24.999L22.1279 25.4238Z" fill="#F39D83"/>
<path d="M21.6785 25.7724C21.7938 25.6598 21.9198 25.5578 22.0544 25.4693L21.7698 25.0448C21.6366 25.1312 21.5102 25.2279 21.3925 25.3348L21.6785 25.7724Z" fill="#F39D83"/>
<path d="M23.5642 28.7352L23.5406 28.7423C23.5265 28.7423 23.5126 28.7355 23.5044 28.7227L23.4607 28.656C23.4561 28.6927 23.462 28.731 23.4819 28.7656C23.5301 28.8494 23.6369 28.8784 23.7209 28.8302C23.8048 28.782 23.8338 28.675 23.7856 28.5913C23.7375 28.5074 23.6305 28.4784 23.5466 28.5266C23.5297 28.5364 23.5156 28.549 23.5032 28.5628L23.5767 28.6754C23.5898 28.6953 23.5842 28.7222 23.5642 28.7352Z" fill="#F6AB95"/>
<path d="M24.4714 28.095L24.447 28.1025C24.4332 28.1025 24.4196 28.0959 24.4113 28.0835L24.3396 27.9784C24.2673 28.0301 24.2441 28.1285 24.2892 28.2071C24.3374 28.2909 24.4443 28.3199 24.5283 28.2717C24.6122 28.2235 24.6411 28.1165 24.5929 28.0326C24.5573 27.9704 24.4892 27.9386 24.4222 27.946L24.4826 28.0347C24.4962 28.0546 24.491 28.0816 24.4714 28.095Z" fill="#F6AB95"/>
<path d="M24.4273 28.9301L24.4031 28.9374C24.3892 28.9374 24.3754 28.9307 24.3672 28.9182L24.2732 28.7779C24.2241 28.8327 24.2126 28.9143 24.2513 28.9813C24.2994 29.0652 24.4064 29.0942 24.4902 29.046C24.5741 28.9978 24.6031 28.8908 24.555 28.807C24.5123 28.7325 24.4231 28.7016 24.3448 28.7293L24.439 28.87C24.4524 28.89 24.4471 28.9168 24.4273 28.9301Z" fill="#F6AB95"/>
<path d="M22.2664 24.785L19.736 21.0741L9.06929 5.43217L8.99756 5.48036L19.6582 21.1137L22.1855 24.8199L22.4769 25.2473L24.193 27.7638L24.3394 27.9785L24.4111 28.0836C24.4194 28.0959 24.433 28.1026 24.4468 28.1026L24.4712 28.0951C24.4909 28.0817 24.496 28.0548 24.4824 28.035L24.422 27.9464L24.255 27.7015L22.5595 25.2152L22.2664 24.785Z" fill="#FFF4BB"/>
<path d="M21.843 24.999L19.3547 21.2887L8.82928 5.59358L8.75757 5.6419L19.283 21.337L21.7697 25.045L22.0544 25.4695L23.8001 28.0726L24.2732 28.7781L24.3672 28.9183C24.3754 28.9307 24.3892 28.9376 24.4031 28.9376L24.4273 28.9302C24.4471 28.917 24.4523 28.89 24.439 28.8703L24.3448 28.7296L23.8722 28.0249L22.1279 25.4239L21.843 24.999Z" fill="#FFF4BB"/>
<path d="M21.3923 25.3349L18.9519 21.603L8.58845 5.75549L8.51672 5.80381L18.8864 21.6611L21.3287 25.3957L21.6162 25.8354L23.254 28.3399L23.4607 28.6561L23.5043 28.7228C23.5125 28.7354 23.5264 28.7424 23.5405 28.7424L23.5641 28.7353C23.5841 28.7223 23.5897 28.6955 23.5767 28.6753L23.5032 28.5628L23.3373 28.3092L21.6783 25.7724L21.3923 25.3349Z" fill="#FFF4BB"/>
<path d="M27.8193 30.1901C28.8971 29.1664 29.4397 27.9614 29.1732 26.7964C28.9873 25.9835 28.0777 25.3461 27.7269 25.3299C27.5563 25.3221 27.3869 25.3846 27.2732 25.5121C26.976 25.845 27.7121 26.0582 28.0154 27.2657C28.4098 28.8371 26.7415 31.2139 27.8193 30.1901Z" fill="#D9623D"/>
<path d="M15.6022 21.9778C15.4046 21.8506 15.1414 21.9076 15.0141 22.1052C14.8869 22.3028 14.9439 22.5662 15.1415 22.6934C15.3391 22.8207 15.6024 22.7636 15.7297 22.566C15.8568 22.3683 15.7999 22.105 15.6022 21.9778Z" fill="#D9623D"/>
<path d="M15.0136 19.0688C15.2111 19.1961 15.4744 19.139 15.6016 18.9415C15.7289 18.7439 15.6718 18.4805 15.4743 18.3533C15.2767 18.226 15.0134 18.283 14.8862 18.4806C14.7589 18.6783 14.816 18.9416 15.0136 19.0688Z" fill="#D9623D"/>
<path d="M15.4223 20.9508C15.6768 20.5557 15.5628 20.029 15.1675 19.7745C14.7722 19.52 14.2455 19.6341 13.9911 20.0293C13.7366 20.4245 13.8507 20.9511 14.2459 21.2056C14.6411 21.4601 15.1678 21.346 15.4223 20.9508Z" fill="#D9623D"/>
<path d="M22.6822 23.3411C22.7977 23.4145 22.9216 23.4205 23.0244 23.3803C23.0666 23.3895 23.112 23.3849 23.1518 23.3639C23.2937 23.2891 23.4327 23.0973 23.3096 22.9482C23.2568 22.8843 23.1853 22.8506 23.11 22.8427C23.0666 22.826 23.0216 22.8327 22.9829 22.8541C22.9669 22.8584 22.9514 22.8637 22.9359 22.8701L22.9227 22.8761L22.9034 22.8847L22.8988 22.8882C22.8742 22.9021 22.8517 22.9203 22.8308 22.9418C22.8325 22.9297 22.8347 22.9177 22.838 22.9063C22.8719 22.7897 22.9807 22.7404 23.0961 22.742C23.3829 22.7456 23.5933 23.0075 23.7738 23.1974C24.0949 23.535 24.4173 23.8728 24.7729 24.1748C25.1187 24.4681 25.502 24.7593 25.9656 24.8107C26.2553 24.8428 26.5603 24.7866 26.7975 24.6104C27.0101 24.4527 27.1644 24.2046 27.1127 23.9318C27.0624 23.6668 26.8106 23.4366 26.5295 23.5123C26.3902 23.5499 26.2791 23.6759 26.2868 23.824C26.2948 23.9781 26.4256 24.1129 26.5832 24.1007C26.6646 24.0943 26.7477 24.0369 26.7558 23.9506L26.7662 23.9754C26.7955 24.0762 26.7509 24.1724 26.6847 24.2484C26.5001 24.4605 26.1853 24.5025 25.9221 24.4561C25.5213 24.3854 25.1688 24.0668 24.8763 23.8044C24.548 23.5102 24.2472 23.1885 23.9426 22.8704C23.7548 22.6743 23.5443 22.477 23.2707 22.4159C23.0144 22.3587 22.7297 22.4235 22.5781 22.6513C22.4343 22.8673 22.4474 23.1919 22.6822 23.3411Z" fill="#34150E"/>
<path d="M19.696 29.1071C19.8626 28.669 19.7614 28.202 19.6271 27.7693C19.4859 27.3145 19.2929 26.8771 19.0974 26.4436C18.9825 26.1886 18.793 25.8746 18.8893 25.5865C18.9246 25.4809 19.0003 25.3888 19.1193 25.3873C19.1379 25.387 19.1582 25.3894 19.178 25.3942C19.1323 25.412 19.0922 25.4414 19.0616 25.4787C18.9654 25.5779 18.9405 25.7419 19.0173 25.8608C19.1232 26.025 19.3529 25.9337 19.4688 25.8364C19.499 25.811 19.5128 25.7776 19.5164 25.7425C19.5737 25.6822 19.6117 25.6015 19.615 25.5079C19.6245 25.2496 19.4128 25.061 19.1668 25.042C18.9306 25.0238 18.7124 25.1556 18.6064 25.3657C18.4844 25.6075 18.5027 25.8837 18.5892 26.1337C18.7387 26.5649 18.9642 26.9713 19.1289 27.3979C19.2817 27.7942 19.4521 28.2367 19.4384 28.6685C19.431 28.91 19.325 29.1746 19.1413 29.3353C19.0346 29.4286 18.8676 29.5178 18.7224 29.4676C18.6867 29.4552 18.6538 29.4331 18.6279 29.405C18.7025 29.4251 18.7907 29.405 18.8285 29.3292C18.9644 29.0581 18.6573 28.7902 18.4031 28.9548C18.1576 29.1137 18.2003 29.4585 18.3793 29.648C18.5901 29.8712 18.9182 29.8639 19.1756 29.7307C19.4255 29.6012 19.5977 29.3659 19.696 29.1071Z" fill="#34150E"/>
<path d="M7.87888 1.99505L8.05181 2.25221L8.36398 2.04222L7.92846 1.12464L7.4913 1.41849L7.63917 1.63859L7.11169 2.06741L7.33735 2.34645L7.87888 1.99505Z" fill="#2C110C"/>
<path d="M8.91255 3.53197L9.08685 3.79116L9.39905 3.58117L8.9634 2.66371L8.52623 2.95756L8.6822 3.18929L8.28235 3.51426L8.50866 3.79406L8.91255 3.53197Z" fill="#2C110C"/>
<path d="M5.44441 3.12186L5.29287 2.89645L4.85571 3.19042L5.54118 3.94016L5.85337 3.73017L5.67983 3.47213L6.25157 3.07392L6.08144 2.77274L5.44441 3.12186Z" fill="#2C110C"/>
<path d="M6.47934 4.66092L6.3278 4.43551L5.89062 4.72948L6.57611 5.4791L6.88842 5.26911L6.71486 5.01119L7.16785 4.69571L6.99 4.38099L6.47934 4.66092Z" fill="#2C110C"/>
<path d="M6.44891 2.16632C6.26486 2.29003 6.02933 2.29989 5.79468 2.21741L5.88816 2.38301C6.10674 2.44385 6.33101 2.42145 6.51304 2.29913C6.70404 2.17074 6.80979 1.95709 6.82864 1.71777C6.8294 1.70663 6.83105 1.69575 6.83168 1.68449L6.74351 1.57571C6.73225 1.82591 6.6341 2.04185 6.44891 2.16632Z" fill="#AC412D"/>
</svg>
