<svg width="36" height="36" viewBox="0 0 36 36" fill="none" xmlns="http://www.w3.org/2000/svg">
<rect width="36" height="36" rx="16" fill="url(#paint0_linear_14_16846)"/>
<path d="M35.1169 11.2892C34.9554 11.0123 34.7687 10.7519 34.5531 10.5115C34.5146 10.4684 34.315 10.2515 34.0196 9.93095C33.8951 9.74322 33.7584 9.56338 33.6067 9.39412C33.4499 9.21876 30.6321 6.16927 29.4771 4.91932C28.6807 4.03952 28.0431 3.33535 28.0431 3.33535L28.0229 3.35315L28.0203 3.35003C27.997 3.32408 27.9724 3.29949 27.9487 3.27395C27.8486 3.14437 27.7442 3.01737 27.634 2.89431C23.6813 -1.52141 14.7368 0.0380959 7.65624 6.37777C0.787128 12.528 -1.80432 20.9172 1.65611 25.4448L1.65366 25.4426C1.76897 25.5947 1.89026 25.743 2.01915 25.8862C2.0527 25.9236 2.08761 25.9594 2.12197 25.996C3.21749 27.3769 6.37572 31.3551 6.5872 31.5914C6.68947 31.7057 6.79826 31.8123 6.91086 31.9146C7.25951 32.3494 7.50127 32.6483 7.55478 32.708C7.6307 32.7927 7.71056 32.8727 7.79219 32.9508C8.17588 33.4295 8.4444 33.7619 8.50117 33.8252C8.74103 34.0929 9.01077 34.326 9.30238 34.5325C11.0349 35.7591 13.6372 35.9198 16.5976 35.1432C20.0335 34.2418 23.9479 32.0826 27.533 28.8743C30.9709 25.7978 33.4806 22.3147 34.8053 19.1113C36.0726 16.0465 36.2544 13.2385 35.1169 11.2892Z" fill="#EA5443"/>
<path d="M35.1169 11.2892C34.9554 11.0123 34.7687 10.7519 34.5531 10.5115C34.5145 10.4684 34.315 10.2515 34.0196 9.93095C34.0719 10.0099 34.1228 10.0899 34.1705 10.1719C35.3081 12.1211 35.1261 14.9293 33.8587 17.994C32.534 21.1974 30.0242 24.6804 26.5863 27.7569C23.001 30.9652 19.0868 33.1245 15.651 34.0259C12.6905 34.8024 10.0882 34.6419 8.35555 33.4153C8.15617 33.2741 7.96806 33.1194 7.79163 32.9509C8.17532 33.4295 8.44384 33.7619 8.50061 33.8252C8.74047 34.093 9.01021 34.326 9.30181 34.5325C11.0343 35.7591 13.6367 35.9198 16.597 35.1432C20.033 34.2418 23.9473 32.0826 27.5324 28.8743C30.9703 25.7978 33.48 22.3147 34.8048 19.1113C36.0725 16.0465 36.2544 13.2385 35.1169 11.2892Z" fill="#DF3F2F"/>
<path d="M4.58467 26.8939C4.58644 26.5188 4.89204 26.216 5.26704 26.2178C5.64217 26.2196 5.94478 26.5252 5.94301 26.9004C5.94288 26.9705 5.93174 27.0378 5.91177 27.1014C7.97135 27.2413 10.3737 26.7572 12.8629 25.7054C12.8571 25.6602 12.853 25.6144 12.8533 25.5674C12.856 25.0047 13.3141 24.5507 13.8768 24.5534C14.169 24.5548 14.4308 24.6796 14.6157 24.8774C16.6133 23.8346 18.6275 22.4435 20.5297 20.732C20.5626 20.7024 20.5948 20.6725 20.6275 20.6427C20.456 20.4595 20.351 20.2134 20.352 19.9425C20.3549 19.3798 20.8132 18.9258 21.3757 18.9285C21.6547 18.9299 21.9066 19.0434 22.0897 19.2259C23.5926 17.6691 24.8526 16.0291 25.8426 14.389C25.4317 14.2561 25.1354 13.8696 25.1377 13.4147C25.1404 12.8519 25.5988 12.398 26.1615 12.4007C26.4043 12.4018 26.6267 12.4882 26.8011 12.6309C27.757 10.6654 28.3054 8.74268 28.3957 7.00848C28.3206 7.03659 28.2397 7.05249 28.1547 7.05208C27.7797 7.05018 27.4769 6.74469 27.4787 6.36951C27.4804 5.99434 27.786 5.69169 28.1613 5.69346C28.2359 5.69386 28.3077 5.70677 28.3748 5.72932C28.2644 4.4848 27.8808 3.37136 27.2 2.45475C27.3393 2.58528 27.4739 2.72167 27.6028 2.86484C27.7109 2.98505 27.8132 3.10894 27.9117 3.23527C27.924 3.24831 27.9364 3.26134 27.9486 3.27451C27.8485 3.14493 27.7441 3.01792 27.6339 2.89485C23.6811 -1.52086 14.7367 0.0386566 7.65612 6.37833C0.787006 12.5285 -1.80444 20.9178 1.65598 25.4453C2.44931 26.1752 3.44501 26.6599 4.58549 26.9141L4.58467 26.8939ZM24.881 3.64018C25.2909 3.45436 25.7737 3.63597 25.9595 4.04578C26.1452 4.45559 25.9636 4.93836 25.5538 5.12418C25.1441 5.31001 24.6612 5.12838 24.4756 4.71857C24.2896 4.30889 24.4712 3.826 24.881 3.64018ZM20.7519 1.57156C21.5803 1.19611 22.556 1.56314 22.9315 2.39146C23.3071 3.21978 22.94 4.19574 22.1117 4.57133C21.2835 4.94691 20.3076 4.57975 19.932 3.75143C19.5566 2.92311 19.9235 1.94714 20.7519 1.57156ZM17.4922 3.47691C17.902 3.29108 18.3848 3.47269 18.5705 3.8825C18.7563 4.29232 18.5747 4.77522 18.1649 4.96104C17.7552 5.14673 17.2723 4.96512 17.0867 4.55544C16.9009 4.14549 17.0824 3.66273 17.4922 3.47691ZM1.65789 20.2854C1.38584 17.1534 3.23544 14.2104 6.41349 11.9337C9.59169 9.65698 4.38556 15.2449 4.84409 19.482C5.19641 22.7379 7.03705 23.5597 6.14226 24.3195C5.8 24.6102 5.3359 24.7121 4.89448 24.6298C3.98639 24.4604 1.84776 22.4704 1.65789 20.2854Z" fill="#EDD9AD"/>
<path d="M21.988 22.3528C14.9928 28.6475 6.15928 30.2594 2.13818 26.0134C2.23339 26.1355 2.332 26.2557 2.43645 26.372C6.40036 30.7779 15.3407 29.1958 22.4056 22.8385C29.4686 16.4827 31.9831 7.7599 28.0229 3.35315L28.0204 3.35003C27.997 3.32409 27.9724 3.2995 27.9488 3.27396C27.9366 3.26078 27.9242 3.24775 27.9118 3.23471C31.4255 7.74469 28.8601 16.1688 21.988 22.3528Z" fill="#E34C3B"/>
<path d="M21.9879 22.3528C28.8602 16.1688 31.4254 7.74469 27.9117 3.23471C27.8133 3.10838 27.711 2.9845 27.6029 2.86428C27.474 2.72111 27.3394 2.58488 27.2 2.45421C27.8809 3.37096 28.2646 4.48438 28.3749 5.72877C28.6448 5.81978 28.8387 6.07501 28.8373 6.37547C28.8359 6.66575 28.6524 6.91188 28.3957 7.00792C28.3053 8.74212 27.7569 10.6649 26.801 12.6304C27.0307 12.8182 27.1768 13.1042 27.1752 13.4241C27.1726 13.9868 26.7142 14.4408 26.1515 14.4382C26.0437 14.4377 25.9399 14.4202 25.8425 14.3886C24.8525 16.0288 23.5925 17.6688 22.0897 19.2254C22.2759 19.4111 22.391 19.6681 22.3897 19.952C22.387 20.5148 21.9286 20.9689 21.3659 20.9662C21.074 20.9648 20.812 20.8401 20.6273 20.6425C20.5946 20.6722 20.5624 20.7021 20.5295 20.7317C18.6275 22.4432 16.6133 23.8343 14.6155 24.8771C14.7869 25.0604 14.892 25.3063 14.8906 25.5771C14.8881 26.1398 14.4295 26.5938 13.8668 26.5911C13.351 26.5886 12.9278 26.2029 12.8626 25.7052C10.3734 26.7569 7.97101 27.241 5.91143 27.1011C5.82437 27.3777 5.56523 27.5776 5.26031 27.5761C4.89169 27.5744 4.59384 27.2792 4.58515 26.9131C3.44466 26.659 2.44883 26.1742 1.65564 25.4444L1.6532 25.4422C1.76851 25.5943 1.88979 25.7427 2.01869 25.8858C2.05224 25.9232 2.08714 25.959 2.12151 25.9956L2.1378 26.013C6.15917 30.2594 14.9925 28.6475 21.9879 22.3528Z" fill="#E3CC98"/>
<path d="M20.3522 19.9422C20.351 20.2131 20.4561 20.4592 20.6276 20.6425C20.8125 20.8401 21.0743 20.9648 21.3662 20.9662C21.9289 20.9689 22.3872 20.5148 22.39 19.952C22.3914 19.6683 22.2764 19.4111 22.09 19.2254C21.9068 19.043 21.655 18.9295 21.376 18.9281C20.8132 18.9255 20.3549 19.3795 20.3522 19.9422Z" fill="#DF4447"/>
<path d="M25.1378 13.4144C25.1355 13.8693 25.4319 14.2558 25.8427 14.3888C25.9401 14.4203 26.0439 14.4378 26.1517 14.4383C26.7144 14.4409 27.1727 13.987 27.1754 13.4242C27.177 13.1043 27.0308 12.8184 26.8012 12.6305C26.6268 12.4878 26.4045 12.4015 26.1616 12.4003C25.5988 12.3976 25.1404 12.8515 25.1378 13.4144Z" fill="#DF4447"/>
<path d="M12.8533 25.5674C12.853 25.6143 12.857 25.6601 12.8629 25.7054C12.928 26.2031 13.3513 26.5889 13.8672 26.5913C14.4299 26.5941 14.8883 26.1401 14.891 25.5773C14.8924 25.3065 14.7872 25.0606 14.6158 24.8774C14.431 24.6796 14.1691 24.5548 13.877 24.5534C13.3143 24.5506 12.856 25.0047 12.8533 25.5674Z" fill="#DF4447"/>
<path d="M5.26708 26.2178C4.89208 26.216 4.58648 26.5187 4.58472 26.8939L4.58567 26.9134C4.59436 27.2795 4.89221 27.5747 5.26083 27.5764C5.56575 27.5778 5.82489 27.378 5.91195 27.1014C5.93192 27.0378 5.94292 26.9705 5.94319 26.9004C5.94482 26.5252 5.64235 26.2197 5.26708 26.2178Z" fill="#DF4447"/>
<path d="M27.4789 6.3691C27.4771 6.74428 27.7797 7.04977 28.1549 7.05167C28.2399 7.05208 28.3208 7.03618 28.3959 7.00806C28.6525 6.91203 28.8361 6.6659 28.8376 6.37562C28.8389 6.07515 28.645 5.81992 28.3752 5.72891C28.3081 5.70636 28.2364 5.69347 28.1617 5.69306C27.7862 5.6913 27.4807 5.99393 27.4789 6.3691Z" fill="#DF4447"/>
<path d="M26.404 22.2172C26.4305 22.2467 26.4524 22.2791 26.4752 22.3111C26.5066 22.3544 26.5339 22.4002 26.5587 22.4474C26.7114 22.2161 26.8327 22.0111 26.9242 21.8451C27.0698 21.5815 27.0344 21.256 26.838 21.0276L26.6361 20.7928C26.3179 20.4224 25.7297 20.4682 25.4749 20.8848C25.2601 21.2359 25.0351 21.5622 24.8043 21.8666C25.4588 21.7184 26.0514 21.8234 26.404 22.2172Z" fill="#B53324"/>
<path d="M22.5715 24.1132C23.1101 23.7085 23.6924 23.1883 24.2567 22.5382L24.2619 22.5376C24.3565 22.4284 24.4504 22.3145 24.5438 22.1976C23.7467 23.1738 22.898 23.8938 22.1586 24.4089C22.2925 24.3177 22.4303 24.2198 22.5715 24.1137V24.1132Z" fill="#B53324"/>
<path d="M21.5488 26.4559C21.8021 26.3598 22.0444 26.2556 22.278 26.1461C22.2398 26.1148 22.2022 26.0828 22.1681 26.0465L22.1483 26.0276C21.8273 25.6692 21.7658 25.1396 21.9224 24.569C21.5589 24.8091 21.2282 24.9976 20.9518 25.141C20.5384 25.3557 20.4352 25.8986 20.7389 26.2519C20.9381 26.4839 21.2627 26.5646 21.5488 26.4559Z" fill="#B53324"/>
<path d="M22.1483 26.0276L22.1681 26.0465C22.2022 26.0828 22.2397 26.1148 22.278 26.1461C22.9844 26.7235 24.3597 26.4382 25.4642 25.4494C26.5272 24.4974 26.9699 23.2243 26.5589 22.4474C26.534 22.4002 26.5067 22.3542 26.4754 22.311C26.4525 22.2793 26.4307 22.2467 26.4042 22.2172C26.0515 21.8233 25.459 21.7184 24.8044 21.8667L24.7981 21.868C24.7143 21.9815 24.6293 22.0906 24.5439 22.1976C24.4505 22.3144 24.3566 22.4284 24.2619 22.5376C24.6517 22.4761 25.0092 22.5655 25.2281 22.8203C25.6358 23.2946 25.4109 24.1566 24.7259 24.7456C24.0406 25.3346 23.1547 25.4275 22.7471 24.953C22.5591 24.7342 22.5071 24.4326 22.5713 24.1136C22.4301 24.2197 22.2922 24.3176 22.1584 24.4087C22.0787 24.4629 21.9998 24.5155 21.9233 24.5647L21.9222 24.569C21.7658 25.1395 21.8273 25.6691 22.1483 26.0276Z" fill="#B5B5B5"/>
<path d="M22.5715 24.1132V24.1136C22.5073 24.4327 22.5592 24.7342 22.7473 24.953C23.155 25.4275 24.0408 25.3346 24.726 24.7456C25.4111 24.1566 25.636 23.2946 25.2283 22.8203C25.0094 22.5655 24.6519 22.476 24.2621 22.5376L24.2569 22.5382C23.6925 23.1883 23.1102 23.7085 22.5715 24.1132Z" fill="#A1A0A0"/>
<path d="M29.6981 15.8C29.9355 15.8797 30.1978 15.8002 30.3535 15.6041C30.4914 15.4301 30.6182 15.2554 30.7367 15.0806C30.6968 15.0746 30.6569 15.0678 30.6176 15.0564L30.5956 15.0515C30.2198 14.9337 29.9543 14.5868 29.8257 14.1198C29.6704 14.4409 29.5168 14.7123 29.3825 14.9291C29.1816 15.2532 29.3364 15.6785 29.6981 15.8Z" fill="#B53324"/>
<path d="M30.0915 13.5269C30.301 13.0166 30.4927 12.4064 30.6172 11.7124L30.6206 11.71C30.6437 11.5813 30.664 11.4494 30.6819 11.315C30.5254 12.3951 30.2079 13.298 29.8861 13.99C29.955 13.8463 30.0241 13.6918 30.0915 13.5274V13.5269Z" fill="#B53324"/>
<path d="M31.9937 10.5868C32.0247 10.5964 32.0535 10.6103 32.0831 10.6229C32.1233 10.6403 32.1617 10.6611 32.1991 10.6839C32.2096 10.4573 32.209 10.262 32.204 10.107C32.1958 9.86047 32.0345 9.64639 31.8006 9.56802L31.5602 9.48733C31.181 9.36005 30.7864 9.63878 30.7817 10.0387C30.7779 10.3766 30.7548 10.7002 30.7196 11.0119C31.1184 10.6323 31.58 10.4572 31.9937 10.5868Z" fill="#B53324"/>
<path d="M30.5957 15.0514L30.6177 15.0563C30.6569 15.0675 30.6968 15.0743 30.7369 15.0805C31.4757 15.1906 32.3239 14.4136 32.6867 13.255C33.036 12.1396 32.8138 11.0584 32.1992 10.6839C32.1619 10.6611 32.1234 10.6403 32.0832 10.6229C32.0538 10.6101 32.0248 10.5964 31.9939 10.5868C31.5802 10.4572 31.1185 10.6324 30.7197 11.0121L30.7174 11.0142C30.7074 11.1161 30.6952 11.2161 30.682 11.315C30.6641 11.4495 30.6438 11.5813 30.6207 11.71C30.8693 11.5032 31.1583 11.4163 31.4192 11.5039C31.9048 11.6668 32.1077 12.3676 31.8725 13.0692C31.6371 13.7707 31.0526 14.2073 30.5671 14.0444C30.343 13.9693 30.1801 13.7787 30.0917 13.5273C30.0243 13.6917 29.9552 13.8461 29.8864 13.9898C29.8658 14.0328 29.8453 14.0751 29.8248 14.1163L29.8259 14.1197C29.9544 14.5867 30.2198 14.9336 30.5957 15.0514Z" fill="#B5B5B5"/>
<path d="M30.0914 13.5269L30.0916 13.5272C30.1801 13.7786 30.3428 13.969 30.5669 14.0443C31.0525 14.2072 31.6369 13.7706 31.8723 13.069C32.1075 12.3674 31.9046 11.6666 31.4191 11.5038C31.1582 11.4162 30.8691 11.5031 30.6206 11.7098L30.6172 11.7123C30.4926 12.4064 30.3009 13.0166 30.0914 13.5269Z" fill="#A1A0A0"/>
<path d="M14.732 30.3712C14.7364 30.4034 14.7362 30.4355 14.7373 30.4675C14.7385 30.5113 14.7359 30.555 14.7313 30.5983C14.9409 30.5115 15.1174 30.4281 15.2555 30.3576C15.4752 30.2456 15.6005 30.0085 15.5721 29.7635L15.5429 29.5117C15.4969 29.1143 15.0769 28.8754 14.7131 29.0411C14.4054 29.1812 14.1027 29.2979 13.8057 29.3985C14.3188 29.5982 14.6736 29.9417 14.732 30.3712Z" fill="#B53324"/>
<path d="M11.2624 29.8983C11.8133 29.871 12.447 29.7855 13.1283 29.6035L13.132 29.6054C13.2582 29.5715 13.3862 29.5338 13.5155 29.4929C12.4712 29.8103 11.5191 29.9064 10.7563 29.9092C10.9155 29.9106 11.0846 29.9073 11.2621 29.8986L11.2624 29.8983Z" fill="#B53324"/>
<path d="M9.49357 31.018C9.70966 31.0691 9.92168 31.1096 10.1304 31.1426C10.1188 31.1039 10.108 31.0648 10.1015 31.0246L10.0966 31.0026C10.0435 30.6122 10.2448 30.2245 10.6129 29.9095C10.2562 29.9056 9.94531 29.8817 9.69187 29.8522C9.31306 29.808 8.99375 30.1289 9.03776 30.5079C9.06655 30.7568 9.24991 30.9605 9.49357 31.018Z" fill="#B53324"/>
<path d="M10.0968 31.0027L10.1017 31.0247C10.1081 31.0649 10.1189 31.104 10.1306 31.1428C10.3448 31.8585 11.4083 32.2961 12.6112 32.1323C13.7692 31.9746 14.6536 31.314 14.7313 30.5985C14.7359 30.5551 14.7386 30.5114 14.7372 30.4677C14.7361 30.4356 14.7363 30.4035 14.7319 30.3714C14.6735 29.9418 14.3188 29.5983 13.8056 29.3986L13.8028 29.3974C13.7062 29.4316 13.6105 29.463 13.5154 29.4931C13.3861 29.5339 13.258 29.5717 13.1318 29.6055C13.4245 29.7426 13.626 29.9674 13.6576 30.2408C13.7165 30.7498 13.1685 31.2312 12.4334 31.3162C11.6985 31.4013 11.0549 31.0577 10.9961 30.5488C10.9688 30.314 11.0721 30.0856 11.262 29.8988C11.0845 29.9075 10.9155 29.9106 10.7562 29.9094C10.7084 29.9091 10.6614 29.9084 10.6155 29.9073L10.6128 29.9098C10.245 30.2247 10.0437 30.6123 10.0968 31.0027Z" fill="#B5B5B5"/>
<path d="M11.2625 29.8984L11.2622 29.8987C11.0723 30.0856 10.969 30.3139 10.9963 30.5486C11.0551 31.0575 11.6987 31.4011 12.4337 31.3161C13.1687 31.231 13.7167 30.7496 13.6578 30.2407C13.6262 29.9672 13.4247 29.7426 13.132 29.6054L13.1284 29.6035C12.4471 29.7855 11.8134 29.8711 11.2625 29.8984Z" fill="#A1A0A0"/>
<path d="M25.5539 5.12432C25.9636 4.9385 26.1452 4.45573 25.9595 4.04592C25.7737 3.6361 25.2909 3.4545 24.881 3.64032C24.4712 3.82614 24.2896 4.30903 24.4756 4.71871C24.6614 5.12852 25.1441 5.31014 25.5539 5.12432Z" fill="#FFECC2"/>
<path d="M18.165 4.96104C18.5747 4.77522 18.7563 4.29232 18.5705 3.8825C18.3847 3.47269 17.902 3.29108 17.4923 3.4769C17.0825 3.66273 16.9009 4.14563 17.0867 4.55544C17.2724 4.96525 17.7552 5.14686 18.165 4.96104Z" fill="#FFECC2"/>
<path d="M22.1117 4.57131C22.94 4.19573 23.3071 3.21976 22.9315 2.39144C22.556 1.56312 21.5803 1.19596 20.7519 1.57154C19.9235 1.94712 19.5565 2.92309 19.9319 3.75141C20.3076 4.57973 21.2834 4.94689 22.1117 4.57131Z" fill="#FFECC2"/>
<path d="M6.14222 24.3195C7.03687 23.5597 5.19637 22.7379 4.84405 19.482C4.38552 15.245 9.59165 9.65686 6.41345 11.9337C3.23539 14.2104 1.3858 17.1536 1.65785 20.2854C1.84772 22.4706 3.98648 24.4605 4.89444 24.6298C5.33586 24.7121 5.80009 24.6102 6.14222 24.3195Z" fill="#FFECC2"/>
<path d="M30.1174 21.2202C30.0043 21.3583 29.9812 21.5512 30.1083 21.6892L30.1174 21.7005C30.2373 21.8204 30.4808 21.8431 30.5978 21.7005C32.22 19.7216 33.3643 17.3635 33.8952 14.8585C34.0475 14.1399 34.1495 13.4099 34.2027 12.6772C34.2156 12.502 34.0522 12.3529 33.8857 12.3401L33.8632 12.3377C33.6683 12.3377 33.5369 12.4936 33.5235 12.6772C33.3465 15.1028 32.571 17.4756 31.3023 19.5487C30.9456 20.1318 30.5509 20.6915 30.1174 21.2202Z" fill="#DF3F2F"/>
<path d="M8.66087 32.9559C8.69673 32.9858 8.73829 33.0102 8.78433 33.0269C10.0515 33.4883 11.4048 33.6871 12.7514 33.6016C14.2268 33.508 15.665 33.1132 17.038 32.5787C17.9699 32.216 18.8774 31.7938 19.7676 31.3389C19.9308 31.2555 19.9782 31.0262 19.8894 30.8742C19.8712 30.8432 19.8484 30.818 19.8237 30.7957C19.7165 30.6991 19.558 30.6842 19.4246 30.7524C16.8435 32.0715 13.983 33.2214 11.0448 32.8806C10.3789 32.8035 9.63185 32.6147 8.96497 32.3718C8.79261 32.309 8.59282 32.4423 8.54705 32.6091C8.50902 32.7479 8.56186 32.8737 8.66087 32.9559Z" fill="#DF3F2F"/>
<defs>
<linearGradient id="paint0_linear_14_16846" x1="0" y1="18" x2="36" y2="18" gradientUnits="userSpaceOnUse">
<stop stop-color="#83247C"/>
<stop offset="1" stop-color="#363787"/>
</linearGradient>
</defs>
</svg>
