<svg width="36" height="36" viewBox="0 0 36 36" fill="none" xmlns="http://www.w3.org/2000/svg">
<path d="M31.4727 1.92662L31.3427 1.88188C31.2969 1.86618 31.2472 1.89055 31.2316 1.93629C31.2167 1.97926 31.1717 2.00376 31.1277 1.99296L31.0215 1.9667C31.0575 1.7066 31.0014 1.31846 30.489 0.977826C30.4412 0.918393 30.3769 0.854311 30.2903 0.786083L30.2416 0.754417C29.8397 0.542319 29.6519 0.643092 29.5764 0.71999C29.5029 0.794878 29.4307 0.870896 29.3525 0.940884L29.1933 1.08325L28.7384 0.498345C28.7104 0.462535 28.7146 0.411269 28.7477 0.380234C28.7831 0.347313 28.7851 0.291773 28.7521 0.256339L28.6583 0.155567C28.6217 0.116238 28.5588 0.118881 28.5256 0.160974L28.2544 0.504749C28.2277 0.538675 28.2296 0.587179 28.2591 0.618843L28.3075 0.670985C28.3404 0.706293 28.3959 0.708307 28.4312 0.675387L28.442 0.66521C28.477 0.632666 28.5317 0.634046 28.5647 0.6686L29.0692 1.19382L28.2308 1.9432L27.9187 1.54174C27.8908 1.50593 27.8948 1.4548 27.9279 1.42376C27.9632 1.39072 27.9653 1.3353 27.9323 1.29987L27.8387 1.1991C27.8022 1.15977 27.7392 1.16241 27.706 1.2045L27.4348 1.54828C27.408 1.5822 27.4101 1.63071 27.4394 1.66237L27.4879 1.71451C27.5208 1.74982 27.5762 1.75184 27.6116 1.71891L27.6224 1.70874C27.6574 1.67619 27.7121 1.6777 27.7452 1.71213L28.0889 2.06998L27.1312 2.92604L26.8518 2.5668C26.8241 2.53099 26.828 2.47985 26.8612 2.44881C26.8966 2.41589 26.8986 2.36036 26.8656 2.32493L26.7719 2.22416C26.7353 2.18483 26.6724 2.18746 26.6392 2.22955L26.368 2.57334C26.3413 2.60726 26.3431 2.65577 26.3726 2.68743L26.4209 2.73945C26.4541 2.77488 26.5094 2.77689 26.5447 2.74385L26.5556 2.73367C26.5906 2.70112 26.6452 2.70263 26.6784 2.73706L26.9851 3.05646L26.6438 3.36142C26.6083 3.39321 26.6153 3.44975 26.6566 3.47362C27.3205 3.85836 26.8058 4.49617 26.8058 4.49617L27.5445 4.96736L27.7835 5.12568L27.7809 5.12995L26.8586 4.53047L26.6373 4.87187L26.7824 4.96623L17.2552 19.3598L16.9622 19.1713L16.9605 19.17L16.9593 19.1694C16.8096 19.0722 16.6156 19.0764 16.4703 19.1802L4.66091 27.6194C4.50757 27.7291 4.46642 27.9007 4.50645 28.0504C4.35888 28.3595 4.66066 28.9403 5.01815 28.9246L12.2471 28.6083C12.4407 28.5999 12.6321 28.652 12.7946 28.7577C12.8503 28.7937 12.8996 28.8374 12.9458 28.8838L15.4267 35.1856C15.4447 35.2312 15.4687 35.2704 15.4969 35.3036L15.6069 35.5902C15.7578 35.9735 16.5842 35.9671 16.6661 35.5633L19.5641 21.26C19.6007 21.0803 19.5237 20.8964 19.37 20.7965L19.0841 20.6106L19.0844 20.6102L28.1661 6.30529L28.1625 6.29247L28.3561 6.57167L28.5774 6.23028L28.5745 6.22324C28.7134 6.06014 29.1162 5.6803 29.6155 6.04255C29.654 6.07045 29.7085 6.05386 29.7232 6.0085L30.0364 5.0278L30.0934 5.0474C30.1344 5.06147 30.1793 5.0435 30.1995 5.0053L30.4028 4.6173C30.4276 4.56968 30.4044 4.51113 30.3537 4.49366L30.2236 4.44893L30.2213 4.44867L30.4907 3.60531C30.5005 3.61662 30.5121 3.62629 30.5271 3.63145L30.5942 3.65456C30.6352 3.66863 30.6801 3.6508 30.7001 3.61247L30.9034 3.22458C30.9284 3.17696 30.9051 3.11841 30.8544 3.10094L30.7242 3.05622C30.7043 3.04931 30.6837 3.05131 30.6654 3.05823L30.8289 2.54632C30.8609 2.4463 30.9009 2.3493 30.9393 2.25167C30.944 2.23974 30.9529 2.21938 30.9631 2.19211L31.0429 2.22101C31.0879 2.23722 31.1115 2.2866 31.096 2.33184L31.0913 2.34603C31.0754 2.3919 31.0999 2.44166 31.1457 2.45737L31.2128 2.48048C31.2536 2.49455 31.2987 2.47671 31.3188 2.43826L31.522 2.05038C31.5467 2.00276 31.5235 1.94408 31.4727 1.92662Z" fill="#1C2C50"/>
<path d="M30.4726 3.52024L30.4774 3.50604C30.4929 3.4608 30.4694 3.41142 30.4244 3.39509L29.9838 3.23576L29.5935 4.45747L30.0082 4.56013C30.0524 4.57106 30.0973 4.54643 30.1121 4.50346C30.1276 4.45835 30.176 4.43448 30.2212 4.4488L30.4906 3.60543C30.4707 3.58256 30.4622 3.5509 30.4726 3.52024Z" fill="#010202"/>
<path d="M30.5926 1.38066C30.5542 1.47842 30.5142 1.57542 30.4822 1.67544L30.4355 1.8217L31.0215 1.9667C31.0575 1.7066 31.0015 1.31847 30.489 0.977829C30.6382 1.16404 30.6224 1.30465 30.5926 1.38066Z" fill="#010202"/>
<path d="M29.9718 4.91308L29.9767 4.89889C29.9922 4.85353 29.9685 4.80415 29.9236 4.78794L29.5331 4.64671L29.3764 5.13763C29.3618 5.18311 29.3073 5.1997 29.2688 5.17168C28.6477 4.7211 28.2754 5.45138 28.2754 5.45138L28.2428 5.42976L28.5746 6.2235C28.7135 6.0604 29.1162 5.68056 29.6155 6.04281C29.6541 6.07071 29.7085 6.05412 29.7232 6.00876L30.0364 5.02806L30.0264 5.02454C29.9804 5.00871 29.9562 4.95882 29.9718 4.91308Z" fill="#010202"/>
<path d="M27.8362 5.1606L27.7839 5.12592L27.7812 5.13019L27.8324 5.16349L27.8362 5.1606Z" fill="#010202"/>
<path d="M30.0426 3.05182L30.5093 3.1673C30.5532 3.17823 30.5983 3.1536 30.613 3.11063C30.6218 3.08487 30.6419 3.06715 30.6653 3.05811L30.8289 2.54621C30.8608 2.44619 30.9009 2.34919 30.9393 2.25156C30.9439 2.23962 30.9528 2.21927 30.9631 2.192L30.3841 1.98267L30.0426 3.05182Z" fill="#010202"/>
<path d="M27.836 5.16061L27.8323 5.16351L28.2227 5.41719L28.0037 5.75469L28.1625 6.29285L28.356 6.57192L28.5774 6.23053L28.5744 6.22349L28.2426 5.42975L27.836 5.16061Z" fill="#3D517B"/>
<path d="M28.0014 5.75858L27.8562 5.66422L18.604 20.2377L18.9103 20.4371L18.6038 20.2379L18.6035 20.2383L18.8984 20.4301C18.9585 20.469 19.0057 20.5214 19.0394 20.5812L19.0399 20.5822L19.0842 20.611L19.0846 20.6106L28.1663 6.30567L28.1626 6.29285L28.0039 5.75469L28.0014 5.75858Z" fill="#8F502F"/>
<path d="M12.4908 28.1882C12.3324 28.0853 12.1458 28.0344 11.9571 28.0427L4.91261 28.351C4.70043 28.3602 4.55186 28.2195 4.50669 28.0508C4.35913 28.3599 4.66091 28.9406 5.01839 28.9249L12.2474 28.6087C12.441 28.6002 12.6323 28.6524 12.7948 28.7581C12.8505 28.7941 12.8998 28.8377 12.946 28.8842L12.8409 28.6171C12.7715 28.441 12.6491 28.2912 12.4908 28.1882Z" fill="#010202"/>
<path d="M19.0876 20.8816L16.1962 35.1182C16.1261 35.4637 15.6997 35.5423 15.4971 35.3038L15.6071 35.5904C15.7579 35.9738 16.5843 35.9674 16.6663 35.5636L19.5643 21.2602C19.6008 21.0805 19.5239 20.8966 19.3702 20.7967L19.0843 20.6109L19.04 20.5821C19.09 20.6714 19.109 20.7771 19.0876 20.8816Z" fill="#010202"/>
<path d="M18.9103 20.437L18.604 20.2376L18.6039 20.2378L18.9103 20.437Z" fill="#1C2C50"/>
<path d="M18.1771 21.3909L17.8056 21.964C17.7073 22.1155 17.5051 22.1586 17.3539 22.0602L16.051 21.2132C15.8997 21.1148 15.8567 20.9124 15.9549 20.7609L15.9779 20.7256C15.5616 20.8939 15.1639 21.2074 14.8438 21.7456C14.5253 22.2809 14.5485 22.7785 14.6852 23.1794C14.7091 23.1878 14.7326 23.1983 14.7547 23.2127L16.0577 24.0597C16.2089 24.1581 16.2519 24.3605 16.1537 24.5121L15.7821 25.0852C15.6839 25.2366 15.4817 25.2797 15.3304 25.1814L15.1739 25.0798C15.1378 25.1599 15.0936 25.2374 15.0392 25.3103C14.9934 25.3719 14.9436 25.4317 14.8925 25.4906C15.1418 25.5908 15.4078 25.6513 15.6815 25.6613C15.9222 25.6701 15.9225 26.0451 15.6815 26.0363C15.3126 26.0229 14.9508 25.9309 14.6177 25.7772C14.3486 26.0328 14.0707 26.2391 13.8942 26.3618L14.9109 30.5933L14.8472 30.4723L15.8462 33.9742L18.5713 21.3174C18.6105 21.1381 18.5174 20.9563 18.3488 20.8842C18.311 20.8681 18.2694 20.851 18.2255 20.8338L18.1327 20.9799C18.2409 21.0867 18.2632 21.2583 18.1771 21.3909ZM15.2271 28.0952C15.3319 27.9337 15.5477 27.8877 15.709 27.9926C15.8705 28.0975 15.9163 28.3136 15.8116 28.4752C15.7067 28.6368 15.4911 28.6828 15.3297 28.5779C15.1682 28.4729 15.1222 28.2568 15.2271 28.0952ZM15.3082 29.4651C15.413 29.3035 15.6287 29.2575 15.7901 29.3624C15.9515 29.4673 15.9974 29.6833 15.8927 29.845C15.7879 30.0066 15.5722 30.0526 15.4107 29.9477C15.2492 29.8428 15.2033 29.6268 15.3082 29.4651ZM15.9908 31.2953C15.886 31.4569 15.6702 31.5029 15.5088 31.398C15.3475 31.2929 15.3015 31.0769 15.4063 30.9153C15.5111 30.7536 15.7269 30.7078 15.8884 30.8127C16.0496 30.9177 16.0956 31.1337 15.9908 31.2953Z" fill="#607FBB"/>
<path d="M10.6115 26.0523C10.8023 26.1694 11.0519 26.1092 11.1687 25.9182C11.2857 25.727 11.2257 25.4772 11.0347 25.3601C10.8439 25.2431 10.5943 25.303 10.4775 25.4941C10.3605 25.6854 10.4205 25.9353 10.6115 26.0523Z" fill="#2C467D"/>
<path d="M7.90555 27.0772C7.71457 26.9603 7.46512 27.0202 7.34817 27.2114C7.23123 27.4027 7.29133 27.6525 7.48218 27.7696C7.67304 27.8866 7.92262 27.8265 8.03944 27.6354C8.15639 27.4441 8.09641 27.1943 7.90555 27.0772Z" fill="#2C467D"/>
<path d="M9.70051 26.5704C9.93428 26.188 9.81445 25.6883 9.43261 25.4542C9.05078 25.22 8.55176 25.3401 8.31799 25.7225C8.08423 26.1048 8.20431 26.6045 8.58602 26.8386C8.96772 27.0728 9.46675 26.9527 9.70051 26.5704Z" fill="#2C467D"/>
<path d="M13.8942 26.3619L13.8253 26.0748L9.26147 26.9208L13.1092 27.1793L14.8472 30.4724L14.911 30.5934L13.8942 26.3619Z" fill="#E8F1FB"/>
<path d="M17.2545 19.3614L16.7731 20.0889L16.7781 20.0916L18.0811 20.9386C18.1 20.9509 18.1172 20.9647 18.1326 20.9799L18.2254 20.8338L18.6034 20.2382L18.6037 20.2378L18.6038 20.2376L27.856 5.66409L26.7826 4.96635L17.2554 19.3599L17.2545 19.3614ZM26.5932 5.84829C26.6892 5.70015 26.8869 5.65806 27.035 5.75418C27.1828 5.8503 27.225 6.04833 27.1288 6.19647C27.0328 6.34461 26.8351 6.38683 26.6873 6.29058C26.5392 6.19458 26.497 5.99644 26.5932 5.84829ZM25.771 7.11636C25.8671 6.96822 26.0649 6.92613 26.2129 7.02237C26.3607 7.1185 26.4028 7.31652 26.3067 7.46466C26.2107 7.6128 26.013 7.6549 25.865 7.55877C25.7171 7.46253 25.6749 7.2645 25.771 7.11636ZM23.7159 10.2864C23.8119 10.1384 24.0098 10.0962 24.1576 10.1923C24.3056 10.2884 24.3477 10.4866 24.2516 10.6347C24.1555 10.7828 23.9579 10.8249 23.8098 10.7288C23.6619 10.6326 23.6198 10.4345 23.7159 10.2864ZM22.8306 11.652C22.9266 11.5038 23.1244 11.4617 23.2724 11.5579C23.4203 11.654 23.4625 11.8521 23.3664 12.0003C23.2704 12.1484 23.0725 12.1905 22.9246 12.0944C22.7766 11.9981 22.7346 11.8 22.8306 11.652ZM21.9453 13.0174C22.0414 12.8693 22.2391 12.8272 22.3871 12.9233C22.5351 13.0195 22.5771 13.2176 22.4811 13.3657C22.3851 13.5139 22.1872 13.5561 22.0394 13.4598C21.8914 13.3636 21.8493 13.1656 21.9453 13.0174ZM19.6056 16.6265C19.7018 16.4783 19.8994 16.4361 20.0475 16.5324C20.1953 16.6285 20.2374 16.8266 20.1413 16.9748C20.0452 17.1229 19.8476 17.165 19.6996 17.0689C19.5517 16.9727 19.5097 16.7745 19.6056 16.6265ZM18.6571 18.0894C18.7531 17.9414 18.9509 17.8992 19.0989 17.9955C19.2469 18.0916 19.2889 18.2897 19.1929 18.4377C19.0969 18.5859 18.8991 18.6281 18.7512 18.5318C18.6032 18.4357 18.561 18.2376 18.6571 18.0894ZM17.7718 19.455C17.8677 19.3069 18.0656 19.2646 18.2136 19.3609C18.3614 19.457 18.4035 19.6552 18.3074 19.8033C18.2113 19.9514 18.0137 19.9935 17.8656 19.8974C17.7178 19.8012 17.6758 19.6031 17.7718 19.455Z" fill="#C57046"/>
<path d="M16.051 21.2132L17.3539 22.0603C17.5051 22.1586 17.7073 22.1155 17.8056 21.964L18.1771 21.3909C18.2632 21.2583 18.2409 21.0867 18.1326 20.98C18.1171 20.9648 18.1 20.9509 18.081 20.9387L16.778 20.0917L16.773 20.089C16.6223 19.9948 16.4236 20.038 16.3263 20.1879L15.9776 20.7258L15.9546 20.7612C15.8566 20.9124 15.8997 21.1149 16.051 21.2132ZM16.2447 20.8431L16.5193 20.4194C16.5919 20.3074 16.7414 20.2756 16.8532 20.3483L17.8161 20.9744C17.928 21.047 17.9598 21.1968 17.8873 21.3087L17.6126 21.7324C17.5401 21.8444 17.3905 21.8762 17.2787 21.8036L16.3156 21.1774C16.204 21.1048 16.1721 20.955 16.2447 20.8431Z" fill="#0C1321"/>
<path d="M16.3158 21.1774L17.2788 21.8036C17.3906 21.8763 17.5402 21.8444 17.6127 21.7324L17.8874 21.3087C17.9599 21.1968 17.9282 21.0471 17.8162 20.9744L16.8533 20.3483C16.7414 20.2756 16.5921 20.3074 16.5194 20.4194L16.2449 20.8431C16.1721 20.955 16.204 21.1048 16.3158 21.1774Z" fill="#E8F1FB"/>
<path d="M15.7821 25.0853L16.1536 24.5122C16.2519 24.3607 16.2089 24.1582 16.0577 24.0599L14.7547 23.2128C14.7325 23.1984 14.709 23.1878 14.6852 23.1795C14.5463 23.1304 14.3869 23.1799 14.3031 23.3091L13.9314 23.8822C13.8333 24.0337 13.8763 24.2361 14.0275 24.3345L15.174 25.0799L15.3305 25.1815C15.4817 25.2798 15.6839 25.2368 15.7821 25.0853ZM14.2922 24.2986C14.1804 24.226 14.1485 24.0762 14.2211 23.9642L14.4957 23.5407C14.5684 23.4287 14.7178 23.3969 14.8296 23.4695L15.7926 24.0957C15.9044 24.1684 15.9363 24.3181 15.8637 24.43L15.589 24.8537C15.5165 24.9657 15.3669 24.9975 15.2551 24.9248L14.2922 24.2986Z" fill="#0C1321"/>
<path d="M15.5891 24.8536L15.8637 24.4299C15.9364 24.3179 15.9045 24.1683 15.7927 24.0955L14.8297 23.4694C14.7179 23.3968 14.5684 23.4286 14.4958 23.5405L14.2212 23.9641C14.1486 24.0761 14.1804 24.2258 14.2922 24.2985L15.2553 24.9246C15.3671 24.9973 15.5167 24.9655 15.5891 24.8536Z" fill="#E8F1FB"/>
<path d="M15.3295 28.5778C15.491 28.6827 15.7066 28.6367 15.8115 28.4751C15.9161 28.3135 15.8703 28.0974 15.7088 27.9925C15.5476 27.8876 15.3318 27.9335 15.227 28.0951C15.1222 28.2568 15.1681 28.473 15.3295 28.5778Z" fill="#1C2C50"/>
<path d="M15.4106 29.9477C15.572 30.0526 15.7877 30.0066 15.8925 29.8451C15.9973 29.6835 15.9514 29.4674 15.79 29.3624C15.6285 29.2575 15.4128 29.3035 15.308 29.4651C15.2033 29.6268 15.2492 29.8428 15.4106 29.9477Z" fill="#1C2C50"/>
<path d="M15.8883 30.8128C15.7268 30.7079 15.5111 30.7539 15.4062 30.9155C15.3014 31.0771 15.3473 31.2931 15.5087 31.3981C15.6701 31.503 15.8859 31.457 15.9907 31.2955C16.0956 31.1337 16.0496 30.9177 15.8883 30.8128Z" fill="#1C2C50"/>
<path d="M15.6815 25.6614C15.4079 25.6515 15.1417 25.5909 14.8925 25.4908C14.2875 25.2475 13.7835 24.7639 13.5264 24.1537C13.4872 24.0604 13.3495 24.04 13.2702 24.0865C13.1737 24.143 13.1635 24.2493 13.2031 24.3431C13.473 24.9831 13.9945 25.4901 14.6178 25.7775C14.951 25.931 15.3127 26.023 15.6816 26.0366C15.9224 26.0453 15.9222 25.6702 15.6815 25.6614Z" fill="#E8F1FB"/>
<path d="M17.8658 19.8974C18.0137 19.9936 18.2115 19.9515 18.3076 19.8033C18.4036 19.6552 18.3616 19.4572 18.2138 19.3609C18.0658 19.2648 17.8679 19.3069 17.7719 19.455C17.6758 19.6032 17.7179 19.8012 17.8658 19.8974Z" fill="#9F5935"/>
<path d="M18.7512 18.5318C18.899 18.628 19.0969 18.5859 19.1929 18.4377C19.2888 18.2897 19.2468 18.0916 19.0989 17.9955C18.9509 17.8993 18.7532 17.9414 18.6571 18.0894C18.5611 18.2376 18.6032 18.4357 18.7512 18.5318Z" fill="#9F5935"/>
<path d="M19.6997 17.0688C19.8475 17.1649 20.0453 17.1228 20.1414 16.9747C20.2374 16.8265 20.1953 16.6285 20.0475 16.5323C19.8996 16.4361 19.7018 16.4782 19.6057 16.6264C19.5097 16.7745 19.5517 16.9727 19.6997 17.0688Z" fill="#9F5935"/>
<path d="M22.0393 13.4598C22.1871 13.5561 22.385 13.514 22.481 13.3657C22.577 13.2176 22.535 13.0195 22.387 12.9233C22.2391 12.8272 22.0413 12.8693 21.9452 13.0174C21.8493 13.1656 21.8914 13.3636 22.0393 13.4598Z" fill="#9F5935"/>
<path d="M22.9245 12.0943C23.0725 12.1904 23.2704 12.1483 23.3664 12.0002C23.4623 11.852 23.4203 11.654 23.2724 11.5577C23.1244 11.4616 22.9266 11.5037 22.8306 11.6519C22.7346 11.8 22.7766 11.9982 22.9245 12.0943Z" fill="#9F5935"/>
<path d="M23.81 10.7287C23.9579 10.8248 24.1557 10.7827 24.2518 10.6346C24.3478 10.4864 24.3057 10.2884 24.1578 10.1922C24.01 10.096 23.8121 10.1381 23.7161 10.2863C23.6199 10.4345 23.6619 10.6326 23.81 10.7287Z" fill="#9F5935"/>
<path d="M25.865 7.55877C26.013 7.6549 26.2107 7.6128 26.3067 7.46466C26.4028 7.31652 26.3607 7.1185 26.2129 7.02237C26.0649 6.92613 25.8672 6.96834 25.771 7.11636C25.6749 7.2645 25.7171 7.46253 25.865 7.55877Z" fill="#9F5935"/>
<path d="M26.6872 6.29071C26.835 6.38684 27.0328 6.34474 27.1288 6.1966C27.2249 6.04846 27.1828 5.85043 27.0349 5.75431C26.887 5.65818 26.6892 5.70028 26.5931 5.84842C26.4971 5.99644 26.5393 6.19459 26.6872 6.29071Z" fill="#9F5935"/>
<path d="M28.0014 5.75859L28.0038 5.75469L28.2228 5.4172L27.8324 5.16351L27.7813 5.13021L26.859 4.53073L26.6377 4.87212L26.7829 4.96649L27.8562 5.66423L28.0014 5.75859Z" fill="#5A76AE"/>
<path d="M31.4727 1.92662L31.3427 1.88189C31.2969 1.86618 31.2472 1.89056 31.2315 1.93629C31.2167 1.97927 31.1717 2.00377 31.1276 1.99296L31.0215 1.9667L30.4355 1.8217L30.384 1.98266L30.963 2.192L31.0428 2.22089C31.0877 2.2371 31.1113 2.28649 31.0959 2.33172L31.0911 2.34592C31.0753 2.39178 31.0998 2.44153 31.1456 2.45724L31.2127 2.48036C31.2535 2.49444 31.2985 2.47659 31.3186 2.43814L31.5219 2.05026C31.5467 2.00276 31.5235 1.94409 31.4727 1.92662Z" fill="#5A76AE"/>
<path d="M30.613 3.11062C30.5983 3.15359 30.5533 3.17822 30.5093 3.16729L30.0426 3.05181L29.9838 3.23576L30.4244 3.39509C30.4695 3.41142 30.4931 3.46068 30.4774 3.50604L30.4726 3.52024C30.4622 3.5509 30.4706 3.58256 30.4906 3.60543C30.5004 3.61674 30.5119 3.62641 30.527 3.63157L30.5941 3.65469C30.635 3.66876 30.6799 3.65092 30.7 3.61259L30.9033 3.22471C30.9282 3.17709 30.9049 3.11854 30.8542 3.10107L30.7241 3.05634C30.7041 3.04943 30.6835 3.05143 30.6652 3.05835C30.6419 3.06714 30.6218 3.08499 30.613 3.11062Z" fill="#5A76AE"/>
<path d="M30.1122 4.50359C30.0975 4.54656 30.0524 4.57119 30.0083 4.56026L29.5936 4.4576L29.5331 4.64684L29.9236 4.78806C29.9685 4.80427 29.9922 4.85365 29.9767 4.89901L29.9718 4.91321C29.9561 4.95895 29.9804 5.00883 30.0262 5.02454L30.0363 5.02806L30.0933 5.04766C30.1342 5.06173 30.1792 5.04376 30.1994 5.00557L30.4026 4.61755C30.4275 4.56993 30.4043 4.51138 30.3536 4.49391L30.2235 4.44919L30.2212 4.44893C30.1762 4.43461 30.1277 4.45848 30.1122 4.50359Z" fill="#5A76AE"/>
<path d="M28.7384 0.498345C28.7104 0.462535 28.7146 0.411269 28.7477 0.380234C28.7831 0.347313 28.7851 0.291773 28.7521 0.256339L28.6583 0.155567C28.6217 0.116238 28.5588 0.118881 28.5256 0.160974L28.2544 0.504749C28.2277 0.538675 28.2296 0.587179 28.2591 0.618843L28.3075 0.670985C28.3404 0.706293 28.3958 0.708307 28.4312 0.675387L28.442 0.66521C28.477 0.632666 28.5317 0.634046 28.5647 0.6686L29.0692 1.19382L29.1929 1.08325L28.7384 0.498345Z" fill="#5A76AE"/>
<path d="M27.9189 1.542C27.8911 1.50619 27.8951 1.45505 27.9282 1.42401C27.9635 1.39097 27.9656 1.33555 27.9326 1.30012L27.839 1.19935C27.8025 1.16002 27.7395 1.16265 27.7063 1.20475L27.4351 1.54853C27.4082 1.58246 27.4104 1.63096 27.4397 1.66262L27.4882 1.71477C27.521 1.75007 27.5765 1.75209 27.6119 1.71917L27.6227 1.70898C27.6577 1.67644 27.7124 1.67795 27.7455 1.71238L28.0892 2.07023L28.231 1.94345L27.9189 1.542Z" fill="#5A76AE"/>
<path d="M26.8523 2.56693C26.8246 2.53112 26.8284 2.47999 26.8617 2.44895C26.8971 2.41603 26.8991 2.36049 26.8661 2.32506L26.7723 2.22428C26.7357 2.18496 26.6728 2.1876 26.6396 2.22969L26.3684 2.57347C26.3417 2.60739 26.3436 2.6559 26.3731 2.68756L26.4214 2.73958C26.4545 2.77501 26.5099 2.77702 26.5451 2.74397L26.556 2.7338C26.591 2.70125 26.6456 2.70277 26.6789 2.73719L26.9855 3.0566L27.1315 2.92617L26.8523 2.56693Z" fill="#5A76AE"/>
<path d="M28.2684 4.33471C28.9434 4.17915 29.4467 3.82368 29.6161 3.29231C29.7341 2.92151 29.5202 2.44944 29.3832 2.35973C29.3167 2.316 29.2339 2.30093 29.1579 2.32518C28.9598 2.38851 29.2047 2.64885 29.0402 3.20598C28.8259 3.93124 27.5932 4.49039 28.2684 4.33471Z" fill="#2C467D"/>
</svg>
