<svg width="36" height="36" viewBox="0 0 36 36" fill="none" xmlns="http://www.w3.org/2000/svg">
<rect width="36" height="36" rx="16" fill="url(#paint0_linear_14_16873)"/>
<path d="M33.1047 26.9581L33.1044 26.9506C32.7767 25.9163 31.6857 24.9509 31.2469 24.7583C30.5484 24.377 29.803 24.1151 29.2983 23.962C28.6754 23.7731 28.0792 23.4991 27.5492 23.1214C26.9894 22.7226 26.5367 22.2466 26.4484 21.7192C26.1886 20.165 25.5162 18.2263 24.1198 17.7796C23.5987 17.613 23.3567 17.6652 23.2629 17.8247C22.3662 17.7001 22.8594 18.6509 22.9494 19.1472C23.0496 19.6985 23.3606 21.283 22.0906 21.4877L8.93297 4.95765L8.90778 4.96527C8.85725 4.88453 8.29971 3.96313 8.60904 3.06085C8.64134 2.96707 8.58772 2.86618 8.49068 2.84564C8.02514 2.74708 6.81276 2.45425 6.01179 1.93316C5.75285 1.76485 5.63475 1.44991 5.70233 1.14868C5.7637 0.875213 5.68967 0.573857 5.466 0.354131C5.19492 0.0879029 4.71245 0.0545713 4.39524 0.263834C4.2013 0.26293 4.00735 0.32041 3.85992 0.438863C3.51157 0.718913 3.46713 1.18382 3.70668 1.59072L3.21853 1.75347C3.17459 1.76807 3.12692 1.74688 3.10844 1.70438C3.0888 1.65917 3.03608 1.63851 2.99086 1.65814L2.86229 1.71407C2.81203 1.7359 2.79317 1.79726 2.8225 1.84351L3.06063 2.22083C3.08415 2.25803 3.1313 2.27262 3.17162 2.25505L3.23804 2.22625C3.28326 2.20649 3.30393 2.15391 3.28429 2.1087L3.27822 2.09475C3.25884 2.05006 3.27874 1.998 3.32319 1.97785L3.79493 1.76368C3.88047 1.93626 4.03332 2.24602 4.21938 2.62049L3.67489 2.80211C3.63096 2.81671 3.58316 2.79553 3.56481 2.75303C3.54517 2.70782 3.49245 2.68714 3.44723 2.70678L3.31866 2.76272C3.26853 2.78455 3.24954 2.8459 3.27874 2.89214L3.517 3.26946C3.54052 3.30667 3.58768 3.32127 3.62812 3.3037L3.69453 3.27476C3.73975 3.25513 3.76044 3.20256 3.74067 3.15734L3.73472 3.14339C3.71521 3.09869 3.73523 3.04664 3.77955 3.02649L4.30311 2.78881C4.42302 3.02959 4.55326 3.28975 4.68532 3.55197L4.08811 3.75128C4.04418 3.76588 3.99637 3.74457 3.9779 3.7022C3.95826 3.65699 3.90567 3.63632 3.86044 3.65596L3.73187 3.71189C3.68174 3.73372 3.66275 3.7952 3.69195 3.84145L3.93009 4.21864C3.9536 4.25584 4.00089 4.27043 4.04121 4.25287L4.10749 4.22407C4.15272 4.2043 4.17339 4.15173 4.15375 4.10665L4.14767 4.09269C4.12829 4.048 4.14832 3.99594 4.19264 3.97579L4.76723 3.71486C4.89748 3.97256 5.02785 4.22858 5.15164 4.47079L4.71594 4.61624C4.67214 4.63084 4.62433 4.60952 4.60585 4.56715C4.58621 4.52194 4.53363 4.50127 4.4884 4.52091L4.35971 4.57684C4.30957 4.59867 4.29071 4.66003 4.31991 4.70627L4.55805 5.08347C4.58156 5.1208 4.62872 5.13526 4.66917 5.11769L4.73558 5.08889C4.7808 5.06926 4.80148 5.01668 4.78184 4.97134L4.77577 4.95739C4.75626 4.91269 4.77628 4.86063 4.82073 4.84048L5.24286 4.64879C5.38835 4.93284 5.52092 5.19041 5.62868 5.39864L5.12915 5.56528C5.08522 5.57988 5.03755 5.55869 5.01907 5.5162C4.9993 5.47099 4.94684 5.45031 4.90162 5.46995L4.77292 5.52589C4.72279 5.54772 4.70379 5.60907 4.73312 5.65531L4.97126 6.03263C4.99478 6.06984 5.04194 6.08443 5.08238 6.06687L5.14879 6.03793C5.19401 6.0183 5.21469 5.96559 5.19505 5.92051L5.18898 5.90643C5.16947 5.86174 5.18949 5.80968 5.23381 5.78966L5.71732 5.57006C5.76874 5.66953 5.81138 5.75155 5.84214 5.8111C5.87547 5.8753 5.94719 5.91005 6.01838 5.89713C6.85489 5.74509 6.99055 6.2171 6.99055 6.2171L7.36953 5.92581L7.05593 6.16698L18.4857 21.5471C18.4932 21.8581 18.4347 22.2998 18.0835 22.5211C17.9664 22.5261 17.8348 22.5176 17.686 22.4922C16.3017 22.2547 16.1857 21.2139 15.4604 21.0329C15.2834 20.9887 15.1042 21.047 14.9804 21.1686L14.9799 21.1685C14.7262 21.1052 14.4655 21.249 14.3747 21.494C14.1479 22.1058 14.0515 23.5194 16.572 25.4535C19.9975 28.0821 19.4605 28.1441 19.8334 29.8453C19.8499 29.921 19.8688 30.009 19.8902 30.1066C19.9424 30.7441 20.2783 33.7222 21.8706 35.0027C23.1205 36.0077 24.489 36.0424 25.8161 35.6071C27.2619 35.2662 28.682 34.3035 29.8717 33.3493C32.2603 31.433 33.5488 28.9031 33.1047 26.9581Z" fill="#DF4447"/>
<path d="M17.2052 22.6277C17.6105 22.6972 17.8908 22.6423 18.0833 22.521C17.9663 22.526 17.8346 22.5175 17.6859 22.492C16.3015 22.2546 16.1855 21.2137 15.4602 21.0327C15.2832 20.9886 15.104 21.0468 14.9802 21.1685C15.705 21.3497 15.8211 22.3905 17.2052 22.6277Z" fill="#B92D2E"/>
<path d="M33.1047 26.9581L33.1045 26.9506C32.7768 25.9163 31.6858 24.9509 31.247 24.7583C30.5484 24.377 29.803 24.1151 29.2983 23.962C28.6754 23.7731 28.0792 23.4991 27.5492 23.1214C26.9895 22.7226 26.5367 22.2466 26.4485 21.7192C26.1886 20.165 25.5162 18.2263 24.1199 17.7796C23.5988 17.613 23.3567 17.6652 23.2629 17.8247C23.3685 17.8394 23.4923 17.8681 23.6393 17.9151C25.0357 18.3618 25.7081 20.3005 25.968 21.8547C26.0562 22.3821 26.5088 22.8581 27.0687 23.257C27.5987 23.6347 28.195 23.9086 28.8178 24.0976C29.3225 24.2506 30.068 24.5126 30.7664 24.8939C31.2053 25.0864 32.2963 26.052 32.624 27.0863L32.6243 27.0938C33.0683 29.0389 31.78 31.5686 29.391 33.4848C28.3334 34.3331 27.0939 35.1881 25.816 35.6071C27.2619 35.2662 28.6819 34.3035 29.8716 33.3493C32.2604 31.433 33.5488 28.9031 33.1047 26.9581Z" fill="#B92D2E"/>
<path d="M5.22169 1.28431C5.15425 1.58555 5.27235 1.90034 5.53116 2.06879C6.33213 2.58988 7.54451 2.88271 8.01005 2.98127C8.10722 3.00181 8.16058 3.1027 8.12853 3.19648C7.80538 4.13906 8.42959 5.10464 8.43191 5.10852L8.43308 5.10813L8.45233 5.09328L8.45802 5.10064L8.90767 4.9654C8.85715 4.88466 8.29961 3.96326 8.60894 3.06097C8.64124 2.96719 8.58762 2.8663 8.49058 2.84577C8.02504 2.74721 6.81266 2.45437 6.01169 1.93328C5.75275 1.76497 5.63465 1.45004 5.70223 1.14881C5.7636 0.875343 5.68957 0.573979 5.4659 0.354253C5.19482 0.088025 4.71235 0.0546934 4.39514 0.263956C4.61402 0.264989 4.83316 0.340301 4.98537 0.489885C5.20903 0.709482 5.28307 1.01072 5.22169 1.28431Z" fill="#B92D2E"/>
<path d="M21.5059 21.4923C21.7311 21.5186 21.924 21.5144 22.0907 21.4876L8.93298 4.95764L8.90779 4.96526L8.45813 5.1005L21.5059 21.4923Z" fill="#541315"/>
<path d="M8.43214 5.10864L8.43304 5.108L8.43188 5.10839L8.43214 5.10864Z" fill="#541315"/>
<path d="M21.9035 22.933L20.8485 23.7441C20.593 23.9405 20.2262 23.8894 20.0342 23.6308L19.663 23.1315C18.7754 23.3915 18.3074 23.5609 18.1974 23.6372C18.0149 23.7638 17.9606 24.0433 18.125 24.2139C18.1981 24.29 18.3024 24.3263 18.4034 24.3565C18.8871 24.5012 19.3807 24.4486 19.8633 24.6031C20.3315 24.7531 20.7615 25.0276 21.0851 25.399C21.6218 26.0151 21.8508 26.8377 21.9998 27.6412C22.149 28.4445 22.2371 29.2702 22.5548 30.023C22.8724 30.7759 23.4752 31.466 24.2751 31.634C24.6336 31.7093 25.0053 31.6719 25.3569 31.5634L24.963 30.6371L27.4865 28.6971L28.171 29.2112C28.1925 29.1848 28.2149 29.159 28.2362 29.1324C28.4294 28.8924 28.6139 28.6446 28.7693 28.3788C28.9682 28.0385 29.1179 27.671 29.3245 27.3354C29.5696 26.9374 29.8049 26.6806 30.2729 26.3147C30.4139 26.2044 30.52 26.0509 30.5434 25.8734C30.5883 25.5331 30.3046 25.4486 30.2541 25.4393C29.2032 25.2477 28.1747 24.8815 27.2912 24.2814C26.4075 23.6812 25.6744 22.8383 25.291 21.8416C25.0853 21.3067 24.9806 20.7341 24.7373 20.2153C24.5381 19.7906 24.2147 19.3906 23.7937 19.2078C23.7235 19.1773 23.6589 19.2587 23.7021 19.3217C23.911 19.6276 24.098 20.1876 24.0444 20.5397C23.9242 21.3292 23.4535 22.127 22.6788 22.3222C22.4879 22.3704 22.3042 22.417 22.1265 22.4626C22.1302 22.6399 22.0549 22.8165 21.9035 22.933ZM29.2058 25.6807C29.3571 25.5412 29.5928 25.5507 29.7321 25.702C29.8715 25.8531 29.8619 26.0888 29.7107 26.2281C29.5596 26.3675 29.3239 26.358 29.1845 26.2068C29.0449 26.0557 29.0546 25.8201 29.2058 25.6807ZM27.9969 26.3447C28.1482 26.2053 28.3839 26.2148 28.5232 26.3661C28.6627 26.5172 28.653 26.7529 28.5019 26.8922C28.3507 27.0316 28.115 27.0221 27.9756 26.8708C27.8362 26.7197 27.8457 26.484 27.9969 26.3447ZM27.8284 27.7381C27.9796 27.5986 28.2153 27.6082 28.3547 27.7594C28.4941 27.9105 28.4845 28.1461 28.3332 28.2855C28.1819 28.4249 27.9464 28.4153 27.807 28.2641C27.6677 28.1131 27.6772 27.8774 27.8284 27.7381ZM25.6504 27.2632C25.8399 27.1176 26.1115 27.153 26.2572 27.3424C26.403 27.5318 26.3674 27.8034 26.178 27.949L24.6002 29.162C24.4108 29.3077 24.1391 29.2721 23.9933 29.0828C23.8477 28.8934 23.8832 28.6217 24.0727 28.4762L25.6504 27.2632ZM24.3843 25.6174C24.5737 25.4717 24.8455 25.5072 24.9912 25.6966C25.137 25.886 25.1014 26.1576 24.9119 26.3032L23.3341 27.5161C23.1447 27.6617 22.873 27.6263 22.7272 27.437C22.5816 27.2476 22.617 26.9759 22.8065 26.8304L24.3843 25.6174ZM23.0128 23.8343C23.2022 23.6886 23.4739 23.7241 23.6195 23.9135C23.7651 24.1028 23.7297 24.3745 23.5403 24.5201L21.9625 25.7332C21.7731 25.8787 21.5014 25.8433 21.3558 25.654C21.21 25.4646 21.2455 25.1929 21.435 25.0474L23.0128 23.8343Z" fill="#ED6A6E"/>
<path d="M20.0342 23.6309C20.2263 23.8895 20.5931 23.9405 20.8485 23.7441L21.9035 22.9331C22.0549 22.8167 22.1302 22.6401 22.1265 22.463C22.1238 22.3416 22.0849 22.2199 22.0032 22.1172L21.5059 21.4924L8.45798 5.10052L8.4523 5.09315L8.43305 5.10801L8.43214 5.10866L7.51862 5.81098L7.45919 5.85658L7.36926 5.92569L7.05566 6.16685L18.4855 21.547L19.6628 23.1315L20.0342 23.6309ZM8.21236 7.58261L7.96905 7.2638L9.29617 6.25198L9.53935 6.57078L8.21236 7.58261ZM10.6679 9.80854C10.5605 9.66761 10.5875 9.46636 10.7285 9.35888C10.8693 9.25141 11.0707 9.27854 11.1781 9.41947C11.2856 9.56027 11.2585 9.76165 11.1176 9.869C10.9767 9.97647 10.7755 9.94934 10.6679 9.80854ZM11.1688 11.0402L10.9256 10.7214L11.9461 9.94327L12.1893 10.2621L11.1688 11.0402ZM12.762 13.1286L12.5187 12.8098L13.5393 12.0316L13.7825 12.3504L12.762 13.1286ZM14.2678 14.5271C14.1603 14.3862 14.1874 14.185 14.3284 14.0775C14.4694 13.97 14.6707 13.9972 14.778 14.138C14.8855 14.2789 14.8584 14.4801 14.7176 14.5876C14.5766 14.6951 14.3752 14.6681 14.2678 14.5271ZM14.4523 15.3444L15.4729 14.5663L15.7161 14.8852L14.6955 15.6634L14.4523 15.3444ZM15.7877 15.9906C15.6467 16.098 15.4453 16.0709 15.3379 15.93C15.2304 15.7891 15.2577 15.5878 15.3985 15.4803C15.5395 15.3729 15.7409 15.4 15.8483 15.5409C15.9557 15.6818 15.9285 15.8831 15.7877 15.9906ZM16.5319 18.0704L16.2888 17.7516L17.3093 16.9735L17.5524 17.2923L16.5319 18.0704ZM18.2224 20.2864L17.9792 19.9675L18.9998 19.1893L19.243 19.5082L18.2224 20.2864ZM19.3388 20.6455C19.1979 20.753 18.9965 20.7259 18.889 20.5849C18.7815 20.444 18.8087 20.2427 18.9496 20.1354C19.0906 20.0279 19.2919 20.055 19.3992 20.196C19.5069 20.3368 19.4797 20.538 19.3388 20.6455Z" fill="#7B2224"/>
<path d="M24.9629 30.6373L25.3567 31.5636L25.6372 32.2237L28.8712 29.7373L28.1708 29.2113L27.4864 28.6972L24.9629 30.6373Z" fill="#7B2224"/>
<path d="M29.6932 29.0493C29.9137 29.1796 30.0634 28.6773 30.4154 28.0824C30.7673 27.4876 31.1882 27.0255 30.9678 26.8952C30.7475 26.7649 30.0235 27.1074 29.6715 27.7023C29.3196 28.2973 29.4728 28.919 29.6932 29.0493Z" fill="#7B2224"/>
<path d="M28.3334 28.2855C28.4846 28.1461 28.4942 27.9105 28.3548 27.7594C28.2153 27.6082 27.9797 27.5986 27.8286 27.7381C27.6774 27.8774 27.6678 28.1131 27.8072 28.2642C27.9465 28.4155 28.1821 28.425 28.3334 28.2855Z" fill="#FDEAEB"/>
<path d="M28.502 26.8923C28.6531 26.7529 28.6628 26.5172 28.5233 26.3661C28.3839 26.2148 28.1483 26.2053 27.997 26.3447C27.8458 26.4841 27.8363 26.7197 27.9757 26.8708C28.1151 27.0221 28.3507 27.0316 28.502 26.8923Z" fill="#FDEAEB"/>
<path d="M29.7108 26.2283C29.8619 26.0889 29.8715 25.8533 29.7321 25.7022C29.5927 25.5509 29.357 25.5413 29.2058 25.6808C29.0546 25.8202 29.0449 26.0558 29.1845 26.207C29.3239 26.3581 29.5595 26.3677 29.7108 26.2283Z" fill="#FDEAEB"/>
<path d="M21.3558 25.6538C21.5015 25.8432 21.7731 25.8787 21.9626 25.733L23.5403 24.5199C23.7298 24.3744 23.7652 24.1027 23.6195 23.9133C23.4738 23.724 23.2022 23.6884 23.0128 23.8342L21.435 25.0471C21.2454 25.1928 21.21 25.4645 21.3558 25.6538Z" fill="#EFCC79"/>
<path d="M22.7274 27.437C22.8731 27.6263 23.1447 27.6619 23.3343 27.5161L24.9121 26.3032C25.1015 26.1576 25.137 25.886 24.9914 25.6966C24.8457 25.5072 24.5741 25.4717 24.3845 25.6174L22.8067 26.8305C22.6172 26.9759 22.5818 27.2476 22.7274 27.437Z" fill="#EFCC79"/>
<path d="M23.9933 29.0829C24.139 29.2723 24.4106 29.3077 24.6002 29.1621L26.178 27.9491C26.3674 27.8035 26.4029 27.5319 26.2572 27.3425C26.1114 27.1532 25.84 27.1176 25.6504 27.2633L24.0725 28.4764C23.8832 28.6219 23.8478 28.8935 23.9933 29.0829Z" fill="#EFCC79"/>
<path d="M11.9381 9.9434L10.9176 10.7215L11.1608 11.0403L12.1813 10.2622L11.9381 9.9434Z" fill="#500F11"/>
<path d="M9.29675 6.25805L7.96973 7.27002L8.21297 7.58882L9.54 6.57685L9.29675 6.25805Z" fill="#500F11"/>
<path d="M13.5401 12.0371L12.5195 12.8154L12.7628 13.1342L13.7833 12.3559L13.5401 12.0371Z" fill="#500F11"/>
<path d="M15.4765 14.5742L14.4559 15.3522L14.6991 15.6711L15.7197 14.893L15.4765 14.5742Z" fill="#500F11"/>
<path d="M17.3112 16.975L16.2908 17.7532L16.534 18.072L17.5545 17.2938L17.3112 16.975Z" fill="#500F11"/>
<path d="M19.0037 19.1967L17.9832 19.9747L18.2264 20.2936L19.247 19.5155L19.0037 19.1967Z" fill="#500F11"/>
<path d="M11.1177 9.86897C11.2585 9.7615 11.2856 9.56024 11.1781 9.41944C11.0706 9.27851 10.8693 9.25138 10.7285 9.35886C10.5875 9.46633 10.5605 9.66758 10.6679 9.80851C10.7755 9.94931 10.9767 9.97644 11.1177 9.86897Z" fill="#EE767A"/>
<path d="M18.9496 20.1354C18.8087 20.2429 18.7815 20.4441 18.889 20.5849C18.9965 20.7257 19.1979 20.7528 19.3388 20.6455C19.4797 20.538 19.5068 20.3368 19.3992 20.196C19.2918 20.055 19.0905 20.028 18.9496 20.1354Z" fill="#EE767A"/>
<path d="M14.7174 14.5877C14.8582 14.4803 14.8854 14.279 14.7779 14.1381C14.6704 13.9973 14.4692 13.9701 14.3282 14.0776C14.1872 14.1851 14.1602 14.3864 14.2676 14.5273C14.3751 14.6681 14.5766 14.6951 14.7174 14.5877Z" fill="#EE767A"/>
<path d="M15.3984 15.4804C15.2575 15.5879 15.2304 15.7892 15.3378 15.9301C15.4453 16.0709 15.6466 16.098 15.7876 15.9907C15.9284 15.8832 15.9555 15.682 15.848 15.5412C15.7408 15.4001 15.5393 15.373 15.3984 15.4804Z" fill="#EE767A"/>
<path d="M3.70656 1.59058L3.2184 1.75334C3.17447 1.76794 3.12679 1.74676 3.10832 1.70426C3.08868 1.65905 3.03596 1.63838 2.99074 1.65802L2.86218 1.71395C2.81191 1.73578 2.79304 1.79714 2.82237 1.84338L3.06051 2.2207C3.08403 2.2579 3.13119 2.2725 3.1715 2.25493L3.23791 2.22612C3.28314 2.20636 3.30381 2.15379 3.28417 2.10857L3.2781 2.09463C3.25872 2.04993 3.27861 1.99787 3.32306 1.97772L3.79481 1.76355C3.75088 1.67493 3.72374 1.62069 3.72077 1.61565L3.70656 1.59058Z" fill="#7B2224"/>
<path d="M3.67496 2.8021C3.63103 2.8167 3.58322 2.79551 3.56487 2.75302C3.54523 2.70781 3.49252 2.68713 3.44729 2.70677L3.31872 2.76271C3.26859 2.78454 3.2496 2.84589 3.2788 2.89213L3.51707 3.26945C3.54058 3.30666 3.58774 3.32125 3.62818 3.30369L3.6946 3.27475C3.73982 3.25512 3.7605 3.20254 3.74073 3.15733L3.73478 3.14338C3.71527 3.09868 3.7353 3.04663 3.77962 3.02648L4.30318 2.78879C4.27462 2.73144 4.24671 2.67525 4.21945 2.62048L3.67496 2.8021Z" fill="#7B2224"/>
<path d="M4.68526 3.55196L4.08805 3.75128C4.04412 3.76587 3.99631 3.74456 3.97783 3.70219C3.95819 3.65698 3.9056 3.63631 3.86038 3.65595L3.73182 3.71188C3.68168 3.73371 3.66269 3.79519 3.69189 3.84144L3.93002 4.21863C3.95354 4.25584 4.00083 4.27043 4.04114 4.25286L4.10743 4.22406C4.15265 4.20429 4.17333 4.15172 4.15369 4.10664L4.14762 4.09268C4.12823 4.04799 4.14826 3.99594 4.19258 3.97579L4.76718 3.71485L4.76472 3.70981C4.73823 3.65698 4.71175 3.60454 4.68526 3.55196Z" fill="#7B2224"/>
<path d="M4.71576 4.61597C4.67195 4.63056 4.62414 4.60925 4.60566 4.56688C4.58602 4.52167 4.53343 4.501 4.48821 4.52063L4.35952 4.57657C4.30939 4.5984 4.29053 4.65975 4.31973 4.706L4.55786 5.08319C4.58137 5.12052 4.62854 5.13499 4.66898 5.11743L4.73539 5.08862C4.78062 5.06898 4.80129 5.0164 4.78165 4.97106L4.77557 4.95712C4.75606 4.91242 4.77609 4.86036 4.82054 4.84021L5.24268 4.64852C5.21296 4.59026 5.18246 4.53084 5.15158 4.47051L4.71576 4.61597Z" fill="#7B2224"/>
<path d="M5.12902 5.56514C5.08509 5.57974 5.03741 5.55856 5.01893 5.51606C4.99916 5.47085 4.9467 5.45018 4.90148 5.46981L4.77279 5.52575C4.72265 5.54758 4.70366 5.60894 4.73299 5.65518L4.97112 6.0325C4.99464 6.0697 5.0418 6.0843 5.08225 6.06673L5.14866 6.0378C5.19388 6.01816 5.21455 5.96545 5.19491 5.92037L5.18884 5.9063C5.16933 5.8616 5.18936 5.80954 5.23368 5.78952L5.71719 5.56993C5.69005 5.51761 5.66033 5.46 5.62854 5.39838L5.12902 5.56514Z" fill="#7B2224"/>
<path d="M16.2434 22.9032C16.3026 22.7327 16.2121 22.5465 16.0417 22.4874C15.8711 22.4283 15.6849 22.5185 15.6258 22.6891C15.5667 22.8597 15.6569 23.0457 15.8275 23.1048C15.9981 23.164 16.1843 23.0737 16.2434 22.9032Z" fill="#EA5557"/>
<path d="M17.9325 24.6558C17.7619 24.5967 17.5759 24.687 17.5167 24.8575C17.4575 25.028 17.5478 25.2141 17.7184 25.2733C17.8889 25.3325 18.0751 25.2422 18.1342 25.0716C18.1934 24.9011 18.103 24.715 17.9325 24.6558Z" fill="#EA5557"/>
<path d="M16.8081 23.5314C16.467 23.413 16.0947 23.5936 15.9765 23.9346C15.8581 24.2757 16.0388 24.6478 16.3797 24.7661C16.7209 24.8845 17.0932 24.7039 17.2115 24.3629C17.3298 24.0218 17.1492 23.6496 16.8081 23.5314Z" fill="#EA5557"/>
<path d="M24.7392 33.723C23.4089 33.5301 23.099 32.7628 22.7739 33.1184C22.6496 33.2546 22.6009 33.4434 22.6282 33.6257C22.6843 34.0008 23.4687 34.9076 24.3624 35.0179C25.6432 35.176 26.8782 34.4612 27.8595 33.1914C28.8407 31.9218 26.4708 33.9741 24.7392 33.723Z" fill="#EA5557"/>
<path d="M6.13776 4.8848C6.01605 4.97845 5.99317 5.15296 6.08685 5.27477C6.18053 5.39645 6.35509 5.41932 6.47694 5.32567C6.59866 5.23202 6.62152 5.0575 6.52785 4.93569C6.43417 4.81388 6.25961 4.79114 6.13776 4.8848Z" fill="#EE7176"/>
<path d="M6.05311 4.01428C5.95957 3.89259 5.78488 3.86973 5.66303 3.96338C5.54132 4.05704 5.51844 4.23155 5.61212 4.35336C5.70567 4.47517 5.88036 4.4979 6.00221 4.40425C6.12392 4.31073 6.14679 4.13609 6.05311 4.01428Z" fill="#EE7176"/>
<path d="M5.57845 3.09301C5.48477 2.97119 5.31021 2.94846 5.18836 3.04211C5.06665 3.13576 5.04391 3.31041 5.13746 3.43209C5.23113 3.55377 5.40569 3.57664 5.52754 3.48299C5.64925 3.38947 5.67199 3.21482 5.57845 3.09301Z" fill="#EE7176"/>
<path d="M5.10377 2.17174C5.01022 2.05005 4.8354 2.02731 4.71369 2.12084C4.59197 2.21449 4.5691 2.38914 4.66278 2.51082C4.75646 2.63263 4.93102 2.65536 5.05286 2.56184C5.17445 2.46806 5.19732 2.29355 5.10377 2.17174Z" fill="#EE7176"/>
<path d="M4.5724 1.17696C4.47885 1.05527 4.30416 1.0324 4.18231 1.12606C4.0606 1.21971 4.03773 1.39422 4.13141 1.5159C4.22496 1.63772 4.39965 1.66058 4.52149 1.56693C4.64321 1.47328 4.66594 1.29877 4.5724 1.17696Z" fill="#EE7176"/>
<defs>
<linearGradient id="paint0_linear_14_16873" x1="0" y1="18" x2="36" y2="18" gradientUnits="userSpaceOnUse">
<stop stop-color="#83247C"/>
<stop offset="1" stop-color="#363787"/>
</linearGradient>
</defs>
</svg>
