<svg width="36" height="36" viewBox="0 0 36 36" fill="none" xmlns="http://www.w3.org/2000/svg">
<rect width="36" height="36" rx="16" fill="url(#paint0_linear_14_16836)"/>
<path d="M27.8953 28.0874C27.6995 27.6202 27.4238 27.207 27.0866 26.8517C26.5234 26.034 25.5133 24.7085 25.3612 24.2275C25.3465 24.181 25.2895 24.1668 25.2524 24.1984C24.9302 24.4744 24.4043 24.6544 24.1068 24.3563C23.6869 23.9354 23.4855 22.6675 23.4768 22.1465C23.4697 21.7139 23.6325 21.0355 24.0295 20.9505C24.0789 20.9246 24.0851 20.8478 24.0383 20.8281C23.7447 20.7039 23.3926 20.4289 23.2958 20.0953C23.1557 19.612 23.1231 19.1056 23.0175 18.6155C22.9903 18.1438 22.8858 17.673 22.6954 17.2185C21.8755 15.262 19.8446 14.4891 17.6927 14.9076C17.4644 14.936 17.2339 14.9785 17.0025 15.0348L12.8776 6.00927L12.8846 6.00621L12.8674 5.97448L13.3419 5.77467L12.5675 4.31381L13.4961 3.94018L13.645 4.29568L14.0859 4.11009L13.7809 2.88701L13.1636 3.14684L13.2936 3.45678L12.3718 3.94459L11.4852 2.27143L12.6077 1.81988L12.7565 2.17489L13.1972 1.9893L12.8923 0.766342L12.2752 1.02617L12.4039 1.33341L11.2982 1.91862L10.8644 1.10029L9.54172 1.65695L9.83361 2.54608L8.53308 2.9626L8.40437 2.65535L7.78723 2.91506L8.44496 3.98967L8.88584 3.80407L8.73708 3.44906L9.95437 2.91359L10.549 4.72518L9.42303 5.08583L9.29323 4.77602L8.67596 5.03585L9.33381 6.11046L9.77469 5.92486L9.62581 5.56948L10.6748 5.10801L11.1908 6.68022L11.6336 6.49389L15.0864 15.8265C13.0953 17.0349 12.0864 19.1177 12.9414 21.158C13.1476 21.65 13.4393 22.0824 13.7941 22.4493C14.036 22.7878 14.3042 23.1092 14.5085 23.4731C14.6761 23.7716 14.6262 24.2102 14.5107 24.5032C14.4923 24.5499 14.5506 24.5984 14.6029 24.5815C14.9367 24.3599 15.3871 24.6418 15.6861 24.9456C16.0463 25.3115 16.3602 25.7286 16.615 26.1808C16.8432 26.5854 17.0288 27.0433 16.9872 27.4987C16.9503 27.9042 16.4823 28.2112 16.0727 28.2695C16.0149 28.2777 15.9868 28.3411 16.0192 28.3895C16.3993 28.9582 16.678 30.8666 16.678 30.8666C16.6795 30.9246 16.6823 30.9826 16.6861 31.0405L16.688 31.0682C16.6922 31.1242 16.6969 31.1802 16.7034 31.2359C16.7048 31.248 16.7072 31.2602 16.7067 31.2725C16.7045 31.3475 16.7046 31.424 16.7345 31.4928C16.7517 31.5324 16.7559 31.5734 16.7643 31.614C16.772 31.6505 16.7812 31.6868 16.7898 31.7232C16.7985 31.7591 16.8073 31.795 16.8168 31.8308C16.8253 31.862 16.8342 31.8931 16.8435 31.9243C16.8565 31.968 16.8704 32.0115 16.8848 32.0548C16.8931 32.0796 16.9011 32.1043 16.9097 32.1288C16.9342 32.1976 16.96 32.2659 16.9885 32.3337C17.4312 33.3901 18.2852 34.1698 19.3462 34.6099C20.7793 35.3751 22.6898 35.4694 24.4928 34.7105C27.393 33.4895 28.9164 30.5244 27.8953 28.0874Z" fill="#CB5633"/>
<path d="M25.8509 22.9603L25.7598 22.9731L25.8068 23.1357L25.9476 23.6234L25.9945 23.7859L27.7117 23.288L23.6581 4.73423L23.449 4.61871L21.5967 5.50809L21.7134 5.91248L25.8509 22.9603ZM23.1965 5.62312L24.3054 10.7106L26.9419 22.8064L26.0188 22.9365L22.0088 6.41425L23.1965 5.62312Z" fill="#CB5633"/>
<path d="M27.8953 28.0874C27.6995 27.6202 27.4238 27.207 27.0866 26.8517C26.5234 26.034 25.5133 24.7085 25.3612 24.2274C25.3465 24.181 25.2895 24.1668 25.2524 24.1984C24.9302 24.4744 24.4043 24.6544 24.1068 24.3563C23.6869 23.9354 23.4855 22.6675 23.4768 22.1465C23.4697 21.7139 23.6325 21.0355 24.0295 20.9505C24.0789 20.9246 24.0851 20.8478 24.0383 20.8281C23.7447 20.7039 23.3926 20.4288 23.2958 20.0953C23.1557 19.612 23.1231 19.1055 23.0174 18.6155C22.9903 18.1438 22.8858 17.673 22.6954 17.2185C21.8755 15.262 19.8446 14.4891 17.6927 14.9076C19.6602 14.6629 21.4626 15.447 22.2192 17.2525C22.407 17.7008 22.51 18.1652 22.5367 18.6305C22.6409 19.1139 22.6731 19.6132 22.8114 20.09C22.9067 20.4189 23.2541 20.6903 23.5438 20.8128C23.5898 20.8322 23.5836 20.9079 23.535 20.9335C23.1435 21.0173 23.0289 21.537 23.036 21.9636C23.0445 22.4776 23.122 22.9942 23.2656 23.4931C23.3942 23.9398 23.5905 24.3932 23.944 24.6822C24.2635 24.9435 24.8218 24.8159 25.1483 24.5557C25.1885 24.5236 25.2462 24.543 25.2587 24.593C25.3649 25.0177 26.004 25.9611 26.5503 26.7542C26.8829 27.1046 27.1548 27.5121 27.3479 27.973C28.2873 30.2145 27.0433 32.9084 24.5514 34.2383C24.5168 34.4281 24.39 34.5978 24.1988 34.6783C24.0151 34.7557 23.8148 34.7324 23.6579 34.6346C22.1563 35.1754 20.6055 35.1324 19.3462 34.6099C20.7793 35.3751 22.6898 35.4694 24.4928 34.7105C27.393 33.4895 28.9164 30.5244 27.8953 28.0874Z" fill="#A94223"/>
<path d="M18.3502 22.8685L11.7918 6.53026C11.7821 6.50564 11.7939 6.47783 11.8185 6.46791C11.8428 6.45786 11.8708 6.46987 11.8807 6.49449L18.4322 22.8157C18.602 22.7081 18.7823 22.6123 18.9737 22.5319C18.9858 22.5267 18.998 22.5225 19.01 22.5175L12.2331 6.34528C12.2228 6.3209 12.2342 6.29285 12.2586 6.28256C12.2831 6.27239 12.311 6.28378 12.3212 6.30829L19.099 22.4825C19.3294 22.3953 19.5635 22.3322 19.7983 22.2933L12.6742 6.16067C12.6636 6.13641 12.6745 6.10811 12.6987 6.09746C12.7229 6.0868 12.7511 6.09782 12.7617 6.12196L19.8968 22.2795C20.0308 22.261 20.1648 22.2492 20.2983 22.2456L17.0029 15.0347L12.878 6.00925L12.8849 6.00619L12.8677 5.97446L10.7572 2.08092L10.4045 2.22939L11.6618 6.48212L11.6337 6.49388L15.0866 15.8265L17.8436 23.2782C17.9982 23.1283 18.1676 22.9913 18.3502 22.8685Z" fill="#602110"/>
<path d="M24.5096 33.8931C24.0106 32.7777 23.4275 31.2977 23.456 30.3128C23.4773 29.582 23.3283 28.8403 23.2156 28.3924C23.0811 28.5381 22.9338 28.6737 22.7751 28.7977L22.8672 29.0063C22.9771 28.983 23.0916 29.04 23.1367 29.1478C23.1878 29.2698 23.1306 29.4102 23.0089 29.4615C22.8871 29.5127 22.7471 29.4554 22.6959 29.3334C22.6515 29.2274 22.689 29.1076 22.7793 29.0444L22.6963 28.8565C22.4692 29.0241 22.22 29.1688 21.9489 29.2837L22.0621 29.5534C22.1712 29.5316 22.2843 29.5888 22.3292 29.6956C22.3803 29.8177 22.3231 29.9582 22.2013 30.0094C22.0796 30.0606 21.9395 30.0032 21.8883 29.8812C21.8435 29.7743 21.8819 29.6533 21.974 29.5905L21.8602 29.3188C21.6182 29.4141 21.372 29.4821 21.1248 29.5236L21.2589 29.8577C21.35 29.8603 21.4355 29.9146 21.4731 30.004C21.5243 30.126 21.467 30.2665 21.3452 30.3177C21.2235 30.3689 21.0833 30.3116 21.0322 30.1896C20.981 30.0676 21.0383 29.927 21.16 29.8758L21.1627 29.875L21.0278 29.5388C20.821 29.5679 20.614 29.5799 20.4089 29.5739C20.6491 29.9681 21.0733 30.5938 21.6087 31.0905C22.3304 31.7596 22.9766 33.213 23.4219 34.351C23.4698 34.4735 23.5546 34.5702 23.6579 34.6345C23.8147 34.7323 24.0151 34.7555 24.1988 34.6781C24.3901 34.5975 24.5168 34.428 24.5514 34.2382C24.572 34.1255 24.56 34.0058 24.5096 33.8931Z" fill="#602110"/>
<path d="M21.0596 24.2148C20.9417 24.1158 20.8728 23.9725 20.8568 23.8221C20.8523 23.8419 20.8474 23.8615 20.8447 23.8819C20.8176 24.0842 20.8878 24.2962 21.0455 24.4287C21.2637 24.612 21.5825 24.4871 21.6667 24.2246C21.6855 24.1661 21.6856 24.0995 21.6703 24.0377C21.5733 24.2813 21.2699 24.3916 21.0596 24.2148Z" fill="#A94223"/>
<path d="M24.2337 27.5594C23.8542 27.5738 23.5188 27.396 23.2603 27.1267C22.6767 26.5186 22.756 25.6401 22.5587 24.881C22.475 24.5583 22.2953 24.2573 22.0731 24.0107C22.0534 23.9889 22.0332 23.9675 22.0125 23.9468L21.9678 23.9072C21.928 23.8732 21.8863 23.8409 21.8427 23.8117C21.829 23.8025 21.7695 23.7698 21.7954 23.7824C21.7833 23.7761 21.7712 23.7698 21.7588 23.764C21.7224 23.7471 21.6849 23.7347 21.6475 23.7206L21.6379 23.7187C21.6873 23.7845 21.7031 23.8738 21.6915 23.956C21.7094 23.9627 21.7273 23.9697 21.7449 23.9779C21.7572 23.9836 21.7693 23.99 21.7814 23.9963C21.7555 23.9836 21.815 24.0164 21.8287 24.0255C21.8724 24.0547 21.9139 24.0869 21.9539 24.1211L21.9984 24.1605C22.0192 24.1812 22.0395 24.2027 22.059 24.2244C22.2812 24.471 22.4609 24.772 22.5446 25.0946C22.7418 25.8537 22.6625 26.7323 23.2461 27.3404C23.5045 27.6096 23.8399 27.7874 24.2194 27.7731C24.5323 27.7612 24.8575 27.5875 25.0312 27.3248C25.1387 27.1624 25.1822 26.9699 25.175 26.7769C25.1545 26.8951 25.1127 27.009 25.0453 27.1109C24.8717 27.3738 24.5466 27.5475 24.2337 27.5594Z" fill="#A94223"/>
<path d="M24.6183 26.6647C24.6205 26.6286 24.6204 26.5996 24.6154 26.5627C24.6078 26.508 24.5915 26.4571 24.5725 26.4062C24.55 26.4199 24.5263 26.4321 24.5001 26.4415C24.3548 26.4929 24.1857 26.4378 24.1245 26.2877C24.117 26.2692 24.113 26.2507 24.1082 26.2322C24.0851 26.2044 24.067 26.1706 24.0565 26.1299C24.0371 26.1817 24.0279 26.2381 24.0339 26.2965C24.0402 26.3594 24.0626 26.4083 24.0942 26.446C24.0989 26.4645 24.103 26.483 24.1104 26.5015C24.1716 26.6516 24.3407 26.7067 24.4861 26.6552C24.5122 26.646 24.5359 26.6337 24.5583 26.6199C24.5736 26.6605 24.5855 26.7015 24.5942 26.7438L24.604 26.7243C24.6203 26.6768 24.6159 26.7039 24.6183 26.6647Z" fill="#A94223"/>
<path d="M21.5338 23.7067L21.5432 23.7058L21.5413 23.7057L21.5338 23.7067Z" fill="#A94223"/>
<path d="M18.8738 25.2051C18.8152 25.4373 18.5436 25.5281 18.3337 25.4402C18.367 25.4953 18.4148 25.5425 18.47 25.5702C18.6827 25.677 18.9751 25.5864 19.0361 25.3448C19.0798 25.1713 19.0273 24.9901 18.9165 24.8523C18.8698 24.7943 18.8134 24.7472 18.7516 24.7099L18.7543 24.7127C18.865 24.8505 18.9175 25.0317 18.8738 25.2051Z" fill="#A94223"/>
<path d="M18.2188 28.7736C18.2833 28.9233 18.2036 29.0821 18.0654 29.15C18.0403 29.1624 18.0147 29.1708 17.9889 29.1773C17.9948 29.1901 18.0005 29.2028 18.0067 29.2153C18.0403 29.2827 18.0845 29.3416 18.1417 29.391C18.16 29.4068 18.1878 29.421 18.2162 29.4312C18.1991 29.4069 18.1825 29.3822 18.1689 29.355C18.1628 29.3425 18.1571 29.3297 18.1511 29.3171C18.1769 29.3106 18.2024 29.3022 18.2276 29.2898C18.3657 29.2219 18.4454 29.0632 18.381 28.9133C18.3728 28.8943 18.3628 28.8771 18.3525 28.8602C18.3471 28.812 18.3282 28.7627 18.2886 28.7151C18.2489 28.6673 18.2011 28.6308 18.1484 28.6062C18.173 28.6441 18.186 28.6828 18.1903 28.7206C18.2006 28.7374 18.2107 28.7547 18.2188 28.7736Z" fill="#A94223"/>
<path d="M18.9969 30.0318C19.3199 29.8495 19.5173 29.5352 19.5714 29.1689C19.6939 28.3376 19.1069 27.6914 18.654 27.0715C18.4314 26.7668 18.2817 26.4479 18.2206 26.0738C18.2093 26.005 18.2008 25.9356 18.196 25.866C18.1941 25.8368 18.1926 25.8074 18.192 25.778C18.1906 25.7193 18.1924 25.7568 18.192 25.7693C18.1926 25.7516 18.1932 25.734 18.1942 25.7162C18.1974 25.6633 18.2034 25.6105 18.2126 25.5583C18.2158 25.5402 18.22 25.5222 18.224 25.5042C18.2258 25.4979 18.2315 25.4767 18.2362 25.463C18.2436 25.4413 18.2524 25.4207 18.2615 25.4002C18.195 25.351 18.1426 25.277 18.13 25.1958C18.1249 25.2054 18.1195 25.2165 18.1165 25.2231C18.1187 25.2182 18.1226 25.2097 18.1293 25.194C18.1103 25.2374 18.0894 25.2785 18.074 25.3233C18.0693 25.3371 18.0636 25.3583 18.0618 25.3645C18.0578 25.3825 18.0536 25.4004 18.0504 25.4187C18.0412 25.4708 18.0353 25.5238 18.032 25.5767C18.031 25.5943 18.0303 25.612 18.0298 25.6296C18.0302 25.6171 18.0284 25.5796 18.0298 25.6383C18.0304 25.6677 18.0319 25.6971 18.0338 25.7264C18.0386 25.796 18.0471 25.8653 18.0584 25.9342C18.1194 26.3083 18.2692 26.6273 18.4918 26.9319C18.9447 27.5517 19.5318 28.1979 19.4092 29.0293C19.3551 29.3956 19.1577 29.71 18.8347 29.8923C18.5642 30.0449 18.2031 30.0777 17.9241 29.9285C17.8956 29.9132 17.8675 29.8952 17.8397 29.8758C17.9157 29.9552 17.9997 30.0217 18.0864 30.0681C18.3654 30.2173 18.7264 30.1844 18.9969 30.0318Z" fill="#A94223"/>
<path d="M21.2581 23.1764C21.0393 23.2454 20.8893 23.4407 20.8588 23.668C20.8519 23.7193 20.8514 23.7711 20.8568 23.8221C20.8728 23.9726 20.9418 24.116 21.0596 24.2148C21.2701 24.3916 21.5734 24.2813 21.6704 24.0377C21.6739 24.0287 21.6778 24.02 21.6807 24.0109C21.6864 23.9933 21.6889 23.9746 21.6915 23.956C21.7032 23.8738 21.6874 23.7845 21.638 23.7187L21.6475 23.7206C21.6849 23.7347 21.7224 23.7471 21.7589 23.764C21.7712 23.7698 21.7833 23.7761 21.7954 23.7824C21.7696 23.7698 21.829 23.8025 21.8427 23.8117C21.8863 23.8408 21.9279 23.873 21.9679 23.9072L22.0125 23.9468C22.0333 23.9675 22.0534 23.9889 22.0731 24.0107C22.2953 24.2573 22.475 24.5583 22.5587 24.881C22.756 25.6402 22.6766 26.5186 23.2603 27.1267C23.5187 27.396 23.8541 27.5738 24.2338 27.5594C24.5467 27.5475 24.8717 27.3738 25.0455 27.1112C25.1128 27.0093 25.1547 26.8953 25.1752 26.7771C25.2264 26.4819 25.1414 26.1583 24.9643 25.9185C24.8718 25.7929 24.7283 25.707 24.5775 25.6953C24.3374 25.5554 24.0193 25.7961 24.048 26.0828C24.0497 26.0995 24.0526 26.1152 24.0565 26.13C24.0672 26.1707 24.0851 26.2047 24.1082 26.2323C24.113 26.2508 24.1169 26.2693 24.1245 26.2878C24.1856 26.4379 24.3548 26.493 24.5001 26.4416C24.5263 26.4323 24.55 26.42 24.5725 26.4063C24.5915 26.4574 24.6077 26.5081 24.6154 26.5629C24.6204 26.5996 24.6206 26.6286 24.6183 26.6648C24.6159 26.704 24.6203 26.6769 24.604 26.7246L24.5942 26.744C24.5611 26.8168 24.4853 26.8895 24.4259 26.9203C24.3115 26.9797 24.2312 26.9973 24.1273 26.985C23.8652 26.9544 23.641 26.7382 23.5192 26.5207C23.3306 26.1837 23.2864 25.789 23.2337 25.4132C23.1771 25.0088 23.1143 24.594 22.9156 24.2312C22.7594 23.946 22.5765 23.6812 22.3321 23.4646C22.0413 23.2069 21.6401 23.0558 21.2581 23.1764ZM21.5338 23.7067L21.5413 23.7057L21.5432 23.7058L21.5338 23.7067Z" fill="#34150E"/>
<path d="M18.8346 29.8921C19.1578 29.7099 19.3551 29.3956 19.4091 29.0292C19.5317 28.1978 18.9446 27.5516 18.4918 26.9318C18.2692 26.6272 18.1195 26.3083 18.0583 25.934C18.0471 25.8652 18.0385 25.7959 18.0338 25.7263C18.0318 25.697 18.0303 25.6676 18.0297 25.6382C18.0284 25.5795 18.0301 25.617 18.0297 25.6295C18.0302 25.6119 18.031 25.5942 18.0319 25.5766C18.0351 25.5236 18.0411 25.4708 18.0504 25.4185C18.0536 25.4004 18.0577 25.3824 18.0618 25.3644C18.0635 25.3581 18.0692 25.3371 18.074 25.3232C18.0894 25.2783 18.1103 25.2372 18.1292 25.1939C18.1225 25.2094 18.1186 25.218 18.1164 25.223C18.1195 25.2164 18.1248 25.2053 18.13 25.1957C18.1426 25.2769 18.195 25.351 18.2615 25.4C18.2765 25.4111 18.2914 25.4223 18.3077 25.4305L18.3337 25.4402C18.5436 25.5281 18.8152 25.4373 18.8737 25.2051C18.9175 25.0317 18.8651 24.8505 18.7542 24.7127L18.7515 24.7099C18.5883 24.5096 18.3155 24.4261 18.0736 24.5145C17.7319 24.6394 17.5416 25.005 17.4815 25.3433C17.3614 26.0193 17.6377 26.7318 18.0273 27.2691C18.3939 27.7745 19.0477 28.425 18.8083 29.0862C18.781 29.1621 18.755 29.2116 18.704 29.2757C18.6725 29.3151 18.6892 29.2967 18.6593 29.321C18.649 29.3295 18.5893 29.3732 18.5924 29.3733C18.5636 29.3901 18.5323 29.4038 18.5017 29.4161C18.4879 29.4216 18.4083 29.4439 18.4443 29.4361C18.3549 29.4554 18.3391 29.455 18.2652 29.4443C18.2499 29.4421 18.233 29.437 18.2163 29.431C18.1879 29.4209 18.16 29.4067 18.1417 29.3909C18.0845 29.3415 18.0404 29.2827 18.0068 29.2152C18.0005 29.2027 17.9948 29.1899 17.9889 29.1772C18.0147 29.1708 18.0404 29.1624 18.0654 29.1499C18.2037 29.082 18.2835 28.9233 18.2188 28.7734C18.2108 28.7544 18.2006 28.7373 18.1905 28.7203C18.1862 28.6824 18.1731 28.6437 18.1485 28.6058C18.1419 28.5956 18.1349 28.5853 18.1264 28.5752C18.0295 28.4587 17.8862 28.4051 17.738 28.4433C17.6181 28.4742 17.5196 28.5633 17.4837 28.678C17.4193 28.7514 17.3765 28.8447 17.3642 28.9459C17.3225 29.287 17.5572 29.6796 17.8397 29.8757C17.8674 29.8951 17.8957 29.9131 17.924 29.9284C18.2031 30.0776 18.5641 30.0448 18.8346 29.8921Z" fill="#34150E"/>
<path d="M22.6849 27.2958C22.785 27.1773 22.8008 27.0053 22.6849 26.8892C22.5822 26.7862 22.3797 26.7701 22.2792 26.8892C22.2048 26.9772 22.1251 27.0594 22.0414 27.1364L22.2855 27.6891C22.4297 27.5703 22.5638 27.439 22.6849 27.2958Z" fill="#F39D83"/>
<path d="M21.1727 27.6787C20.9427 27.7679 20.7005 27.8255 20.4526 27.8495L20.6748 28.4029C20.9214 28.3662 21.1633 28.3011 21.3953 28.21L21.1727 27.6787Z" fill="#F39D83"/>
<path d="M20.102 27.8613C19.7327 27.8486 19.7331 28.4237 20.102 28.4363C20.2607 28.4418 20.4193 28.4338 20.5766 28.4154L20.3526 27.8572C20.2695 27.862 20.186 27.8641 20.102 27.8613Z" fill="#F39D83"/>
<path d="M21.9664 27.2033C21.7536 27.3856 21.5155 27.5331 21.2611 27.6422L21.4839 28.174C21.742 28.0641 21.9858 27.9216 22.2077 27.75L21.9664 27.2033Z" fill="#F39D83"/>
<path d="M12.608 1.81962L12.7568 2.17463L13.1975 1.98904L12.8926 0.765961L12.2754 1.02579L12.404 1.33303L11.2985 1.91823L11.4855 2.27117L12.608 1.81962Z" fill="#602110"/>
<path d="M13.4965 3.94004L13.6453 4.29542L14.0862 4.10983L13.7813 2.88687L13.164 3.14658L13.2939 3.45652L12.3721 3.94433L12.5679 4.31355L13.4965 3.94004Z" fill="#602110"/>
<path d="M8.53345 2.96234L8.40462 2.65509L7.78748 2.9148L8.44519 3.98941L8.88608 3.80381L8.73732 3.4488L9.95461 2.91346L9.83385 2.5457L8.53345 2.96234Z" fill="#602110"/>
<path d="M9.42334 5.08569L9.29341 4.77588L8.67627 5.03571L9.33399 6.11031L9.77487 5.92472L9.62587 5.56933L10.6749 5.10786L10.5492 4.72504L9.42334 5.08569Z" fill="#602110"/>
<path d="M21.2959 30.0786L21.278 30.082C21.2591 30.082 21.2413 30.0706 21.2337 30.052L21.1627 29.8751L21.16 29.876C21.0382 29.9272 20.981 30.0677 21.0321 30.1897C21.0832 30.3117 21.2234 30.369 21.3452 30.3178C21.4669 30.2666 21.5241 30.1261 21.473 30.0041C21.4355 29.9146 21.3499 29.8603 21.2589 29.8578L21.3225 30.0164C21.3323 30.0407 21.3203 30.0687 21.2959 30.0786Z" fill="#210E0A"/>
<path d="M22.1087 29.7885L22.0902 29.7922C22.0715 29.7922 22.0539 29.7812 22.0461 29.7628L21.974 29.5905C21.882 29.6533 21.8436 29.7744 21.8883 29.8812C21.9395 30.0033 22.0796 30.0606 22.2013 30.0094C22.3231 29.9582 22.3803 29.8177 22.3292 29.6956C22.2843 29.5887 22.1713 29.5315 22.0621 29.5534L22.1342 29.7258C22.1445 29.7502 22.133 29.7782 22.1087 29.7885Z" fill="#210E0A"/>
<path d="M22.8987 29.1961L22.8794 29.2001C22.8611 29.2001 22.8436 29.1895 22.8356 29.1716L22.7794 29.0443C22.689 29.1075 22.6516 29.2273 22.6959 29.3333C22.7471 29.4553 22.8872 29.5126 23.0089 29.4614C23.1307 29.4101 23.1879 29.2697 23.1368 29.1477C23.0917 29.04 22.9772 28.9829 22.8673 29.0062L22.923 29.1327C22.9338 29.157 22.9228 29.1853 22.8987 29.1961Z" fill="#210E0A"/>
<path d="M22.2078 27.7499L22.6965 28.8564L22.7795 29.0443L22.8357 29.1716C22.8437 29.1895 22.861 29.2001 22.8795 29.2001L22.8988 29.1961C22.9229 29.1853 22.9339 29.157 22.9231 29.1329L22.8674 29.0063L22.7752 28.7977L22.2855 27.6891L22.0415 27.1364L19.8967 22.2794L12.7616 6.12183C12.751 6.0977 12.7228 6.08667 12.6986 6.09733C12.6744 6.10799 12.6635 6.13629 12.6741 6.16054L19.7982 22.2932L21.9664 27.2033L22.2078 27.7499Z" fill="#FFF4BB"/>
<path d="M21.3954 28.21L21.8601 29.3188L21.9739 29.5905L22.046 29.7628C22.0537 29.7812 22.0714 29.7922 22.0901 29.7922L22.1086 29.7885C22.133 29.7783 22.1444 29.7502 22.1343 29.7258L22.0621 29.5534L21.949 29.2837L21.484 28.1739L21.2612 27.6421L19.0989 22.4824L12.3212 6.30817C12.3109 6.28367 12.2829 6.2724 12.2586 6.28244C12.2341 6.29261 12.2228 6.32079 12.233 6.34517L19.0099 22.5174L21.1728 27.6786L21.3954 28.21Z" fill="#FFF4BB"/>
<path d="M21.2338 30.052C21.2413 30.0708 21.2592 30.082 21.2781 30.082L21.296 30.0786C21.3206 30.0687 21.3324 30.0407 21.3225 30.0162L21.2588 29.8577L21.1247 29.5237L20.6749 28.4029L20.4527 27.8495L18.4321 22.8157L11.8806 6.49449C11.8707 6.46987 11.8427 6.45786 11.8184 6.46791C11.7938 6.47783 11.782 6.50564 11.7918 6.53026L18.3501 22.8685L20.3526 27.8572L20.5767 28.4154L21.0277 29.539L21.1626 29.8751L21.2338 30.052Z" fill="#FFF4BB"/>
<path d="M19.6631 32.4302C18.7238 31.4065 18.9758 30.5886 18.4838 30.6618C18.2956 30.6898 18.1335 30.8096 18.0366 30.9736C17.837 31.3111 17.874 32.5512 18.5176 33.2233C19.4398 34.1865 20.8943 34.4192 22.5074 34.0407C24.1202 33.6626 20.8856 33.7622 19.6631 32.4302Z" fill="#D9623D"/>
<path d="M21.2057 18.3218C21.4109 18.3236 21.5787 18.1585 21.5807 17.9528C21.5825 17.7471 21.4176 17.5789 21.2125 17.5769C21.0073 17.5751 20.8395 17.7402 20.8377 17.9459C20.8357 18.1516 21.0005 18.3199 21.2057 18.3218Z" fill="#D9623D"/>
<path d="M18.3884 15.9219C18.1832 15.9201 18.0154 16.0852 18.0136 16.2909C18.0116 16.4966 18.1765 16.6648 18.3816 16.6666C18.5868 16.6684 18.7548 16.5033 18.7566 16.2976C18.7586 16.0921 18.5937 15.9239 18.3884 15.9219Z" fill="#D9623D"/>
<path d="M20.7511 16.7348C20.7549 16.3235 20.4252 15.9871 20.0148 15.9833C19.6043 15.9796 19.2687 16.3099 19.2649 16.7212C19.2613 17.1326 19.5909 17.469 20.0012 17.4728C20.4117 17.4766 20.7474 17.1462 20.7511 16.7348Z" fill="#D9623D"/>
<path d="M22.0088 6.41438L21.9258 6.46962L21.8744 6.29113L21.8312 6.3209L21.7134 5.9126L25.8509 22.9603L26.0188 22.9365L22.0088 6.41438Z" fill="#602110"/>
<path d="M27.5693 23.153L25.9475 23.6234L25.9944 23.7858L27.7116 23.2878L23.6581 4.73423L23.449 4.61871L24.7651 10.5392L27.5693 23.153Z" fill="#A94223"/>
<path d="M22.0088 6.41437L23.1965 5.62312L23.1501 5.41008L21.8744 6.29113L21.9258 6.46962L22.0088 6.41437Z" fill="#A94223"/>
<path d="M21.8312 6.32091L21.8744 6.29114L23.1502 5.40997L23.1967 5.62312L24.3055 10.7106H24.3057L24.3275 10.7054C24.4802 10.6612 24.6248 10.6032 24.7654 10.5391L23.4492 4.61871L21.5969 5.50809L21.7137 5.91248L21.8312 6.32091Z" fill="#D9623D"/>
<path d="M27.8953 28.0874C27.6995 27.6202 27.4238 27.207 27.0866 26.8517C26.5234 26.034 25.5133 24.7085 25.3612 24.2274C25.3465 24.181 25.2895 24.1668 25.2524 24.1984C24.9302 24.4744 24.4043 24.6544 24.1068 24.3563C23.6869 23.9354 23.4855 22.6675 23.4768 22.1465C23.4697 21.7139 23.6325 21.0355 24.0295 20.9505C24.0789 20.9246 24.0851 20.8478 24.0383 20.8281C23.7447 20.7039 23.3926 20.4288 23.2958 20.0953C23.1557 19.612 23.1231 19.1055 23.0174 18.6155C22.9903 18.1438 22.8858 17.673 22.6954 17.2185C21.8755 15.262 19.8446 14.4891 17.6927 14.9076C19.6602 14.6629 21.4626 15.447 22.2192 17.2525C22.407 17.7008 22.51 18.1652 22.5367 18.6305C22.6409 19.1139 22.6731 19.6132 22.8114 20.09C22.9067 20.4189 23.2541 20.6903 23.5438 20.8128C23.5898 20.8322 23.5836 20.9079 23.535 20.9335C23.1435 21.0173 23.0289 21.537 23.036 21.9636C23.0445 22.4776 23.122 22.9942 23.2656 23.4931C23.3942 23.9398 23.5905 24.3932 23.944 24.6822C24.2635 24.9435 24.8218 24.8159 25.1483 24.5557C25.1885 24.5236 25.2462 24.543 25.2587 24.593C25.3649 25.0177 26.004 25.9611 26.5503 26.7542C26.8829 27.1046 27.1548 27.5121 27.3479 27.973C28.2873 30.2145 27.0433 32.9084 24.5514 34.2383C24.5168 34.4281 24.39 34.5978 24.1988 34.6783C24.0151 34.7557 23.8148 34.7324 23.6579 34.6346C22.1563 35.1754 20.6055 35.1324 19.3462 34.6099C20.7793 35.3751 22.6898 35.4694 24.4928 34.7105C27.393 33.4895 28.9164 30.5244 27.8953 28.0874Z" fill="#A94223"/>
<path d="M18.3502 22.8685L11.7918 6.53026C11.7821 6.50564 11.7939 6.47783 11.8185 6.46791C11.8428 6.45786 11.8708 6.46987 11.8807 6.49449L18.4322 22.8157C18.602 22.7081 18.7823 22.6123 18.9737 22.5319C18.9858 22.5267 18.998 22.5225 19.01 22.5175L12.2331 6.34528C12.2228 6.3209 12.2342 6.29285 12.2586 6.28256C12.2831 6.27239 12.311 6.28378 12.3212 6.30829L19.099 22.4825C19.3294 22.3953 19.5635 22.3322 19.7983 22.2933L12.6742 6.16067C12.6636 6.13641 12.6745 6.10811 12.6987 6.09746C12.7229 6.0868 12.7511 6.09782 12.7617 6.12196L19.8968 22.2795C20.0308 22.261 20.1648 22.2492 20.2983 22.2456L17.0029 15.0347L12.878 6.00925L12.8849 6.00619L12.8677 5.97446L10.7572 2.08092L10.4045 2.22939L11.6618 6.48212L11.6337 6.49388L15.0866 15.8265L17.8436 23.2782C17.9982 23.1283 18.1676 22.9913 18.3502 22.8685Z" fill="#602110"/>
<path d="M24.5096 33.8931C24.0106 32.7777 23.4275 31.2977 23.456 30.3128C23.4773 29.582 23.3283 28.8403 23.2156 28.3924C23.0811 28.5381 22.9338 28.6737 22.7751 28.7977L22.8672 29.0063C22.9771 28.983 23.0916 29.04 23.1367 29.1478C23.1878 29.2698 23.1306 29.4102 23.0089 29.4615C22.8871 29.5127 22.7471 29.4554 22.6959 29.3334C22.6515 29.2274 22.689 29.1076 22.7793 29.0444L22.6963 28.8565C22.4692 29.0241 22.22 29.1688 21.9489 29.2837L22.0621 29.5534C22.1712 29.5316 22.2843 29.5888 22.3292 29.6956C22.3803 29.8177 22.3231 29.9582 22.2013 30.0094C22.0796 30.0606 21.9395 30.0032 21.8883 29.8812C21.8435 29.7743 21.8819 29.6533 21.974 29.5905L21.8602 29.3188C21.6182 29.4141 21.372 29.4821 21.1248 29.5236L21.2589 29.8577C21.35 29.8603 21.4355 29.9146 21.4731 30.004C21.5243 30.126 21.467 30.2665 21.3452 30.3177C21.2235 30.3689 21.0833 30.3116 21.0322 30.1896C20.981 30.0676 21.0383 29.927 21.16 29.8758L21.1627 29.875L21.0278 29.5388C20.821 29.5679 20.614 29.5799 20.4089 29.5739C20.6491 29.9681 21.0733 30.5938 21.6087 31.0905C22.3304 31.7596 22.9766 33.213 23.4219 34.351C23.4698 34.4735 23.5546 34.5702 23.6579 34.6345C23.8147 34.7323 24.0151 34.7555 24.1988 34.6781C24.3901 34.5975 24.5168 34.428 24.5514 34.2382C24.572 34.1255 24.56 34.0058 24.5096 33.8931Z" fill="#602110"/>
<path d="M21.0596 24.2148C20.9417 24.1158 20.8728 23.9725 20.8568 23.8221C20.8523 23.8419 20.8474 23.8615 20.8447 23.8819C20.8176 24.0842 20.8878 24.2962 21.0455 24.4287C21.2637 24.612 21.5825 24.4871 21.6667 24.2246C21.6855 24.1661 21.6856 24.0995 21.6703 24.0377C21.5733 24.2813 21.2699 24.3916 21.0596 24.2148Z" fill="#A94223"/>
<path d="M24.2337 27.5594C23.8542 27.5738 23.5188 27.396 23.2603 27.1267C22.6767 26.5186 22.756 25.6401 22.5587 24.881C22.475 24.5583 22.2953 24.2573 22.0731 24.0107C22.0534 23.9889 22.0332 23.9675 22.0125 23.9468L21.9678 23.9072C21.928 23.8732 21.8863 23.8409 21.8427 23.8117C21.829 23.8025 21.7695 23.7698 21.7954 23.7824C21.7833 23.7761 21.7712 23.7698 21.7588 23.764C21.7224 23.7471 21.6849 23.7347 21.6475 23.7206L21.6379 23.7187C21.6873 23.7845 21.7031 23.8738 21.6915 23.956C21.7094 23.9627 21.7273 23.9697 21.7449 23.9779C21.7572 23.9836 21.7693 23.99 21.7814 23.9963C21.7555 23.9836 21.815 24.0164 21.8287 24.0255C21.8724 24.0547 21.9139 24.0869 21.9539 24.1211L21.9984 24.1605C22.0192 24.1812 22.0395 24.2027 22.059 24.2244C22.2812 24.471 22.4609 24.772 22.5446 25.0946C22.7418 25.8537 22.6625 26.7323 23.2461 27.3404C23.5045 27.6096 23.8399 27.7874 24.2194 27.7731C24.5323 27.7612 24.8575 27.5875 25.0312 27.3248C25.1387 27.1624 25.1822 26.9699 25.175 26.7769C25.1545 26.8951 25.1127 27.009 25.0453 27.1109C24.8717 27.3738 24.5466 27.5475 24.2337 27.5594Z" fill="#A94223"/>
<path d="M24.6183 26.6647C24.6205 26.6286 24.6204 26.5996 24.6154 26.5627C24.6078 26.508 24.5915 26.4571 24.5725 26.4062C24.55 26.4199 24.5263 26.4321 24.5001 26.4415C24.3548 26.4929 24.1857 26.4378 24.1245 26.2877C24.117 26.2692 24.113 26.2507 24.1082 26.2322C24.0851 26.2044 24.067 26.1706 24.0565 26.1299C24.0371 26.1817 24.0279 26.2381 24.0339 26.2965C24.0402 26.3594 24.0626 26.4083 24.0942 26.446C24.0989 26.4645 24.103 26.483 24.1104 26.5015C24.1716 26.6516 24.3407 26.7067 24.4861 26.6552C24.5122 26.646 24.5359 26.6337 24.5583 26.6199C24.5736 26.6605 24.5855 26.7015 24.5942 26.7438L24.604 26.7243C24.6203 26.6768 24.6159 26.7039 24.6183 26.6647Z" fill="#A94223"/>
<path d="M21.5338 23.7067L21.5432 23.7058L21.5413 23.7057L21.5338 23.7067Z" fill="#A94223"/>
<path d="M18.8738 25.2051C18.8152 25.4373 18.5436 25.5281 18.3337 25.4402C18.367 25.4953 18.4148 25.5425 18.47 25.5702C18.6827 25.677 18.9751 25.5864 19.0361 25.3448C19.0798 25.1713 19.0273 24.9901 18.9165 24.8523C18.8698 24.7943 18.8134 24.7472 18.7516 24.7099L18.7543 24.7127C18.865 24.8505 18.9175 25.0317 18.8738 25.2051Z" fill="#A94223"/>
<path d="M18.2188 28.7736C18.2833 28.9233 18.2036 29.0821 18.0654 29.15C18.0403 29.1624 18.0147 29.1708 17.9889 29.1773C17.9948 29.1901 18.0005 29.2028 18.0067 29.2153C18.0403 29.2827 18.0845 29.3416 18.1417 29.391C18.16 29.4068 18.1878 29.421 18.2162 29.4312C18.1991 29.4069 18.1825 29.3822 18.1689 29.355C18.1628 29.3425 18.1571 29.3297 18.1511 29.3171C18.1769 29.3106 18.2024 29.3022 18.2276 29.2898C18.3657 29.2219 18.4454 29.0632 18.381 28.9133C18.3728 28.8943 18.3628 28.8771 18.3525 28.8602C18.3471 28.812 18.3282 28.7627 18.2886 28.7151C18.2489 28.6673 18.2011 28.6308 18.1484 28.6062C18.173 28.6441 18.186 28.6828 18.1903 28.7206C18.2006 28.7374 18.2107 28.7547 18.2188 28.7736Z" fill="#A94223"/>
<path d="M18.9969 30.0318C19.3199 29.8495 19.5173 29.5352 19.5714 29.1689C19.6939 28.3376 19.1069 27.6914 18.654 27.0715C18.4314 26.7668 18.2817 26.4479 18.2206 26.0738C18.2093 26.005 18.2008 25.9356 18.196 25.866C18.1941 25.8368 18.1926 25.8074 18.192 25.778C18.1906 25.7193 18.1924 25.7568 18.192 25.7693C18.1926 25.7516 18.1932 25.734 18.1942 25.7162C18.1974 25.6633 18.2034 25.6105 18.2126 25.5583C18.2158 25.5402 18.22 25.5222 18.224 25.5042C18.2258 25.4979 18.2315 25.4767 18.2362 25.463C18.2436 25.4413 18.2524 25.4207 18.2615 25.4002C18.195 25.351 18.1426 25.277 18.13 25.1958C18.1249 25.2054 18.1195 25.2165 18.1165 25.2231C18.1187 25.2182 18.1226 25.2097 18.1293 25.194C18.1103 25.2374 18.0894 25.2785 18.074 25.3233C18.0693 25.3371 18.0636 25.3583 18.0618 25.3645C18.0578 25.3825 18.0536 25.4004 18.0504 25.4187C18.0412 25.4708 18.0353 25.5238 18.032 25.5767C18.031 25.5943 18.0303 25.612 18.0298 25.6296C18.0302 25.6171 18.0284 25.5796 18.0298 25.6383C18.0304 25.6677 18.0319 25.6971 18.0338 25.7264C18.0386 25.796 18.0471 25.8653 18.0584 25.9342C18.1194 26.3083 18.2692 26.6273 18.4918 26.9319C18.9447 27.5517 19.5318 28.1979 19.4092 29.0293C19.3551 29.3956 19.1577 29.71 18.8347 29.8923C18.5642 30.0449 18.2031 30.0777 17.9241 29.9285C17.8956 29.9132 17.8675 29.8952 17.8397 29.8758C17.9157 29.9552 17.9997 30.0217 18.0864 30.0681C18.3654 30.2173 18.7264 30.1844 18.9969 30.0318Z" fill="#A94223"/>
<path d="M21.2581 23.1764C21.0393 23.2454 20.8893 23.4407 20.8588 23.668C20.8519 23.7193 20.8514 23.7711 20.8568 23.8221C20.8728 23.9726 20.9418 24.116 21.0596 24.2148C21.2701 24.3916 21.5734 24.2813 21.6704 24.0377C21.6739 24.0287 21.6778 24.02 21.6807 24.0109C21.6864 23.9933 21.6889 23.9746 21.6915 23.956C21.7032 23.8738 21.6874 23.7845 21.638 23.7187L21.6475 23.7206C21.6849 23.7347 21.7224 23.7471 21.7589 23.764C21.7712 23.7698 21.7833 23.7761 21.7954 23.7824C21.7696 23.7698 21.829 23.8025 21.8427 23.8117C21.8863 23.8408 21.9279 23.873 21.9679 23.9072L22.0125 23.9468C22.0333 23.9675 22.0534 23.9889 22.0731 24.0107C22.2953 24.2573 22.475 24.5583 22.5587 24.881C22.756 25.6402 22.6766 26.5186 23.2603 27.1267C23.5187 27.396 23.8541 27.5738 24.2338 27.5594C24.5467 27.5475 24.8717 27.3738 25.0455 27.1112C25.1128 27.0093 25.1547 26.8953 25.1752 26.7771C25.2264 26.4819 25.1414 26.1583 24.9643 25.9185C24.8718 25.7929 24.7283 25.707 24.5775 25.6953C24.3374 25.5554 24.0193 25.7961 24.048 26.0828C24.0497 26.0995 24.0526 26.1152 24.0565 26.13C24.0672 26.1707 24.0851 26.2047 24.1082 26.2323C24.113 26.2508 24.1169 26.2693 24.1245 26.2878C24.1856 26.4379 24.3548 26.493 24.5001 26.4416C24.5263 26.4323 24.55 26.42 24.5725 26.4063C24.5915 26.4574 24.6077 26.5081 24.6154 26.5629C24.6204 26.5996 24.6206 26.6286 24.6183 26.6648C24.6159 26.704 24.6203 26.6769 24.604 26.7246L24.5942 26.744C24.5611 26.8168 24.4853 26.8895 24.4259 26.9203C24.3115 26.9797 24.2312 26.9973 24.1273 26.985C23.8652 26.9544 23.641 26.7382 23.5192 26.5207C23.3306 26.1837 23.2864 25.789 23.2337 25.4132C23.1771 25.0088 23.1143 24.594 22.9156 24.2312C22.7594 23.946 22.5765 23.6812 22.3321 23.4646C22.0413 23.2069 21.6401 23.0558 21.2581 23.1764ZM21.5338 23.7067L21.5413 23.7057L21.5432 23.7058L21.5338 23.7067Z" fill="#34150E"/>
<path d="M18.8346 29.8921C19.1578 29.7099 19.3551 29.3956 19.4091 29.0292C19.5317 28.1978 18.9446 27.5516 18.4918 26.9318C18.2692 26.6272 18.1195 26.3083 18.0583 25.934C18.0471 25.8652 18.0385 25.7959 18.0338 25.7263C18.0318 25.697 18.0303 25.6676 18.0297 25.6382C18.0284 25.5795 18.0301 25.617 18.0297 25.6295C18.0302 25.6119 18.031 25.5942 18.0319 25.5766C18.0351 25.5236 18.0411 25.4708 18.0504 25.4185C18.0536 25.4004 18.0577 25.3824 18.0618 25.3644C18.0635 25.3581 18.0692 25.3371 18.074 25.3232C18.0894 25.2783 18.1103 25.2372 18.1292 25.1939C18.1225 25.2094 18.1186 25.218 18.1164 25.223C18.1195 25.2164 18.1248 25.2053 18.13 25.1957C18.1426 25.2769 18.195 25.351 18.2615 25.4C18.2765 25.4111 18.2914 25.4223 18.3077 25.4305L18.3337 25.4402C18.5436 25.5281 18.8152 25.4373 18.8737 25.2051C18.9175 25.0317 18.8651 24.8505 18.7542 24.7127L18.7515 24.7099C18.5883 24.5096 18.3155 24.4261 18.0736 24.5145C17.7319 24.6394 17.5416 25.005 17.4815 25.3433C17.3614 26.0193 17.6377 26.7318 18.0273 27.2691C18.3939 27.7745 19.0477 28.425 18.8083 29.0862C18.781 29.1621 18.755 29.2116 18.704 29.2757C18.6725 29.3151 18.6892 29.2967 18.6593 29.321C18.649 29.3295 18.5893 29.3732 18.5924 29.3733C18.5636 29.3901 18.5323 29.4038 18.5017 29.4161C18.4879 29.4216 18.4083 29.4439 18.4443 29.4361C18.3549 29.4554 18.3391 29.455 18.2652 29.4443C18.2499 29.4421 18.233 29.437 18.2163 29.431C18.1879 29.4209 18.16 29.4067 18.1417 29.3909C18.0845 29.3415 18.0404 29.2827 18.0068 29.2152C18.0005 29.2027 17.9948 29.1899 17.9889 29.1772C18.0147 29.1708 18.0404 29.1624 18.0654 29.1499C18.2037 29.082 18.2835 28.9233 18.2188 28.7734C18.2108 28.7544 18.2006 28.7373 18.1905 28.7203C18.1862 28.6824 18.1731 28.6437 18.1485 28.6058C18.1419 28.5956 18.1349 28.5853 18.1264 28.5752C18.0295 28.4587 17.8862 28.4051 17.738 28.4433C17.6181 28.4742 17.5196 28.5633 17.4837 28.678C17.4193 28.7514 17.3765 28.8447 17.3642 28.9459C17.3225 29.287 17.5572 29.6796 17.8397 29.8757C17.8674 29.8951 17.8957 29.9131 17.924 29.9284C18.2031 30.0776 18.5641 30.0448 18.8346 29.8921Z" fill="#34150E"/>
<path d="M22.6849 27.2958C22.785 27.1773 22.8008 27.0053 22.6849 26.8892C22.5822 26.7862 22.3797 26.7701 22.2792 26.8892C22.2048 26.9772 22.1251 27.0594 22.0414 27.1364L22.2855 27.6891C22.4297 27.5703 22.5638 27.439 22.6849 27.2958Z" fill="#F39D83"/>
<path d="M21.1727 27.6787C20.9427 27.7679 20.7005 27.8255 20.4526 27.8495L20.6748 28.4029C20.9214 28.3662 21.1633 28.3011 21.3953 28.21L21.1727 27.6787Z" fill="#F39D83"/>
<path d="M20.102 27.8613C19.7327 27.8486 19.7331 28.4237 20.102 28.4363C20.2607 28.4418 20.4193 28.4338 20.5766 28.4154L20.3526 27.8572C20.2695 27.862 20.186 27.8641 20.102 27.8613Z" fill="#F39D83"/>
<path d="M21.9664 27.2033C21.7536 27.3856 21.5155 27.5331 21.2611 27.6422L21.4839 28.174C21.742 28.0641 21.9858 27.9216 22.2077 27.75L21.9664 27.2033Z" fill="#F39D83"/>
<path d="M12.608 1.81962L12.7568 2.17463L13.1975 1.98904L12.8926 0.765961L12.2754 1.02579L12.404 1.33303L11.2985 1.91823L11.4855 2.27117L12.608 1.81962Z" fill="#602110"/>
<path d="M13.4965 3.94004L13.6453 4.29542L14.0862 4.10983L13.7813 2.88687L13.164 3.14658L13.2939 3.45652L12.3721 3.94433L12.5679 4.31355L13.4965 3.94004Z" fill="#602110"/>
<path d="M8.53345 2.96234L8.40462 2.65509L7.78748 2.9148L8.44519 3.98941L8.88608 3.80381L8.73732 3.4488L9.95461 2.91346L9.83385 2.5457L8.53345 2.96234Z" fill="#602110"/>
<path d="M9.42334 5.08569L9.29341 4.77588L8.67627 5.03571L9.33399 6.11031L9.77487 5.92472L9.62587 5.56933L10.6749 5.10786L10.5492 4.72504L9.42334 5.08569Z" fill="#602110"/>
<path d="M21.2959 30.0786L21.278 30.082C21.2591 30.082 21.2413 30.0706 21.2337 30.052L21.1627 29.8751L21.16 29.876C21.0382 29.9272 20.981 30.0677 21.0321 30.1897C21.0832 30.3117 21.2234 30.369 21.3452 30.3178C21.4669 30.2666 21.5241 30.1261 21.473 30.0041C21.4355 29.9146 21.3499 29.8603 21.2589 29.8578L21.3225 30.0164C21.3323 30.0407 21.3203 30.0687 21.2959 30.0786Z" fill="#210E0A"/>
<path d="M22.1087 29.7885L22.0902 29.7922C22.0715 29.7922 22.0539 29.7812 22.0461 29.7628L21.974 29.5905C21.882 29.6533 21.8436 29.7744 21.8883 29.8812C21.9395 30.0033 22.0796 30.0606 22.2013 30.0094C22.3231 29.9582 22.3803 29.8177 22.3292 29.6956C22.2843 29.5887 22.1713 29.5315 22.0621 29.5534L22.1342 29.7258C22.1445 29.7502 22.133 29.7782 22.1087 29.7885Z" fill="#210E0A"/>
<path d="M22.8987 29.1961L22.8794 29.2001C22.8611 29.2001 22.8436 29.1895 22.8356 29.1716L22.7794 29.0443C22.689 29.1075 22.6516 29.2273 22.6959 29.3333C22.7471 29.4553 22.8872 29.5126 23.0089 29.4614C23.1307 29.4101 23.1879 29.2697 23.1368 29.1477C23.0917 29.04 22.9772 28.9829 22.8673 29.0062L22.923 29.1327C22.9338 29.157 22.9228 29.1853 22.8987 29.1961Z" fill="#210E0A"/>
<path d="M22.2078 27.7499L22.6965 28.8564L22.7795 29.0443L22.8357 29.1716C22.8437 29.1895 22.861 29.2001 22.8795 29.2001L22.8988 29.1961C22.9229 29.1853 22.9339 29.157 22.9231 29.1329L22.8674 29.0063L22.7752 28.7977L22.2855 27.6891L22.0415 27.1364L19.8967 22.2794L12.7616 6.12183C12.751 6.0977 12.7228 6.08667 12.6986 6.09733C12.6744 6.10799 12.6635 6.13629 12.6741 6.16054L19.7982 22.2932L21.9664 27.2033L22.2078 27.7499Z" fill="#FFF4BB"/>
<path d="M21.3954 28.21L21.8601 29.3188L21.9739 29.5905L22.046 29.7628C22.0537 29.7812 22.0714 29.7922 22.0901 29.7922L22.1086 29.7885C22.133 29.7783 22.1444 29.7502 22.1343 29.7258L22.0621 29.5534L21.949 29.2837L21.484 28.1739L21.2612 27.6421L19.0989 22.4824L12.3212 6.30817C12.3109 6.28367 12.2829 6.2724 12.2586 6.28244C12.2341 6.29261 12.2228 6.32079 12.233 6.34517L19.0099 22.5174L21.1728 27.6786L21.3954 28.21Z" fill="#FFF4BB"/>
<path d="M21.2338 30.052C21.2413 30.0708 21.2592 30.082 21.2781 30.082L21.296 30.0786C21.3206 30.0687 21.3324 30.0407 21.3225 30.0162L21.2588 29.8577L21.1247 29.5237L20.6749 28.4029L20.4527 27.8495L18.4321 22.8157L11.8806 6.49449C11.8707 6.46987 11.8427 6.45786 11.8184 6.46791C11.7938 6.47783 11.782 6.50564 11.7918 6.53026L18.3501 22.8685L20.3526 27.8572L20.5767 28.4154L21.0277 29.539L21.1626 29.8751L21.2338 30.052Z" fill="#FFF4BB"/>
<path d="M19.6631 32.4302C18.7238 31.4065 18.9758 30.5886 18.4838 30.6618C18.2956 30.6898 18.1335 30.8096 18.0366 30.9736C17.837 31.3111 17.874 32.5512 18.5176 33.2233C19.4398 34.1865 20.8943 34.4192 22.5074 34.0407C24.1202 33.6626 20.8856 33.7622 19.6631 32.4302Z" fill="#D9623D"/>
<path d="M21.2057 18.3218C21.4109 18.3236 21.5787 18.1585 21.5807 17.9528C21.5825 17.7471 21.4176 17.5789 21.2125 17.5769C21.0073 17.5751 20.8395 17.7402 20.8377 17.9459C20.8357 18.1516 21.0005 18.3199 21.2057 18.3218Z" fill="#D9623D"/>
<path d="M18.3884 15.9219C18.1832 15.9201 18.0154 16.0852 18.0136 16.2909C18.0116 16.4966 18.1765 16.6648 18.3816 16.6666C18.5868 16.6684 18.7548 16.5033 18.7566 16.2976C18.7586 16.0921 18.5937 15.9239 18.3884 15.9219Z" fill="#D9623D"/>
<path d="M20.7511 16.7348C20.7549 16.3235 20.4252 15.9871 20.0148 15.9833C19.6043 15.9796 19.2687 16.3099 19.2649 16.7212C19.2613 17.1326 19.5909 17.469 20.0012 17.4728C20.4117 17.4766 20.7474 17.1462 20.7511 16.7348Z" fill="#D9623D"/>
<path d="M22.0088 6.41438L21.9258 6.46962L21.8744 6.29113L21.8312 6.3209L21.7134 5.9126L25.8509 22.9603L26.0188 22.9365L22.0088 6.41438Z" fill="#602110"/>
<path d="M27.5693 23.153L25.9475 23.6234L25.9944 23.7858L27.7116 23.2878L23.6581 4.73423L23.449 4.61871L24.7651 10.5392L27.5693 23.153Z" fill="#A94223"/>
<path d="M22.0088 6.41437L23.1965 5.62312L23.1501 5.41008L21.8744 6.29113L21.9258 6.46962L22.0088 6.41437Z" fill="#A94223"/>
<path d="M21.8312 6.32091L21.8744 6.29114L23.1502 5.40997L23.1967 5.62312L24.3055 10.7106H24.3057L24.3275 10.7054C24.4802 10.6612 24.6248 10.6032 24.7654 10.5391L23.4492 4.61871L21.5969 5.50809L21.7137 5.91248L21.8312 6.32091Z" fill="#D9623D"/>
<defs>
<linearGradient id="paint0_linear_14_16836" x1="0" y1="18" x2="36" y2="18" gradientUnits="userSpaceOnUse">
<stop stop-color="#83247C"/>
<stop offset="1" stop-color="#363787"/>
</linearGradient>
</defs>
</svg>
