<svg width="36" height="36" viewBox="0 0 36 36" fill="none" xmlns="http://www.w3.org/2000/svg">
<path d="M30.1015 1.62766C29.9908 1.41522 29.7843 1.20737 29.51 1.05791C29.0368 0.800116 28.5254 0.804203 28.29 1.04769L27.4445 0.485219L27.5393 0.312122L27.2006 0.127655L26.954 0.80778L27.1959 0.939614L27.3025 0.744801L28.1898 1.20993C28.1575 1.30063 28.1532 1.4004 28.1759 1.50375C28.2188 1.69792 28.1671 1.90053 28.021 2.03569L27.7613 2.27611L26.8105 1.64363L26.9053 1.47041L26.5667 1.28594L26.3201 1.96606L26.5619 2.0979L26.6685 1.90308L27.6234 2.40373L26.8623 3.10825L26.2366 2.69218L26.3315 2.51895L25.9928 2.33449L25.7462 3.01461L25.9881 3.14632L26.0947 2.95151L26.6939 3.26564C26.4009 3.55064 26.4657 4.03927 26.8273 4.23626L26.8533 4.25823L26.8586 4.27535L18.0439 18.5254C18.0011 18.536 17.9581 18.5459 17.9153 18.5567C17.0004 18.7907 16.1021 19.0797 15.2251 19.4161C14.0926 19.8505 12.9951 20.3656 11.9455 20.9582C10.71 21.6559 9.54113 22.4618 8.46242 23.3695C7.59948 24.0956 5.76321 25.9829 5.66576 26.16C5.64873 26.1909 5.63439 26.2224 5.62031 26.2541C5.53912 26.4369 5.50737 26.6314 5.51877 26.8227C5.43003 27.2263 5.54527 27.6541 5.82366 27.9741C5.85464 28.0096 5.88755 28.0437 5.92251 28.0764C6.19961 28.3714 6.48376 28.6601 6.77534 28.9414C7.35682 29.5026 7.96634 30.0361 8.60071 30.5394C10.0048 31.6536 11.5294 32.619 13.1335 33.4248C14.4364 34.0794 15.7917 34.63 17.1796 35.0702C17.998 35.3298 20.1696 35.894 20.4191 35.8717C20.8418 35.8336 21.2322 35.6024 21.4454 35.2147C21.4694 35.1713 21.4899 35.1268 21.508 35.0818C21.5367 35.0113 21.5582 34.9393 21.5734 34.8666C21.6653 34.5724 21.7522 34.2764 21.8318 33.9783C22.0075 33.3198 22.1528 32.6527 22.2674 31.9795C22.5112 30.5471 22.6153 29.0878 22.5856 27.6265C22.56 26.3688 22.4357 25.1095 22.2182 23.8626C22.0446 22.8666 21.8118 21.8781 21.5184 20.9051C21.469 20.7411 21.4173 20.5778 21.3643 20.4147L28.6792 5.4482C29.0286 5.5785 29.4248 5.36452 29.493 4.98422L29.809 3.22041C29.8441 3.0247 29.987 2.87179 30.1738 2.80281C30.2975 2.7572 30.3958 2.68068 30.4542 2.57401C30.6032 2.30153 30.4476 1.91726 30.1015 1.62766Z" fill="#CC6D26"/>
<path d="M14.8068 32.7751C15.4194 32.9205 14.1702 32.0517 12.9405 31.3653L12.9411 31.3643C12.9088 31.3466 12.8764 31.3291 12.8438 31.3115C12.8114 31.2936 12.779 31.2759 12.7467 31.2584L12.7462 31.2594C11.5026 30.5984 10.0947 30.0195 10.5485 30.4551C11.0958 30.9803 11.153 31.3999 11.0741 31.7197C11.0631 31.7646 11.06 31.8097 11.0613 31.8543C11.0668 32.026 11.1599 32.1867 11.317 32.2722L12.8592 33.1124C13.0165 33.1981 13.2027 33.1893 13.3506 33.1005C13.3887 33.0776 13.4246 33.0509 13.4563 33.0176C13.6832 32.7783 14.068 32.5996 14.8068 32.7751Z" fill="#5A2E12"/>
<path d="M15.8438 33.0527C17.1029 34.0766 18.4846 34.4967 19.7107 34.0474C20.5662 33.734 21.131 32.6622 21.1 32.2803C21.0849 32.0948 20.9935 31.9202 20.8397 31.8149C20.4375 31.5396 20.3085 32.3654 19.0415 32.8602C17.3924 33.504 14.5845 32.0287 15.8438 33.0527Z" fill="#DE7E36"/>
<path d="M28.5371 5.3939C28.4172 5.35852 28.2998 5.31649 28.1848 5.26935L21.0841 19.6051C21.1828 19.8734 21.276 20.1433 21.3641 20.4147L28.6791 5.4482C28.6519 5.43798 28.625 5.42635 28.5984 5.41204L28.5371 5.3939Z" fill="#502A12"/>
<path d="M20.8689 20.0394C20.9467 20.2706 21.0204 20.5028 21.0907 20.736C21.3758 21.6814 21.6019 22.6419 21.7707 23.6096C21.982 24.8212 22.1027 26.0446 22.1277 27.2668C22.1566 28.6867 22.0555 30.1046 21.8185 31.4964C21.7072 32.1505 21.5659 32.7987 21.3952 33.4385C21.3179 33.7281 21.2335 34.0157 21.1443 34.3016C21.1295 34.3723 21.1087 34.4423 21.0809 34.5108C21.0631 34.5545 21.0432 34.5977 21.0201 34.6398C20.8129 35.0164 20.4334 35.2413 20.0226 35.2782C19.7805 35.2999 17.6702 34.7516 16.8751 34.4994C15.6703 34.1173 14.4912 33.6489 13.3507 33.1001C13.2028 33.1889 13.0166 33.1977 12.8592 33.112L11.3171 32.2718C11.1601 32.1863 11.0669 32.0256 11.0614 31.8539C10.1859 31.3193 9.34188 30.7338 8.53925 30.097C7.92294 29.6079 7.33057 29.0896 6.76574 28.5444C6.48249 28.2709 6.20627 27.9905 5.93711 27.7039C5.9033 27.6721 5.87116 27.639 5.84119 27.6045C5.64745 27.3819 5.53554 27.1056 5.51877 26.8226C5.43003 27.2261 5.54527 27.654 5.82366 27.974C5.85464 28.0095 5.88755 28.0436 5.92251 28.0763C6.19961 28.3713 6.48376 28.66 6.77534 28.9413C7.35682 29.5025 7.96634 30.0359 8.60071 30.5393C10.0048 31.6535 11.5294 32.6189 13.1335 33.4247C14.4364 34.0793 15.7917 34.6299 17.1796 35.0701C17.998 35.3297 20.1696 35.8939 20.4191 35.8716C20.8418 35.8335 21.2322 35.6023 21.4454 35.2146C21.4694 35.1711 21.4899 35.1267 21.508 35.0817C21.5367 35.0112 21.5582 34.9391 21.5734 34.8665C21.6653 34.5722 21.7522 34.2763 21.8318 33.9782C22.0075 33.3197 22.1528 32.6526 22.2674 31.9794C22.5112 30.5469 22.6153 29.0877 22.5856 27.6264C22.56 26.3687 22.4357 25.1094 22.2182 23.8624C22.0446 22.8665 21.8118 21.878 21.5184 20.905C21.469 20.7409 21.4173 20.5777 21.3643 20.4145C21.2762 20.1432 21.1831 19.8733 21.0842 19.605L20.8689 20.0394Z" fill="#AE5B1D"/>
<path d="M30.1015 1.62766C30.2047 1.82566 30.2247 2.0275 30.1358 2.18974C30.0774 2.29641 29.9792 2.37293 29.8554 2.41867C29.6684 2.48765 29.5256 2.64069 29.4906 2.8364L29.1745 4.60008C29.1024 5.00286 28.6625 5.21876 28.2998 5.0371L28.1847 5.26947C28.2998 5.31674 28.4171 5.35864 28.537 5.39402L28.5983 5.41216C28.6248 5.4266 28.6518 5.43822 28.679 5.44832C29.0284 5.57862 29.4246 5.36464 29.4927 4.98434L29.8088 3.22054C29.8439 3.02483 29.9868 2.87191 30.1736 2.80293C30.2973 2.75732 30.3956 2.6808 30.454 2.57414C30.6032 2.30152 30.4476 1.91726 30.1015 1.62766Z" fill="#AE5B1D"/>
<path d="M26.853 4.25797L26.8582 4.2752L26.8635 4.26677L26.853 4.25797Z" fill="#AE5B1D"/>
<path d="M17.6081 22.6057C18.1646 22.9088 18.646 23.2903 19.0447 23.7225L20.8691 20.0395L21.0842 19.6051L28.1849 5.26935L28.3 5.03698L28.2804 5.02778L28.219 5.00964C27.7188 4.86196 27.2569 4.608 26.8637 4.26666L26.8585 4.27509L18.0439 18.5252L15.8921 22.004C16.4711 22.1051 17.0522 22.3029 17.6081 22.6057ZM25.793 7.1526C25.8912 6.97324 26.1166 6.9072 26.2965 7.00518C26.4763 7.10316 26.5425 7.32812 26.4443 7.50748C26.3461 7.68684 26.1207 7.75301 25.9408 7.6549C25.761 7.55692 25.6947 7.33208 25.793 7.1526ZM24.9498 7.85316L26.2525 8.5628L26.0302 8.96903L24.7274 8.25927L24.9498 7.85316ZM23.4936 10.5134L24.7963 11.223L24.574 11.6291L23.2712 10.9193L23.4936 10.5134ZM22.5027 13.1634C22.601 12.984 22.8263 12.918 23.0062 13.0159C23.186 13.1139 23.2524 13.3389 23.1541 13.5182C23.0558 13.6976 22.8304 13.7638 22.6505 13.6658C22.4707 13.5678 22.4045 13.3428 22.5027 13.1634ZM21.7261 13.7421L23.0289 14.4518L22.8066 14.8579L21.5038 14.1483L21.7261 13.7421ZM21.5246 14.9504C21.6228 14.7709 21.8483 14.7049 22.0281 14.803C22.2078 14.901 22.274 15.1258 22.176 15.3053C22.0777 15.4846 21.8522 15.5507 21.6725 15.4527C21.4925 15.3547 21.4263 15.1298 21.5246 14.9504ZM20.0477 16.8084L21.3504 17.5181L21.1281 17.9242L19.8253 17.2145L20.0477 16.8084ZM18.5025 19.6311L19.8053 20.3407L19.583 20.7468L18.2803 20.0372L18.5025 19.6311ZM18.2788 20.8799C18.377 20.7004 18.6024 20.6344 18.7822 20.7324C18.9621 20.8304 19.0283 21.0553 18.9301 21.2347C18.8319 21.4142 18.6064 21.4802 18.4266 21.3821C18.2467 21.2842 18.1805 21.0594 18.2788 20.8799Z" fill="#703910"/>
<path d="M12.9589 24.4392C12.1086 25.9852 12.6758 27.9261 14.2254 28.7743C15.7752 29.6224 17.7207 29.0567 18.571 27.5108C19.4213 25.9646 18.8541 24.0238 17.3044 23.1757C15.7546 22.3274 13.8091 22.8931 12.9589 24.4392ZM17.0987 23.5496C18.4413 24.2845 18.9326 25.966 18.1961 27.3056C17.4595 28.6451 15.7738 29.1352 14.4311 28.4004C13.0885 27.6655 12.5971 25.9839 13.3337 24.6444C14.0704 23.3048 15.756 22.8148 17.0987 23.5496Z" fill="#AE5B1D"/>
<path d="M14.4312 28.4004C15.7739 29.1353 17.4594 28.6452 18.1961 27.3056C18.9328 25.9662 18.4415 24.2845 17.0987 23.5496C15.7561 22.8147 14.0704 23.3048 13.3338 24.6444C12.5972 25.9838 13.0885 27.6655 14.4312 28.4004Z" fill="#623211"/>
<path d="M9.78907 28.0575C11.6271 29.2643 13.5254 30.3794 15.476 31.3954C16.0311 31.6845 16.5905 31.9656 17.1537 32.2388C17.2888 32.3043 17.4545 32.2755 17.5344 32.1393C17.6058 32.0173 17.5703 31.8253 17.4346 31.7594C15.4559 30.7992 13.5254 29.7406 11.6536 28.5864C11.1209 28.2579 10.5931 27.9216 10.07 27.5781C9.76986 27.3811 9.49084 27.8617 9.78907 28.0575Z" fill="#623211"/>
<path d="M28.2902 1.04781L27.4447 0.485341L27.5394 0.312244L27.2007 0.127777L26.9541 0.807903L27.196 0.939738L27.3027 0.744925L28.1899 1.21005C28.1977 1.18782 28.2061 1.16572 28.2175 1.14477C28.237 1.10862 28.2621 1.07694 28.2902 1.04781Z" fill="#703910"/>
<path d="M26.8105 1.64363L26.9053 1.47041L26.5667 1.28581L26.3201 1.96594L26.5618 2.09777L26.6685 1.90296L27.6234 2.4036L27.7613 2.27611L26.8105 1.64363Z" fill="#703910"/>
<path d="M26.8622 3.10811L26.2364 2.69204L26.3313 2.51882L25.9927 2.33435L25.7461 3.01448L25.9878 3.14618L26.0945 2.95137L26.6937 3.2655L26.7044 3.25426L26.8622 3.10811Z" fill="#703910"/>
<path d="M24.9556 7.84853L24.7333 8.25464L26.036 8.96435L26.2583 8.55824L24.9556 7.84853Z" fill="#4D2710"/>
<path d="M23.5012 10.5103L23.2789 10.9164L24.5818 11.6262L24.8041 11.2201L23.5012 10.5103Z" fill="#4D2710"/>
<path d="M21.7305 13.7363L21.5082 14.1424L22.811 14.8522L23.0333 14.4461L21.7305 13.7363Z" fill="#4D2710"/>
<path d="M20.0448 16.8159L19.8225 17.222L21.1252 17.9318L21.3475 17.5257L20.0448 16.8159Z" fill="#4D2710"/>
<path d="M18.4975 19.6275L18.2753 20.0337L19.5781 20.7433L19.8004 20.3372L18.4975 19.6275Z" fill="#4D2710"/>
<path d="M25.9409 7.65488C26.1208 7.75286 26.3461 7.68682 26.4444 7.50746C26.5426 7.32811 26.4764 7.10314 26.2966 7.00516C26.1167 6.90718 25.8912 6.97322 25.7931 7.15258C25.6947 7.33207 25.7611 7.5569 25.9409 7.65488Z" fill="#E39961"/>
<path d="M18.4266 21.3822C18.6064 21.4802 18.8319 21.4143 18.9301 21.2348C19.0283 21.0555 18.9621 20.8305 18.7822 20.7325C18.6024 20.6345 18.377 20.7006 18.2788 20.8801C18.1805 21.0594 18.2467 21.2843 18.4266 21.3822Z" fill="#E39961"/>
<path d="M22.6505 13.6658C22.8304 13.7638 23.0558 13.6976 23.1541 13.5182C23.2523 13.3389 23.1861 13.1139 23.0062 13.0159C22.8263 12.918 22.601 12.984 22.5027 13.1634C22.4045 13.3428 22.4707 13.5678 22.6505 13.6658Z" fill="#E39961"/>
<path d="M21.6725 15.4527C21.8523 15.5507 22.0778 15.4846 22.176 15.3053C22.2742 15.1258 22.208 14.901 22.0281 14.803C21.8483 14.705 21.6228 14.771 21.5246 14.9504C21.4264 15.1298 21.4926 15.3547 21.6725 15.4527Z" fill="#E39961"/>
<path d="M14.6007 22.1216C14.8291 22.2347 15.1061 22.1417 15.2194 21.9139C15.3327 21.686 15.2395 21.4097 15.0111 21.2966C14.7826 21.1836 14.5057 21.2766 14.3923 21.5045C14.279 21.7323 14.3722 22.0086 14.6007 22.1216Z" fill="#DE7E36"/>
<path d="M11.2238 24.378C11.4523 24.4911 11.7294 24.3979 11.8426 24.1702C11.9559 23.9423 11.8627 23.666 11.6344 23.5529C11.4059 23.4397 11.129 23.5328 11.0156 23.7606C10.9023 23.9885 10.9955 24.2648 11.2238 24.378Z" fill="#DE7E36"/>
<path d="M12.3822 23.2146C12.839 23.4409 13.393 23.2547 13.6197 22.7991C13.8463 22.3434 13.6599 21.7906 13.2031 21.5645C12.7464 21.3384 12.1923 21.5244 11.9656 21.9801C11.7389 22.4357 11.9254 22.9884 12.3822 23.2146Z" fill="#DE7E36"/>
<path d="M27.9877 4.44665C28.325 4.63035 28.7477 4.50657 28.9318 4.17008C29.1159 3.8336 28.9919 3.41203 28.6546 3.2282C28.3173 3.0445 27.8947 3.16829 27.7104 3.50477C27.5263 3.84113 27.6505 4.26295 27.9877 4.44665Z" fill="#DE7E36"/>
</svg>
