<svg width="36" height="36" viewBox="0 0 36 36" fill="none" xmlns="http://www.w3.org/2000/svg">
<rect width="36" height="36" rx="16" fill="url(#paint0_linear_14_16838)"/>
<path d="M24.5898 25.7194C23.891 25.0323 23.3342 24.2055 23.035 23.2723C22.7814 22.4808 22.754 21.7843 22.8279 21.2106C22.9013 20.6394 23.1197 20.0992 23.4125 19.6033C23.7391 19.0499 23.923 18.4285 23.923 17.7715C23.923 16.4304 23.1591 15.2374 21.9722 14.4708L21.9564 14.4605C21.905 14.4276 21.8528 14.3955 21.7997 14.3641L21.7754 14.35C21.7233 14.3196 21.6707 14.2898 21.6172 14.261L21.5908 14.2471C21.5369 14.2183 21.4824 14.1903 21.4271 14.1633L21.4056 14.1531C21.1702 14.0395 20.923 13.9412 20.6654 13.8596C20.6517 13.8553 20.6382 13.8505 20.6244 13.8463C20.5783 13.8322 20.5315 13.819 20.4848 13.806C20.4564 13.7981 20.4282 13.7898 20.3997 13.7822C20.3577 13.7711 20.3154 13.7609 20.2728 13.7507C20.2385 13.7424 20.2042 13.7341 20.1696 13.7265C20.13 13.7177 20.09 13.7095 20.0499 13.7014C20.0115 13.6938 19.9728 13.6864 19.934 13.6794C19.8961 13.6726 19.8581 13.6661 19.8198 13.66C19.7779 13.6532 19.7357 13.6471 19.6933 13.6412C19.6569 13.6362 19.6206 13.6312 19.584 13.6268C19.5379 13.6213 19.4917 13.6167 19.4452 13.6122C19.4355 13.6112 19.4258 13.6104 19.4161 13.6095L18.9142 6.99727H18.9477H18.9928V6.5677L18.9364 6.55634C19.0045 5.87744 19.4983 5.62493 19.7438 5.5417C19.8285 5.51297 19.8872 5.43612 19.8957 5.34727L19.9967 4.20025L20.9 4.25489L20.9123 3.63931L20.0414 3.69242L20.1452 2.51438L20.9339 2.56212L20.9461 1.94655L20.1911 1.99251L20.2311 1.53906C20.2427 1.41689 20.1565 1.30506 20.0349 1.28999C19.9453 1.27889 19.79 1.25693 19.5968 1.21697C19.5623 1.17982 19.5159 1.1534 19.4619 1.14676C19.1221 1.10476 18.4241 0.917485 17.6323 0.127655H17.5296C16.7378 0.917612 16.0398 1.10476 15.7001 1.14676C15.5783 1.16183 15.4921 1.27365 15.5037 1.39582L15.564 2.02863L14.2159 1.94655L14.2283 2.56212L15.6069 2.47863L15.726 3.72919L14.2497 3.63931L14.2621 4.25489L15.7675 4.16374L15.8392 4.9177C15.8476 5.00655 15.9065 5.0834 15.9911 5.11212C16.2696 5.20659 16.8685 5.51808 16.8015 6.42459H16.6506V6.71093H16.7101L16.1686 13.6349C13.8055 13.9399 11.9969 15.6272 11.9969 17.665C11.9969 18.3051 12.176 18.9105 12.4943 19.4496C12.7795 19.9329 12.9923 20.4591 13.0639 21.0157C13.1358 21.5747 13.1092 22.2534 12.8621 23.0243C12.5706 23.9335 12.0282 24.7389 11.3475 25.4083C10.1653 26.5708 9.48714 28.0847 9.58352 29.7015C9.58914 29.7954 9.59782 29.8884 9.60841 29.981C9.61211 30.0134 9.6171 30.0456 9.62156 30.0779C9.62807 30.1265 9.63523 30.1748 9.64327 30.223C9.67085 30.3914 9.70696 30.557 9.75088 30.7201C9.83156 31.0203 9.9388 31.3108 10.0709 31.5906C10.0995 31.6511 10.1291 31.7113 10.1596 31.7709C10.1826 31.8161 10.2071 31.8605 10.2317 31.9051C10.2447 31.9287 10.2568 31.9528 10.2703 31.9763L10.2721 31.9748C10.364 32.135 10.4642 32.2911 10.5725 32.4426L10.5712 32.4435C10.6022 32.4871 10.6348 32.5296 10.6672 32.5723C10.6832 32.5934 10.6991 32.6146 10.7155 32.6355C10.7547 32.6858 10.7946 32.7356 10.8355 32.7848C10.9227 32.8897 11.0138 32.9921 11.1088 33.0919C12.4522 34.8534 14.8483 35.9825 17.5449 35.9253C17.7588 35.9293 18.6361 35.9302 18.8676 35.9253C22.8666 35.9969 26.2019 33.4626 26.4006 30.1259C26.4992 28.4665 25.8032 26.9127 24.5898 25.7194Z" fill="#70C1A8"/>
<path d="M24.5898 25.7194C23.891 25.0323 23.3342 24.2055 23.035 23.2723C22.7813 22.4808 22.754 21.7843 22.8279 21.2106C22.9013 20.6394 23.1196 20.0992 23.4125 19.6033C23.7391 19.0499 23.923 18.4286 23.923 17.7715C23.923 16.4304 23.1591 15.2374 21.9722 14.4708L21.9564 14.4605C21.905 14.4276 21.8527 14.3955 21.7996 14.3641L21.7754 14.35C21.7233 14.3196 21.6707 14.2898 21.6172 14.261L21.5908 14.2471C21.5369 14.2183 21.4824 14.1903 21.4271 14.1633L21.4056 14.1531C21.1701 14.0395 20.923 13.9412 20.6654 13.8596C20.6517 13.8553 20.6382 13.8506 20.6244 13.8463C20.5783 13.8322 20.5315 13.819 20.4847 13.806C20.4564 13.7981 20.4282 13.7898 20.3997 13.7823C20.3577 13.7711 20.3154 13.7609 20.2728 13.7507C20.2385 13.7424 20.2041 13.7341 20.1696 13.7265C20.13 13.7177 20.09 13.7095 20.0499 13.7014C20.0115 13.6938 19.9728 13.6864 19.934 13.6794C19.8961 13.6726 19.8581 13.6661 19.8198 13.66C19.7779 13.6532 19.7356 13.6471 19.6933 13.6412C19.6569 13.6362 19.6206 13.6312 19.584 13.6268C19.5379 13.6213 19.4917 13.6167 19.4452 13.6122C19.4355 13.6112 19.4258 13.6104 19.4161 13.6095L19.4235 13.7062C19.4519 13.7119 19.4804 13.7178 19.5087 13.724C19.5424 13.7314 19.5758 13.7396 19.6093 13.7477C19.6506 13.7576 19.692 13.7676 19.7328 13.7783C19.7607 13.7857 19.7881 13.7937 19.8157 13.8014C19.8613 13.8143 19.9068 13.8269 19.9518 13.8407C19.9652 13.8448 19.9783 13.8495 19.9916 13.8537C20.2425 13.9331 20.4833 14.029 20.7127 14.1397L20.7337 14.1497C20.7877 14.176 20.8407 14.2033 20.8933 14.2314L20.9189 14.2449C20.971 14.273 21.0224 14.3018 21.0731 14.3316L21.0968 14.3454C21.1485 14.376 21.1993 14.4071 21.2494 14.4393L21.2649 14.4493C21.5447 14.6299 21.7996 14.8354 22.0264 15.0609C22.0801 15.1144 22.1318 15.169 22.1822 15.2247L22.1854 15.228C22.2333 15.281 22.279 15.3352 22.3238 15.3901L22.3331 15.401L22.3326 15.4011C22.8575 16.0488 23.1655 16.8268 23.1655 17.665C23.1655 18.3051 22.9864 18.9105 22.6681 19.4496C22.3829 19.9328 22.1702 20.459 22.0986 21.0156C22.0268 21.5746 22.0533 22.2532 22.3004 23.0242C22.5919 23.9334 23.1343 24.7388 23.8151 25.4082C24.9973 26.5707 25.6754 28.0847 25.5791 29.7014C25.3855 32.9521 22.1362 35.4213 18.24 35.3515C18.1319 35.3538 17.0599 35.3534 16.9513 35.3515C14.5897 35.4014 12.4645 34.5175 11.1082 33.0919C12.4515 34.8534 14.8477 35.9825 17.5442 35.9253C17.7582 35.9293 18.6355 35.9302 18.8669 35.9253C22.866 35.9969 26.2012 33.4626 26.4 30.1259C26.4992 28.4666 25.8032 26.9127 24.5898 25.7194Z" fill="#559984"/>
<path d="M18.9996 13.6349C19.0148 13.637 19.03 13.6387 19.045 13.6408C19.0863 13.6465 19.1274 13.6524 19.1682 13.659C19.2055 13.665 19.2425 13.6714 19.2796 13.6781C19.3175 13.6848 19.355 13.692 19.3925 13.6995C19.403 13.7017 19.4133 13.704 19.4238 13.706L19.4164 13.6094L18.9144 6.99713H18.4957L18.9996 13.6349Z" fill="#8F4C2B"/>
<path d="M19.5983 2.0285L20.1914 1.99237L20.2314 1.53893C20.243 1.41676 20.1568 1.30493 20.0352 1.28986C19.9456 1.27876 19.7903 1.2568 19.597 1.21684C19.6406 1.26357 19.6651 1.32765 19.6586 1.39569L19.5983 2.0285Z" fill="#559984"/>
<path d="M19.4363 3.72918L20.0416 3.69229L20.1454 2.51424L19.5554 2.4785L19.4363 3.72918Z" fill="#559984"/>
<path d="M19.3232 4.91756C19.3148 5.00641 19.2561 5.08326 19.1714 5.11198C18.893 5.20645 18.294 5.51794 18.3612 6.42445H18.5122V6.47143L18.9369 6.55632C19.0051 5.87743 19.4989 5.62492 19.7444 5.54168C19.829 5.51296 19.8877 5.43611 19.8963 5.34726L19.9973 4.20024L19.3952 4.16373L19.3232 4.91756Z" fill="#559984"/>
<path d="M18.512 6.7108H18.474L18.4957 6.99714H18.9144H18.948H18.9931V6.56757L18.9366 6.55621L18.512 6.47131V6.7108Z" fill="#CEB855"/>
<path d="M9.75056 30.72C9.70665 30.5568 9.6709 30.391 9.64294 30.2229C9.67052 30.3913 9.70678 30.5568 9.75056 30.72Z" fill="#70C1A8"/>
<path d="M10.7927 30.3776C10.8635 30.0992 10.9441 29.8254 11.0359 29.5555C10.8969 29.6331 10.7489 29.7002 10.5904 29.7604C10.3844 29.8382 10.1733 29.9233 10.0318 30.1001C9.88912 30.2784 9.81917 30.5058 9.75049 30.72C9.83117 31.0201 9.9384 31.3107 10.0705 31.5905C10.4682 31.2873 10.669 30.8645 10.7927 30.3776Z" fill="#70C1A8"/>
<path d="M13.4268 31.1959L13.4193 31.2094C13.4359 31.2065 13.4348 31.2014 13.4268 31.1959Z" fill="#70C1A8"/>
<path d="M14.7174 21.8531C14.7174 23.4348 15.9996 24.7171 17.5812 24.7171C19.1629 24.7171 20.445 23.4348 20.445 21.8531C20.445 20.2714 19.1628 18.9893 17.5812 18.9893C15.9996 18.9893 14.7174 20.2714 14.7174 21.8531ZM17.5812 19.4905C18.886 19.4905 19.9439 20.5483 19.9439 21.8531C19.9439 23.1579 18.8861 24.2159 17.5812 24.2159C16.2763 24.2159 15.2186 23.1581 15.2186 21.8531C15.2186 20.5483 16.2764 19.4905 17.5812 19.4905Z" fill="#4EB796"/>
<path d="M17.5811 24.2159C18.8859 24.2159 19.9438 23.1581 19.9438 21.8531C19.9438 20.5483 18.886 19.4905 17.5811 19.4905C16.2762 19.4905 15.2185 20.5483 15.2185 21.8531C15.2185 23.1579 16.2763 24.2159 17.5811 24.2159Z" fill="#A24F26"/>
<path d="M19.1877 16.111L18.9996 13.6349L18.4958 6.99712L18.474 6.71078H17.1509H16.71L16.1685 13.6348L15.9749 16.111H19.1877ZM16.8687 8.78449H18.2939V9.10121H16.8687V8.78449ZM16.8687 11.7932H18.2939V12.1099H16.8687V11.7932ZM16.8687 14.6586H18.2939V14.9753H16.8687V14.6586Z" fill="#CB6E41"/>
<path d="M19.5554 2.4785L20.1455 2.51424L20.9341 2.56199L20.9464 1.94641L20.1914 1.99237L19.5983 2.0285L19.5554 2.4785Z" fill="#CB6E41"/>
<path d="M19.3949 4.16374L19.9969 4.20025L20.9003 4.25489L20.9125 3.63931L20.0416 3.69229L19.4363 3.72918L19.3949 4.16374Z" fill="#CB6E41"/>
<path d="M14.2159 1.94641L14.2283 2.56199L15.6069 2.4785L15.5642 2.0285L14.2159 1.94641Z" fill="#CB6E41"/>
<path d="M14.2498 3.63931L14.2621 4.25489L15.7675 4.16374L15.726 3.72918L14.2498 3.63931Z" fill="#CB6E41"/>
<path d="M18.474 6.71081H18.512V6.47132V6.42447H18.361H16.8014H16.6505V6.71081H16.71H17.1508H18.474Z" fill="#FFE879"/>
<path d="M16.7936 1.6274C16.5564 1.6274 16.364 1.81978 16.364 2.05697C16.364 2.29416 16.5564 2.48654 16.7936 2.48654C17.0309 2.48654 17.2232 2.29416 17.2232 2.05697C17.2232 1.81978 17.0309 1.6274 16.7936 1.6274Z" fill="#ECF6F5"/>
<path d="M16.7936 3.63217C16.5564 3.63217 16.364 3.82443 16.364 4.06175C16.364 4.29907 16.5564 4.49132 16.7936 4.49132C17.0309 4.49132 17.2232 4.29894 17.2232 4.06175C17.2232 3.82456 17.0309 3.63217 16.7936 3.63217Z" fill="#ECF6F5"/>
<path d="M18.3688 2.48668C18.606 2.48668 18.7984 2.29436 18.7984 2.05711C18.7984 1.81986 18.606 1.62753 18.3688 1.62753C18.1315 1.62753 17.9392 1.81986 17.9392 2.05711C17.9392 2.29436 18.1315 2.48668 18.3688 2.48668Z" fill="#ECF6F5"/>
<path d="M18.7984 4.06175C18.7984 3.82456 18.606 3.63217 18.3688 3.63217C18.1316 3.63217 17.9392 3.82443 17.9392 4.06175C17.9392 4.29907 18.1316 4.49132 18.3688 4.49132C18.606 4.49132 18.7984 4.29894 18.7984 4.06175Z" fill="#ECF6F5"/>
<path d="M18.2938 8.78452H16.8687V9.10124H18.2938V8.78452Z" fill="#A24F26"/>
<path d="M18.2938 11.7932H16.8687V12.1099H18.2938V11.7932Z" fill="#A24F26"/>
<path d="M18.2938 14.6586H16.8687V14.9754H18.2938V14.6586Z" fill="#A24F26"/>
<path d="M21.0894 29.6889V28.4081C21.0894 28.1291 20.8632 27.903 20.5843 27.903H14.5781C14.2992 27.903 14.0731 28.1291 14.0731 28.4081V29.6889C14.0731 29.9678 14.2992 30.194 14.5781 30.194H20.5843C20.8632 30.194 21.0894 29.9678 21.0894 29.6889ZM20.5645 29.2709C20.5207 29.4302 20.3323 29.5538 20.1681 29.496C18.4915 28.9049 16.6492 28.9395 14.9942 29.5875C14.8313 29.6512 14.6403 29.5169 14.5979 29.3625C14.5483 29.1821 14.661 29.0295 14.8229 28.9661C16.5719 28.2812 18.5684 28.25 20.3394 28.8745C20.5042 28.9326 20.6134 29.093 20.5645 29.2709Z" fill="#CB6E41"/>
<path d="M20.3395 28.8745C18.5685 28.2502 16.572 28.2812 14.8229 28.9661C14.6611 29.0295 14.5484 29.1821 14.598 29.3625C14.6404 29.5168 14.8314 29.6512 14.9943 29.5875C16.6491 28.9394 18.4916 28.9048 20.1682 29.496C20.3323 29.5538 20.5206 29.4304 20.5646 29.2709C20.6133 29.093 20.5042 28.9326 20.3395 28.8745Z" fill="#693B25"/>
<path d="M15.3308 16.2864C15.5558 16.2228 15.6868 15.989 15.6232 15.7639C15.5596 15.5388 15.3258 15.408 15.1006 15.4716C14.8755 15.5351 14.7447 15.7691 14.8081 15.9942C14.8717 16.2191 15.1057 16.35 15.3308 16.2864Z" fill="#8CCBB8"/>
<path d="M14.4277 19.4736C14.6528 19.41 14.7838 19.1761 14.7202 18.9511C14.6566 18.726 14.4226 18.5952 14.1975 18.6587C13.9725 18.7223 13.8416 18.9563 13.9052 19.1814C13.9688 19.4062 14.2027 19.5372 14.4277 19.4736Z" fill="#8CCBB8"/>
<path d="M14.2066 18.1163C14.6597 17.9883 14.9233 17.5172 14.7952 17.0641C14.6672 16.6111 14.1961 16.3474 13.7431 16.4755C13.29 16.6034 13.0264 17.0745 13.1544 17.5277C13.2825 17.9807 13.7535 18.2443 14.2066 18.1163Z" fill="#8CCBB8"/>
<path d="M23.155 32.2016C24.128 31.1324 23.8404 30.0097 23.5945 29.4526C23.4751 29.1818 23.2469 28.9671 22.9615 28.8891C22.2151 28.685 22.4529 29.9923 20.8127 31.3956C18.6781 33.2216 13.7004 32.4681 16.1219 33.3503C18.5433 34.2323 21.7893 33.7021 23.155 32.2016Z" fill="#8CCBB8"/>
<path d="M11.1485 30.7107C11.3228 30.1094 11.4739 29.5173 11.7325 28.9437C11.8463 28.6915 11.5245 28.5009 11.3616 28.727C11.2239 28.9181 11.0445 29.0755 10.8384 29.1894C10.6239 29.3078 10.3843 29.3708 10.163 29.4749C9.91109 29.5934 9.7385 29.7707 9.60803 29.9808C9.61173 30.0133 9.6167 30.0454 9.62117 30.0777C9.62768 30.1264 9.63483 30.1746 9.64288 30.2229C9.67083 30.391 9.70658 30.5568 9.7505 30.72C9.81918 30.5058 9.88913 30.2784 10.0319 30.1001C10.1733 29.9233 10.3845 29.8382 10.5904 29.7604C10.7489 29.7002 10.8969 29.6331 11.0359 29.5555C10.9441 29.8253 10.8634 30.0992 10.7927 30.3776C10.669 30.8645 10.4682 31.2873 10.0707 31.5905V31.5906C10.0993 31.6511 10.1289 31.7111 10.1594 31.7708C10.1824 31.8159 10.2069 31.8604 10.2314 31.9049C10.2444 31.9285 10.2565 31.9527 10.2701 31.9762L10.2719 31.9746C10.7049 31.6625 10.9988 31.2268 11.1485 30.7107Z" fill="#4EB796"/>
<path d="M12.1718 32.4916C12.6891 32.5435 13.2488 32.6189 13.7148 32.3293C14.0784 32.1033 14.3205 31.6759 14.1739 31.248C14.0406 30.8591 13.5728 30.5561 13.1892 30.8249C12.9928 30.9627 12.9205 31.2565 13.0738 31.4539C13.2173 31.6385 13.5245 31.6633 13.6759 31.4738C13.723 31.415 13.7334 31.3493 13.7213 31.2893C13.772 31.3684 13.7969 31.4685 13.7873 31.5565C13.7442 31.9576 13.25 32.1032 12.9163 32.1135C12.4602 32.1277 12.009 32.001 11.5528 32.0475C11.1884 32.0845 10.856 32.22 10.5721 32.4426L10.5708 32.4435C10.6018 32.4871 10.6344 32.5296 10.6668 32.5723C10.6828 32.5934 10.6987 32.6146 10.7151 32.6355C10.7542 32.6858 10.7942 32.7356 10.835 32.7848C11.2225 32.4771 11.6831 32.4426 12.1718 32.4916ZM13.4194 31.2094L13.4269 31.1959C13.4347 31.2014 13.4359 31.2065 13.4194 31.2094Z" fill="#4EB796"/>
<path d="M12.621 31.1348C12.6016 31.1138 12.5785 31.099 12.5518 31.0903C12.5263 31.0769 12.4987 31.0707 12.4691 31.0718C12.4501 31.0744 12.4311 31.0769 12.412 31.0795C12.3757 31.0896 12.344 31.1081 12.3172 31.1346C12.306 31.1492 12.2949 31.1636 12.2836 31.178C12.2642 31.2116 12.2544 31.2477 12.2544 31.2865V31.3093C12.2534 31.3389 12.2594 31.3665 12.2729 31.392C12.2816 31.4185 12.2964 31.4417 12.3173 31.4611C12.3368 31.482 12.3598 31.4968 12.3865 31.5055C12.4122 31.5189 12.4397 31.5251 12.4692 31.524C12.4884 31.5214 12.5073 31.5189 12.5263 31.5163C12.5627 31.5061 12.5943 31.4876 12.6211 31.4611C12.6324 31.4466 12.6436 31.4321 12.6547 31.4175C12.6741 31.3841 12.684 31.3479 12.6841 31.3091V31.2864C12.6851 31.2568 12.679 31.2292 12.6656 31.2036C12.6568 31.1773 12.642 31.1542 12.621 31.1348Z" fill="#AAD8CC"/>
<path d="M12.7194 30.2754C12.4431 30.2754 12.4425 30.7049 12.7194 30.7049C12.9958 30.7049 12.9963 30.2754 12.7194 30.2754Z" fill="#AAD8CC"/>
<path d="M13.5842 29.9796C13.3077 29.9796 13.3073 30.4091 13.5842 30.4091C13.8607 30.4091 13.8611 29.9796 13.5842 29.9796Z" fill="#AAD8CC"/>
<path d="M21.4291 15.7868C21.3674 16.0273 21.3787 16.2888 21.4569 16.5242C21.5446 16.7881 21.7392 16.9711 21.8552 17.216C22.0622 17.6531 21.8034 18.2572 21.2726 18.2491C21.0544 18.2456 20.8392 18.1045 20.7549 17.9013C20.7228 17.8239 20.6975 17.6934 20.7496 17.6174C20.7755 17.5797 20.8413 17.5508 20.8513 17.5855C20.9271 17.8509 21.3418 17.738 21.2654 17.4712C21.2048 17.2589 21.0048 17.1313 20.7863 17.1429C20.552 17.1553 20.3719 17.3362 20.316 17.5576C20.1937 18.0415 20.5707 18.5231 21.0281 18.6456C21.527 18.7791 22.0647 18.4857 22.2651 18.02C22.3669 17.7835 22.3842 17.5204 22.326 17.27C22.2626 16.9975 22.0837 16.8101 21.9476 16.5756C21.6986 16.1461 21.8482 15.5183 22.3328 15.4011L22.3333 15.401L22.324 15.3901C22.2792 15.3352 22.2335 15.281 22.1856 15.228L22.1824 15.2247C22.132 15.169 22.0802 15.1142 22.0265 15.0609C21.7379 15.2019 21.511 15.4672 21.4291 15.7868Z" fill="#4EB796"/>
<path d="M20.5022 19.0763C20.7786 19.0763 20.7791 18.6467 20.5022 18.6467C20.2258 18.6466 20.2255 19.0763 20.5022 19.0763Z" fill="#AAD8CC"/>
<path d="M21.094 19.3038C21.3703 19.3038 21.3708 18.8742 21.094 18.8742C20.8176 18.8742 20.8171 19.3038 21.094 19.3038Z" fill="#AAD8CC"/>
<path d="M21.8449 19.0763C22.1213 19.0763 22.1218 18.6467 21.8449 18.6467C21.5685 18.6466 21.568 19.0763 21.8449 19.0763Z" fill="#AAD8CC"/>
<defs>
<linearGradient id="paint0_linear_14_16838" x1="0" y1="18" x2="36" y2="18" gradientUnits="userSpaceOnUse">
<stop stop-color="#83247C"/>
<stop offset="1" stop-color="#363787"/>
</linearGradient>
</defs>
</svg>
