<svg width="36" height="36" viewBox="0 0 36 36" fill="none" xmlns="http://www.w3.org/2000/svg">
<rect width="36" height="36" rx="16" fill="url(#paint0_linear_14_16857)"/>
<path d="M21.6304 10.8684C20.5407 8.97964 19.4694 6.13405 17.1515 5.5439C16.698 5.42846 16.2513 5.39885 15.8214 5.44222C14.2326 5.28173 12.7882 6.17132 11.9802 7.55574C11.5889 8.2264 11.2041 8.90109 10.816 9.57369C7.80371 14.7947 4.79139 20.0158 1.7792 25.2368C1.41718 25.8643 1.04839 26.4883 0.692985 27.1195C0.00604846 28.3394 -0.0548026 29.7501 0.510292 30.9166C0.726338 31.8125 1.25445 32.6324 2.09528 33.225C3.03265 33.8857 4.07837 33.928 5.16172 33.928C6.25649 33.928 7.35138 33.928 8.44615 33.928C14.2381 33.928 20.03 33.928 25.822 33.928C25.9556 33.928 26.0894 33.928 26.2231 33.928C28.3588 33.928 28.4837 30.7987 26.5904 30.4393C26.3317 29.9852 25.8613 29.6557 25.178 29.6557C20.4316 29.6557 15.6852 29.6557 10.9389 29.6557C8.72758 29.6557 6.51626 29.6557 4.3048 29.6557C4.18971 29.6557 4.07111 29.6619 3.95459 29.6575C4.06086 29.4439 4.40146 28.9102 4.56872 28.6207C7.49164 23.5544 10.4147 18.4883 13.3376 13.422C14.146 12.0209 14.8891 10.5462 15.7772 9.19363C15.806 9.14987 15.827 9.1191 15.8443 9.09442L15.8473 9.09105L15.853 9.10105C15.8897 9.16299 15.9246 9.22596 15.9609 9.28816C16.3772 9.99998 16.7852 10.7166 17.1973 11.4309C19.8853 16.0899 22.5734 20.7491 25.2614 25.408C25.3251 25.5184 25.3887 25.6287 25.4524 25.739C25.7486 26.2521 26.1795 26.5004 26.6292 26.5544C27.8426 28.2076 30.6438 26.4903 29.5464 24.5884C26.9075 20.0149 24.2689 15.4417 21.6304 10.8684Z" fill="#98A6AB"/>
<path d="M35.7017 31.4673C35.7844 31.377 35.7898 31.2136 35.6749 31.1379L35.4496 28.3743C35.4662 28.3789 35.4828 28.3829 35.4996 28.3876C35.7641 28.4633 35.8772 28.0513 35.6131 27.9756C35.5467 27.9565 35.4799 27.939 35.4129 27.9223L35.1839 25.1141C35.3625 25.067 35.4089 24.7645 35.1861 24.6999C35.1739 24.6964 35.1616 24.6932 35.1492 24.6897L34.6785 18.9143H34.3974V5.95096C34.3974 4.57965 34.1289 3.22158 33.6068 1.95376C33.5153 1.73172 33.2012 1.73172 33.1097 1.95376C32.5877 3.22171 32.3191 4.57965 32.3191 5.95096V18.9147H32.0382L30.844 33.5596C30.844 33.9203 31.9697 34.2128 33.3582 34.2128C34.7467 34.2128 35.8724 33.9203 35.8724 33.5596L35.7017 31.4673Z" fill="#98A6AB"/>
<path d="M3.42947 26.2299C3.15049 26.2738 2.95973 26.5358 3.00359 26.815C3.04745 27.0943 3.30931 27.285 3.58842 27.2412C3.86753 27.1973 4.05814 26.9352 4.01428 26.6559C3.97042 26.3768 3.70858 26.186 3.42947 26.2299Z" fill="#A8B8BD"/>
<path d="M2.09779 30.4389C1.81868 30.4828 1.62807 30.7447 1.67193 31.024C1.71579 31.3033 1.97763 31.494 2.25674 31.4501C2.53572 31.4062 2.72633 31.1443 2.6826 30.865C2.63861 30.5856 2.3769 30.3949 2.09779 30.4389Z" fill="#A8B8BD"/>
<path d="M1.7259 27.4272C1.05389 27.5329 0.594798 28.1638 0.70042 28.8365C0.806043 29.5089 1.43654 29.9685 2.10868 29.8626C2.7807 29.7569 3.23992 29.126 3.13417 28.4534C3.02842 27.7809 2.39792 27.3214 1.7259 27.4272Z" fill="#A8B8BD"/>
<path d="M15.6832 8.91951C15.6443 8.90291 15.6549 8.90485 15.6832 8.91951V8.91951Z" fill="#717C80"/>
<path d="M25.1781 33.0734C25.0483 33.0734 24.9186 33.0734 24.7889 33.0734C19.1707 33.0734 13.5523 33.0734 7.93407 33.0734C6.87213 33.0734 5.81007 33.0734 4.74813 33.0734C3.69723 33.0734 2.6829 33.0325 1.77356 32.3915C1.2047 31.9906 0.784416 31.4821 0.510498 30.9165C0.726545 31.8124 1.25467 32.6323 2.0955 33.2249C3.03287 33.8856 4.07858 33.9279 5.16193 33.9279C6.25669 33.9279 7.35159 33.9279 8.44635 33.9279C14.2383 33.9279 20.0302 33.9279 25.8222 33.9279C25.9559 33.9279 26.0896 33.9279 26.2233 33.9279C28.359 33.9279 28.4839 30.7986 26.5906 30.4392C27.1653 31.4482 26.6936 33.0734 25.1781 33.0734Z" fill="#717C80"/>
<path d="M21.6304 10.8684C20.5407 8.97964 19.4694 6.13405 17.1514 5.5439C16.6979 5.42846 16.2513 5.39885 15.8214 5.44222C16.0054 5.46079 16.1912 5.49273 16.3782 5.54026C18.6268 6.11275 19.6659 8.87291 20.723 10.7052C23.2823 15.1414 25.8419 19.5776 28.4014 24.0138C29.2064 25.4093 27.848 26.7009 26.6289 26.5543C27.8423 28.2075 30.6435 26.4901 29.5461 24.5883C26.9075 20.0149 24.2689 15.4417 21.6304 10.8684Z" fill="#717C80"/>
<path d="M15.1876 8.8991L15.2053 8.89287C15.24 8.85654 15.2544 8.82903 15.1876 8.8991Z" fill="#717C80"/>
<path d="M15.8466 9.09066L15.8469 9.09028L15.8392 9.0769C15.8179 9.04405 15.8002 9.01626 15.7841 8.99146L15.786 8.99523C15.7573 8.96212 15.7143 8.93576 15.686 8.92083C15.5067 8.84785 15.7842 8.93563 15.6272 8.87733C15.6103 8.87122 15.5512 8.85577 15.4964 8.84201C15.591 8.87616 15.3325 8.87979 15.3737 8.85019C15.332 8.86136 15.2874 8.8733 15.2513 8.88291C15.2269 8.89681 15.1942 8.91525 15.1492 8.9407C15.1376 8.95342 15.1248 8.9677 15.1104 8.98406C15.0936 9.00808 15.0731 9.03794 15.0452 9.08027C14.1836 10.3924 13.4629 11.8229 12.6789 13.1819C9.84352 18.0963 7.00818 23.0106 4.17271 27.9249C4.00572 28.2145 3.65875 28.7567 3.56753 28.95C3.59712 28.8874 3.54846 29.039 3.51148 29.1534C3.51589 29.1522 3.50498 29.219 3.50291 29.2734C3.51445 29.3148 3.52717 29.3588 3.53314 29.3677C3.3751 29.1307 3.56441 29.4397 3.6058 29.4923C3.65446 29.5543 3.74075 29.6392 3.86234 29.6515C3.89283 29.6546 3.92385 29.6561 3.95473 29.6572C4.061 29.4436 4.40162 28.91 4.56888 28.6204C7.4918 23.5542 10.4148 18.4881 13.3378 13.4217C14.1462 12.0207 14.8893 10.546 15.7773 9.19338C15.8061 9.14962 15.8272 9.11884 15.8444 9.09417L15.8474 9.0908L15.8471 9.0904L15.8466 9.09066Z" fill="#717C80"/>
<path d="M15.1495 8.94025C15.1673 8.92948 15.1866 8.91223 15.2026 8.89575L15.187 8.89978C15.1766 8.9108 15.1641 8.92429 15.1495 8.94025Z" fill="#717C80"/>
<path d="M15.1125 8.98077C15.1629 8.92121 15.1724 8.89578 15.1125 8.98077V8.98077Z" fill="#717C80"/>
<path d="M32.7459 7.85764C32.7459 6.64552 32.8446 5.44495 33.0365 4.32424C33.0701 4.12804 33.1856 4.12804 33.2192 4.32424C33.4111 5.44508 33.5099 6.64552 33.5099 7.85764V18.9146H34.3973V5.95096C34.3973 4.57965 34.1288 3.22158 33.6067 1.95376C33.5152 1.73172 33.2011 1.73172 33.1096 1.95376C32.5876 3.22171 32.319 4.57965 32.319 5.95096V18.9147H32.7459V7.85764Z" fill="#A6B3B8"/>
<path d="M33.2192 4.32424C33.1856 4.12804 33.0701 4.12804 33.0365 4.32424C32.8446 5.44508 32.7458 6.64552 32.7458 7.85764V18.9146H33.5099V7.85764C33.5099 6.64552 33.4111 5.44508 33.2192 4.32424Z" fill="#BFCED4"/>
<path d="M33.3581 32.9064C34.6777 32.9064 35.759 33.1705 35.8633 33.5063L35.5283 31.526C35.5188 31.5244 35.5094 31.5236 35.4996 31.5208C34.4411 31.218 33.3216 31.2533 32.2826 31.6159C32.0222 31.7068 31.9114 31.2939 32.1691 31.2039C33.2227 30.8362 34.3707 30.791 35.4504 31.0657L34.977 28.2673C34.0777 28.1061 33.152 28.1794 32.2826 28.4829C32.0222 28.5738 31.9114 28.1609 32.1691 28.0709C33.0457 27.7649 33.9879 27.6826 34.9015 27.8214L34.4168 24.9562C34.1945 24.9182 33.9697 24.8981 33.7412 24.9068C33.2879 24.924 32.8499 25.0574 32.4248 25.2072C32.1648 25.299 32.054 24.8861 32.3113 24.7952C32.7734 24.6323 33.2489 24.4984 33.7412 24.4794C33.9425 24.4718 34.143 24.4854 34.3418 24.5128L34.2036 23.6962C33.9068 21.9418 33.1607 20.2943 32.038 18.9145L30.8439 33.5594C30.8439 33.1988 31.9695 32.9064 33.3581 32.9064Z" fill="#717C80"/>
<path d="M35.8633 33.5063C35.759 33.1705 34.6777 32.9064 33.3581 32.9064C31.9695 32.9064 30.8439 33.1988 30.8439 33.5595C30.8439 33.9202 31.9695 34.2126 33.3581 34.2126C34.7466 34.2126 35.8722 33.9202 35.8722 33.5595L35.8633 33.5063Z" fill="#5B696E"/>
<path d="M35.5283 31.526L35.8633 33.5063L35.8723 33.5595L35.7017 31.4674C35.6608 31.5119 35.6012 31.5375 35.5283 31.526Z" fill="#656F73"/>
<path d="M35.4503 31.0657C35.5046 31.0794 35.5589 31.0933 35.6129 31.1088C35.637 31.1157 35.6568 31.126 35.6748 31.1379L35.4495 28.3743C35.2931 28.3312 35.1354 28.2956 34.9769 28.2672L35.4503 31.0657Z" fill="#656F73"/>
<path d="M35.0725 25.1122C34.8558 25.0495 34.6375 24.994 34.4167 24.9562L34.9015 27.8214C35.0732 27.8475 35.2438 27.8808 35.4128 27.9225L35.1837 25.1143C35.1508 25.1231 35.1138 25.1241 35.0725 25.1122Z" fill="#656F73"/>
<path d="M34.2036 23.6963L34.3418 24.513C34.6148 24.5505 34.8847 24.6145 35.1493 24.6899L34.6785 18.9146H34.3975H33.5101H32.746H32.3191H32.0382C33.1606 20.2945 33.9067 21.942 34.2036 23.6963Z" fill="#656F73"/>
<path d="M33.741 24.4797C33.2487 24.4985 32.7732 24.6325 32.3111 24.7955C32.0537 24.8864 32.1645 25.2993 32.4246 25.2075C32.8497 25.0577 33.2877 24.9243 33.741 24.907C33.9695 24.8983 34.1943 24.9183 34.4166 24.9565C34.6373 24.9942 34.8557 25.0497 35.0724 25.1125C35.1136 25.1243 35.1506 25.1234 35.1836 25.1145C35.3622 25.0674 35.4086 24.7649 35.1858 24.7003C35.1736 24.6968 35.1612 24.6936 35.1489 24.6901C34.8845 24.6146 34.6146 24.5506 34.3414 24.5131C34.1428 24.4857 33.9424 24.4719 33.741 24.4797Z" fill="#3F494D"/>
<path d="M32.169 28.0709C31.9112 28.1609 32.0221 28.5738 32.2826 28.4829C33.1519 28.1794 34.0776 28.1061 34.977 28.2673C35.1355 28.2958 35.2932 28.3313 35.4495 28.3745C35.4662 28.379 35.4828 28.383 35.4995 28.3877C35.7641 28.4634 35.8771 28.0514 35.613 27.9757C35.5466 27.9566 35.4798 27.9391 35.4128 27.9225C35.2439 27.8808 35.0731 27.8475 34.9016 27.8214C33.9878 27.6826 33.0457 27.765 32.169 28.0709Z" fill="#3F494D"/>
<path d="M35.4503 31.0657C34.3706 30.7911 33.2225 30.8362 32.169 31.204C31.9112 31.2939 32.0221 31.7069 32.2826 31.616C33.3215 31.2534 34.4411 31.218 35.4995 31.5208C35.5094 31.5236 35.5187 31.5244 35.5282 31.526C35.6011 31.5375 35.6608 31.512 35.7017 31.4673C35.7843 31.377 35.7898 31.2136 35.6748 31.1379C35.6569 31.1261 35.637 31.1155 35.6129 31.1088C35.5591 31.0933 35.5047 31.0794 35.4503 31.0657Z" fill="#3F494D"/>
<defs>
<linearGradient id="paint0_linear_14_16857" x1="0" y1="18" x2="36" y2="18" gradientUnits="userSpaceOnUse">
<stop stop-color="#83247C"/>
<stop offset="1" stop-color="#363787"/>
</linearGradient>
</defs>
</svg>
