<svg width="36" height="36" viewBox="0 0 36 36" fill="none" xmlns="http://www.w3.org/2000/svg">
<rect width="36" height="36" rx="16" fill="url(#paint0_linear_14_16861)"/>
<path d="M35.4408 4.9784L35.2433 5.13414L34.9027 4.77398L35.2582 4.48821C35.3368 4.42507 35.3172 4.05175 35.2679 3.83196C35.3029 3.7519 35.2965 3.65673 35.24 3.58325C35.24 3.58325 34.608 3.11748 34.7642 2.41913C34.7771 2.36141 34.7233 2.3113 34.6676 2.33131C34.526 2.38206 34.2909 2.43979 34.0353 2.39395C33.7705 2.3463 33.5679 2.14123 33.524 1.87612C33.4816 1.62018 33.5428 1.38619 33.5954 1.24544C33.6161 1.19017 33.5667 1.13567 33.5088 1.14781C32.8075 1.29412 32.3498 0.656591 32.3498 0.656591C32.2446 0.573429 32.0913 0.592282 32.005 0.694943L31.4925 1.30613L30.7974 0.631803L30.9561 0.436812L30.5753 0.127663L30.1092 0.922217L30.3813 1.14304L30.5598 0.923636L31.3153 1.51739L30.15 2.9066L29.4448 2.22258L29.6035 2.02759L29.2227 1.71845L28.7566 2.51301L29.0286 2.73382L29.207 2.51455L29.9735 3.11683L29.5194 3.65803C29.4558 3.73396 29.4431 3.83932 29.4862 3.92855C29.4949 3.94663 29.5038 3.96613 29.513 3.98718C29.5322 4.03212 29.5516 4.08364 29.5687 4.14072C29.5773 4.16939 29.5854 4.19922 29.5925 4.23047C29.6068 4.29284 29.6177 4.36024 29.6228 4.43165C29.6483 4.78845 29.5283 5.24364 28.9624 5.66139L29.0083 5.70787L13.5009 20.2181C12.2397 19.3133 10.7729 18.82 9.28669 18.7427L9.2885 18.4955C9.28979 18.2961 9.12921 18.1335 8.92972 18.1321C8.73022 18.1307 8.56732 18.2912 8.56602 18.4905L8.56434 18.7376C6.76333 18.8066 4.98107 19.4841 3.55138 20.7717L3.37723 20.5954C3.23708 20.4535 3.00836 20.452 2.86627 20.5919C2.72418 20.7319 2.72263 20.9604 2.86278 21.1023L2.8739 21.1135L2.84468 21.137L2.84184 21.1399C2.7238 21.2561 2.70375 21.4322 2.779 21.5708C1.63608 22.9291 1.01911 24.5807 0.931449 26.256L0.931319 26.2569L0.683988 26.2552C0.484364 26.2538 0.321584 26.4143 0.320162 26.6135C0.319386 26.7298 0.374594 26.8324 0.459667 26.899C0.340203 26.9586 0.256813 27.08 0.255391 27.222C0.253322 27.4231 0.414933 27.5868 0.616237 27.5876L0.865896 27.5885C0.922913 29.2069 1.47059 30.808 2.50762 32.1547C2.47646 32.2425 2.48875 32.3403 2.54279 32.4179C2.46819 32.5334 2.47569 32.6801 2.56309 32.7773L2.66923 32.8953L2.94721 33.1768L3.06383 33.2844C3.16196 33.3749 3.31336 33.3836 3.43114 33.3053L3.52113 33.2455C4.92418 34.4988 6.6674 35.1706 8.43893 35.2574L8.43647 35.5068C8.43454 35.708 8.59602 35.8714 8.79745 35.8723C8.99876 35.873 9.1636 35.7107 9.16554 35.5096L9.16813 35.2603C10.9857 35.1852 12.7862 34.496 14.2328 33.1924L14.4077 33.3698C14.5488 33.5126 14.7789 33.5141 14.9221 33.3732L14.9249 33.3704C15.0679 33.2295 15.0696 32.9995 14.9284 32.8568L14.8478 32.7752L14.8753 32.7531C14.9645 32.6652 14.9982 32.5424 14.9762 32.428C16.1579 31.0454 16.799 29.3594 16.8933 27.6502L17.143 27.6511C17.3443 27.6518 17.5091 27.4894 17.5111 27.2884C17.5125 27.1516 17.4373 27.0336 17.3263 26.971C17.3841 26.9074 17.4207 26.824 17.4214 26.7316C17.4227 26.5322 17.2621 26.3696 17.0626 26.3682L16.86 26.3668C16.8357 26.1348 16.8018 25.9038 16.7572 25.6744C16.6191 24.5801 16.2524 23.5096 15.6578 22.5377L30.3334 7.36129L30.3315 7.35509C30.4521 7.20259 30.5748 7.0843 30.6967 6.99545C30.7823 6.93321 30.8674 6.88505 30.951 6.84837C31.0347 6.8117 31.1169 6.78665 31.1966 6.77076C31.5555 6.69935 31.8647 6.81441 32.0313 6.89912C32.0526 6.90997 32.0751 6.91733 32.0979 6.92133C32.1665 6.93334 32.2385 6.91501 32.2946 6.86994L33.0219 6.28548L33.3364 6.69638L33.1145 6.87162L33.3318 7.14628L34.1336 6.69186L33.8294 6.30731L33.632 6.46304L33.2731 6.08365L34.6493 4.97776L34.9477 5.36761L34.7255 5.54285L34.9429 5.8175L35.7447 5.36296L35.4408 4.9784Z" fill="#CB6E41"/>
<path d="M16.903 27.0889L16.8103 27.0882C16.7165 28.8859 16.0135 30.6565 14.7048 32.0665L14.8789 32.2428C14.931 32.2955 14.9633 32.3603 14.9762 32.4279C16.1579 31.0452 16.7989 29.3593 16.8933 27.6501L17.143 27.651C17.3443 27.6516 17.5091 27.4893 17.5111 27.2882C17.5125 27.1515 17.4372 27.0335 17.3263 26.9708C17.2597 27.0439 17.1644 27.0905 17.0577 27.0898L16.903 27.0889Z" fill="#3D1F12"/>
<path d="M14.5856 32.8536C14.5048 32.8455 14.426 32.8119 14.3645 32.7495L14.1905 32.5733C12.7608 33.8607 10.9785 34.5384 9.17749 34.6072L9.17581 34.8544C9.17452 35.0536 9.01148 35.2141 8.81211 35.2127C8.61249 35.2114 8.45191 35.0487 8.45333 34.8493L8.45501 34.6022C6.86798 34.5195 5.30279 33.9626 3.98662 32.9362C3.91331 32.879 3.84014 32.8216 3.76838 32.7614L3.4233 32.9851C3.31121 33.0578 3.16395 33.045 3.06621 32.9542L2.94998 32.8462L2.672 32.5647L2.56559 32.4471C2.55732 32.4379 2.55034 32.4279 2.54336 32.4179C2.46876 32.5334 2.47626 32.68 2.56366 32.7773L2.6698 32.8953L2.94778 33.1768L3.0644 33.2844C3.16253 33.3749 3.31393 33.3836 3.43171 33.3053L3.5217 33.2455C4.92475 34.4987 6.66797 35.1706 8.4395 35.2574L8.43705 35.5067C8.43511 35.7079 8.59659 35.8714 8.79802 35.8723C8.99933 35.873 9.16417 35.7107 9.16611 35.5096L9.1687 35.2602C10.9863 35.1852 12.7868 34.496 14.2334 33.1924L14.4083 33.3697C14.5494 33.5126 14.7795 33.5141 14.9226 33.3732L14.9255 33.3704C15.0685 33.2295 15.0701 32.9995 14.929 32.8568L14.8484 32.7752C14.772 32.8368 14.6777 32.8629 14.5856 32.8536Z" fill="#3D1F12"/>
<path d="M2.87404 21.1138L2.84482 21.1373L2.84198 21.1401C2.72393 21.2563 2.7039 21.4325 2.77914 21.571C2.8624 21.4721 2.94825 21.3745 3.03721 21.2788L2.87404 21.1138Z" fill="#3D1F12"/>
<path d="M0.931521 26.2562L0.931396 26.2571H0.931521V26.2562Z" fill="#3D1F12"/>
<path d="M16.86 26.3668C16.8357 26.1348 16.8019 25.9038 16.7573 25.6743C16.7864 25.9043 16.8064 26.1352 16.8153 26.3665L16.86 26.3668Z" fill="#3D1F12"/>
<path d="M2.76399 31.7546C1.60478 30.3679 0.991812 28.682 0.92652 26.9789L0.869506 26.9783L0.679189 26.977C0.596056 26.9764 0.520552 26.9468 0.459915 26.8992C0.340451 26.9587 0.257057 27.0801 0.255635 27.2221C0.253566 27.4232 0.415181 27.5869 0.616485 27.5877L0.866144 27.5886C0.923161 29.207 1.47083 30.8082 2.50787 32.1549C2.51576 32.1325 2.52571 32.1106 2.53928 32.0902L2.76399 31.7546Z" fill="#3D1F12"/>
<path d="M32.9572 5.74945L33.2733 6.08364L34.6494 4.97775L34.364 4.60481L32.9572 5.74945Z" fill="#3D1F12"/>
<path d="M32.1961 6.36853C32.1393 6.41463 32.066 6.43374 31.9962 6.42199C31.9729 6.41798 31.9501 6.41075 31.9283 6.39978C31.7584 6.31455 31.4431 6.19949 31.0783 6.27425C30.9972 6.29091 30.9137 6.31687 30.8289 6.35471C30.7439 6.39254 30.6577 6.44213 30.571 6.50592C30.4411 6.60161 30.3105 6.72945 30.1827 6.89719L30.1819 6.89642L30.3315 7.3551C30.4521 7.20259 30.5748 7.0843 30.6967 6.99546C30.7823 6.93322 30.8674 6.88506 30.951 6.84838C31.0347 6.81171 31.1169 6.78666 31.1966 6.77077C31.5555 6.69936 31.8647 6.81442 32.0313 6.89913C32.0526 6.90998 32.0751 6.91734 32.0978 6.92134C32.1665 6.93335 32.2385 6.91501 32.2946 6.86995L33.0219 6.28549L32.744 5.92263L32.1961 6.36853Z" fill="#3D1F12"/>
<path d="M35.1969 3.92726L34.578 4.43075L34.9028 4.77412L35.2583 4.48835C35.3369 4.4252 35.3173 4.05188 35.268 3.83209C35.2522 3.86799 35.229 3.90105 35.1969 3.92726Z" fill="#3D1F12"/>
<path d="M30.1622 6.87653L15.3998 22.1427C15.4902 22.2724 15.5761 22.4041 15.6578 22.5376L30.3334 7.36117L30.3315 7.35496L30.1819 6.89629L30.1622 6.87653Z" fill="#A8542B"/>
<path d="M0.869539 26.9783L0.926553 26.9788C0.991844 28.6821 1.60481 30.3679 2.76402 31.7545L3.17077 31.1472C0.915563 28.2882 1.12398 24.1322 3.77934 21.5165C6.29739 19.036 10.1717 18.7725 12.98 20.7062L13.5013 20.2185C12.2401 19.3137 10.7733 18.8204 9.28709 18.743L9.28891 18.4959C9.2902 18.2965 9.12962 18.1339 8.93013 18.1325C8.73063 18.1311 8.56772 18.2916 8.56643 18.4908L8.56475 18.738C6.76374 18.8069 4.98148 19.4845 3.55179 20.7721L3.37763 20.5958C3.23748 20.4539 3.00877 20.4523 2.86668 20.5923C2.72459 20.7323 2.72304 20.9607 2.86319 21.1027L2.87431 21.1139L3.03734 21.2789C2.94839 21.3746 2.86254 21.4722 2.77928 21.5711C1.63636 22.9295 1.01938 24.5811 0.931726 26.2563V26.2572H0.931595L0.684264 26.2556C0.48464 26.2541 0.321865 26.4147 0.320443 26.6139C0.319667 26.7301 0.374875 26.8328 0.459948 26.8994C0.520585 26.9471 0.596088 26.9768 0.679222 26.9773L0.869539 26.9783Z" fill="#61341F"/>
<path d="M14.9038 22.6557C16.7976 25.4866 16.4793 29.3496 13.9626 31.8288C11.33 34.4221 7.21518 34.5919 4.38593 32.3612L3.76831 32.7617C3.84007 32.8218 3.91311 32.8793 3.98655 32.9365C5.30272 33.9629 6.86791 34.5198 8.45495 34.6025L8.45326 34.8496C8.45184 35.049 8.61242 35.2116 8.81204 35.213C9.01154 35.2144 9.17445 35.0539 9.17574 34.8546L9.17742 34.6075C10.9784 34.5387 12.7607 33.861 14.1904 32.5735L14.3644 32.7498C14.4259 32.8122 14.5047 32.8456 14.5855 32.8539C14.6778 32.863 14.7719 32.8369 14.848 32.7753L14.8754 32.7533C14.9646 32.6653 14.9983 32.5425 14.9763 32.4281C14.9633 32.3605 14.931 32.2958 14.879 32.2431L14.705 32.0668C16.0136 30.6568 16.7166 28.8861 16.8104 27.0885L16.9031 27.0891L17.0578 27.0902C17.1646 27.0908 17.2599 27.0443 17.3264 26.9712C17.3842 26.9077 17.4208 26.8243 17.4215 26.7318C17.4228 26.5324 17.2622 26.3699 17.0627 26.3684L16.8601 26.367L16.8152 26.3668C16.8064 26.1355 16.7863 25.9046 16.7572 25.6746C16.6191 24.5803 16.2524 23.5098 15.6578 22.538C15.5761 22.4043 15.4901 22.2727 15.3998 22.1431L14.9038 22.6557Z" fill="#61341F"/>
<path d="M10.3068 23.2074L12.9799 20.7062C10.1717 18.7725 6.2974 19.036 3.77922 21.5165C1.12386 24.1322 0.915441 28.2883 3.17065 31.1473L4.37731 29.3451C4.47996 29.1917 4.69756 29.1711 4.82724 29.3025L5.39728 29.8797L5.67525 30.1612L6.24529 30.7385C6.35312 30.8478 6.35351 31.0154 6.26197 31.1268C7.15394 31.4543 8.30579 31.7903 9.26848 31.5806C10.9928 31.2052 11.3339 30.1701 11.7889 30.607C11.963 30.7741 12.0425 31.0173 12.0221 31.2591C11.9803 31.7562 11.0299 33.0183 9.87007 33.2451C8.36823 33.539 6.85567 32.8942 5.55243 31.6049L4.38558 32.3612C7.21484 34.592 11.3296 34.4222 13.9622 31.8288C16.479 29.3496 16.7973 25.4866 14.9035 22.6557L12.3595 25.2864L10.3068 23.2074ZM9.33597 21.1718C9.56391 20.9194 9.95346 20.8994 10.2061 21.1272C10.4587 21.3549 10.4788 21.7439 10.2508 21.9963C10.0229 22.2486 9.63334 22.2686 9.3807 22.0409C9.12794 21.8133 9.10803 21.4242 9.33597 21.1718ZM6.538 20.5772C6.99388 20.0726 7.77298 20.0326 8.27825 20.4879C8.78351 20.9432 8.82359 21.7213 8.36772 22.226C7.91184 22.7306 7.13274 22.7707 6.62747 22.3154C6.12221 21.86 6.08213 21.0819 6.538 20.5772ZM5.23062 22.4016C5.45869 22.1493 5.84811 22.1293 6.10075 22.3569C6.35338 22.5846 6.37342 22.9737 6.14548 23.226C5.91754 23.4785 5.52799 23.4983 5.27536 23.2707C5.02286 23.043 5.00281 22.6539 5.23062 22.4016ZM10.4486 29.8599C10.396 30.0512 10.1791 30.1838 9.98475 30.123C9.51103 29.9747 9.04972 29.7795 8.6144 29.5406C7.08309 28.7002 5.88225 27.3337 5.22985 25.7184C5.15318 25.5286 5.31415 25.3041 5.49334 25.2549C5.70577 25.1966 5.88108 25.3294 5.95736 25.518C5.98904 25.5965 5.97753 25.5696 6.00662 25.6357C6.0286 25.6857 6.05123 25.7354 6.07437 25.785C6.12363 25.89 6.17548 25.9938 6.23004 26.0962C6.33256 26.2889 6.4444 26.4769 6.56451 26.6591C7.40709 27.9371 8.72352 28.9389 10.1851 29.3963C10.3802 29.4574 10.5042 29.6573 10.4486 29.8599Z" fill="#EDD9AD"/>
<path d="M10.1851 29.3965C8.72347 28.9391 7.40691 27.9373 6.56446 26.6593C6.44422 26.4769 6.33251 26.289 6.22999 26.0964C6.17543 25.994 6.12358 25.8901 6.07432 25.7852C6.05118 25.7357 6.02855 25.686 6.00657 25.6359C5.97748 25.5696 5.98899 25.5966 5.95731 25.5181C5.88116 25.3296 5.70584 25.1967 5.49329 25.2551C5.3141 25.3043 5.15313 25.5286 5.2298 25.7185C5.8822 27.3338 7.08304 28.7003 8.61435 29.5407C9.04954 29.7795 9.51085 29.9749 9.9847 30.1231C10.179 30.1839 10.396 30.0513 10.4486 29.8601C10.5042 29.6573 10.3802 29.4574 10.1851 29.3965Z" fill="#693B25"/>
<path d="M30.182 6.89641L30.1828 6.89718C30.3106 6.72944 30.4412 6.60159 30.5711 6.50591C30.6576 6.44212 30.744 6.39253 30.8289 6.3547C30.9138 6.31686 30.9973 6.2909 31.0784 6.27424C31.4431 6.19947 31.7584 6.31454 31.9284 6.39977C31.9503 6.41074 31.9732 6.4181 31.9963 6.42198C32.0661 6.43373 32.1394 6.41474 32.1962 6.36852L32.7443 5.92262L32.9571 5.74945L34.3639 4.60495L34.5778 4.43088L35.1968 3.92739C35.2289 3.90118 35.2521 3.86825 35.2679 3.83235C35.3029 3.75229 35.2964 3.65711 35.2399 3.58364C35.2399 3.58364 34.608 3.11786 34.7642 2.41951C34.7771 2.36179 34.7233 2.31169 34.6676 2.3317C34.526 2.38245 34.2908 2.44017 34.0352 2.39433C33.7704 2.34668 33.5678 2.14162 33.524 1.87651C33.4816 1.62057 33.5427 1.38658 33.5954 1.24583C33.616 1.19056 33.5667 1.13606 33.5087 1.1482C32.8075 1.2945 32.3498 0.656975 32.3498 0.656975C32.2445 0.573813 32.0912 0.592674 32.005 0.695335L31.4925 1.30652L31.3152 1.51791L30.1499 2.90712L29.9737 3.11734L29.5196 3.65854C29.456 3.73447 29.4433 3.83984 29.4864 3.92907C29.4951 3.94715 29.504 3.96665 29.5132 3.9877C29.5324 4.03263 29.5518 4.08416 29.5689 4.14124C29.5775 4.16991 29.5856 4.19973 29.5927 4.23098C29.607 4.29335 29.6179 4.36076 29.6231 4.43217C29.6485 4.78897 29.5285 5.24416 28.9626 5.6619L29.0085 5.70839L30.1622 6.87665L30.182 6.89641ZM32.3222 2.6686C32.5751 2.41938 32.9824 2.42222 33.2319 2.67481C33.4813 2.92739 33.4786 3.33416 33.2256 3.58338C32.9727 3.83248 32.5654 3.82964 32.316 3.57705C32.0664 3.32447 32.0692 2.9177 32.3222 2.6686ZM30.7401 4.22698C30.9931 3.97789 31.4003 3.98059 31.6498 4.2333C31.8992 4.48589 31.8964 4.89266 31.6436 5.14176C31.3906 5.39098 30.9835 5.38814 30.7339 5.13555C30.4844 4.88297 30.4872 4.47621 30.7401 4.22698Z" fill="#61341F"/>
<path d="M33.2255 3.58338C33.4785 3.33415 33.4812 2.92738 33.2318 2.6748C32.9824 2.42222 32.5752 2.41937 32.3221 2.6686C32.0693 2.91769 32.0664 3.32446 32.3159 3.57718C32.5653 3.82976 32.9727 3.83248 33.2255 3.58338Z" fill="#EDD9AD"/>
<path d="M31.6437 5.14175C31.8966 4.89265 31.8994 4.48588 31.6499 4.23329C31.4004 3.98058 30.9933 3.97788 30.7402 4.22697C30.4873 4.47607 30.4845 4.88283 30.734 5.13554C30.9834 5.38825 31.3907 5.39097 31.6437 5.14175Z" fill="#EDD9AD"/>
<path d="M27.7793 8.79712C27.9631 8.61594 27.9652 8.3201 27.7838 8.13634C27.6024 7.95272 27.3062 7.95052 27.1222 8.13182C26.9383 8.31299 26.9362 8.60884 27.1177 8.79259C27.2991 8.97635 27.5953 8.97842 27.7793 8.79712Z" fill="#61341F"/>
<path d="M22.7834 13.7185C22.9674 13.5373 22.9695 13.2415 22.7879 13.0578C22.6065 12.8741 22.3103 12.872 22.1263 13.0532C21.9424 13.2344 21.9404 13.5302 22.1218 13.714C22.3032 13.8977 22.5994 13.8998 22.7834 13.7185Z" fill="#61341F"/>
<path d="M17.7877 18.64C17.9715 18.4588 17.9736 18.163 17.7922 17.9792C17.6108 17.7955 17.3146 17.7934 17.1306 17.9747C16.9466 18.1559 16.9447 18.4517 17.1261 18.6355C17.3075 18.8191 17.6037 18.8211 17.7877 18.64Z" fill="#61341F"/>
<path d="M20.0064 14.7363L19.6733 15.0644L20.741 16.1456L21.0741 15.8175L20.0064 14.7363Z" fill="#A65A35"/>
<path d="M24.7227 10.0283L24.3896 10.3564L25.4572 11.4376L25.7903 11.1095L24.7227 10.0283Z" fill="#A65A35"/>
<path d="M13.097 21.4157L12.7639 21.7437L13.8316 22.825L14.1646 22.4969L13.097 21.4157Z" fill="#A65A35"/>
<path d="M9.87025 33.2451C11.0301 33.0182 11.9806 31.7562 12.0223 31.2591C12.0427 31.0173 11.9632 30.774 11.789 30.6069C11.3341 30.1701 10.993 31.2052 9.26866 31.5806C8.30584 31.7902 7.15412 31.4543 6.26215 31.1268C6.24366 31.1494 6.22272 31.1705 6.1966 31.1874L5.55273 31.6048C6.85585 32.8942 8.36841 33.5389 9.87025 33.2451Z" fill="#FBE7BC"/>
<path d="M2.67175 32.5649L2.94972 32.8464L3.06595 32.9543C3.16383 33.0451 3.31096 33.0579 3.42305 32.9852L3.76813 32.7615L4.38574 32.3611L5.55259 31.6048L6.19645 31.1874C6.22257 31.1705 6.24351 31.1494 6.262 31.1268C6.35354 31.0154 6.35315 30.8478 6.24532 30.7385L5.67528 30.1612L5.39731 29.8797L4.82727 29.3025C4.69759 29.1711 4.48 29.1917 4.37734 29.3451L3.17068 31.1473L2.76393 31.7545L2.53923 32.0902C2.52565 32.1107 2.51569 32.1325 2.50781 32.1549C2.47665 32.2427 2.48893 32.3404 2.54297 32.418C2.54996 32.428 2.55694 32.4381 2.56521 32.4472L2.67175 32.5649Z" fill="#301910"/>
<path d="M10.2508 21.9963C10.4787 21.7439 10.4587 21.3549 10.206 21.1272C9.9534 20.8994 9.56385 20.9194 9.33591 21.1718C9.10797 21.4242 9.12801 21.8133 9.38065 22.041C9.63328 22.2686 10.0228 22.2486 10.2508 21.9963Z" fill="#FBE7BC"/>
<path d="M6.14554 23.226C6.37348 22.9737 6.35344 22.5846 6.10081 22.3569C5.84818 22.1293 5.45875 22.1493 5.23069 22.4016C5.00275 22.6539 5.02279 23.0431 5.27542 23.2707C5.52805 23.4983 5.9176 23.4783 6.14554 23.226Z" fill="#FBE7BC"/>
<path d="M6.6275 22.3154C7.13277 22.7707 7.912 22.7307 8.36775 22.226C8.82362 21.7214 8.78354 20.9431 8.27828 20.4879C7.77301 20.0326 6.99391 20.0726 6.53803 20.5772C6.08216 21.0819 6.12224 21.86 6.6275 22.3154Z" fill="#FBE7BC"/>
<defs>
<linearGradient id="paint0_linear_14_16861" x1="0" y1="18" x2="36" y2="18" gradientUnits="userSpaceOnUse">
<stop stop-color="#83247C"/>
<stop offset="1" stop-color="#363787"/>
</linearGradient>
</defs>
</svg>
