<svg width="36" height="36" viewBox="0 0 36 36" fill="none" xmlns="http://www.w3.org/2000/svg">
<path d="M29.0742 3.68565C28.8244 3.58009 28.5513 3.52464 28.2876 3.53502C27.3963 3.56983 26.6063 4.07801 25.8001 4.45835C23.9706 5.32129 21.8516 5.5595 19.8752 5.12473C19.3864 5.01715 18.9115 4.86932 18.4466 4.69427C17.0922 4.1842 15.8275 3.42757 14.5869 2.64879C14.5728 2.63993 14.5585 2.63108 14.5444 2.62222C14.2628 2.44528 13.9824 2.26732 13.7025 2.09101C12.8926 1.58081 12.0215 1.06403 11.0635 1.05935C10.6011 1.05694 10.1237 1.22628 9.758 1.50866V0.732418H9.75102C9.75546 0.714445 9.758 0.696095 9.758 0.677616C9.758 0.373851 9.13014 0.127663 8.35576 0.127663C7.58138 0.127663 6.9534 0.373851 6.9534 0.677616C6.9534 0.696095 6.95594 0.714445 6.96038 0.732418H6.9534V7.2307C6.9534 7.4179 7.19248 7.58308 7.557 7.68244V8.24654C7.19248 8.32983 6.9534 8.46818 6.9534 8.62512C6.9534 8.78207 7.19248 8.9204 7.557 9.00368V29.2184C7.19248 29.3016 6.9534 29.4401 6.9534 29.5969C6.9534 29.7539 7.19248 29.8923 7.557 29.9755V30.5322C7.19248 30.6154 6.9534 30.7538 6.9534 30.9107C6.9534 31.0677 7.19248 31.2061 7.557 31.2893V32.44H6.5151V33.2816H6.00024V35.8722H18.7537V33.2816H18.2388V32.44H17.1355L19.8205 26.9204L29.543 6.93365C30.4759 5.44242 29.8077 3.99599 29.0742 3.68565ZM9.15439 32.4402V31.2894C9.51879 31.2061 9.75787 31.0677 9.75787 30.9108C9.75787 30.7539 9.51879 30.6154 9.15439 30.5323V29.9756C9.51879 29.8925 9.75787 29.754 9.75787 29.5971C9.75787 29.4401 9.51879 29.3016 9.15439 29.2185V9.00381C9.51879 8.92053 9.75787 8.78206 9.75787 8.62525C9.75787 8.4683 9.51879 8.32984 9.15439 8.24668V7.68256C9.51879 7.5832 9.75787 7.41804 9.75787 7.23084V5.21713C9.82262 5.16992 9.89068 5.12638 9.96153 5.08714C10.1805 4.96602 10.4255 4.88412 10.6729 4.85273L10.4392 32.4407H9.15439V32.4402ZM10.5375 32.4402L10.7712 4.84274C10.8164 4.83957 10.8614 4.83754 10.9064 4.83767C11.2918 4.83957 11.6615 4.93285 12.0179 5.07613L11.7861 32.44L10.5375 32.4402ZM12.1077 32.4402H11.8842L12.1157 5.11726C12.5292 5.29509 12.9248 5.53595 13.3054 5.77567C13.3231 5.78681 13.3408 5.79808 13.3584 5.80921L13.1467 30.8202L12.1077 32.4402ZM13.2461 30.665L13.4561 5.87086C13.8677 6.13083 14.2807 6.39308 14.6981 6.64837L14.5113 28.692L13.2461 30.665ZM14.611 28.5368L14.7958 6.7076C15.2048 6.95606 15.618 7.19679 16.0385 7.42018L15.8763 26.5636L14.611 28.5368ZM15.9758 26.4084L16.1362 7.47094C16.5431 7.6837 16.9568 7.88001 17.3799 8.05049L17.241 24.4353L15.9758 26.4084ZM17.3407 24.2802L17.4778 8.08923C17.8833 8.24833 18.2979 8.38223 18.723 8.48615L18.6059 22.3071L17.3407 24.2802ZM19.9708 20.1787L18.7055 22.1518L18.821 8.51006C18.853 8.51753 18.8846 8.5264 18.9167 8.53349C19.2904 8.61576 19.6768 8.68295 20.0677 8.72902L19.9708 20.1787ZM21.3356 18.0504L20.0702 20.0235L20.1658 8.74004C20.5805 8.78485 20.9996 8.80459 21.4139 8.79143L21.3356 18.0504ZM22.7005 15.9222L21.4351 17.8953L21.5123 8.78775C21.9384 8.76864 22.3585 8.71371 22.7625 8.6136L22.7005 15.9222ZM24.0653 13.7939L22.8001 15.767L22.8607 8.58778C23.3037 8.46906 23.726 8.29451 24.1139 8.05201L24.0653 13.7939ZM27.6855 8.14871L24.1648 13.6388L24.2127 7.98835C24.2428 7.96823 24.273 7.94861 24.3026 7.92773C26.4823 6.39207 27.796 6.87518 27.8053 7.72483C27.8069 7.8738 27.7594 8.01923 27.6855 8.14871Z" fill="#CC6D26"/>
<path d="M10.5375 32.4402L10.7712 4.84273C10.7385 4.84513 10.7057 4.84804 10.673 4.85221L10.4392 32.4402H10.5375Z" fill="#BD6522"/>
<path d="M11.8842 32.4402L12.1157 5.11725C12.0832 5.10332 12.0507 5.08941 12.0179 5.07612L11.7861 32.44L11.8842 32.4402Z" fill="#BD6522"/>
<path d="M13.2461 30.665L13.4561 5.87086C13.4236 5.85035 13.391 5.82972 13.3585 5.80921L13.1467 30.8202L13.2461 30.665Z" fill="#BD6522"/>
<path d="M14.611 28.5368L14.7959 6.7076C14.7633 6.68773 14.7308 6.66811 14.6981 6.64836L14.5114 28.692L14.611 28.5368Z" fill="#BD6522"/>
<path d="M15.9758 26.4084L16.1362 7.47094C16.1037 7.45385 16.071 7.43739 16.0385 7.42018L15.8763 26.5636L15.9758 26.4084Z" fill="#BD6522"/>
<path d="M17.3407 24.2802L17.4778 8.08923C17.4452 8.07644 17.4126 8.06353 17.3799 8.05049L17.241 24.4353L17.3407 24.2802Z" fill="#BD6522"/>
<path d="M18.7054 22.1518L18.821 8.51005C18.7882 8.50245 18.7557 8.4941 18.723 8.48613L18.6059 22.3071L18.7054 22.1518Z" fill="#BD6522"/>
<path d="M20.0702 20.0235L20.1659 8.74004C20.1331 8.73649 20.1005 8.73269 20.0677 8.7289L19.9707 20.1787L20.0702 20.0235Z" fill="#BD6522"/>
<path d="M21.4352 17.8953L21.5124 8.78775C21.4797 8.78914 21.447 8.79041 21.4141 8.79143L21.3356 18.0504L21.4352 17.8953Z" fill="#BD6522"/>
<path d="M22.8 15.767L22.8607 8.58777C22.828 8.5965 22.7954 8.60536 22.7623 8.61359L22.7004 15.9222L22.8 15.767Z" fill="#BD6522"/>
<path d="M24.1649 13.6388L24.2127 7.98836C24.1801 8.01013 24.1472 8.03138 24.1141 8.05201L24.0653 13.7939L24.1649 13.6388Z" fill="#BD6522"/>
<path d="M12.9185 32.4402H17.1356L19.8206 26.9205L18.8185 28.239C17.3154 30.2162 15.2521 31.6733 12.9185 32.4402Z" fill="#BD6522"/>
<path d="M9.96153 5.08676C10.0136 4.15331 10.3888 2.47362 12.4596 2.88636C14.8873 3.37048 17.0097 5.29193 18.4467 4.6944L18.4464 4.69427C17.0921 4.1842 15.8273 3.42757 14.5867 2.64879C14.5726 2.63993 14.5584 2.63108 14.5443 2.62222C14.2627 2.44527 13.9822 2.26732 13.7024 2.09101C12.8925 1.58081 12.0213 1.06403 11.0634 1.05934C10.6009 1.05694 10.1235 1.22628 9.75787 1.50865V5.21688C9.8225 5.16941 9.89056 5.12599 9.96153 5.08676Z" fill="#BD6522"/>
<path d="M9.53311 0.76558C9.53311 0.510544 9.00594 0.303864 8.35561 0.303864C7.70515 0.303864 7.17798 0.510544 7.17798 0.76558C7.17798 1.02062 7.70515 1.22731 8.35561 1.22731C9.00581 1.22731 9.53311 1.02062 9.53311 0.76558Z" fill="#9E5218"/>
<path d="M12.1077 32.4402H11.8843H11.7861H10.5375H10.4392H9.15444H7.55679H6.51489V33.2817H18.239V32.4402H17.1355H12.9185H12.1077Z" fill="#884717"/>
<path d="M6 33.2817V35.8723H18.7537V33.2817H18.239H6.51486H6Z" fill="#A1541A"/>
<path d="M15.4628 29.0114C15.1936 29.0862 15.0363 29.3644 15.1115 29.6328C15.1866 29.9011 15.4656 30.0578 15.7349 29.983C16.0039 29.908 16.1614 29.63 16.0862 29.3615C16.0111 29.0934 15.732 28.9366 15.4628 29.0114Z" fill="#DE7E36"/>
<path d="M18.4776 25.4403C18.2084 25.5152 18.0511 25.7933 18.1263 26.0616C18.2013 26.3299 18.4804 26.4868 18.7495 26.4118C19.0187 26.337 19.176 26.0588 19.1009 25.7905C19.0257 25.5222 18.7466 25.3654 18.4776 25.4403Z" fill="#DE7E36"/>
<path d="M17.1654 26.9059C16.627 27.0557 16.3124 27.6121 16.4626 28.1486C16.6128 28.6852 17.171 28.9989 17.7092 28.8492C18.2475 28.6994 18.5621 28.143 18.4119 27.6065C18.2619 27.0697 17.7037 26.7561 17.1654 26.9059Z" fill="#DE7E36"/>
<path d="M9.25979 6.871C9.27642 6.77937 9.23554 6.73203 9.15428 6.68976C8.98947 6.60407 8.6558 6.53952 8.2787 6.17083C7.73769 5.64202 7.65897 4.50758 7.55676 4.31343C7.52045 4.24445 7.48122 4.29293 7.41735 4.53063C7.21877 5.26903 7.25178 5.95515 7.55676 6.47611C7.62621 6.59483 7.70976 6.70519 7.80816 6.80543C8.17751 7.1821 8.8799 7.22565 9.07479 7.1187C9.10425 7.10263 9.13028 7.08174 9.15428 7.05896C9.2076 7.00833 9.24658 6.94416 9.25979 6.871Z" fill="#DE7E36"/>
<path d="M10.7758 3.50883C10.5682 3.50883 10.4 3.67653 10.4 3.88347C10.4 4.09028 10.5682 4.2581 10.7758 4.2581C10.9834 4.2581 11.1517 4.09028 11.1517 3.88347C11.1517 3.67653 10.9834 3.50883 10.7758 3.50883Z" fill="#E39961"/>
<path d="M13.4635 4.42771C13.256 4.42771 13.0876 4.59543 13.0876 4.80237C13.0876 5.00931 13.256 5.177 13.4635 5.177C13.6711 5.177 13.8393 5.00931 13.8393 4.80237C13.8394 4.59543 13.6712 4.42771 13.4635 4.42771Z" fill="#E39961"/>
<path d="M16.1463 6.05679C15.9388 6.05679 15.7704 6.22449 15.7704 6.43143C15.7704 6.63837 15.9388 6.80607 16.1463 6.80607C16.3539 6.80607 16.5221 6.63837 16.5221 6.43143C16.5221 6.22449 16.354 6.05679 16.1463 6.05679Z" fill="#E39961"/>
<path d="M18.8322 7.06502C18.6246 7.06502 18.4564 7.23272 18.4564 7.43966C18.4564 7.6466 18.6246 7.81431 18.8322 7.81431C19.0398 7.81431 19.2081 7.6466 19.2081 7.43966C19.2081 7.23272 19.0398 7.06502 18.8322 7.06502Z" fill="#E39961"/>
<path d="M21.4157 7.53751C21.2082 7.53751 21.0399 7.7052 21.0399 7.91214C21.0399 8.11908 21.2082 8.28692 21.4157 8.28692C21.6233 8.28692 21.7917 8.11908 21.7917 7.91214C21.7916 7.7052 21.6233 7.53751 21.4157 7.53751Z" fill="#E39961"/>
<path d="M24.0315 6.43143C23.8239 6.43143 23.6556 6.59925 23.6556 6.80607C23.6556 7.01301 23.8239 7.18072 24.0315 7.18072C24.2391 7.18072 24.4074 7.01301 24.4074 6.80607C24.4074 6.59925 24.2391 6.43143 24.0315 6.43143Z" fill="#E39961"/>
<path d="M27.9352 4.45341C27.3873 4.45341 26.9431 4.89616 26.9431 5.44243C26.9431 5.98857 27.3872 6.43143 27.9352 6.43143C28.4832 6.43143 28.9273 5.98857 28.9273 5.44243C28.9274 4.89616 28.4832 4.45341 27.9352 4.45341Z" fill="#DE7E36"/>
</svg>
