<svg width="66" height="66" viewBox="0 0 66 66" fill="none" xmlns="http://www.w3.org/2000/svg">
<circle cx="33" cy="33" r="27.5" stroke="white" stroke-width="1.5"/>
<path d="M22 26.125C22 24.8437 22 24.203 22.2093 23.6976C22.4884 23.0238 23.0238 22.4884 23.6976 22.2093C24.203 22 24.8437 22 26.125 22C27.4063 22 28.047 22 28.5524 22.2093C29.2262 22.4884 29.7616 23.0238 30.0407 23.6976C30.25 24.203 30.25 24.8437 30.25 26.125V39.875C30.25 41.1563 30.25 41.797 30.0407 42.3024C29.7616 42.9762 29.2262 43.5116 28.5524 43.7907C28.047 44 27.4063 44 26.125 44C24.8437 44 24.203 44 23.6976 43.7907C23.0238 43.5116 22.4884 42.9762 22.2093 42.3024C22 41.797 22 41.1563 22 39.875V26.125Z" stroke="white" stroke-width="1.5"/>
<path d="M35.75 26.125C35.75 24.8437 35.75 24.203 35.9593 23.6976C36.2384 23.0238 36.7738 22.4884 37.4476 22.2093C37.953 22 38.5937 22 39.875 22C41.1563 22 41.797 22 42.3024 22.2093C42.9762 22.4884 43.5116 23.0238 43.7907 23.6976C44 24.203 44 24.8437 44 26.125V39.875C44 41.1563 44 41.797 43.7907 42.3024C43.5116 42.9762 42.9762 43.5116 42.3024 43.7907C41.797 44 41.1563 44 39.875 44C38.5937 44 37.953 44 37.4476 43.7907C36.7738 43.5116 36.2384 42.9762 35.9593 42.3024C35.75 41.797 35.75 41.1563 35.75 39.875V26.125Z" stroke="white" stroke-width="1.5"/>
</svg>
